<?xml version="1.0" encoding="utf-8"?>
<!-- Generator: Adobe Illustrator 27.9.0, SVG Export Plug-In . SVG Version: 6.00 Build 0)  -->
<svg version="1.1" id="Camada_1" xmlns="http://www.w3.org/2000/svg" xmlns:xlink="http://www.w3.org/1999/xlink" x="0px" y="0px"
	 viewBox="0 0 1400 680" style="enable-background:new 0 0 1400 680;" xml:space="preserve"> 
<style type="text/css">
	.st0{fill:none;stroke:#53565A;stroke-miterlimit:10;}
	.st1{fill-rule:evenodd;clip-rule:evenodd;fill:none;stroke:#53565A;stroke-miterlimit:10;}
	.st2{fill:#FFFFFF;}
	.st3{fill:#FFFFFF;stroke:#53565A;stroke-miterlimit:10;}
	.st4{fill:#53565A;}
	.st5{fill:none;stroke:#53565A;stroke-width:4;stroke-linecap:round;stroke-miterlimit:10;}
	.st6{fill:none;stroke:#53565A;stroke-width:3;stroke-miterlimit:10;}
</style>
<g>
	<g>
		<path class="st4" d="M1258.42,277.45h-1v-141.2c0-3.05-2.48-5.52-5.52-5.52H140.98c-3.05,0-5.52,2.48-5.52,5.52v141.2h-1v-141.2
			c0-3.6,2.93-6.52,6.52-6.52H1251.9c3.6,0,6.52,2.93,6.52,6.52V277.45z"/>
	</g>
	<g>
		<rect x="609.74" y="106.86" class="st2" width="173.4" height="60.44"/>
	</g>
	<g>
		<rect x="338.44" y="106.86" class="st2" width="67.8" height="60.44"/>
	</g>
	<g>
		<rect x="984.93" y="106.86" class="st2" width="67.8" height="60.44"/>
	</g>
	<g>
		<rect x="265.95" y="570.83" class="st4" width="946.35" height="1"/>
	</g>
	<g>
		<path class="st2" d="M473.31,587.46H307.78c-8.9,0-16.12-7.22-16.12-16.12l0,0c0-8.9,7.22-16.12,16.12-16.12h165.53
			c8.9,0,16.12,7.22,16.12,16.12l0,0C489.43,580.24,482.22,587.46,473.31,587.46z"/>
		<path class="st4" d="M473.31,587.96H307.78c-9.17,0-16.62-7.46-16.62-16.62c0-9.17,7.46-16.62,16.62-16.62h165.53
			c9.17,0,16.62,7.46,16.62,16.62C489.93,580.5,482.48,587.96,473.31,587.96z M307.78,555.71c-8.61,0-15.62,7.01-15.62,15.62
			c0,8.62,7.01,15.62,15.62,15.62h165.53c8.61,0,15.62-7.01,15.62-15.62c0-8.61-7.01-15.62-15.62-15.62H307.78z"/>
	</g>
	<g>
		<path class="st2" d="M679.41,587.46H513.88c-8.9,0-16.12-7.22-16.12-16.12l0,0c0-8.9,7.22-16.12,16.12-16.12h165.53
			c8.9,0,16.12,7.22,16.12,16.12l0,0C695.53,580.24,688.32,587.46,679.41,587.46z"/>
		<path class="st4" d="M679.41,587.96H513.88c-9.17,0-16.62-7.46-16.62-16.62c0-9.17,7.46-16.62,16.62-16.62h165.53
			c9.17,0,16.62,7.46,16.62,16.62C696.03,580.5,688.58,587.96,679.41,587.96z M513.88,555.71c-8.61,0-15.62,7.01-15.62,15.62
			c0,8.62,7.01,15.62,15.62,15.62h165.53c8.61,0,15.62-7.01,15.62-15.62c0-8.61-7.01-15.62-15.62-15.62H513.88z"/>
	</g>
	<g>
		<path class="st2" d="M885.51,587.46H719.98c-8.9,0-16.12-7.22-16.12-16.12l0,0c0-8.9,7.22-16.12,16.12-16.12h165.53
			c8.9,0,16.12,7.22,16.12,16.12l0,0C901.63,580.24,894.42,587.46,885.51,587.46z"/>
		<path class="st4" d="M885.51,587.96H719.98c-9.17,0-16.62-7.46-16.62-16.62c0-9.17,7.46-16.62,16.62-16.62h165.53
			c9.17,0,16.62,7.46,16.62,16.62C902.13,580.5,894.68,587.96,885.51,587.96z M719.98,555.71c-8.62,0-15.62,7.01-15.62,15.62
			c0,8.62,7.01,15.62,15.62,15.62h165.53c8.62,0,15.62-7.01,15.62-15.62c0-8.61-7.01-15.62-15.62-15.62H719.98z"/>
	</g>
	<g>
		<path class="st2" d="M1091.61,587.46H926.08c-8.9,0-16.12-7.22-16.12-16.12l0,0c0-8.9,7.22-16.12,16.12-16.12h165.53
			c8.9,0,16.12,7.22,16.12,16.12l0,0C1107.73,580.24,1100.52,587.46,1091.61,587.46z"/>
		<path class="st4" d="M1091.61,587.96H926.08c-9.17,0-16.62-7.46-16.62-16.62c0-9.17,7.46-16.62,16.62-16.62h165.54
			c9.17,0,16.62,7.46,16.62,16.62C1108.23,580.5,1100.78,587.96,1091.61,587.96z M926.08,555.71c-8.61,0-15.62,7.01-15.62,15.62
			c0,8.62,7.01,15.62,15.62,15.62h165.54c8.61,0,15.62-7.01,15.62-15.62c0-8.61-7.01-15.62-15.62-15.62H926.08z"/>
	</g>
	<g>
		<path class="st2" d="M1297.71,587.46h-165.53c-8.9,0-16.12-7.22-16.12-16.12l0,0c0-8.9,7.22-16.12,16.12-16.12h165.53
			c8.9,0,16.12,7.22,16.12,16.12l0,0C1313.83,580.24,1306.62,587.46,1297.71,587.46z"/>
		<path class="st4" d="M1297.71,587.96h-165.53c-9.17,0-16.62-7.46-16.62-16.62c0-9.17,7.46-16.62,16.62-16.62h165.53
			c9.17,0,16.62,7.46,16.62,16.62C1314.33,580.5,1306.88,587.96,1297.71,587.96z M1132.18,555.71c-8.62,0-15.62,7.01-15.62,15.62
			c0,8.62,7.01,15.62,15.62,15.62h165.53c8.62,0,15.62-7.01,15.62-15.62c0-8.61-7.01-15.62-15.62-15.62H1132.18z"/>
	</g>
	<g>
		<path class="st4" d="M1337.25,626.76H68.91c-3.6,0-6.52-2.93-6.52-6.52v-99.45c0-3.6,2.93-6.52,6.52-6.52h1268.34
			c3.6,0,6.52,2.93,6.52,6.52v99.45C1343.78,623.83,1340.85,626.76,1337.25,626.76z M68.91,515.26c-3.05,0-5.52,2.48-5.52,5.52
			v99.45c0,3.05,2.48,5.52,5.52,5.52h1268.34c3.05,0,5.52-2.48,5.52-5.52v-99.45c0-3.05-2.48-5.52-5.52-5.52H68.91z"/>
	</g>
	<g>
		<path class="st4" d="M899.23,436.82H755.05c-3.6,0-6.52-2.93-6.52-6.52v-99.45c0-3.6,2.93-6.52,6.52-6.52h144.18
			c3.6,0,6.52,2.93,6.52,6.52v99.45C905.75,433.89,902.83,436.82,899.23,436.82z M755.05,325.31c-3.05,0-5.52,2.48-5.52,5.52v99.45
			c0,3.05,2.48,5.52,5.52,5.52h144.18c3.05,0,5.52-2.48,5.52-5.52v-99.45c0-3.05-2.48-5.52-5.52-5.52H755.05z"/>
	</g>
	<g>
		<g>
			<rect x="223.64" y="381.94" class="st4" width="186.05" height="1"/>
		</g>
		<g>
			<polygon class="st4" points="392.02,400.81 391.31,400.11 408.99,382.44 391.31,364.76 392.02,364.06 410.4,382.44 			"/>
		</g>
	</g>
	<g>
		<g>
			<rect x="538.31" y="381.94" class="st4" width="186.05" height="1"/>
		</g>
		<g>
			<polygon class="st4" points="706.69,400.81 705.98,400.11 723.65,382.44 705.98,364.76 706.69,364.06 725.07,382.44 			"/>
		</g>
	</g>
	<g>
		<g>
			<polygon class="st4" points="134.83,278.4 116.46,260.02 117.16,259.32 134.83,276.99 152.51,259.32 153.21,260.02 			"/>
		</g>
	</g>
	<g>
		<g>
			<polygon class="st4" points="1257.92,278.4 1239.54,260.02 1240.25,259.32 1257.92,276.99 1275.59,259.32 1276.3,260.02 			"/>
		</g>
	</g>
	<g>
		<g>
			<rect x="927.22" y="381.94" class="st4" width="46.72" height="1"/>
		</g>
		<g>
			<polygon class="st4" points="956.27,400.81 955.57,400.11 973.24,382.44 955.57,364.76 956.27,364.06 974.65,382.44 			"/>
		</g>
	</g>
	<g>
		<g>
			<rect x="1105.8" y="381.94" class="st4" width="46.72" height="1"/>
		</g>
		<g>
			<polygon class="st4" points="1134.85,400.81 1134.14,400.11 1151.81,382.44 1134.14,364.76 1134.85,364.06 1153.23,382.44 			"/>
		</g>
	</g>
	<g>
		<g>
			<rect x="1256.6" y="448.92" class="st4" width="1" height="46.72"/>
		</g>
		<g>
			<polygon class="st4" points="1257.1,496.35 1238.72,477.97 1239.43,477.26 1257.1,494.93 1274.77,477.26 1275.48,477.97 			"/>
		</g>
	</g>
	<g>
		<rect x="75.95" y="494.95" class="st2" width="279.03" height="32.69"/>
	</g>
	<g>
		<path class="st2" d="M206.92,436.32H62.75c-3.33,0-6.02-2.7-6.02-6.02v-99.45c0-3.33,2.7-6.02,6.02-6.02h144.18
			c3.33,0,6.02,2.7,6.02,6.02v99.45C212.95,433.62,210.25,436.32,206.92,436.32z"/>
		<path class="st4" d="M206.92,436.82H62.75c-3.6,0-6.52-2.93-6.52-6.52v-99.45c0-3.6,2.93-6.52,6.52-6.52h144.18
			c3.6,0,6.52,2.93,6.52,6.52v99.45C213.45,433.89,210.52,436.82,206.92,436.82z M62.75,325.31c-3.05,0-5.52,2.48-5.52,5.52v99.45
			c0,3.05,2.48,5.52,5.52,5.52h144.18c3.05,0,5.52-2.48,5.52-5.52v-99.45c0-3.05-2.48-5.52-5.52-5.52H62.75z"/>
	</g>
	<g>
		<path class="st2" d="M692.31,204.93l-70.58-70.58c-2.35-2.35-2.35-6.17,0-8.52l70.32-70.32c2.35-2.35,6.17-2.35,8.52,0
			l70.58,70.58c2.35,2.35,2.35,6.17,0,8.52l-70.32,70.32C698.47,207.28,694.66,207.28,692.31,204.93z"/>
		<path class="st4" d="M696.57,207.19c-1.67,0-3.34-0.64-4.61-1.91l-70.58-70.58c-1.23-1.23-1.91-2.87-1.91-4.61
			c0-1.74,0.68-3.38,1.91-4.61l70.32-70.32c1.23-1.23,2.87-1.91,4.61-1.91s3.38,0.68,4.61,1.91l70.58,70.58
			c1.23,1.23,1.91,2.87,1.91,4.61s-0.68,3.38-1.91,4.61l-70.32,70.32C699.91,206.56,698.24,207.19,696.57,207.19z M696.31,54.24
			c-1.48,0-2.86,0.57-3.91,1.62l-70.32,70.32c-2.15,2.15-2.15,5.66,0,7.81l70.58,70.58c2.15,2.16,5.66,2.15,7.81,0l70.32-70.32
			c2.15-2.15,2.15-5.66,0-7.81l-70.58-70.58C699.17,54.82,697.78,54.24,696.31,54.24z"/>
	</g>
	<g>
		<path class="st4" d="M91.3,373.91v13.14h4.05v1.54h-5.68v-14.68H91.3z"/>
		<path class="st4" d="M96.58,384.05c0-2.77,2.05-4.82,4.84-4.82s4.84,2.05,4.84,4.82c0,2.77-2.07,4.8-4.84,4.8
			S96.58,386.82,96.58,384.05z M98.21,384.05c0,2.24,1.58,3.39,3.21,3.39c1.65,0,3.21-1.17,3.21-3.39c0-2.25-1.54-3.41-3.21-3.41
			C99.75,380.64,98.21,381.83,98.21,384.05z"/>
		<path class="st4" d="M115.68,379.45h1.58v8.91c0,0.99,0,2.4-0.88,3.59c-0.68,0.92-1.94,1.69-3.65,1.69
			c-1.56,0-2.64-0.62-3.26-1.23c-0.62-0.62-1.19-1.61-1.19-2.95h1.56c0,0.77,0.31,1.45,0.7,1.89c0.66,0.73,1.5,0.88,2.2,0.88
			c1.12,0,1.89-0.4,2.42-1.28c0.46-0.75,0.51-1.56,0.51-2.33v-1.32c-0.53,0.68-1.52,1.54-3.12,1.54c-1.34,0-2.42-0.53-3.12-1.23
			c-0.62-0.62-1.32-1.76-1.32-3.61c0-1.78,0.66-2.88,1.32-3.54c0.77-0.75,1.89-1.23,3.12-1.23c1.34,0,2.4,0.57,3.12,1.52V379.45z
			 M110.66,381.5c-0.77,0.79-0.92,1.76-0.92,2.51c0,0.79,0.15,1.87,1.03,2.68c0.51,0.46,1.12,0.75,1.96,0.75c0.84,0,1.5-0.26,2-0.77
			c0.62-0.59,1.03-1.56,1.03-2.64s-0.4-2.02-0.97-2.57c-0.51-0.51-1.25-0.81-2.07-0.81C111.76,380.64,111.1,381.06,110.66,381.5z"/>
		<path class="st4" d="M121.04,374.88c0.62,0,1.12,0.51,1.12,1.12s-0.51,1.12-1.12,1.12c-0.62,0-1.12-0.51-1.12-1.12
			S120.43,374.88,121.04,374.88z M121.84,379.45v9.13h-1.58v-9.13H121.84z"/>
		<path class="st4" d="M124.83,379.45h1.58v1.06c0.29-0.37,1.1-1.28,2.62-1.28c1.08,0,2.07,0.44,2.62,1.25
			c0.46,0.68,0.53,1.43,0.53,2.44v5.66h-1.58v-5.61c0-0.55-0.04-1.19-0.42-1.67c-0.31-0.4-0.79-0.66-1.5-0.66
			c-0.55,0-1.14,0.15-1.61,0.7c-0.62,0.73-0.66,1.8-0.66,2.46v4.77h-1.58V379.45z"/>
		<path class="st4" d="M143.35,373.91c1.47,0,2.71,0.18,3.7,1.03c1.08,0.92,1.34,2.22,1.34,3.15c0,2.07-1.3,4.11-4.64,4.11h-1.43
			v6.38h-1.63v-14.68H143.35z M142.32,380.66h1.34c1.94,0,3.1-0.97,3.1-2.66c0-2.33-2.18-2.55-3.23-2.55h-1.21V380.66z"/>
		<path class="st4" d="M156.88,379.45h1.58v9.13h-1.58v-1.28c-0.53,0.68-1.52,1.54-3.12,1.54c-2.31,0-4.44-1.63-4.44-4.84
			c0-3.15,2.11-4.77,4.44-4.77c1.76,0,2.71,0.97,3.12,1.52V379.45z M150.94,384.01c0,1.96,1.1,3.43,2.99,3.43
			c1.94,0,3.04-1.61,3.04-3.41c0-2.35-1.63-3.39-3.04-3.39C152.37,380.64,150.94,381.78,150.94,384.01z"/>
		<path class="st4" d="M168.45,379.45h1.58v8.91c0,0.99,0,2.4-0.88,3.59c-0.68,0.92-1.94,1.69-3.65,1.69
			c-1.56,0-2.64-0.62-3.26-1.23c-0.62-0.62-1.19-1.61-1.19-2.95h1.56c0,0.77,0.31,1.45,0.7,1.89c0.66,0.73,1.5,0.88,2.2,0.88
			c1.12,0,1.89-0.4,2.42-1.28c0.46-0.75,0.51-1.56,0.51-2.33v-1.32c-0.53,0.68-1.52,1.54-3.12,1.54c-1.34,0-2.42-0.53-3.12-1.23
			c-0.62-0.62-1.32-1.76-1.32-3.61c0-1.78,0.66-2.88,1.32-3.54c0.77-0.75,1.89-1.23,3.12-1.23c1.34,0,2.4,0.57,3.12,1.52V379.45z
			 M163.44,381.5c-0.77,0.79-0.92,1.76-0.92,2.51c0,0.79,0.15,1.87,1.03,2.68c0.51,0.46,1.12,0.75,1.96,0.75c0.84,0,1.5-0.26,2-0.77
			c0.62-0.59,1.03-1.56,1.03-2.64s-0.4-2.02-0.97-2.57c-0.51-0.51-1.25-0.81-2.07-0.81C164.54,380.64,163.88,381.06,163.44,381.5z"
			/>
		<path class="st4" d="M181.13,386.25c-0.26,0.51-0.66,1.06-1.12,1.47c-0.84,0.75-1.87,1.12-3.04,1.12c-2.2,0-4.51-1.39-4.51-4.77
			c0-2.73,1.67-4.84,4.42-4.84c1.78,0,2.9,0.88,3.45,1.67c0.57,0.81,0.9,2.22,0.86,3.43h-7.11c0.02,1.89,1.32,3.1,2.9,3.1
			c0.75,0,1.34-0.22,1.87-0.66c0.42-0.35,0.75-0.81,0.95-1.25L181.13,386.25z M179.56,383.02c-0.26-1.43-1.34-2.38-2.68-2.38
			s-2.44,1.01-2.68,2.38H179.56z"/>
	</g>
	<g>
		<path class="st4" d="M654,122.2v16.04h-1.58V122.2H654z"/>
		<path class="st4" d="M656.42,133.7c0-2.77,2.05-4.82,4.84-4.82s4.84,2.05,4.84,4.82c0,2.77-2.07,4.8-4.84,4.8
			S656.42,136.48,656.42,133.7z M658.05,133.7c0,2.24,1.58,3.39,3.21,3.39c1.65,0,3.21-1.17,3.21-3.39c0-2.25-1.54-3.41-3.21-3.41
			C659.59,130.29,658.05,131.48,658.05,133.7z"/>
		<path class="st4" d="M675.52,129.11h1.58v8.91c0,0.99,0,2.4-0.88,3.59c-0.68,0.92-1.94,1.69-3.65,1.69
			c-1.56,0-2.64-0.62-3.26-1.23c-0.62-0.62-1.19-1.61-1.19-2.95h1.56c0,0.77,0.31,1.45,0.7,1.89c0.66,0.73,1.5,0.88,2.2,0.88
			c1.12,0,1.89-0.4,2.42-1.28c0.46-0.75,0.51-1.56,0.51-2.33v-1.32c-0.53,0.68-1.52,1.54-3.12,1.54c-1.34,0-2.42-0.53-3.12-1.23
			c-0.62-0.62-1.32-1.76-1.32-3.61c0-1.78,0.66-2.88,1.32-3.54c0.77-0.75,1.89-1.23,3.12-1.23c1.34,0,2.4,0.57,3.12,1.52V129.11z
			 M670.5,131.15c-0.77,0.79-0.92,1.76-0.92,2.51c0,0.79,0.15,1.87,1.03,2.68c0.51,0.46,1.12,0.75,1.96,0.75c0.84,0,1.5-0.26,2-0.77
			c0.62-0.59,1.03-1.56,1.03-2.64s-0.4-2.02-0.97-2.57c-0.51-0.51-1.25-0.81-2.07-0.81C671.6,130.29,670.94,130.71,670.5,131.15z"/>
		<path class="st4" d="M687.09,129.11h1.58v8.91c0,0.99,0,2.4-0.88,3.59c-0.68,0.92-1.94,1.69-3.65,1.69
			c-1.56,0-2.64-0.62-3.26-1.23c-0.62-0.62-1.19-1.61-1.19-2.95h1.56c0,0.77,0.31,1.45,0.7,1.89c0.66,0.73,1.5,0.88,2.2,0.88
			c1.12,0,1.89-0.4,2.42-1.28c0.46-0.75,0.51-1.56,0.51-2.33v-1.32c-0.53,0.68-1.52,1.54-3.12,1.54c-1.34,0-2.42-0.53-3.12-1.23
			c-0.62-0.62-1.32-1.76-1.32-3.61c0-1.78,0.66-2.88,1.32-3.54c0.77-0.75,1.89-1.23,3.12-1.23c1.34,0,2.4,0.57,3.12,1.52V129.11z
			 M682.07,131.15c-0.77,0.79-0.92,1.76-0.92,2.51c0,0.79,0.15,1.87,1.03,2.68c0.51,0.46,1.12,0.75,1.96,0.75
			c0.84,0,1.5-0.26,2-0.77c0.62-0.59,1.03-1.56,1.03-2.64s-0.4-2.02-0.97-2.57c-0.51-0.51-1.25-0.81-2.07-0.81
			C683.17,130.29,682.51,130.71,682.07,131.15z"/>
		<path class="st4" d="M699.76,135.9c-0.26,0.51-0.66,1.06-1.12,1.47c-0.84,0.75-1.87,1.12-3.04,1.12c-2.2,0-4.51-1.39-4.51-4.77
			c0-2.73,1.67-4.84,4.42-4.84c1.78,0,2.9,0.88,3.45,1.67c0.57,0.81,0.9,2.22,0.86,3.43h-7.11c0.02,1.89,1.32,3.1,2.9,3.1
			c0.75,0,1.34-0.22,1.87-0.66c0.42-0.35,0.75-0.81,0.95-1.25L699.76,135.9z M698.2,132.67c-0.26-1.43-1.34-2.38-2.68-2.38
			s-2.44,1.01-2.68,2.38H698.2z"/>
		<path class="st4" d="M709.24,122.2h1.58v16.04h-1.58v-1.28c-0.53,0.68-1.52,1.54-3.12,1.54c-2.31,0-4.44-1.63-4.44-4.84
			c0-3.15,2.11-4.77,4.44-4.77c1.76,0,2.71,0.97,3.12,1.52V122.2z M703.3,133.66c0,1.96,1.1,3.43,2.99,3.43
			c1.94,0,3.04-1.61,3.04-3.41c0-2.35-1.63-3.39-3.04-3.39C704.73,130.29,703.3,131.44,703.3,133.66z"/>
		<path class="st4" d="M719.74,124.53c0.62,0,1.12,0.51,1.12,1.12s-0.51,1.12-1.12,1.12s-1.12-0.51-1.12-1.12
			S719.12,124.53,719.74,124.53z M720.53,129.11v9.13h-1.58v-9.13H720.53z"/>
		<path class="st4" d="M723.52,129.11h1.58v1.06c0.29-0.37,1.1-1.28,2.62-1.28c1.08,0,2.07,0.44,2.62,1.25
			c0.46,0.68,0.53,1.43,0.53,2.44v5.66h-1.58v-5.61c0-0.55-0.04-1.19-0.42-1.67c-0.31-0.4-0.79-0.66-1.5-0.66
			c-0.55,0-1.14,0.15-1.61,0.7c-0.62,0.73-0.66,1.8-0.66,2.46v4.77h-1.58V129.11z"/>
		<path class="st4" d="M740.31,131.88c0,1.03-0.35,1.92-0.9,2.49c-0.35,0.37-1.06,0.88-2.27,0.88c-1.12,0-1.85-0.44-2.29-0.88
			c-0.35-0.35-0.88-1.08-0.88-2.27c0-1.56,0.88-2.29,1.85-2.73c0.77-0.35,1.39-0.44,1.85-0.62c1.3-0.46,1.41-1.36,1.41-1.94
			c0-0.44-0.07-1.08-0.57-1.54c-0.24-0.22-0.66-0.46-1.34-0.46c-0.51,0-1.03,0.13-1.39,0.46c-0.4,0.37-0.57,0.99-0.57,1.47
			c0,0.29,0.04,0.64,0.13,0.92h-1.63c-0.07-0.31-0.09-0.62-0.09-0.97c0-0.7,0.13-1.63,0.84-2.38c0.53-0.57,1.39-1.01,2.68-1.01
			c0.97,0,1.87,0.22,2.6,0.95c0.46,0.46,0.97,1.25,0.97,2.6c0,0.79-0.18,1.5-0.75,2.16c-0.46,0.53-1.03,0.86-1.69,1.1
			c-0.51,0.18-1.06,0.31-1.58,0.55c-0.33,0.15-1.08,0.51-1.08,1.54c0,0.57,0.22,0.92,0.44,1.14c0.2,0.2,0.55,0.4,1.08,0.4
			c0.46,0,0.84-0.15,1.08-0.4c0.33-0.33,0.53-0.95,0.53-1.47H740.31z M737.16,136.3c0.59,0,1.1,0.51,1.1,1.1
			c0,0.59-0.51,1.1-1.1,1.1s-1.1-0.51-1.1-1.1C736.06,136.81,736.57,136.3,737.16,136.3z"/>
	</g>
	<g>
		<path class="st4" d="M810.3,362.25v13.14h-1.63v-13.14h-3.56v-1.54h8.76v1.54H810.3z"/>
		<path class="st4" d="M813.25,370.85c0-2.77,2.05-4.82,4.84-4.82c2.79,0,4.84,2.05,4.84,4.82c0,2.77-2.07,4.8-4.84,4.8
			C815.31,375.65,813.25,373.62,813.25,370.85z M814.87,370.85c0,2.24,1.58,3.39,3.21,3.39c1.65,0,3.21-1.17,3.21-3.39
			c0-2.25-1.54-3.41-3.21-3.41S814.87,368.63,814.87,370.85z"/>
		<path class="st4" d="M826.93,359.34v10.3l3.34-3.39h2.07l-3.92,3.92l4.62,5.21h-2.07l-3.65-4.16l-0.4,0.4v3.76h-1.58v-16.04
			H826.93z"/>
		<path class="st4" d="M842.51,373.05c-0.26,0.51-0.66,1.06-1.12,1.47c-0.84,0.75-1.87,1.12-3.04,1.12c-2.2,0-4.51-1.39-4.51-4.77
			c0-2.73,1.67-4.84,4.42-4.84c1.78,0,2.9,0.88,3.46,1.67c0.57,0.81,0.9,2.22,0.86,3.43h-7.11c0.02,1.89,1.32,3.1,2.9,3.1
			c0.75,0,1.34-0.22,1.87-0.66c0.42-0.35,0.75-0.81,0.95-1.25L842.51,373.05z M840.94,369.82c-0.26-1.43-1.34-2.38-2.68-2.38
			s-2.44,1.01-2.68,2.38H840.94z"/>
		<path class="st4" d="M844.99,366.25h1.58v1.06c0.29-0.37,1.1-1.28,2.62-1.28c1.08,0,2.07,0.44,2.62,1.25
			c0.46,0.68,0.53,1.43,0.53,2.44v5.66h-1.58v-5.61c0-0.55-0.04-1.19-0.42-1.67c-0.31-0.4-0.79-0.66-1.5-0.66
			c-0.55,0-1.14,0.15-1.61,0.7c-0.62,0.73-0.66,1.8-0.66,2.46v4.77h-1.58V366.25z"/>
		<path class="st4" d="M789.02,392.65h1.58v0.99c0.15-0.24,0.84-1.21,2.07-1.21c0.48,0,1.01,0.18,1.41,0.37l-0.75,1.43
			c-0.35-0.24-0.68-0.31-0.92-0.31c-0.64,0-1.03,0.26-1.28,0.57c-0.26,0.35-0.53,0.97-0.53,2.46v4.82h-1.58V392.65z"/>
		<path class="st4" d="M803.1,399.45c-0.26,0.51-0.66,1.06-1.12,1.47c-0.84,0.75-1.87,1.12-3.04,1.12c-2.2,0-4.51-1.39-4.51-4.77
			c0-2.73,1.67-4.84,4.42-4.84c1.78,0,2.9,0.88,3.46,1.67c0.57,0.81,0.9,2.22,0.86,3.43h-7.11c0.02,1.89,1.32,3.1,2.91,3.1
			c0.75,0,1.34-0.22,1.87-0.66c0.42-0.35,0.75-0.81,0.95-1.25L803.1,399.45z M801.54,396.22c-0.26-1.43-1.34-2.38-2.69-2.38
			c-1.34,0-2.44,1.01-2.68,2.38H801.54z"/>
		<path class="st4" d="M812.59,392.65h1.58v14.19h-1.58v-6.34c-0.53,0.68-1.52,1.54-3.12,1.54c-2.31,0-4.44-1.63-4.44-4.84
			c0-3.15,2.11-4.78,4.44-4.78c1.76,0,2.71,0.97,3.12,1.52V392.65z M806.64,397.21c0,1.96,1.1,3.43,2.99,3.43
			c1.94,0,3.04-1.61,3.04-3.41c0-2.35-1.63-3.39-3.04-3.39C808.08,393.84,806.64,394.98,806.64,397.21z"/>
		<path class="st4" d="M818.75,397.98c0,0.64,0,1.39,0.44,1.96c0.24,0.31,0.73,0.7,1.61,0.7c0.88,0,1.36-0.4,1.61-0.7
			c0.44-0.57,0.44-1.32,0.44-1.96v-5.32h1.58v5.5c0,1.12-0.11,1.96-0.84,2.75c-0.81,0.86-1.89,1.14-2.79,1.14s-1.98-0.29-2.79-1.14
			c-0.73-0.79-0.84-1.63-0.84-2.75v-5.5h1.58V397.98z"/>
		<path class="st4" d="M835.51,399.45c-0.26,0.51-0.66,1.06-1.12,1.47c-0.84,0.75-1.87,1.12-3.04,1.12c-2.2,0-4.51-1.39-4.51-4.77
			c0-2.73,1.67-4.84,4.42-4.84c1.78,0,2.9,0.88,3.45,1.67c0.57,0.81,0.9,2.22,0.86,3.43h-7.11c0.02,1.89,1.32,3.1,2.9,3.1
			c0.75,0,1.34-0.22,1.87-0.66c0.42-0.35,0.75-0.81,0.95-1.25L835.51,399.45z M833.95,396.22c-0.26-1.43-1.34-2.38-2.68-2.38
			c-1.34,0-2.44,1.01-2.68,2.38H833.95z"/>
		<path class="st4" d="M841.76,394.77c-0.22-0.53-0.68-0.92-1.28-0.92c-0.57,0-1.1,0.33-1.1,1.03c0,0.66,0.44,0.86,1.47,1.3
			c1.32,0.55,1.94,0.97,2.29,1.41c0.4,0.48,0.48,0.97,0.48,1.47c0,1.91-1.39,2.99-3.15,2.99c-0.37,0-2.42-0.04-3.19-2.33l1.36-0.57
			c0.18,0.48,0.7,1.5,1.85,1.5c1.04,0,1.5-0.77,1.5-1.45c0-0.86-0.62-1.14-1.47-1.52c-1.1-0.48-1.8-0.84-2.22-1.34
			c-0.35-0.44-0.42-0.88-0.42-1.34c0-1.61,1.12-2.55,2.66-2.55c0.48,0,1.78,0.09,2.51,1.65L841.76,394.77z"/>
		<path class="st4" d="M847.37,394.11v7.68h-1.58v-7.68h-0.97v-1.45h0.97v-3.3h1.58v3.3h1.58v1.45H847.37z"/>
		<path class="st4" d="M858.54,399.45c-0.26,0.51-0.66,1.06-1.12,1.47c-0.84,0.75-1.87,1.12-3.04,1.12c-2.2,0-4.51-1.39-4.51-4.77
			c0-2.73,1.67-4.84,4.42-4.84c1.78,0,2.9,0.88,3.45,1.67c0.57,0.81,0.9,2.22,0.86,3.43h-7.11c0.02,1.89,1.32,3.1,2.9,3.1
			c0.75,0,1.34-0.22,1.87-0.66c0.42-0.35,0.75-0.81,0.95-1.25L858.54,399.45z M856.98,396.22c-0.26-1.43-1.34-2.38-2.68-2.38
			s-2.44,1.01-2.68,2.38H856.98z"/>
		<path class="st4" d="M868.02,385.74h1.58v16.04h-1.58v-1.28c-0.53,0.68-1.52,1.54-3.12,1.54c-2.31,0-4.44-1.63-4.44-4.84
			c0-3.15,2.11-4.78,4.44-4.78c1.76,0,2.71,0.97,3.12,1.52V385.74z M862.08,397.21c0,1.96,1.1,3.43,2.99,3.43
			c1.94,0,3.04-1.61,3.04-3.41c0-2.35-1.63-3.39-3.04-3.39C863.51,393.84,862.08,394.98,862.08,397.21z"/>
	</g>
	<g>
		<path class="st2" d="M1327.01,436.32h-144.18c-3.33,0-6.02-2.7-6.02-6.02v-99.45c0-3.33,2.7-6.02,6.02-6.02h144.18
			c3.33,0,6.02,2.7,6.02,6.02v99.45C1333.04,433.62,1330.34,436.32,1327.01,436.32z"/>
		<path class="st4" d="M1327.01,436.82h-144.18c-3.6,0-6.52-2.93-6.52-6.52v-99.45c0-3.6,2.93-6.52,6.52-6.52h144.18
			c3.6,0,6.52,2.93,6.52,6.52v99.45C1333.54,433.89,1330.61,436.82,1327.01,436.82z M1182.83,325.31c-3.05,0-5.52,2.48-5.52,5.52
			v99.45c0,3.05,2.48,5.52,5.52,5.52h144.18c3.05,0,5.52-2.48,5.52-5.52v-99.45c0-3.05-2.48-5.52-5.52-5.52H1182.83z"/>
	</g>
	<g>
		<path class="st4" d="M1235.79,363.61c-0.2-0.4-0.53-0.84-0.86-1.1c-0.29-0.22-0.81-0.51-1.65-0.51c-1.45,0-2.46,0.9-2.46,2.27
			c0,0.57,0.15,0.9,0.55,1.28c0.44,0.44,0.99,0.68,1.54,0.92l1.41,0.62c0.86,0.37,1.65,0.77,2.27,1.39
			c0.75,0.75,1.06,1.61,1.06,2.66c0,2.71-2,4.51-4.64,4.51c-0.97,0-2.18-0.2-3.19-1.19c-0.73-0.7-1.17-1.72-1.36-2.6l1.58-0.44
			c0.11,0.77,0.46,1.43,0.88,1.87c0.64,0.64,1.36,0.81,2.11,0.81c2,0,2.95-1.43,2.95-2.9c0-0.66-0.2-1.23-0.73-1.72
			c-0.42-0.4-0.99-0.66-1.76-1.01l-1.32-0.62c-0.57-0.26-1.3-0.57-1.96-1.21c-0.64-0.62-1.01-1.3-1.01-2.4
			c0-2.27,1.74-3.78,4.11-3.78c0.9,0,1.63,0.18,2.35,0.66c0.59,0.4,1.1,0.99,1.43,1.63L1235.79,363.61z"/>
		<path class="st4" d="M1248.33,373.05c-0.26,0.51-0.66,1.06-1.12,1.47c-0.84,0.75-1.87,1.12-3.04,1.12c-2.2,0-4.51-1.39-4.51-4.77
			c0-2.73,1.67-4.84,4.42-4.84c1.78,0,2.9,0.88,3.45,1.67c0.57,0.81,0.9,2.22,0.86,3.43h-7.11c0.02,1.89,1.32,3.1,2.9,3.1
			c0.75,0,1.34-0.22,1.87-0.66c0.42-0.35,0.75-0.81,0.95-1.25L1248.33,373.05z M1246.77,369.82c-0.26-1.43-1.34-2.38-2.68-2.38
			c-1.34,0-2.44,1.01-2.68,2.38H1246.77z"/>
		<path class="st4" d="M1257.81,366.25h1.58v9.13h-1.58v-1.28c-0.53,0.68-1.52,1.54-3.12,1.54c-2.31,0-4.45-1.63-4.45-4.84
			c0-3.15,2.11-4.77,4.45-4.77c1.76,0,2.71,0.97,3.12,1.52V366.25z M1251.87,370.81c0,1.96,1.1,3.43,2.99,3.43
			c1.94,0,3.04-1.61,3.04-3.41c0-2.35-1.63-3.39-3.04-3.39C1253.3,367.44,1251.87,368.59,1251.87,370.81z"/>
		<path class="st4" d="M1262.39,366.25h1.58v0.99c0.15-0.24,0.84-1.21,2.07-1.21c0.48,0,1.01,0.18,1.41,0.37l-0.75,1.43
			c-0.35-0.24-0.68-0.31-0.92-0.31c-0.64,0-1.04,0.26-1.28,0.57c-0.26,0.35-0.53,0.97-0.53,2.46v4.82h-1.58V366.25z"/>
		<path class="st4" d="M1275.52,368.81c-0.84-1.06-2.05-1.36-2.86-1.36c-1.69,0-3.23,1.19-3.23,3.41c0,2.22,1.58,3.39,3.21,3.39
			c0.95,0,2.11-0.42,2.95-1.43v1.89c-0.99,0.73-2.05,0.95-2.91,0.95c-2.84,0-4.88-2.02-4.88-4.77c0-2.79,2.07-4.84,4.88-4.84
			c1.45,0,2.4,0.57,2.84,0.88V368.81z"/>
		<path class="st4" d="M1278.01,359.34h1.58v7.96c0.29-0.37,1.1-1.28,2.62-1.28c1.08,0,2.07,0.44,2.62,1.25
			c0.46,0.68,0.53,1.43,0.53,2.44v5.66h-1.58v-5.61c0-0.55-0.04-1.19-0.42-1.67c-0.31-0.4-0.79-0.66-1.5-0.66
			c-0.55,0-1.14,0.15-1.61,0.7c-0.62,0.73-0.66,1.8-0.66,2.46v4.77h-1.58V359.34z"/>
		<path class="st4" d="M1239.99,387.11c1.47,0,2.71,0.18,3.7,1.03c1.08,0.92,1.34,2.22,1.34,3.15c0,2.07-1.3,4.11-4.64,4.11h-1.43
			v6.38h-1.63v-14.68H1239.99z M1238.96,393.86h1.34c1.94,0,3.1-0.97,3.1-2.66c0-2.33-2.18-2.55-3.24-2.55h-1.21V393.86z"/>
		<path class="st4" d="M1253.52,392.65h1.58v9.13h-1.58v-1.28c-0.53,0.68-1.52,1.54-3.12,1.54c-2.31,0-4.44-1.63-4.44-4.84
			c0-3.15,2.11-4.78,4.44-4.78c1.76,0,2.71,0.97,3.12,1.52V392.65z M1247.58,397.21c0,1.96,1.1,3.43,2.99,3.43
			c1.94,0,3.04-1.61,3.04-3.41c0-2.35-1.63-3.39-3.04-3.39C1249.01,393.84,1247.58,394.98,1247.58,397.21z"/>
		<path class="st4" d="M1265.1,392.65h1.58v8.91c0,0.99,0,2.4-0.88,3.59c-0.68,0.92-1.94,1.69-3.65,1.69
			c-1.56,0-2.64-0.62-3.26-1.23c-0.62-0.62-1.19-1.61-1.19-2.95h1.56c0,0.77,0.31,1.45,0.7,1.89c0.66,0.73,1.5,0.88,2.2,0.88
			c1.12,0,1.89-0.4,2.42-1.28c0.46-0.75,0.51-1.56,0.51-2.33v-1.32c-0.53,0.68-1.52,1.54-3.12,1.54c-1.34,0-2.42-0.53-3.12-1.23
			c-0.62-0.62-1.32-1.76-1.32-3.61c0-1.78,0.66-2.88,1.32-3.54c0.77-0.75,1.89-1.23,3.12-1.23c1.34,0,2.4,0.57,3.12,1.52V392.65z
			 M1260.08,394.7c-0.77,0.79-0.92,1.76-0.92,2.51c0,0.79,0.15,1.87,1.03,2.68c0.51,0.46,1.12,0.75,1.96,0.75s1.5-0.26,2-0.77
			c0.62-0.59,1.04-1.56,1.04-2.64s-0.4-2.02-0.97-2.57c-0.51-0.51-1.25-0.81-2.07-0.81C1261.18,393.84,1260.52,394.26,1260.08,394.7
			z"/>
		<path class="st4" d="M1277.77,399.45c-0.26,0.51-0.66,1.06-1.12,1.47c-0.84,0.75-1.87,1.12-3.04,1.12c-2.2,0-4.51-1.39-4.51-4.77
			c0-2.73,1.67-4.84,4.42-4.84c1.78,0,2.9,0.88,3.45,1.67c0.57,0.81,0.9,2.22,0.86,3.43h-7.11c0.02,1.89,1.32,3.1,2.9,3.1
			c0.75,0,1.34-0.22,1.87-0.66c0.42-0.35,0.75-0.81,0.95-1.25L1277.77,399.45z M1276.2,396.22c-0.26-1.43-1.34-2.38-2.68-2.38
			s-2.44,1.01-2.68,2.38H1276.2z"/>
	</g>
	<g>
		<path class="st4" d="M112.43,504.64v10.56c0,1.19-0.02,2.53-0.9,3.45c-0.51,0.55-1.25,0.92-2.33,0.92c-1.06,0-1.96-0.33-2.62-1.08
			l0.9-1.28c0.48,0.53,1.12,0.81,1.67,0.81c0.44,0,0.84-0.15,1.1-0.42c0.55-0.55,0.55-1.47,0.55-2.38v-10.61H112.43z"/>
		<path class="st4" d="M122.82,510.19h1.58v9.13h-1.58v-1.28c-0.53,0.68-1.52,1.54-3.12,1.54c-2.31,0-4.44-1.63-4.44-4.84
			c0-3.15,2.11-4.78,4.44-4.78c1.76,0,2.71,0.97,3.12,1.52V510.19z M116.88,514.74c0,1.96,1.1,3.43,2.99,3.43
			c1.94,0,3.04-1.61,3.04-3.41c0-2.35-1.63-3.39-3.04-3.39C118.31,511.37,116.88,512.52,116.88,514.74z"/>
		<path class="st4" d="M127.39,510.19h1.58v0.97c0.51-0.75,1.3-1.19,2.27-1.19c1.65,0,2.31,1.17,2.49,1.47
			c0.88-1.39,2.13-1.47,2.75-1.47c2.71,0,2.97,2.27,2.97,3.56v5.79h-1.58v-5.54c0-1.03-0.13-2.4-1.63-2.4
			c-1.83,0-2.02,1.76-2.02,2.86v5.08h-1.58v-5.41c0-0.64,0.02-2.53-1.65-2.53c-1.8,0-2,1.87-2,2.97v4.97h-1.58V510.19z"/>
		<path class="st4" d="M142.46,510.19h1.58v0.97c0.51-0.75,1.3-1.19,2.27-1.19c1.65,0,2.31,1.17,2.49,1.47
			c0.88-1.39,2.13-1.47,2.75-1.47c2.71,0,2.97,2.27,2.97,3.56v5.79h-1.58v-5.54c0-1.03-0.13-2.4-1.63-2.4
			c-1.83,0-2.02,1.76-2.02,2.86v5.08h-1.58v-5.41c0-0.64,0.02-2.53-1.65-2.53c-1.8,0-2,1.87-2,2.97v4.97h-1.58V510.19z"/>
		<path class="st4" d="M158.32,505.61c0.62,0,1.12,0.51,1.12,1.12s-0.51,1.12-1.12,1.12c-0.62,0-1.12-0.51-1.12-1.12
			S157.71,505.61,158.32,505.61z M159.12,510.19v9.13h-1.58v-9.13H159.12z"/>
		<path class="st4" d="M162.11,510.19h1.58v1.06c0.29-0.37,1.1-1.28,2.62-1.28c1.08,0,2.07,0.44,2.62,1.25
			c0.46,0.68,0.53,1.43,0.53,2.44v5.66h-1.58v-5.61c0-0.55-0.04-1.19-0.42-1.67c-0.31-0.4-0.79-0.66-1.5-0.66
			c-0.55,0-1.14,0.15-1.61,0.7c-0.62,0.73-0.66,1.8-0.66,2.46v4.77h-1.58V510.19z"/>
		<path class="st4" d="M179.44,510.19h1.58v8.91c0,0.99,0,2.4-0.88,3.59c-0.68,0.92-1.94,1.69-3.65,1.69
			c-1.56,0-2.64-0.62-3.26-1.23c-0.62-0.62-1.19-1.61-1.19-2.95h1.56c0,0.77,0.31,1.45,0.7,1.89c0.66,0.73,1.5,0.88,2.2,0.88
			c1.12,0,1.89-0.4,2.42-1.28c0.46-0.75,0.51-1.56,0.51-2.33v-1.32c-0.53,0.68-1.52,1.54-3.12,1.54c-1.34,0-2.42-0.53-3.12-1.23
			c-0.62-0.62-1.32-1.76-1.32-3.61c0-1.78,0.66-2.88,1.32-3.54c0.77-0.75,1.89-1.23,3.12-1.23c1.34,0,2.4,0.57,3.12,1.52V510.19z
			 M174.43,512.23c-0.77,0.79-0.92,1.76-0.92,2.51c0,0.79,0.15,1.87,1.03,2.68c0.51,0.46,1.12,0.75,1.96,0.75
			c0.84,0,1.5-0.26,2-0.77c0.62-0.59,1.03-1.56,1.03-2.64s-0.4-2.02-0.97-2.57c-0.51-0.51-1.25-0.81-2.07-0.81
			C175.53,511.37,174.87,511.79,174.43,512.23z"/>
		<path class="st4" d="M189.94,505.61c0.62,0,1.12,0.51,1.12,1.12s-0.51,1.12-1.12,1.12c-0.62,0-1.12-0.51-1.12-1.12
			S189.32,505.61,189.94,505.61z M190.73,510.19v9.13h-1.58v-9.13H190.73z"/>
		<path class="st4" d="M197.48,512.3c-0.22-0.53-0.68-0.92-1.28-0.92c-0.57,0-1.1,0.33-1.1,1.03c0,0.66,0.44,0.86,1.47,1.3
			c1.32,0.55,1.94,0.97,2.29,1.41c0.4,0.48,0.48,0.97,0.48,1.47c0,1.91-1.39,2.99-3.15,2.99c-0.37,0-2.42-0.04-3.19-2.33l1.36-0.57
			c0.18,0.48,0.7,1.5,1.85,1.5c1.03,0,1.5-0.77,1.5-1.45c0-0.86-0.62-1.14-1.47-1.52c-1.1-0.48-1.8-0.84-2.22-1.34
			c-0.35-0.44-0.42-0.88-0.42-1.34c0-1.61,1.12-2.55,2.66-2.55c0.48,0,1.78,0.09,2.51,1.65L197.48,512.3z"/>
		<path class="st4" d="M206.59,510.19h1.58v1.06c0.29-0.37,1.1-1.28,2.62-1.28c1.08,0,2.07,0.44,2.62,1.25
			c0.46,0.68,0.53,1.43,0.53,2.44v5.66h-1.58v-5.61c0-0.55-0.04-1.19-0.42-1.67c-0.31-0.4-0.79-0.66-1.5-0.66
			c-0.55,0-1.14,0.15-1.61,0.7c-0.62,0.73-0.66,1.8-0.66,2.46v4.77h-1.58V510.19z"/>
		<path class="st4" d="M216.36,514.78c0-2.77,2.05-4.82,4.84-4.82s4.84,2.05,4.84,4.82s-2.07,4.8-4.84,4.8
			C218.43,519.58,216.36,517.56,216.36,514.78z M217.99,514.78c0,2.24,1.58,3.39,3.21,3.39c1.65,0,3.21-1.17,3.21-3.39
			c0-2.25-1.54-3.41-3.21-3.41C219.53,511.37,217.99,512.56,217.99,514.78z"/>
		<path class="st4" d="M228.9,510.19l2.71,6.2l2.86-6.91l2.84,6.91l2.73-6.2h1.76l-4.53,9.77l-2.82-6.82l-2.82,6.82l-4.49-9.77
			H228.9z"/>
		<path class="st4" d="M255.58,510.19h1.58v9.13h-1.58v-1.28c-0.53,0.68-1.52,1.54-3.12,1.54c-2.31,0-4.44-1.63-4.44-4.84
			c0-3.15,2.11-4.78,4.44-4.78c1.76,0,2.71,0.97,3.12,1.52V510.19z M249.64,514.74c0,1.96,1.1,3.43,2.99,3.43
			c1.94,0,3.04-1.61,3.04-3.41c0-2.35-1.63-3.39-3.04-3.39C251.07,511.37,249.64,512.52,249.64,514.74z"/>
		<path class="st4" d="M261.74,519.32h-1.58v-16.04h1.58v8.18c1.08-1.34,2.46-1.5,3.12-1.5c2.86,0,4.44,2.38,4.44,4.84
			c0,2.51-1.61,4.77-4.38,4.77c-1.47,0-2.51-0.66-3.19-1.54V519.32z M267.68,514.81c0-2.24-1.52-3.43-2.99-3.43
			s-3.04,1.21-3.04,3.41c0,1.87,1.19,3.39,3.06,3.39C266.56,518.17,267.68,516.63,267.68,514.81z"/>
		<path class="st4" d="M273.31,519.32h-1.58v-16.04h1.58v8.18c1.08-1.34,2.46-1.5,3.12-1.5c2.86,0,4.44,2.38,4.44,4.84
			c0,2.51-1.61,4.77-4.38,4.77c-1.47,0-2.51-0.66-3.19-1.54V519.32z M279.26,514.81c0-2.24-1.52-3.43-2.99-3.43
			s-3.04,1.21-3.04,3.41c0,1.87,1.19,3.39,3.06,3.39C278.13,518.17,279.26,516.63,279.26,514.81z"/>
		<path class="st4" d="M284.89,503.28v16.04h-1.58v-16.04H284.89z"/>
		<path class="st4" d="M295.97,516.98c-0.26,0.51-0.66,1.06-1.12,1.47c-0.84,0.75-1.87,1.12-3.04,1.12c-2.2,0-4.51-1.39-4.51-4.77
			c0-2.73,1.67-4.84,4.42-4.84c1.78,0,2.9,0.88,3.45,1.67c0.57,0.81,0.9,2.22,0.86,3.43h-7.11c0.02,1.89,1.32,3.1,2.9,3.1
			c0.75,0,1.34-0.22,1.87-0.66c0.42-0.35,0.75-0.81,0.95-1.25L295.97,516.98z M294.41,513.75c-0.26-1.43-1.34-2.38-2.68-2.38
			s-2.44,1.01-2.68,2.38H294.41z"/>
		<path class="st4" d="M305.21,511.64v7.68h-1.58v-7.68h-0.97v-1.45h0.97v-3.3h1.58v3.3h1.58v1.45H305.21z"/>
		<path class="st4" d="M307.72,514.78c0-2.77,2.05-4.82,4.84-4.82s4.84,2.05,4.84,4.82s-2.07,4.8-4.84,4.8
			S307.72,517.56,307.72,514.78z M309.35,514.78c0,2.24,1.58,3.39,3.21,3.39c1.65,0,3.21-1.17,3.21-3.39c0-2.25-1.54-3.41-3.21-3.41
			C310.89,511.37,309.35,512.56,309.35,514.78z"/>
		<path class="st4" d="M320.83,509.97c0.59,0,1.1,0.51,1.1,1.1c0,0.59-0.51,1.1-1.1,1.1s-1.1-0.51-1.1-1.1
			C319.73,510.47,320.24,509.97,320.83,509.97z M320.83,517.38c0.59,0,1.1,0.51,1.1,1.1c0,0.59-0.51,1.1-1.1,1.1s-1.1-0.51-1.1-1.1
			C319.73,517.89,320.24,517.38,320.83,517.38z"/>
	</g>
	<g>
		<path class="st4" d="M426.6,296.32c0,1.01,0,2.11,0.95,2.92c0.49,0.41,1.31,0.68,1.98,0.68c0.67,0,1.49-0.27,1.98-0.68
			c0.95-0.81,0.95-1.91,0.95-2.92v-7.36h1.33v7.72c0,1.01-0.11,1.98-0.76,2.88c-0.72,0.99-1.98,1.62-3.51,1.62
			c-1.53,0-2.79-0.63-3.51-1.62c-0.65-0.9-0.76-1.87-0.76-2.88v-7.72h1.33V296.32z"/>
		<path class="st4" d="M439.65,295.22c-0.18-0.43-0.56-0.76-1.04-0.76c-0.47,0-0.9,0.27-0.9,0.85c0,0.54,0.36,0.7,1.21,1.06
			c1.08,0.45,1.58,0.79,1.87,1.15c0.32,0.4,0.4,0.79,0.4,1.21c0,1.57-1.13,2.45-2.57,2.45c-0.31,0-1.98-0.04-2.61-1.91l1.12-0.47
			c0.14,0.4,0.58,1.22,1.51,1.22c0.85,0,1.22-0.63,1.22-1.19c0-0.7-0.5-0.94-1.21-1.24c-0.9-0.4-1.48-0.68-1.82-1.1
			c-0.29-0.36-0.34-0.72-0.34-1.1c0-1.31,0.92-2.09,2.18-2.09c0.4,0,1.46,0.07,2.05,1.35L439.65,295.22z"/>
		<path class="st4" d="M449.53,299.05c-0.22,0.41-0.54,0.86-0.92,1.21c-0.68,0.61-1.53,0.92-2.48,0.92c-1.8,0-3.69-1.13-3.69-3.91
			c0-2.23,1.37-3.96,3.62-3.96c1.46,0,2.38,0.72,2.83,1.37c0.47,0.67,0.74,1.82,0.7,2.81h-5.82c0.02,1.55,1.08,2.54,2.38,2.54
			c0.61,0,1.1-0.18,1.53-0.54c0.34-0.29,0.61-0.67,0.77-1.03L449.53,299.05z M448.25,296.41c-0.22-1.17-1.1-1.94-2.2-1.94
			c-1.1,0-2,0.83-2.2,1.94H448.25z"/>
		<path class="st4" d="M451.56,293.49h1.3v0.81c0.13-0.2,0.68-0.99,1.69-0.99c0.4,0,0.83,0.14,1.15,0.31l-0.61,1.17
			c-0.29-0.2-0.56-0.25-0.76-0.25c-0.52,0-0.85,0.22-1.04,0.47c-0.22,0.29-0.43,0.79-0.43,2.02v3.94h-1.3V293.49z"/>
		<path class="st4" d="M466.81,293.49h1.3v7.47h-1.3v-1.04c-0.43,0.56-1.24,1.26-2.56,1.26c-1.89,0-3.64-1.33-3.64-3.96
			c0-2.58,1.73-3.91,3.64-3.91c1.44,0,2.21,0.79,2.56,1.24V293.49z M461.95,297.22c0,1.6,0.9,2.81,2.45,2.81
			c1.58,0,2.48-1.31,2.48-2.79c0-1.93-1.33-2.77-2.48-2.77C463.12,294.46,461.95,295.4,461.95,297.22z"/>
		<path class="st4" d="M471.85,297.85c0,0.52,0,1.13,0.36,1.6c0.2,0.25,0.59,0.58,1.31,0.58s1.12-0.32,1.31-0.58
			c0.36-0.47,0.36-1.08,0.36-1.6v-4.36h1.3v4.5c0,0.92-0.09,1.6-0.68,2.25c-0.67,0.7-1.55,0.94-2.29,0.94s-1.62-0.23-2.29-0.94
			c-0.59-0.65-0.68-1.33-0.68-2.25v-4.5h1.3V297.85z"/>
		<path class="st4" d="M480.27,294.68v6.28h-1.3v-6.28h-0.79v-1.19h0.79v-2.7h1.3v2.7h1.3v1.19H480.27z"/>
		<path class="st4" d="M482.79,287.84h1.3v6.52c0.23-0.31,0.9-1.04,2.14-1.04c0.88,0,1.69,0.36,2.14,1.03
			c0.38,0.56,0.43,1.17,0.43,2v4.63h-1.3v-4.59c0-0.45-0.04-0.97-0.34-1.37c-0.25-0.32-0.65-0.54-1.22-0.54
			c-0.45,0-0.94,0.13-1.31,0.58c-0.5,0.59-0.54,1.48-0.54,2.02v3.91h-1.3V287.84z"/>
		<path class="st4" d="M490.51,297.25c0-2.27,1.67-3.94,3.96-3.94s3.96,1.67,3.96,3.94s-1.69,3.92-3.96,3.92
			S490.51,299.52,490.51,297.25z M491.85,297.25c0,1.84,1.3,2.77,2.63,2.77c1.35,0,2.63-0.95,2.63-2.77c0-1.84-1.26-2.79-2.63-2.79
			C493.11,294.46,491.85,295.43,491.85,297.25z"/>
		<path class="st4" d="M500.41,293.49h1.3v0.81c0.13-0.2,0.68-0.99,1.69-0.99c0.4,0,0.83,0.14,1.15,0.31l-0.61,1.17
			c-0.29-0.2-0.56-0.25-0.76-0.25c-0.52,0-0.85,0.22-1.04,0.47c-0.22,0.29-0.43,0.79-0.43,2.02v3.94h-1.3V293.49z"/>
		<path class="st4" d="M506.39,289.74c0.5,0,0.92,0.41,0.92,0.92c0,0.5-0.41,0.92-0.92,0.92s-0.92-0.41-0.92-0.92
			C505.47,290.16,505.89,289.74,506.39,289.74z M507.04,293.49v7.47h-1.3v-7.47H507.04z"/>
		<path class="st4" d="M511,299.77h5.19v1.19h-7.78l5.4-6.28h-4.36v-1.19h6.95L511,299.77z"/>
		<path class="st4" d="M524.21,299.05c-0.22,0.41-0.54,0.86-0.92,1.21c-0.68,0.61-1.53,0.92-2.48,0.92c-1.8,0-3.69-1.13-3.69-3.91
			c0-2.23,1.37-3.96,3.62-3.96c1.46,0,2.38,0.72,2.83,1.37c0.47,0.67,0.74,1.82,0.7,2.81h-5.82c0.02,1.55,1.08,2.54,2.38,2.54
			c0.61,0,1.1-0.18,1.53-0.54c0.34-0.29,0.61-0.67,0.77-1.03L524.21,299.05z M522.93,296.41c-0.22-1.17-1.1-1.94-2.2-1.94
			c-1.1,0-2,0.83-2.2,1.94H522.93z"/>
		<path class="st4" d="M450.23,316.28v6.28h-1.3v-6.28h-0.79v-1.19h0.79v-2.7h1.3v2.7h1.3v1.19H450.23z"/>
		<path class="st4" d="M452.75,309.44h1.3v6.52c0.23-0.31,0.9-1.04,2.14-1.04c0.88,0,1.69,0.36,2.14,1.03
			c0.38,0.56,0.43,1.17,0.43,2v4.63h-1.3v-4.59c0-0.45-0.04-0.97-0.34-1.37c-0.25-0.32-0.65-0.54-1.22-0.54
			c-0.45,0-0.94,0.13-1.31,0.58c-0.5,0.59-0.54,1.48-0.54,2.02v3.91h-1.3V309.44z"/>
		<path class="st4" d="M467.66,320.65c-0.22,0.41-0.54,0.86-0.92,1.21c-0.68,0.61-1.53,0.92-2.48,0.92c-1.8,0-3.69-1.13-3.69-3.91
			c0-2.23,1.37-3.96,3.62-3.96c1.46,0,2.38,0.72,2.83,1.37c0.47,0.67,0.74,1.82,0.7,2.81h-5.82c0.02,1.55,1.08,2.54,2.38,2.54
			c0.61,0,1.1-0.18,1.53-0.54c0.34-0.29,0.61-0.67,0.77-1.03L467.66,320.65z M466.38,318.01c-0.22-1.17-1.1-1.94-2.2-1.94
			c-1.1,0-2,0.83-2.2,1.94H466.38z"/>
		<path class="st4" d="M479.61,315.09h1.3v7.47h-1.3v-1.04c-0.43,0.56-1.24,1.26-2.56,1.26c-1.89,0-3.64-1.33-3.64-3.96
			c0-2.58,1.73-3.91,3.64-3.91c1.44,0,2.21,0.79,2.56,1.24V315.09z M474.75,318.82c0,1.6,0.9,2.81,2.45,2.81
			c1.58,0,2.48-1.31,2.48-2.79c0-1.93-1.33-2.77-2.48-2.77C475.92,316.06,474.75,317,474.75,318.82z"/>
		<path class="st4" d="M484.65,326.7h-1.3v-11.61h1.3v1.04c0.88-1.1,2.02-1.22,2.56-1.22c2.34,0,3.64,1.94,3.64,3.96
			c0,2.05-1.31,3.91-3.58,3.91c-1.21,0-2.05-0.54-2.61-1.26V326.7z M489.51,318.87c0-1.84-1.24-2.81-2.45-2.81
			c-1.21,0-2.48,0.99-2.48,2.79c0,1.53,0.97,2.77,2.5,2.77C488.59,321.63,489.51,320.37,489.51,318.87z"/>
		<path class="st4" d="M494.12,326.7h-1.3v-11.61h1.3v1.04c0.88-1.1,2.02-1.22,2.56-1.22c2.34,0,3.64,1.94,3.64,3.96
			c0,2.05-1.31,3.91-3.58,3.91c-1.21,0-2.05-0.54-2.61-1.26V326.7z M498.98,318.87c0-1.84-1.24-2.81-2.45-2.81
			c-1.21,0-2.48,0.99-2.48,2.79c0,1.53,0.97,2.77,2.5,2.77C498.06,321.63,498.98,320.37,498.98,318.87z"/>
	</g>
	<g>
		<path class="st4" d="M362.28,133.78v-12.51l9.36,9.81v-9.31h1.33v12.55l-9.36-9.81v9.27H362.28z"/>
		<path class="st4" d="M375.28,130.07c0-2.27,1.67-3.94,3.96-3.94s3.96,1.67,3.96,3.94c0,2.27-1.69,3.92-3.96,3.92
			C376.97,133.99,375.28,132.34,375.28,130.07z M376.61,130.07c0,1.84,1.3,2.77,2.63,2.77c1.35,0,2.63-0.95,2.63-2.77
			c0-1.84-1.26-2.79-2.63-2.79C377.87,127.28,376.61,128.25,376.61,130.07z"/>
	</g>
	<g>
		<path class="st4" d="M1013.24,128.61l-3.94-6.84h1.55l3.06,5.37l3.1-5.37h1.55l-3.98,6.84v5.17h-1.33V128.61z"/>
		<path class="st4" d="M1024.76,131.87c-0.22,0.41-0.54,0.86-0.92,1.21c-0.68,0.61-1.53,0.92-2.49,0.92c-1.8,0-3.69-1.13-3.69-3.91
			c0-2.23,1.37-3.96,3.62-3.96c1.46,0,2.38,0.72,2.83,1.37c0.47,0.67,0.74,1.82,0.7,2.81H1019c0.02,1.55,1.08,2.54,2.38,2.54
			c0.61,0,1.1-0.18,1.53-0.54c0.34-0.29,0.61-0.67,0.77-1.03L1024.76,131.87z M1023.48,129.22c-0.22-1.17-1.1-1.94-2.2-1.94
			c-1.1,0-2,0.83-2.2,1.94H1023.48z"/>
		<path class="st4" d="M1029.87,128.03c-0.18-0.43-0.56-0.76-1.04-0.76c-0.47,0-0.9,0.27-0.9,0.85c0,0.54,0.36,0.7,1.21,1.06
			c1.08,0.45,1.58,0.79,1.87,1.15c0.32,0.4,0.4,0.79,0.4,1.21c0,1.57-1.13,2.45-2.58,2.45c-0.31,0-1.98-0.04-2.61-1.91l1.12-0.47
			c0.14,0.4,0.58,1.22,1.51,1.22c0.85,0,1.22-0.63,1.22-1.19c0-0.7-0.5-0.94-1.21-1.24c-0.9-0.4-1.48-0.68-1.82-1.1
			c-0.29-0.36-0.34-0.72-0.34-1.1c0-1.31,0.92-2.09,2.18-2.09c0.4,0,1.46,0.07,2.05,1.35L1029.87,128.03z"/>
	</g>
	<g>
		<path class="st4" d="M594.98,324.03c0.81,0,2.02,0.05,2.92,0.67c0.7,0.47,1.31,1.39,1.31,2.67c0,1.84-1.21,3.19-3.03,3.31
			l3.82,5.37h-1.62l-3.65-5.26h-0.34v5.26h-1.33v-12.01H594.98z M594.39,329.6h0.85c1.66,0,2.65-0.79,2.65-2.2
			c0-0.67-0.2-1.33-0.95-1.76c-0.54-0.31-1.15-0.34-1.73-0.34h-0.81V329.6z"/>
		<path class="st4" d="M608.03,334.13c-0.22,0.41-0.54,0.86-0.92,1.21c-0.68,0.61-1.53,0.92-2.48,0.92c-1.8,0-3.69-1.13-3.69-3.91
			c0-2.23,1.37-3.96,3.62-3.96c1.46,0,2.38,0.72,2.83,1.37c0.47,0.67,0.74,1.82,0.7,2.81h-5.82c0.02,1.55,1.08,2.54,2.38,2.54
			c0.61,0,1.1-0.18,1.53-0.54c0.34-0.29,0.61-0.67,0.77-1.03L608.03,334.13z M606.76,331.49c-0.22-1.17-1.1-1.94-2.2-1.94
			c-1.1,0-2,0.83-2.2,1.94H606.76z"/>
		<path class="st4" d="M615.79,322.92h1.3v13.13h-1.3V335c-0.43,0.56-1.24,1.26-2.56,1.26c-1.89,0-3.64-1.33-3.64-3.96
			c0-2.58,1.73-3.91,3.64-3.91c1.44,0,2.21,0.79,2.56,1.24V322.92z M610.93,332.3c0,1.6,0.9,2.81,2.45,2.81
			c1.58,0,2.48-1.31,2.48-2.79c0-1.93-1.33-2.77-2.48-2.77C612.1,329.54,610.93,330.48,610.93,332.3z"/>
		<path class="st4" d="M620,324.82c0.5,0,0.92,0.41,0.92,0.92c0,0.5-0.41,0.92-0.92,0.92s-0.92-0.41-0.92-0.92
			C619.08,325.24,619.5,324.82,620,324.82z M620.65,328.57v7.47h-1.3v-7.47H620.65z"/>
		<path class="st4" d="M623.1,328.57h1.3v0.81c0.13-0.2,0.68-0.99,1.69-0.99c0.4,0,0.83,0.14,1.15,0.31l-0.61,1.17
			c-0.29-0.2-0.56-0.25-0.76-0.25c-0.52,0-0.85,0.22-1.04,0.47c-0.22,0.29-0.43,0.79-0.43,2.02v3.94h-1.3V328.57z"/>
		<path class="st4" d="M634.62,334.13c-0.22,0.41-0.54,0.86-0.92,1.21c-0.68,0.61-1.53,0.92-2.48,0.92c-1.8,0-3.69-1.13-3.69-3.91
			c0-2.23,1.37-3.96,3.62-3.96c1.46,0,2.38,0.72,2.83,1.37c0.47,0.67,0.74,1.82,0.7,2.81h-5.82c0.02,1.55,1.08,2.54,2.38,2.54
			c0.61,0,1.1-0.18,1.53-0.54c0.34-0.29,0.61-0.67,0.77-1.03L634.62,334.13z M633.34,331.49c-0.22-1.17-1.1-1.94-2.2-1.94
			c-1.1,0-2,0.83-2.2,1.94H633.34z"/>
		<path class="st4" d="M642.5,330.66c-0.68-0.86-1.67-1.12-2.34-1.12c-1.39,0-2.65,0.97-2.65,2.79s1.3,2.77,2.63,2.77
			c0.77,0,1.73-0.34,2.41-1.17v1.55c-0.81,0.59-1.67,0.77-2.38,0.77c-2.32,0-4-1.66-4-3.91c0-2.29,1.69-3.96,4-3.96
			c1.19,0,1.96,0.47,2.32,0.72V330.66z"/>
		<path class="st4" d="M645.87,329.76v6.28h-1.3v-6.28h-0.79v-1.19h0.79v-2.7h1.3v2.7h1.3v1.19H645.87z"/>
		<path class="st4" d="M653.91,329.76v6.28h-1.3v-6.28h-0.79v-1.19h0.79v-2.7h1.3v2.7h1.3v1.19H653.91z"/>
		<path class="st4" d="M655.96,332.33c0-2.27,1.67-3.94,3.96-3.94s3.96,1.67,3.96,3.94s-1.69,3.92-3.96,3.92
			C657.66,336.26,655.96,334.6,655.96,332.33z M657.3,332.33c0,1.84,1.3,2.77,2.63,2.77c1.35,0,2.63-0.95,2.63-2.77
			c0-1.84-1.26-2.79-2.63-2.79C658.56,329.54,657.3,330.52,657.3,332.33z"/>
		<path class="st4" d="M601.38,345.63v8.64c0,0.97-0.02,2.07-0.74,2.83c-0.41,0.45-1.03,0.76-1.91,0.76c-0.86,0-1.6-0.27-2.14-0.88
			l0.74-1.04c0.4,0.43,0.92,0.67,1.37,0.67c0.36,0,0.68-0.13,0.9-0.34c0.45-0.45,0.45-1.21,0.45-1.94v-8.68H601.38z"/>
		<path class="st4" d="M609.88,350.17h1.3v7.47h-1.3v-1.04c-0.43,0.56-1.24,1.26-2.56,1.26c-1.89,0-3.64-1.33-3.64-3.96
			c0-2.58,1.73-3.91,3.64-3.91c1.44,0,2.21,0.79,2.56,1.24V350.17z M605.02,353.9c0,1.6,0.9,2.81,2.45,2.81
			c1.58,0,2.48-1.31,2.48-2.79c0-1.93-1.33-2.77-2.48-2.77C606.19,351.14,605.02,352.08,605.02,353.9z"/>
		<path class="st4" d="M613.62,350.17h1.3v0.79c0.41-0.61,1.06-0.97,1.85-0.97c1.35,0,1.89,0.95,2.03,1.21
			c0.72-1.13,1.75-1.21,2.25-1.21c2.21,0,2.43,1.85,2.43,2.92v4.74h-1.3v-4.54c0-0.85-0.11-1.96-1.33-1.96
			c-1.49,0-1.66,1.44-1.66,2.34v4.16h-1.3v-4.43c0-0.52,0.02-2.07-1.35-2.07c-1.48,0-1.64,1.53-1.64,2.43v4.07h-1.3V350.17z"/>
		<path class="st4" d="M625.95,350.17h1.3v0.79c0.41-0.61,1.06-0.97,1.85-0.97c1.35,0,1.89,0.95,2.03,1.21
			c0.72-1.13,1.75-1.21,2.25-1.21c2.21,0,2.43,1.85,2.43,2.92v4.74h-1.3v-4.54c0-0.85-0.11-1.96-1.33-1.96
			c-1.49,0-1.66,1.44-1.66,2.34v4.16h-1.3v-4.43c0-0.52,0.02-2.07-1.35-2.07c-1.48,0-1.64,1.53-1.64,2.43v4.07h-1.3V350.17z"/>
		<path class="st4" d="M638.93,346.43c0.5,0,0.92,0.42,0.92,0.92s-0.41,0.92-0.92,0.92s-0.92-0.41-0.92-0.92
			S638.42,346.43,638.93,346.43z M639.58,350.17v7.47h-1.3v-7.47H639.58z"/>
		<path class="st4" d="M642.02,350.17h1.3v0.86c0.23-0.31,0.9-1.04,2.14-1.04c0.88,0,1.69,0.36,2.14,1.03
			c0.38,0.56,0.43,1.17,0.43,2v4.63h-1.3v-4.59c0-0.45-0.04-0.97-0.34-1.37c-0.25-0.32-0.65-0.54-1.22-0.54
			c-0.45,0-0.94,0.13-1.31,0.58c-0.5,0.59-0.54,1.48-0.54,2.02v3.91h-1.3V350.17z"/>
		<path class="st4" d="M656.21,350.17h1.3v7.29c0,0.81,0,1.96-0.72,2.93c-0.56,0.76-1.58,1.39-2.99,1.39c-1.28,0-2.16-0.5-2.67-1.01
			s-0.97-1.31-0.97-2.41h1.28c0,0.63,0.25,1.19,0.58,1.55c0.54,0.59,1.22,0.72,1.8,0.72c0.92,0,1.55-0.32,1.98-1.04
			c0.38-0.61,0.41-1.28,0.41-1.91v-1.08c-0.43,0.56-1.24,1.26-2.56,1.26c-1.1,0-1.98-0.43-2.56-1.01c-0.5-0.5-1.08-1.44-1.08-2.95
			c0-1.46,0.54-2.36,1.08-2.9c0.63-0.61,1.55-1.01,2.56-1.01c1.1,0,1.96,0.47,2.56,1.24V350.17z M652.1,351.85
			c-0.63,0.65-0.76,1.44-0.76,2.05c0,0.65,0.13,1.53,0.85,2.2c0.41,0.38,0.92,0.61,1.6,0.61c0.68,0,1.22-0.22,1.64-0.63
			c0.5-0.49,0.85-1.28,0.85-2.16c0-0.88-0.32-1.66-0.79-2.11c-0.41-0.41-1.03-0.67-1.69-0.67C653,351.14,652.46,351.48,652.1,351.85
			z"/>
	</g>
	<g>
		<path class="st4" d="M1025.26,290.21v10.75h-1.33v-10.75h-2.92v-1.26h7.17v1.26H1025.26z"/>
		<path class="st4" d="M1027.67,297.25c0-2.27,1.67-3.94,3.96-3.94s3.96,1.67,3.96,3.94s-1.69,3.92-3.96,3.92
			S1027.67,299.52,1027.67,297.25z M1029,297.25c0,1.84,1.3,2.77,2.63,2.77c1.35,0,2.63-0.95,2.63-2.77c0-1.84-1.26-2.79-2.63-2.79
			S1029,295.43,1029,297.25z"/>
		<path class="st4" d="M1038.86,287.84v8.43l2.74-2.77h1.69l-3.21,3.21l3.78,4.27h-1.69l-2.99-3.4l-0.32,0.32v3.08h-1.3v-13.13
			H1038.86z"/>
		<path class="st4" d="M1051.61,299.05c-0.22,0.41-0.54,0.86-0.92,1.21c-0.68,0.61-1.53,0.92-2.49,0.92c-1.8,0-3.69-1.13-3.69-3.91
			c0-2.23,1.37-3.96,3.62-3.96c1.46,0,2.38,0.72,2.83,1.37c0.47,0.67,0.74,1.82,0.7,2.81h-5.82c0.02,1.55,1.08,2.54,2.38,2.54
			c0.61,0,1.1-0.18,1.53-0.54c0.34-0.29,0.61-0.67,0.77-1.03L1051.61,299.05z M1050.33,296.41c-0.22-1.17-1.1-1.94-2.2-1.94
			s-2,0.83-2.2,1.94H1050.33z"/>
		<path class="st4" d="M1053.64,293.49h1.3v0.86c0.23-0.31,0.9-1.04,2.14-1.04c0.88,0,1.69,0.36,2.14,1.03
			c0.38,0.56,0.43,1.17,0.43,2v4.63h-1.3v-4.59c0-0.45-0.04-0.97-0.34-1.37c-0.25-0.32-0.65-0.54-1.22-0.54
			c-0.45,0-0.94,0.13-1.31,0.58c-0.5,0.59-0.54,1.48-0.54,2.02v3.91h-1.3V293.49z"/>
		<path class="st4" d="M1019.31,316.53h5v0.29c0,1.33-0.4,2.77-1.15,3.8c-0.36,0.49-1.71,2.16-4.46,2.16
			c-3.57,0-6.23-2.72-6.23-6.21s2.68-6.21,6.27-6.21c1.15,0,2.5,0.29,3.67,1.19c0.54,0.41,1.04,0.95,1.39,1.42l-0.99,0.9
			c-0.34-0.49-0.74-0.92-1.13-1.24c-0.58-0.47-1.48-1.01-2.92-1.01c-2.9,0-4.92,2.18-4.92,4.97c0,3.28,2.61,4.93,4.88,4.93
			c1.6,0,2.99-0.81,3.67-2.02c0.22-0.38,0.45-0.96,0.49-1.71h-3.56V316.53z"/>
		<path class="st4" d="M1026.43,315.09h1.3v0.81c0.13-0.2,0.68-0.99,1.69-0.99c0.4,0,0.83,0.14,1.15,0.31l-0.61,1.17
			c-0.29-0.2-0.56-0.25-0.76-0.25c-0.52,0-0.85,0.22-1.04,0.47c-0.22,0.29-0.43,0.79-0.43,2.02v3.94h-1.3V315.09z"/>
		<path class="st4" d="M1037.11,315.09h1.3v7.47h-1.3v-1.04c-0.43,0.56-1.24,1.26-2.56,1.26c-1.89,0-3.64-1.33-3.64-3.96
			c0-2.58,1.73-3.91,3.64-3.91c1.44,0,2.21,0.79,2.56,1.24V315.09z M1032.25,318.82c0,1.6,0.9,2.81,2.45,2.81
			c1.58,0,2.48-1.31,2.48-2.79c0-1.93-1.33-2.77-2.48-2.77C1033.42,316.06,1032.25,317,1032.25,318.82z"/>
		<path class="st4" d="M1040.85,315.09h1.3v0.86c0.23-0.31,0.9-1.04,2.14-1.04c0.88,0,1.69,0.36,2.14,1.03
			c0.38,0.56,0.43,1.17,0.43,2v4.63h-1.3v-4.59c0-0.45-0.04-0.97-0.34-1.37c-0.25-0.32-0.65-0.54-1.22-0.54
			c-0.45,0-0.94,0.13-1.31,0.58c-0.5,0.59-0.54,1.48-0.54,2.02v3.91h-1.3V315.09z"/>
		<path class="st4" d="M1050.64,316.28v6.28h-1.3v-6.28h-0.79v-1.19h0.79v-2.7h1.3v2.7h1.3v1.19H1050.64z"/>
		<path class="st4" d="M1059.79,320.65c-0.22,0.41-0.54,0.86-0.92,1.21c-0.68,0.61-1.53,0.92-2.48,0.92c-1.8,0-3.69-1.13-3.69-3.91
			c0-2.23,1.37-3.96,3.62-3.96c1.46,0,2.38,0.72,2.83,1.37c0.47,0.67,0.74,1.82,0.7,2.81h-5.82c0.02,1.55,1.08,2.54,2.38,2.54
			c0.61,0,1.1-0.18,1.53-0.54c0.34-0.29,0.61-0.67,0.77-1.03L1059.79,320.65z M1058.51,318.01c-0.22-1.17-1.1-1.94-2.2-1.94
			c-1.1,0-2,0.83-2.2,1.94H1058.51z"/>
		<path class="st4" d="M1067.55,309.44h1.3v13.13h-1.3v-1.04c-0.43,0.56-1.24,1.26-2.56,1.26c-1.89,0-3.64-1.33-3.64-3.96
			c0-2.58,1.73-3.91,3.64-3.91c1.44,0,2.21,0.79,2.56,1.24V309.44z M1062.69,318.82c0,1.6,0.9,2.81,2.45,2.81
			c1.58,0,2.48-1.31,2.48-2.79c0-1.93-1.33-2.77-2.48-2.77C1063.86,316.06,1062.69,317,1062.69,318.82z"/>
	</g>
	<g>
		<path class="st4" d="M239.85,324.03c0.81,0,2.02,0.05,2.92,0.67c0.7,0.47,1.31,1.39,1.31,2.67c0,1.84-1.21,3.19-3.03,3.31
			l3.82,5.37h-1.62l-3.65-5.26h-0.34v5.26h-1.33v-12.01H239.85z M239.25,329.6h0.85c1.66,0,2.65-0.79,2.65-2.2
			c0-0.67-0.2-1.33-0.95-1.76c-0.54-0.31-1.15-0.34-1.73-0.34h-0.81V329.6z"/>
		<path class="st4" d="M252.9,334.13c-0.22,0.41-0.54,0.86-0.92,1.21c-0.68,0.61-1.53,0.92-2.48,0.92c-1.8,0-3.69-1.13-3.69-3.91
			c0-2.23,1.37-3.96,3.62-3.96c1.46,0,2.38,0.72,2.83,1.37c0.47,0.67,0.74,1.82,0.7,2.81h-5.82c0.02,1.55,1.08,2.54,2.38,2.54
			c0.61,0,1.1-0.18,1.53-0.54c0.34-0.29,0.61-0.67,0.77-1.03L252.9,334.13z M251.62,331.49c-0.22-1.17-1.1-1.94-2.2-1.94
			c-1.1,0-2,0.83-2.2,1.94H251.62z"/>
		<path class="st4" d="M260.66,322.92h1.3v13.13h-1.3V335c-0.43,0.56-1.24,1.26-2.56,1.26c-1.89,0-3.64-1.33-3.64-3.96
			c0-2.58,1.73-3.91,3.64-3.91c1.44,0,2.21,0.79,2.56,1.24V322.92z M255.8,332.3c0,1.6,0.9,2.81,2.45,2.81
			c1.58,0,2.48-1.31,2.48-2.79c0-1.93-1.33-2.77-2.48-2.77C256.97,329.54,255.8,330.48,255.8,332.3z"/>
		<path class="st4" d="M264.87,324.82c0.5,0,0.92,0.41,0.92,0.92c0,0.5-0.41,0.92-0.92,0.92s-0.92-0.41-0.92-0.92
			C263.95,325.24,264.36,324.82,264.87,324.82z M265.52,328.57v7.47h-1.3v-7.47H265.52z"/>
		<path class="st4" d="M267.96,328.57h1.3v0.81c0.13-0.2,0.68-0.99,1.69-0.99c0.4,0,0.83,0.14,1.15,0.31l-0.61,1.17
			c-0.29-0.2-0.56-0.25-0.76-0.25c-0.52,0-0.85,0.22-1.04,0.47c-0.22,0.29-0.43,0.79-0.43,2.02v3.94h-1.3V328.57z"/>
		<path class="st4" d="M279.48,334.13c-0.22,0.41-0.54,0.86-0.92,1.21c-0.68,0.61-1.53,0.92-2.48,0.92c-1.8,0-3.69-1.13-3.69-3.91
			c0-2.23,1.37-3.96,3.62-3.96c1.46,0,2.38,0.72,2.83,1.37c0.47,0.67,0.74,1.82,0.7,2.81h-5.82c0.02,1.55,1.08,2.54,2.38,2.54
			c0.61,0,1.1-0.18,1.53-0.54c0.34-0.29,0.61-0.67,0.77-1.03L279.48,334.13z M278.21,331.49c-0.22-1.17-1.1-1.94-2.2-1.94
			c-1.1,0-2,0.83-2.2,1.94H278.21z"/>
		<path class="st4" d="M287.37,330.66c-0.68-0.86-1.67-1.12-2.34-1.12c-1.39,0-2.65,0.97-2.65,2.79s1.3,2.77,2.63,2.77
			c0.77,0,1.73-0.34,2.41-1.17v1.55c-0.81,0.59-1.67,0.77-2.38,0.77c-2.32,0-4-1.66-4-3.91c0-2.29,1.69-3.96,4-3.96
			c1.19,0,1.96,0.47,2.32,0.72V330.66z"/>
		<path class="st4" d="M290.73,329.76v6.28h-1.3v-6.28h-0.79v-1.19h0.79v-2.7h1.3v2.7h1.3v1.19H290.73z"/>
		<path class="st4" d="M298.78,329.76v6.28h-1.3v-6.28h-0.79v-1.19h0.79v-2.7h1.3v2.7h1.3v1.19H298.78z"/>
		<path class="st4" d="M300.83,332.33c0-2.27,1.67-3.94,3.96-3.94s3.96,1.67,3.96,3.94s-1.69,3.92-3.96,3.92
			C302.52,336.26,300.83,334.6,300.83,332.33z M302.16,332.33c0,1.84,1.3,2.77,2.63,2.77c1.35,0,2.63-0.95,2.63-2.77
			c0-1.84-1.26-2.79-2.63-2.79C303.42,329.54,302.16,330.52,302.16,332.33z"/>
		<path class="st4" d="M320.65,328.57h1.3v7.47h-1.3V335c-0.43,0.56-1.24,1.26-2.56,1.26c-1.89,0-3.64-1.33-3.64-3.96
			c0-2.58,1.73-3.91,3.64-3.91c1.44,0,2.21,0.79,2.56,1.24V328.57z M315.79,332.3c0,1.6,0.9,2.81,2.45,2.81
			c1.58,0,2.48-1.31,2.48-2.79c0-1.93-1.33-2.77-2.48-2.77C316.96,329.54,315.79,330.48,315.79,332.3z"/>
		<path class="st4" d="M325.69,332.93c0,0.52,0,1.13,0.36,1.6c0.2,0.25,0.59,0.58,1.31,0.58s1.12-0.32,1.31-0.58
			c0.36-0.47,0.36-1.08,0.36-1.6v-4.36h1.3v4.5c0,0.92-0.09,1.6-0.68,2.25c-0.67,0.7-1.55,0.94-2.29,0.94s-1.62-0.23-2.29-0.94
			c-0.59-0.65-0.68-1.33-0.68-2.25v-4.5h1.3V332.93z"/>
		<path class="st4" d="M334.11,329.76v6.28h-1.3v-6.28h-0.79v-1.19h0.79v-2.7h1.3v2.7h1.3v1.19H334.11z"/>
		<path class="st4" d="M336.16,332.33c0-2.27,1.67-3.94,3.96-3.94s3.96,1.67,3.96,3.94s-1.69,3.92-3.96,3.92
			C337.86,336.26,336.16,334.6,336.16,332.33z M337.5,332.33c0,1.84,1.3,2.77,2.63,2.77c1.35,0,2.63-0.95,2.63-2.77
			c0-1.84-1.26-2.79-2.63-2.79C338.76,329.54,337.5,330.52,337.5,332.33z"/>
		<path class="st4" d="M346.06,328.57h1.3v0.81c0.13-0.2,0.68-0.99,1.69-0.99c0.4,0,0.83,0.14,1.15,0.31l-0.61,1.17
			c-0.29-0.2-0.56-0.25-0.76-0.25c-0.52,0-0.85,0.22-1.04,0.47c-0.22,0.29-0.43,0.79-0.43,2.02v3.94h-1.3V328.57z"/>
		<path class="st4" d="M352.04,324.82c0.5,0,0.92,0.41,0.92,0.92c0,0.5-0.41,0.92-0.92,0.92s-0.92-0.41-0.92-0.92
			C351.12,325.24,351.53,324.82,352.04,324.82z M352.69,328.57v7.47h-1.3v-7.47H352.69z"/>
		<path class="st4" d="M356.65,334.85h5.19v1.19h-7.78l5.4-6.28h-4.36v-1.19h6.95L356.65,334.85z"/>
		<path class="st4" d="M368.96,328.57h1.3v7.47h-1.3V335c-0.43,0.56-1.24,1.26-2.56,1.26c-1.89,0-3.64-1.33-3.64-3.96
			c0-2.58,1.73-3.91,3.64-3.91c1.44,0,2.21,0.79,2.56,1.24V328.57z M364.1,332.3c0,1.6,0.9,2.81,2.45,2.81
			c1.58,0,2.48-1.31,2.48-2.79c0-1.93-1.33-2.77-2.48-2.77C365.27,329.54,364.1,330.48,364.1,332.3z"/>
		<path class="st4" d="M374.03,329.76v6.28h-1.3v-6.28h-0.79v-1.19h0.79v-2.7h1.3v2.7h1.3v1.19H374.03z"/>
		<path class="st4" d="M377.2,324.82c0.5,0,0.92,0.41,0.92,0.92c0,0.5-0.41,0.92-0.92,0.92s-0.92-0.41-0.92-0.92
			C376.28,325.24,376.7,324.82,377.2,324.82z M377.85,328.57v7.47h-1.3v-7.47H377.85z"/>
		<path class="st4" d="M379.83,332.33c0-2.27,1.67-3.94,3.96-3.94s3.96,1.67,3.96,3.94s-1.69,3.92-3.96,3.92
			S379.83,334.6,379.83,332.33z M381.16,332.33c0,1.84,1.3,2.77,2.63,2.77c1.35,0,2.63-0.95,2.63-2.77c0-1.84-1.26-2.79-2.63-2.79
			C382.42,329.54,381.16,330.52,381.16,332.33z"/>
		<path class="st4" d="M389.73,328.57h1.3v0.86c0.23-0.31,0.9-1.04,2.14-1.04c0.88,0,1.69,0.36,2.14,1.03
			c0.38,0.56,0.43,1.17,0.43,2v4.63h-1.3v-4.59c0-0.45-0.04-0.97-0.34-1.37c-0.25-0.32-0.65-0.54-1.22-0.54
			c-0.45,0-0.94,0.13-1.31,0.58c-0.5,0.59-0.54,1.48-0.54,2.02v3.91h-1.3V328.57z"/>
		<path class="st4" d="M263.13,361.78h-1.3v-11.61h1.3v1.04c0.88-1.1,2.02-1.22,2.56-1.22c2.34,0,3.64,1.94,3.64,3.96
			c0,2.05-1.31,3.91-3.58,3.91c-1.21,0-2.05-0.54-2.61-1.26V361.78z M267.99,353.95c0-1.84-1.24-2.81-2.45-2.81
			c-1.21,0-2.48,0.99-2.48,2.79c0,1.53,0.97,2.77,2.5,2.77C267.07,356.71,267.99,355.45,267.99,353.95z"/>
		<path class="st4" d="M277.03,350.17h1.3v7.47h-1.3v-1.04c-0.43,0.56-1.24,1.26-2.56,1.26c-1.89,0-3.64-1.33-3.64-3.96
			c0-2.58,1.73-3.91,3.64-3.91c1.44,0,2.21,0.79,2.56,1.24V350.17z M272.17,353.9c0,1.6,0.9,2.81,2.45,2.81
			c1.58,0,2.48-1.31,2.48-2.79c0-1.93-1.33-2.77-2.48-2.77C273.34,351.14,272.17,352.08,272.17,353.9z"/>
		<path class="st4" d="M286.5,350.17h1.3v7.29c0,0.81,0,1.96-0.72,2.93c-0.56,0.76-1.58,1.39-2.99,1.39c-1.28,0-2.16-0.5-2.66-1.01
			s-0.97-1.31-0.97-2.41h1.28c0,0.63,0.25,1.19,0.58,1.55c0.54,0.59,1.22,0.72,1.8,0.72c0.92,0,1.55-0.32,1.98-1.04
			c0.38-0.61,0.41-1.28,0.41-1.91v-1.08c-0.43,0.56-1.24,1.26-2.56,1.26c-1.1,0-1.98-0.43-2.56-1.01c-0.5-0.5-1.08-1.44-1.08-2.95
			c0-1.46,0.54-2.36,1.08-2.9c0.63-0.61,1.55-1.01,2.56-1.01c1.1,0,1.96,0.47,2.56,1.24V350.17z M282.39,351.85
			c-0.63,0.65-0.76,1.44-0.76,2.05c0,0.65,0.13,1.53,0.85,2.2c0.41,0.38,0.92,0.61,1.6,0.61c0.68,0,1.22-0.22,1.64-0.63
			c0.5-0.49,0.85-1.28,0.85-2.16c0-0.88-0.32-1.66-0.79-2.11c-0.41-0.41-1.03-0.67-1.69-0.67
			C283.29,351.14,282.75,351.48,282.39,351.85z"/>
		<path class="st4" d="M296.86,355.73c-0.22,0.41-0.54,0.86-0.92,1.21c-0.68,0.61-1.53,0.92-2.48,0.92c-1.8,0-3.69-1.13-3.69-3.91
			c0-2.23,1.37-3.96,3.62-3.96c1.46,0,2.38,0.72,2.83,1.37c0.47,0.67,0.74,1.82,0.7,2.81h-5.82c0.02,1.55,1.08,2.54,2.38,2.54
			c0.61,0,1.1-0.18,1.53-0.54c0.34-0.29,0.61-0.67,0.77-1.03L296.86,355.73z M295.58,353.09c-0.22-1.17-1.1-1.94-2.2-1.94
			c-1.1,0-2,0.83-2.2,1.94H295.58z"/>
		<path class="st4" d="M302.62,353.93c0-2.27,1.67-3.94,3.96-3.94s3.96,1.67,3.96,3.94s-1.69,3.92-3.96,3.92
			C304.31,357.86,302.62,356.2,302.62,353.93z M303.95,353.93c0,1.84,1.3,2.77,2.63,2.77c1.35,0,2.63-0.95,2.63-2.77
			c0-1.84-1.26-2.79-2.63-2.79C305.21,351.14,303.95,352.12,303.95,353.93z"/>
		<path class="st4" d="M312.52,350.17h1.3v0.86c0.23-0.31,0.9-1.04,2.14-1.04c0.88,0,1.69,0.36,2.14,1.03
			c0.38,0.56,0.43,1.17,0.43,2v4.63h-1.3v-4.59c0-0.45-0.04-0.97-0.34-1.37c-0.25-0.32-0.65-0.54-1.22-0.54
			c-0.45,0-0.94,0.13-1.31,0.58c-0.5,0.59-0.54,1.48-0.54,2.02v3.91h-1.3V350.17z"/>
		<path class="st4" d="M330.86,348.01c-0.16-0.32-0.43-0.68-0.7-0.9c-0.23-0.18-0.67-0.41-1.35-0.41c-1.19,0-2.02,0.74-2.02,1.85
			c0,0.47,0.13,0.74,0.45,1.04c0.36,0.36,0.81,0.56,1.26,0.76l1.15,0.5c0.7,0.31,1.35,0.63,1.85,1.13c0.61,0.61,0.86,1.31,0.86,2.18
			c0,2.21-1.64,3.69-3.8,3.69c-0.79,0-1.78-0.16-2.61-0.97c-0.59-0.58-0.95-1.4-1.12-2.12l1.3-0.36c0.09,0.63,0.38,1.17,0.72,1.53
			c0.52,0.52,1.12,0.67,1.73,0.67c1.64,0,2.41-1.17,2.41-2.38c0-0.54-0.16-1.01-0.59-1.4c-0.34-0.32-0.81-0.54-1.44-0.83l-1.08-0.5
			c-0.47-0.22-1.06-0.47-1.6-0.99c-0.52-0.5-0.83-1.06-0.83-1.96c0-1.85,1.42-3.1,3.37-3.1c0.74,0,1.33,0.14,1.93,0.54
			c0.49,0.32,0.9,0.81,1.17,1.33L330.86,348.01z"/>
		<path class="st4" d="M335.79,361.78h-1.3v-11.61h1.3v1.04c0.88-1.1,2.02-1.22,2.56-1.22c2.34,0,3.64,1.94,3.64,3.96
			c0,2.05-1.31,3.91-3.58,3.91c-1.21,0-2.05-0.54-2.61-1.26V361.78z M340.66,353.95c0-1.84-1.24-2.81-2.45-2.81
			c-1.21,0-2.48,0.99-2.48,2.79c0,1.53,0.97,2.77,2.5,2.77C339.74,356.71,340.66,355.45,340.66,353.95z"/>
		<path class="st4" d="M343.5,353.93c0-2.27,1.67-3.94,3.96-3.94s3.96,1.67,3.96,3.94s-1.69,3.92-3.96,3.92
			C345.19,357.86,343.5,356.2,343.5,353.93z M344.83,353.93c0,1.84,1.3,2.77,2.63,2.77c1.35,0,2.63-0.95,2.63-2.77
			c0-1.84-1.26-2.79-2.63-2.79C346.09,351.14,344.83,352.12,344.83,353.93z"/>
		<path class="st4" d="M354.73,351.36v6.28h-1.3v-6.28h-0.79v-1.19h0.79v-2.7h1.3v2.7h1.3v1.19H354.73z"/>
		<path class="st4" d="M357.9,346.43c0.5,0,0.92,0.42,0.92,0.92s-0.41,0.92-0.92,0.92s-0.92-0.41-0.92-0.92
			S357.39,346.43,357.9,346.43z M358.55,350.17v7.47h-1.3v-7.47H358.55z"/>
		<path class="st4" d="M362.33,351.36v6.28h-1.3v-6.28h-0.72v-1.19h0.72v-3.26c0-0.68,0.05-1.55,0.72-2.11
			c0.36-0.31,0.9-0.49,1.49-0.49c0.47,0,0.77,0.11,0.92,0.16v1.26c-0.27-0.11-0.58-0.16-0.85-0.16c-0.29,0-0.63,0.07-0.83,0.4
			c-0.16,0.27-0.16,0.68-0.16,1.08v3.11h1.84v1.19H362.33z"/>
		<path class="st4" d="M368.03,356.94l-3.44-6.77h1.48l2.65,5.35l2.43-5.35h1.44l-5.49,11.61h-1.44L368.03,356.94z"/>
	</g>
	<g>
		<path class="st4" d="M339.38,566.19c-0.16-0.32-0.43-0.68-0.7-0.9c-0.23-0.18-0.67-0.41-1.35-0.41c-1.19,0-2.02,0.74-2.02,1.85
			c0,0.47,0.13,0.74,0.45,1.04c0.36,0.36,0.81,0.56,1.26,0.76l1.15,0.5c0.7,0.31,1.35,0.63,1.85,1.13c0.61,0.61,0.86,1.31,0.86,2.18
			c0,2.21-1.64,3.69-3.8,3.69c-0.79,0-1.78-0.16-2.61-0.97c-0.59-0.58-0.95-1.41-1.12-2.12l1.3-0.36c0.09,0.63,0.38,1.17,0.72,1.53
			c0.52,0.52,1.12,0.67,1.73,0.67c1.64,0,2.41-1.17,2.41-2.38c0-0.54-0.16-1.01-0.59-1.4c-0.34-0.32-0.81-0.54-1.44-0.83l-1.08-0.5
			c-0.47-0.22-1.06-0.47-1.6-0.99c-0.52-0.5-0.83-1.06-0.83-1.96c0-1.85,1.42-3.1,3.37-3.1c0.74,0,1.33,0.14,1.93,0.54
			c0.49,0.32,0.9,0.81,1.17,1.33L339.38,566.19z"/>
		<path class="st4" d="M349.64,573.92c-0.22,0.41-0.54,0.86-0.92,1.21c-0.68,0.61-1.53,0.92-2.48,0.92c-1.8,0-3.69-1.13-3.69-3.91
			c0-2.23,1.37-3.96,3.62-3.96c1.46,0,2.38,0.72,2.83,1.37c0.47,0.67,0.74,1.82,0.7,2.81h-5.82c0.02,1.55,1.08,2.54,2.38,2.54
			c0.61,0,1.1-0.18,1.53-0.54c0.34-0.29,0.61-0.67,0.77-1.03L349.64,573.92z M348.36,571.27c-0.22-1.17-1.1-1.94-2.2-1.94
			c-1.1,0-2,0.83-2.2,1.94H348.36z"/>
		<path class="st4" d="M357.39,568.35h1.3v7.47h-1.3v-1.04c-0.43,0.56-1.24,1.26-2.56,1.26c-1.89,0-3.64-1.33-3.64-3.96
			c0-2.58,1.73-3.91,3.64-3.91c1.44,0,2.21,0.79,2.56,1.24V568.35z M352.53,572.08c0,1.6,0.9,2.81,2.45,2.81
			c1.58,0,2.48-1.31,2.48-2.79c0-1.93-1.33-2.77-2.48-2.77C353.7,569.33,352.53,570.26,352.53,572.08z"/>
		<path class="st4" d="M361.14,568.35h1.3v0.81c0.13-0.2,0.68-0.99,1.69-0.99c0.4,0,0.83,0.14,1.15,0.31l-0.61,1.17
			c-0.29-0.2-0.56-0.25-0.76-0.25c-0.52,0-0.85,0.22-1.04,0.47c-0.22,0.29-0.43,0.79-0.43,2.02v3.94h-1.3V568.35z"/>
		<path class="st4" d="M371.88,570.44c-0.68-0.86-1.67-1.12-2.34-1.12c-1.39,0-2.65,0.97-2.65,2.79s1.3,2.77,2.63,2.77
			c0.77,0,1.73-0.34,2.41-1.17v1.55c-0.81,0.59-1.67,0.77-2.38,0.77c-2.32,0-4-1.66-4-3.91c0-2.29,1.69-3.96,4-3.96
			c1.19,0,1.96,0.47,2.32,0.72V570.44z"/>
		<path class="st4" d="M373.92,562.7h1.3v6.52c0.23-0.31,0.9-1.04,2.14-1.04c0.88,0,1.69,0.36,2.14,1.03c0.38,0.56,0.43,1.17,0.43,2
			v4.63h-1.3v-4.59c0-0.45-0.04-0.97-0.34-1.37c-0.25-0.32-0.65-0.54-1.22-0.54c-0.45,0-0.94,0.13-1.31,0.58
			c-0.5,0.59-0.54,1.48-0.54,2.02v3.91h-1.3V562.7z"/>
		<path class="st4" d="M387.9,569.54v6.28h-1.3v-6.28h-0.72v-1.19h0.72v-3.26c0-0.68,0.05-1.55,0.72-2.11
			c0.36-0.31,0.9-0.49,1.49-0.49c0.47,0,0.77,0.11,0.92,0.16v1.26c-0.27-0.11-0.58-0.16-0.85-0.16c-0.29,0-0.63,0.07-0.83,0.4
			c-0.16,0.27-0.16,0.68-0.16,1.08v3.11h1.84v1.19H387.9z"/>
		<path class="st4" d="M390.42,572.12c0-2.27,1.67-3.94,3.96-3.94s3.96,1.67,3.96,3.94s-1.69,3.92-3.96,3.92
			C392.11,576.04,390.42,574.39,390.42,572.12z M391.75,572.12c0,1.84,1.3,2.77,2.63,2.77c1.35,0,2.63-0.95,2.63-2.77
			c0-1.84-1.26-2.79-2.63-2.79C393.01,569.33,391.75,570.3,391.75,572.12z"/>
		<path class="st4" d="M400.32,568.35h1.3v0.81c0.13-0.2,0.68-0.99,1.69-0.99c0.4,0,0.83,0.14,1.15,0.31l-0.61,1.17
			c-0.29-0.2-0.56-0.25-0.76-0.25c-0.52,0-0.85,0.22-1.04,0.47c-0.22,0.29-0.43,0.79-0.43,2.02v3.94h-1.3V568.35z"/>
		<path class="st4" d="M411.18,569.54v6.28h-1.3v-6.28h-0.79v-1.19h0.79v-2.7h1.3v2.7h1.3v1.19H411.18z"/>
		<path class="st4" d="M413.69,568.35h1.3v0.81c0.13-0.2,0.68-0.99,1.69-0.99c0.4,0,0.83,0.14,1.15,0.31l-0.61,1.17
			c-0.29-0.2-0.56-0.25-0.76-0.25c-0.52,0-0.85,0.22-1.04,0.47c-0.22,0.29-0.43,0.79-0.43,2.02v3.94h-1.3V568.35z"/>
		<path class="st4" d="M424.37,568.35h1.3v7.47h-1.3v-1.04c-0.43,0.56-1.24,1.26-2.56,1.26c-1.89,0-3.64-1.33-3.64-3.96
			c0-2.58,1.73-3.91,3.64-3.91c1.44,0,2.21,0.79,2.56,1.24V568.35z M419.51,572.08c0,1.6,0.9,2.81,2.45,2.81
			c1.58,0,2.48-1.31,2.48-2.79c0-1.93-1.33-2.77-2.48-2.77C420.68,569.33,419.51,570.26,419.51,572.08z"/>
		<path class="st4" d="M433.96,570.44c-0.68-0.86-1.67-1.12-2.34-1.12c-1.39,0-2.65,0.97-2.65,2.79s1.3,2.77,2.63,2.77
			c0.77,0,1.73-0.34,2.41-1.17v1.55c-0.81,0.59-1.67,0.77-2.38,0.77c-2.32,0-4-1.66-4-3.91c0-2.29,1.69-3.96,4-3.96
			c1.19,0,1.96,0.47,2.32,0.72V570.44z"/>
		<path class="st4" d="M437.29,562.7v8.43l2.74-2.77h1.69l-3.21,3.21l3.78,4.27h-1.69l-2.99-3.4l-0.32,0.32v3.08H436V562.7H437.29z"
			/>
		<path class="st4" d="M446.67,570.08c-0.18-0.43-0.56-0.76-1.04-0.76c-0.47,0-0.9,0.27-0.9,0.85c0,0.54,0.36,0.7,1.21,1.06
			c1.08,0.45,1.58,0.79,1.87,1.15c0.32,0.4,0.4,0.79,0.4,1.21c0,1.57-1.13,2.45-2.58,2.45c-0.31,0-1.98-0.04-2.61-1.91l1.12-0.47
			c0.14,0.4,0.58,1.22,1.51,1.22c0.85,0,1.22-0.63,1.22-1.19c0-0.7-0.5-0.94-1.21-1.24c-0.9-0.4-1.48-0.68-1.82-1.1
			c-0.29-0.36-0.34-0.72-0.34-1.1c0-1.31,0.92-2.09,2.18-2.09c0.4,0,1.46,0.07,2.05,1.35L446.67,570.08z"/>
	</g>
	<g>
		<path class="st2" d="M267.21,587.46H101.68c-8.9,0-16.12-7.22-16.12-16.12l0,0c0-8.9,7.22-16.12,16.12-16.12h165.53
			c8.9,0,16.12,7.22,16.12,16.12l0,0C283.33,580.24,276.12,587.46,267.21,587.46z"/>
		<path class="st4" d="M267.21,587.96H101.68c-9.17,0-16.62-7.46-16.62-16.62c0-9.17,7.46-16.62,16.62-16.62h165.53
			c9.17,0,16.62,7.46,16.62,16.62C283.83,580.5,276.38,587.96,267.21,587.96z M101.68,555.71c-8.61,0-15.62,7.01-15.62,15.62
			c0,8.62,7.01,15.62,15.62,15.62h165.53c8.61,0,15.62-7.01,15.62-15.62c0-8.61-7.01-15.62-15.62-15.62H101.68z"/>
	</g>
	<g>
		<path class="st4" d="M147.62,569.79h5.01v0.29c0,1.33-0.4,2.77-1.15,3.8c-0.36,0.49-1.71,2.16-4.47,2.16
			c-3.56,0-6.23-2.72-6.23-6.21s2.68-6.21,6.27-6.21c1.15,0,2.5,0.29,3.67,1.19c0.54,0.41,1.04,0.95,1.39,1.42l-0.99,0.9
			c-0.34-0.49-0.74-0.92-1.13-1.24c-0.58-0.47-1.48-1.01-2.92-1.01c-2.9,0-4.92,2.18-4.92,4.97c0,3.28,2.61,4.93,4.88,4.93
			c1.6,0,2.99-0.81,3.67-2.02c0.22-0.38,0.45-0.96,0.49-1.71h-3.57V569.79z"/>
		<path class="st4" d="M161.38,573.92c-0.22,0.41-0.54,0.86-0.92,1.21c-0.68,0.61-1.53,0.92-2.48,0.92c-1.8,0-3.69-1.13-3.69-3.91
			c0-2.23,1.37-3.96,3.62-3.96c1.46,0,2.38,0.72,2.83,1.37c0.47,0.67,0.74,1.82,0.7,2.81h-5.82c0.02,1.55,1.08,2.54,2.38,2.54
			c0.61,0,1.1-0.18,1.53-0.54c0.34-0.29,0.61-0.67,0.77-1.03L161.38,573.92z M160.1,571.27c-0.22-1.17-1.1-1.94-2.2-1.94
			c-1.1,0-2,0.83-2.2,1.94H160.1z"/>
		<path class="st4" d="M164.74,569.54v6.28h-1.3v-6.28h-0.79v-1.19h0.79v-2.7h1.3v2.7h1.3v1.19H164.74z"/>
		<path class="st4" d="M172.75,572.71c0,0.52,0,1.13,0.36,1.6c0.2,0.25,0.59,0.58,1.31,0.58s1.12-0.32,1.31-0.58
			c0.36-0.47,0.36-1.08,0.36-1.6v-4.36h1.3v4.5c0,0.92-0.09,1.6-0.68,2.25c-0.67,0.7-1.55,0.94-2.29,0.94s-1.62-0.23-2.29-0.94
			c-0.59-0.65-0.68-1.33-0.68-2.25v-4.5h1.3V572.71z"/>
		<path class="st4" d="M182.92,570.08c-0.18-0.43-0.56-0.76-1.04-0.76c-0.47,0-0.9,0.27-0.9,0.85c0,0.54,0.36,0.7,1.21,1.06
			c1.08,0.45,1.58,0.79,1.87,1.15c0.32,0.4,0.4,0.79,0.4,1.21c0,1.57-1.13,2.45-2.57,2.45c-0.31,0-1.98-0.04-2.61-1.91l1.12-0.47
			c0.14,0.4,0.58,1.22,1.51,1.22c0.85,0,1.22-0.63,1.22-1.19c0-0.7-0.5-0.94-1.21-1.24c-0.9-0.4-1.48-0.68-1.82-1.1
			c-0.29-0.36-0.34-0.72-0.34-1.1c0-1.31,0.92-2.09,2.18-2.09c0.4,0,1.46,0.07,2.05,1.35L182.92,570.08z"/>
		<path class="st4" d="M192.8,573.92c-0.22,0.41-0.54,0.86-0.92,1.21c-0.68,0.61-1.53,0.92-2.48,0.92c-1.8,0-3.69-1.13-3.69-3.91
			c0-2.23,1.37-3.96,3.62-3.96c1.46,0,2.38,0.72,2.83,1.37c0.47,0.67,0.74,1.82,0.7,2.81h-5.82c0.02,1.55,1.08,2.54,2.38,2.54
			c0.61,0,1.1-0.18,1.53-0.54c0.34-0.29,0.61-0.67,0.77-1.03L192.8,573.92z M191.52,571.27c-0.22-1.17-1.1-1.94-2.2-1.94
			c-1.1,0-2,0.83-2.2,1.94H191.52z"/>
		<path class="st4" d="M194.83,568.35h1.3v0.81c0.13-0.2,0.68-0.99,1.69-0.99c0.4,0,0.83,0.14,1.15,0.31l-0.61,1.17
			c-0.29-0.2-0.56-0.25-0.76-0.25c-0.52,0-0.85,0.22-1.04,0.47c-0.22,0.29-0.43,0.79-0.43,2.02v3.94h-1.3V568.35z"/>
		<path class="st4" d="M205,564.61c0.5,0,0.92,0.41,0.92,0.92c0,0.5-0.41,0.92-0.92,0.92s-0.92-0.41-0.92-0.92
			C204.09,565.02,204.5,564.61,205,564.61z M205.65,568.35v7.47h-1.3v-7.47H205.65z"/>
		<path class="st4" d="M208.1,568.35h1.3v0.86c0.23-0.31,0.9-1.04,2.14-1.04c0.88,0,1.69,0.36,2.14,1.03c0.38,0.56,0.43,1.17,0.43,2
			v4.63h-1.3v-4.59c0-0.45-0.04-0.97-0.34-1.37c-0.25-0.32-0.65-0.54-1.22-0.54c-0.45,0-0.94,0.13-1.31,0.58
			c-0.5,0.59-0.54,1.48-0.54,2.02v3.91h-1.3V568.35z"/>
		<path class="st4" d="M217.89,569.54v6.28h-1.3v-6.28h-0.72v-1.19h0.72v-3.26c0-0.68,0.05-1.55,0.72-2.11
			c0.36-0.31,0.9-0.49,1.49-0.49c0.47,0,0.77,0.11,0.92,0.16v1.26c-0.27-0.11-0.58-0.16-0.85-0.16c-0.29,0-0.63,0.07-0.83,0.4
			c-0.16,0.27-0.16,0.68-0.16,1.08v3.11h1.84v1.19H217.89z"/>
		<path class="st4" d="M220.41,572.12c0-2.27,1.67-3.94,3.96-3.94s3.96,1.67,3.96,3.94s-1.69,3.92-3.96,3.92
			C222.1,576.04,220.41,574.39,220.41,572.12z M221.74,572.12c0,1.84,1.3,2.77,2.63,2.77c1.35,0,2.63-0.95,2.63-2.77
			c0-1.84-1.26-2.79-2.63-2.79C223,569.33,221.74,570.3,221.74,572.12z"/>
	</g>
	<g>
		<path class="st4" d="M554.21,566.46c-0.38-0.38-0.95-0.83-1.57-1.12c-0.63-0.29-1.37-0.47-2.07-0.47c-2.77,0-4.83,2.23-4.83,5.01
			c0,3.26,2.65,4.9,4.84,4.9c0.81,0,1.6-0.23,2.23-0.56c0.68-0.34,1.17-0.79,1.39-1.01v1.66c-1.33,0.95-2.72,1.17-3.62,1.17
			c-3.57,0-6.21-2.7-6.21-6.18c0-3.58,2.68-6.25,6.28-6.25c0.72,0,2.11,0.09,3.55,1.19V566.46z"/>
		<path class="st4" d="M556.33,568.35h1.3v0.81c0.13-0.2,0.68-0.99,1.69-0.99c0.4,0,0.83,0.14,1.15,0.31l-0.61,1.17
			c-0.29-0.2-0.56-0.25-0.76-0.25c-0.52,0-0.85,0.22-1.04,0.47c-0.22,0.29-0.43,0.79-0.43,2.02v3.94h-1.3V568.35z"/>
		<path class="st4" d="M567.85,573.92c-0.22,0.41-0.54,0.86-0.92,1.21c-0.68,0.61-1.53,0.92-2.48,0.92c-1.8,0-3.69-1.13-3.69-3.91
			c0-2.23,1.37-3.96,3.62-3.96c1.46,0,2.38,0.72,2.83,1.37c0.47,0.67,0.74,1.82,0.7,2.81h-5.82c0.02,1.55,1.08,2.54,2.38,2.54
			c0.61,0,1.1-0.18,1.53-0.54c0.34-0.29,0.61-0.67,0.77-1.03L567.85,573.92z M566.58,571.27c-0.22-1.17-1.1-1.94-2.2-1.94
			c-1.1,0-2,0.83-2.2,1.94H566.58z"/>
		<path class="st4" d="M575.61,568.35h1.3v7.47h-1.3v-1.04c-0.43,0.56-1.24,1.26-2.56,1.26c-1.89,0-3.64-1.33-3.64-3.96
			c0-2.58,1.73-3.91,3.64-3.91c1.44,0,2.21,0.79,2.56,1.24V568.35z M570.75,572.08c0,1.6,0.9,2.81,2.45,2.81
			c1.58,0,2.48-1.31,2.48-2.79c0-1.93-1.33-2.77-2.48-2.77C571.92,569.33,570.75,570.26,570.75,572.08z"/>
		<path class="st4" d="M580.69,569.54v6.28h-1.3v-6.28h-0.79v-1.19h0.79v-2.7h1.3v2.7h1.3v1.19H580.69z"/>
		<path class="st4" d="M589.83,573.92c-0.22,0.41-0.54,0.86-0.92,1.21c-0.68,0.61-1.53,0.92-2.48,0.92c-1.8,0-3.69-1.13-3.69-3.91
			c0-2.23,1.37-3.96,3.62-3.96c1.46,0,2.38,0.72,2.83,1.37c0.47,0.67,0.74,1.82,0.7,2.81h-5.82c0.02,1.55,1.08,2.54,2.38,2.54
			c0.61,0,1.1-0.18,1.53-0.54c0.34-0.29,0.61-0.67,0.77-1.03L589.83,573.92z M588.55,571.27c-0.22-1.17-1.1-1.94-2.2-1.94
			c-1.1,0-2,0.83-2.2,1.94H588.55z"/>
		<path class="st4" d="M597.35,579.97h-1.3v-11.61h1.3v1.04c0.88-1.1,2.02-1.22,2.56-1.22c2.34,0,3.64,1.94,3.64,3.96
			c0,2.05-1.31,3.91-3.58,3.91c-1.21,0-2.05-0.54-2.61-1.26V579.97z M602.22,572.13c0-1.84-1.24-2.81-2.45-2.81
			c-1.21,0-2.48,0.99-2.48,2.79c0,1.53,0.97,2.77,2.5,2.77C601.3,574.89,602.22,573.63,602.22,572.13z"/>
		<path class="st4" d="M606.82,562.7v13.13h-1.3V562.7H606.82z"/>
		<path class="st4" d="M615,568.35h1.3v7.47H615v-1.04c-0.43,0.56-1.24,1.26-2.56,1.26c-1.89,0-3.64-1.33-3.64-3.96
			c0-2.58,1.73-3.91,3.64-3.91c1.44,0,2.21,0.79,2.56,1.24V568.35z M610.13,572.08c0,1.6,0.9,2.81,2.45,2.81
			c1.58,0,2.48-1.31,2.48-2.79c0-1.93-1.33-2.77-2.48-2.77C611.3,569.33,610.13,570.26,610.13,572.08z"/>
		<path class="st4" d="M621.1,575.12l-3.44-6.77h1.48l2.65,5.35l2.43-5.35h1.44l-5.49,11.61h-1.44L621.1,575.12z"/>
		<path class="st4" d="M628.31,562.7v13.13h-1.3V562.7H628.31z"/>
		<path class="st4" d="M631.41,564.61c0.5,0,0.92,0.41,0.92,0.92c0,0.5-0.41,0.92-0.92,0.92s-0.92-0.41-0.92-0.92
			C630.49,565.02,630.9,564.61,631.41,564.61z M632.06,568.35v7.47h-1.3v-7.47H632.06z"/>
		<path class="st4" d="M637.58,570.08c-0.18-0.43-0.56-0.76-1.04-0.76c-0.47,0-0.9,0.27-0.9,0.85c0,0.54,0.36,0.7,1.21,1.06
			c1.08,0.45,1.58,0.79,1.87,1.15c0.32,0.4,0.4,0.79,0.4,1.21c0,1.57-1.13,2.45-2.58,2.45c-0.31,0-1.98-0.04-2.61-1.91l1.12-0.47
			c0.14,0.4,0.58,1.22,1.51,1.22c0.85,0,1.22-0.63,1.22-1.19c0-0.7-0.5-0.94-1.21-1.24c-0.9-0.4-1.48-0.68-1.82-1.1
			c-0.29-0.36-0.34-0.72-0.34-1.1c0-1.31,0.92-2.09,2.18-2.09c0.4,0,1.46,0.07,2.05,1.35L637.58,570.08z"/>
		<path class="st4" d="M642.17,569.54v6.28h-1.3v-6.28h-0.79v-1.19h0.79v-2.7h1.3v2.7h1.3v1.19H642.17z"/>
		<path class="st4" d="M647.77,570.08c-0.18-0.43-0.56-0.76-1.04-0.76c-0.47,0-0.9,0.27-0.9,0.85c0,0.54,0.36,0.7,1.21,1.06
			c1.08,0.45,1.58,0.79,1.87,1.15c0.32,0.4,0.4,0.79,0.4,1.21c0,1.57-1.13,2.45-2.58,2.45c-0.31,0-1.98-0.04-2.61-1.91l1.12-0.47
			c0.14,0.4,0.58,1.22,1.51,1.22c0.85,0,1.22-0.63,1.22-1.19c0-0.7-0.5-0.94-1.21-1.24c-0.9-0.4-1.48-0.68-1.82-1.1
			c-0.29-0.36-0.34-0.72-0.34-1.1c0-1.31,0.92-2.09,2.18-2.09c0.4,0,1.46,0.07,2.05,1.35L647.77,570.08z"/>
	</g>
	<g>
		<path class="st4" d="M768.16,565.08h-4.9v3.56h4.75v1.26h-4.75v4.66h4.9v1.26h-6.23v-12.01h6.23V565.08z"/>
		<path class="st4" d="M776.01,562.7h1.3v13.13h-1.3v-1.04c-0.43,0.56-1.24,1.26-2.56,1.26c-1.89,0-3.64-1.33-3.64-3.96
			c0-2.58,1.73-3.91,3.64-3.91c1.44,0,2.21,0.79,2.56,1.24V562.7z M771.14,572.08c0,1.6,0.9,2.81,2.45,2.81
			c1.58,0,2.48-1.31,2.48-2.79c0-1.93-1.33-2.77-2.48-2.77C772.32,569.33,771.14,570.26,771.14,572.08z"/>
		<path class="st4" d="M780.22,564.61c0.5,0,0.92,0.41,0.92,0.92c0,0.5-0.42,0.92-0.92,0.92s-0.92-0.41-0.92-0.92
			C779.3,565.02,779.71,564.61,780.22,564.61z M780.87,568.35v7.47h-1.3v-7.47H780.87z"/>
		<path class="st4" d="M784.64,569.54v6.28h-1.3v-6.28h-0.79v-1.19h0.79v-2.7h1.3v2.7h1.3v1.19H784.64z"/>
		<path class="st4" d="M792.65,579.97h-1.3v-11.61h1.3v1.04c0.88-1.1,2.02-1.22,2.56-1.22c2.34,0,3.64,1.94,3.64,3.96
			c0,2.05-1.31,3.91-3.58,3.91c-1.21,0-2.05-0.54-2.61-1.26V579.97z M797.52,572.13c0-1.84-1.24-2.81-2.45-2.81
			c-1.21,0-2.49,0.99-2.49,2.79c0,1.53,0.97,2.77,2.5,2.77C796.6,574.89,797.52,573.63,797.52,572.13z"/>
		<path class="st4" d="M802.12,562.7v13.13h-1.3V562.7H802.12z"/>
		<path class="st4" d="M810.29,568.35h1.3v7.47h-1.3v-1.04c-0.43,0.56-1.24,1.26-2.56,1.26c-1.89,0-3.64-1.33-3.64-3.96
			c0-2.58,1.73-3.91,3.64-3.91c1.44,0,2.21,0.79,2.56,1.24V568.35z M805.43,572.08c0,1.6,0.9,2.81,2.45,2.81
			c1.58,0,2.49-1.31,2.49-2.79c0-1.93-1.33-2.77-2.49-2.77C806.6,569.33,805.43,570.26,805.43,572.08z"/>
		<path class="st4" d="M816.4,575.12l-3.44-6.77h1.48l2.65,5.35l2.43-5.35h1.44l-5.49,11.61h-1.44L816.4,575.12z"/>
		<path class="st4" d="M823.61,562.7v13.13h-1.3V562.7H823.61z"/>
		<path class="st4" d="M826.71,564.61c0.5,0,0.92,0.41,0.92,0.92c0,0.5-0.41,0.92-0.92,0.92c-0.5,0-0.92-0.41-0.92-0.92
			C825.79,565.02,826.2,564.61,826.71,564.61z M827.36,568.35v7.47h-1.3v-7.47H827.36z"/>
		<path class="st4" d="M832.88,570.08c-0.18-0.43-0.56-0.76-1.04-0.76c-0.47,0-0.9,0.27-0.9,0.85c0,0.54,0.36,0.7,1.21,1.06
			c1.08,0.45,1.58,0.79,1.87,1.15c0.32,0.4,0.4,0.79,0.4,1.21c0,1.57-1.13,2.45-2.57,2.45c-0.31,0-1.98-0.04-2.61-1.91l1.12-0.47
			c0.14,0.4,0.58,1.22,1.51,1.22c0.85,0,1.22-0.63,1.22-1.19c0-0.7-0.5-0.94-1.21-1.24c-0.9-0.4-1.48-0.68-1.82-1.1
			c-0.29-0.36-0.34-0.72-0.34-1.1c0-1.31,0.92-2.09,2.18-2.09c0.4,0,1.46,0.07,2.05,1.35L832.88,570.08z"/>
		<path class="st4" d="M837.47,569.54v6.28h-1.3v-6.28h-0.79v-1.19h0.79v-2.7h1.3v2.7h1.3v1.19H837.47z"/>
		<path class="st4" d="M843.07,570.08c-0.18-0.43-0.56-0.76-1.04-0.76c-0.47,0-0.9,0.27-0.9,0.85c0,0.54,0.36,0.7,1.21,1.06
			c1.08,0.45,1.58,0.79,1.87,1.15c0.32,0.4,0.4,0.79,0.4,1.21c0,1.57-1.13,2.45-2.58,2.45c-0.31,0-1.98-0.04-2.61-1.91l1.12-0.47
			c0.14,0.4,0.58,1.22,1.51,1.22c0.85,0,1.22-0.63,1.22-1.19c0-0.7-0.5-0.94-1.21-1.24c-0.9-0.4-1.48-0.68-1.82-1.1
			c-0.29-0.36-0.34-0.72-0.34-1.1c0-1.31,0.92-2.09,2.18-2.09c0.4,0,1.46,0.07,2.05,1.35L843.07,570.08z"/>
	</g>
	<g>
		<path class="st4" d="M957.35,566.53c-0.16-0.32-0.43-0.68-0.7-0.9c-0.23-0.18-0.67-0.41-1.35-0.41c-1.19,0-2.02,0.74-2.02,1.85
			c0,0.47,0.13,0.74,0.45,1.04c0.36,0.36,0.81,0.56,1.26,0.76l1.15,0.5c0.7,0.31,1.35,0.63,1.86,1.13c0.61,0.61,0.86,1.31,0.86,2.18
			c0,2.21-1.64,3.69-3.8,3.69c-0.79,0-1.78-0.16-2.61-0.97c-0.59-0.58-0.95-1.4-1.12-2.12l1.3-0.36c0.09,0.63,0.38,1.17,0.72,1.53
			c0.52,0.52,1.12,0.67,1.73,0.67c1.64,0,2.41-1.17,2.41-2.38c0-0.54-0.16-1.01-0.59-1.4c-0.34-0.32-0.81-0.54-1.44-0.83l-1.08-0.5
			c-0.47-0.22-1.06-0.47-1.6-0.99c-0.52-0.5-0.83-1.06-0.83-1.96c0-1.85,1.42-3.1,3.37-3.1c0.74,0,1.33,0.14,1.93,0.54
			c0.49,0.32,0.9,0.81,1.17,1.33L957.35,566.53z"/>
		<path class="st4" d="M966.71,568.69h1.3v7.47h-1.3v-1.04c-0.43,0.56-1.24,1.26-2.56,1.26c-1.89,0-3.64-1.33-3.64-3.96
			c0-2.58,1.73-3.91,3.64-3.91c1.44,0,2.21,0.79,2.56,1.24V568.69z M961.85,572.41c0,1.6,0.9,2.81,2.45,2.81
			c1.58,0,2.48-1.31,2.48-2.79c0-1.93-1.33-2.77-2.48-2.77C963.02,569.66,961.85,570.6,961.85,572.41z"/>
		<path class="st4" d="M970.81,568.69l2.23,5.04l2.23-5.04h1.44l-3.67,7.96l-3.67-7.96H970.81z"/>
		<path class="st4" d="M984.71,574.25c-0.22,0.41-0.54,0.86-0.92,1.21c-0.68,0.61-1.53,0.92-2.48,0.92c-1.8,0-3.69-1.13-3.69-3.91
			c0-2.23,1.37-3.96,3.62-3.96c1.46,0,2.38,0.72,2.83,1.37c0.47,0.67,0.74,1.82,0.7,2.81h-5.82c0.02,1.55,1.08,2.54,2.38,2.54
			c0.61,0,1.1-0.18,1.53-0.54c0.34-0.29,0.61-0.67,0.77-1.03L984.71,574.25z M983.43,571.6c-0.22-1.17-1.1-1.94-2.2-1.94
			c-1.1,0-2,0.83-2.2,1.94H983.43z"/>
		<path class="st4" d="M991.58,564.94c0.5,0,0.92,0.42,0.92,0.92s-0.41,0.92-0.92,0.92s-0.92-0.41-0.92-0.92
			S991.08,564.94,991.58,564.94z M992.23,568.69v7.47h-1.29v-7.47H992.23z"/>
		<path class="st4" d="M996.01,569.88v6.28h-1.3v-6.28h-0.79v-1.19h0.79v-2.7h1.3v2.7h1.3v1.19H996.01z"/>
		<path class="st4" d="M1002.26,572.45c0-2.27,1.67-3.94,3.96-3.94c2.29,0,3.96,1.67,3.96,3.94s-1.69,3.92-3.96,3.92
			C1003.95,576.38,1002.26,574.72,1002.26,572.45z M1003.59,572.45c0,1.84,1.3,2.77,2.63,2.77c1.35,0,2.63-0.95,2.63-2.77
			c0-1.84-1.26-2.79-2.63-2.79C1004.85,569.66,1003.59,570.63,1003.59,572.45z"/>
		<path class="st4" d="M1012.16,568.69h1.3v0.86c0.23-0.31,0.9-1.04,2.14-1.04c0.88,0,1.69,0.36,2.14,1.03
			c0.38,0.56,0.43,1.17,0.43,2v4.63h-1.3v-4.59c0-0.45-0.04-0.97-0.34-1.37c-0.25-0.32-0.65-0.54-1.22-0.54
			c-0.45,0-0.94,0.13-1.31,0.58c-0.5,0.59-0.54,1.48-0.54,2.02v3.91h-1.3V568.69z"/>
		<path class="st4" d="M1027.89,570.42c-0.18-0.43-0.56-0.76-1.04-0.76c-0.47,0-0.9,0.27-0.9,0.85c0,0.54,0.36,0.7,1.21,1.06
			c1.08,0.45,1.58,0.79,1.87,1.15c0.32,0.4,0.4,0.79,0.4,1.21c0,1.57-1.13,2.45-2.58,2.45c-0.3,0-1.98-0.04-2.61-1.91l1.12-0.47
			c0.14,0.4,0.58,1.22,1.51,1.22c0.85,0,1.22-0.63,1.22-1.19c0-0.7-0.5-0.94-1.21-1.24c-0.9-0.4-1.48-0.68-1.82-1.1
			c-0.29-0.36-0.34-0.72-0.34-1.1c0-1.31,0.92-2.09,2.18-2.09c0.4,0,1.46,0.07,2.05,1.35L1027.89,570.42z"/>
		<path class="st4" d="M1032.44,580.3h-1.29v-11.61h1.29v1.04c0.88-1.1,2.02-1.22,2.56-1.22c2.34,0,3.64,1.94,3.64,3.96
			c0,2.05-1.31,3.91-3.58,3.91c-1.21,0-2.05-0.54-2.61-1.26V580.3z M1037.3,572.47c0-1.84-1.24-2.81-2.45-2.81
			c-1.21,0-2.49,0.99-2.49,2.79c0,1.53,0.97,2.77,2.5,2.77C1036.38,575.22,1037.3,573.96,1037.3,572.47z"/>
		<path class="st4" d="M1040.15,572.45c0-2.27,1.67-3.94,3.96-3.94s3.96,1.67,3.96,3.94s-1.69,3.92-3.96,3.92
			S1040.15,574.72,1040.15,572.45z M1041.48,572.45c0,1.84,1.29,2.77,2.63,2.77c1.35,0,2.63-0.95,2.63-2.77
			c0-1.84-1.26-2.79-2.63-2.79S1041.48,570.63,1041.48,572.45z"/>
		<path class="st4" d="M1051.38,569.88v6.28h-1.3v-6.28h-0.79v-1.19h0.79v-2.7h1.3v2.7h1.3v1.19H1051.38z"/>
		<path class="st4" d="M1054.54,564.94c0.5,0,0.92,0.42,0.92,0.92s-0.41,0.92-0.92,0.92s-0.92-0.41-0.92-0.92
			S1054.04,564.94,1054.54,564.94z M1055.19,568.69v7.47h-1.3v-7.47H1055.19z"/>
		<path class="st4" d="M1058.97,569.88v6.28h-1.3v-6.28h-0.72v-1.19h0.72v-3.26c0-0.68,0.05-1.55,0.72-2.11
			c0.36-0.31,0.9-0.49,1.49-0.49c0.47,0,0.78,0.11,0.92,0.16v1.26c-0.27-0.11-0.58-0.16-0.85-0.16c-0.29,0-0.63,0.07-0.83,0.4
			c-0.16,0.27-0.16,0.68-0.16,1.08v3.11h1.84v1.19H1058.97z"/>
		<path class="st4" d="M1064.68,575.46l-3.44-6.77h1.48l2.65,5.35l2.43-5.35h1.44l-5.49,11.61h-1.44L1064.68,575.46z"/>
	</g>
	<g>
		<path class="st4" d="M1149.62,571.18c0,1.01,0,2.11,0.95,2.92c0.49,0.41,1.31,0.68,1.98,0.68c0.67,0,1.49-0.27,1.98-0.68
			c0.95-0.81,0.95-1.91,0.95-2.92v-7.36h1.33v7.72c0,1.01-0.11,1.98-0.76,2.88c-0.72,0.99-1.98,1.62-3.51,1.62
			c-1.53,0-2.79-0.63-3.51-1.62c-0.65-0.9-0.76-1.87-0.76-2.88v-7.72h1.33V571.18z"/>
		<path class="st4" d="M1160.89,579.97h-1.3v-11.61h1.3v1.04c0.88-1.1,2.02-1.22,2.56-1.22c2.34,0,3.64,1.94,3.64,3.96
			c0,2.05-1.31,3.91-3.58,3.91c-1.21,0-2.05-0.54-2.61-1.26V579.97z M1165.75,572.13c0-1.84-1.24-2.81-2.45-2.81
			s-2.48,0.99-2.48,2.79c0,1.53,0.97,2.77,2.5,2.77C1164.83,574.89,1165.75,573.63,1165.75,572.13z"/>
		<path class="st4" d="M1174.79,562.7h1.3v13.13h-1.3v-1.04c-0.43,0.56-1.24,1.26-2.56,1.26c-1.89,0-3.64-1.33-3.64-3.96
			c0-2.58,1.73-3.91,3.64-3.91c1.44,0,2.21,0.79,2.56,1.24V562.7z M1169.93,572.08c0,1.6,0.9,2.81,2.45,2.81
			c1.58,0,2.49-1.31,2.49-2.79c0-1.93-1.33-2.77-2.49-2.77C1171.1,569.33,1169.93,570.26,1169.93,572.08z"/>
		<path class="st4" d="M1184.26,568.35h1.3v7.47h-1.3v-1.04c-0.43,0.56-1.24,1.26-2.56,1.26c-1.89,0-3.64-1.33-3.64-3.96
			c0-2.58,1.73-3.91,3.64-3.91c1.44,0,2.21,0.79,2.56,1.24V568.35z M1179.39,572.08c0,1.6,0.9,2.81,2.45,2.81
			c1.58,0,2.49-1.31,2.49-2.79c0-1.93-1.33-2.77-2.49-2.77C1180.56,569.33,1179.39,570.26,1179.39,572.08z"/>
		<path class="st4" d="M1189.33,569.54v6.28h-1.3v-6.28h-0.79v-1.19h0.79v-2.7h1.3v2.7h1.3v1.19H1189.33z"/>
		<path class="st4" d="M1198.48,573.92c-0.22,0.41-0.54,0.86-0.92,1.21c-0.68,0.61-1.53,0.92-2.49,0.92c-1.8,0-3.69-1.13-3.69-3.91
			c0-2.23,1.37-3.96,3.62-3.96c1.46,0,2.38,0.72,2.83,1.37c0.47,0.67,0.74,1.82,0.7,2.81h-5.82c0.02,1.55,1.08,2.54,2.38,2.54
			c0.61,0,1.1-0.18,1.53-0.54c0.34-0.29,0.61-0.67,0.77-1.03L1198.48,573.92z M1197.2,571.27c-0.22-1.17-1.1-1.94-2.2-1.94
			c-1.1,0-2,0.83-2.2,1.94H1197.2z"/>
		<path class="st4" d="M1205.35,564.61c0.5,0,0.92,0.41,0.92,0.92c0,0.5-0.41,0.92-0.92,0.92c-0.5,0-0.92-0.41-0.92-0.92
			C1204.43,565.02,1204.84,564.61,1205.35,564.61z M1206,568.35v7.47h-1.3v-7.47H1206z"/>
		<path class="st4" d="M1209.78,569.54v6.28h-1.3v-6.28h-0.79v-1.19h0.79v-2.7h1.3v2.7h1.3v1.19H1209.78z"/>
		<path class="st4" d="M1216.02,572.12c0-2.27,1.67-3.94,3.96-3.94c2.29,0,3.96,1.67,3.96,3.94s-1.69,3.92-3.96,3.92
			S1216.02,574.39,1216.02,572.12z M1217.35,572.12c0,1.84,1.3,2.77,2.63,2.77c1.35,0,2.63-0.95,2.63-2.77
			c0-1.84-1.26-2.79-2.63-2.79C1218.62,569.33,1217.35,570.3,1217.35,572.12z"/>
		<path class="st4" d="M1225.92,568.35h1.3v0.86c0.23-0.31,0.9-1.04,2.14-1.04c0.88,0,1.69,0.36,2.14,1.03
			c0.38,0.56,0.43,1.17,0.43,2v4.63h-1.3v-4.59c0-0.45-0.04-0.97-0.34-1.37c-0.25-0.32-0.65-0.54-1.22-0.54
			c-0.45,0-0.94,0.13-1.31,0.58c-0.5,0.59-0.54,1.48-0.54,2.02v3.91h-1.3V568.35z"/>
		<path class="st4" d="M1241.66,570.08c-0.18-0.43-0.56-0.76-1.04-0.76c-0.47,0-0.9,0.27-0.9,0.85c0,0.54,0.36,0.7,1.21,1.06
			c1.08,0.45,1.58,0.79,1.87,1.15c0.32,0.4,0.4,0.79,0.4,1.21c0,1.57-1.13,2.45-2.58,2.45c-0.31,0-1.98-0.04-2.61-1.91l1.12-0.47
			c0.14,0.4,0.58,1.22,1.51,1.22c0.85,0,1.22-0.63,1.22-1.19c0-0.7-0.5-0.94-1.21-1.24c-0.9-0.4-1.48-0.68-1.82-1.1
			c-0.29-0.36-0.34-0.72-0.34-1.1c0-1.31,0.92-2.09,2.18-2.09c0.4,0,1.46,0.07,2.05,1.35L1241.66,570.08z"/>
		<path class="st4" d="M1246.21,579.97h-1.3v-11.61h1.3v1.04c0.88-1.1,2.02-1.22,2.56-1.22c2.34,0,3.64,1.94,3.64,3.96
			c0,2.05-1.31,3.91-3.58,3.91c-1.21,0-2.05-0.54-2.61-1.26V579.97z M1251.07,572.13c0-1.84-1.24-2.81-2.45-2.81
			s-2.48,0.99-2.48,2.79c0,1.53,0.97,2.77,2.5,2.77C1250.15,574.89,1251.07,573.63,1251.07,572.13z"/>
		<path class="st4" d="M1253.91,572.12c0-2.27,1.67-3.94,3.96-3.94c2.29,0,3.96,1.67,3.96,3.94s-1.69,3.92-3.96,3.92
			S1253.91,574.39,1253.91,572.12z M1255.24,572.12c0,1.84,1.3,2.77,2.63,2.77c1.35,0,2.63-0.95,2.63-2.77
			c0-1.84-1.26-2.79-2.63-2.79S1255.24,570.3,1255.24,572.12z"/>
		<path class="st4" d="M1265.14,569.54v6.28h-1.3v-6.28h-0.79v-1.19h0.79v-2.7h1.3v2.7h1.3v1.19H1265.14z"/>
		<path class="st4" d="M1268.31,564.61c0.5,0,0.92,0.41,0.92,0.92c0,0.5-0.41,0.92-0.92,0.92c-0.5,0-0.92-0.41-0.92-0.92
			C1267.39,565.02,1267.81,564.61,1268.31,564.61z M1268.96,568.35v7.47h-1.3v-7.47H1268.96z"/>
		<path class="st4" d="M1272.74,569.54v6.28h-1.3v-6.28h-0.72v-1.19h0.72v-3.26c0-0.68,0.05-1.55,0.72-2.11
			c0.36-0.31,0.9-0.49,1.49-0.49c0.47,0,0.77,0.11,0.92,0.16v1.26c-0.27-0.11-0.58-0.16-0.85-0.16c-0.29,0-0.63,0.07-0.83,0.4
			c-0.16,0.27-0.16,0.68-0.16,1.08v3.11h1.84v1.19H1272.74z"/>
		<path class="st4" d="M1278.45,575.12l-3.44-6.77h1.48l2.65,5.35l2.43-5.35h1.44l-5.49,11.61h-1.44L1278.45,575.12z"/>
	</g>
	<g>
		<path class="st4" d="M475.14,343.86c-21.31,0-38.58,17.27-38.58,38.58s17.27,38.58,38.58,38.58s38.58-17.27,38.58-38.58
			S496.45,343.86,475.14,343.86z M492.8,399.56c-0.48,0.79-1.31,1.23-2.17,1.23c-0.44,0-0.89-0.12-1.3-0.36
			c-15.19-9.14-33.2-3.85-33.38-3.8c-1.34,0.4-2.75-0.35-3.16-1.69c-0.41-1.34,0.35-2.75,1.68-3.16c0.82-0.25,20.3-6.02,37.47,4.3
			C493.14,396.8,493.52,398.36,492.8,399.56z M497.59,388.88c-0.55,0.96-1.56,1.5-2.6,1.5c-0.51,0-1.02-0.13-1.49-0.4
			c-19.08-10.98-38.31-4.59-38.5-4.52c-1.56,0.54-3.27-0.3-3.8-1.86c-0.54-1.56,0.3-3.27,1.86-3.8c0.89-0.3,22.01-7.32,43.43,4.99
			C497.92,385.62,498.42,387.45,497.59,388.88z M499.73,378.58c-0.58,0-1.16-0.14-1.71-0.42c-22-11.55-44.59-4.64-44.82-4.57
			c-1.94,0.61-4.01-0.46-4.62-2.4c-0.61-1.94,0.46-4.01,2.4-4.62c1.04-0.33,25.78-7.9,50.47,5.07c1.8,0.95,2.5,3.17,1.55,4.98
			C502.34,377.86,501.06,378.58,499.73,378.58z"/>
	</g>
	<g>
		<path class="st4" d="M1042.93,343.86c-21.31,0-38.58,17.27-38.58,38.58s17.27,38.58,38.58,38.58c21.31,0,38.58-17.27,38.58-38.58
			S1064.24,343.86,1042.93,343.86z M1060.6,399.56c-0.47,0.79-1.31,1.23-2.17,1.23c-0.44,0-0.89-0.12-1.3-0.36
			c-15.19-9.14-33.2-3.85-33.38-3.8c-1.34,0.4-2.75-0.35-3.16-1.69c-0.41-1.34,0.35-2.75,1.68-3.16c0.82-0.25,20.3-6.02,37.47,4.3
			C1060.93,396.8,1061.32,398.36,1060.6,399.56z M1065.39,388.88c-0.55,0.96-1.56,1.5-2.6,1.5c-0.51,0-1.02-0.13-1.49-0.4
			c-19.08-10.98-38.31-4.59-38.5-4.52c-1.56,0.54-3.27-0.3-3.8-1.86c-0.54-1.56,0.3-3.27,1.86-3.8c0.89-0.3,22.01-7.32,43.43,4.99
			C1065.72,385.62,1066.21,387.45,1065.39,388.88z M1067.53,378.58c-0.58,0-1.16-0.14-1.71-0.42c-22-11.55-44.59-4.64-44.82-4.57
			c-1.94,0.61-4.01-0.46-4.62-2.4c-0.61-1.94,0.46-4.01,2.4-4.62c1.04-0.33,25.78-7.9,50.47,5.07c1.8,0.95,2.5,3.17,1.55,4.98
			C1070.13,377.86,1068.85,378.58,1067.53,378.58z"/>
	</g>
	<g>
		<g>
			<g>
				<path class="st2" d="M116.84,305.03c0.91,0,1.76,0.05,2.61-0.01c3.68-0.24,7.15-1.29,10.42-2.97c1.6-0.82,3.13-1.78,4.67-2.72
					c0.31-0.19,0.5-0.22,0.81,0c2.78,1.96,5.79,3.45,9.01,4.51c2.59,0.85,5.25,1.27,7.98,1.26c0.21,0,0.43,0,0.7,0
					c0,0.23,0,0.41,0,0.59c0,5.31-0.04,10.61,0.02,15.92c0.04,2.88-0.71,5.5-2.23,7.91c-2.89,4.57-6.83,7.93-11.76,10.15
					c-2.99,1.35-5.92,1.16-8.82-0.24c-5.03-2.44-9.06-5.98-11.78-10.92c-1.11-2.01-1.66-4.16-1.64-6.48
					c0.03-5.43,0.01-10.86,0.01-16.29C116.84,305.55,116.84,305.36,116.84,305.03z"/>
			</g>
		</g>
		<g>
			<g>
				<path class="st4" d="M115.66,304.05c0.96,0,1.87,0.05,2.78-0.01c3.92-0.26,7.62-1.37,11.1-3.16c1.7-0.88,3.33-1.9,4.97-2.89
					c0.33-0.2,0.53-0.24,0.86,0c2.96,2.08,6.17,3.67,9.6,4.8c2.75,0.91,5.6,1.35,8.5,1.34c0.23,0,0.46,0,0.75,0
					c0,0.24,0,0.44,0,0.63c0,5.65-0.05,11.31,0.03,16.96c0.04,3.07-0.75,5.86-2.37,8.43c-3.07,4.87-7.27,8.45-12.53,10.81
					c-3.19,1.43-6.31,1.24-9.4-0.26c-5.36-2.6-9.65-6.38-12.55-11.63c-1.18-2.14-1.77-4.43-1.75-6.9
					c0.03-5.78,0.01-11.57,0.01-17.35C115.66,304.61,115.66,304.42,115.66,304.05z M118.43,306.96c0,0.14,0,0.34,0,0.53
					c0,4.92,0.02,9.84-0.01,14.76c-0.01,1.82,0.37,3.53,1.21,5.12c2.67,5.07,6.72,8.66,11.9,11.04c2.31,1.06,4.61,1.01,6.92-0.03
					c4.54-2.06,8.16-5.19,10.9-9.35c1.47-2.24,2.19-4.68,2.14-7.41c-0.09-4.74-0.03-9.48-0.03-14.22c0-0.19,0-0.38,0-0.51
					c-1.29-0.19-2.49-0.33-3.67-0.55c-4.41-0.8-8.41-2.63-12.22-4.93c-0.5-0.3-0.81-0.25-1.26,0.02c-3.28,1.97-6.7,3.63-10.43,4.52
					C122.1,306.37,120.29,306.62,118.43,306.96z"/>
			</g>
			<g>
				<path class="st4" d="M137.77,319.92c1.04,0.73,2.1,1.48,3.23,2.27c-0.77,0.71-1.44,1.31-2.13,1.94c-0.88-0.89-1.9-1.54-3.1-1.9
					c-4.5-1.35-9.03,1.94-9.18,6.66c-0.03,0.99-0.63,1.61-1.49,1.53c-0.79-0.07-1.32-0.68-1.27-1.55c0.2-3.98,2.08-6.89,5.61-8.73
					c0.1-0.05,0.2-0.1,0.35-0.18c-1.76-1.51-2.63-3.37-2.42-5.67c0.14-1.56,0.81-2.89,1.95-3.96c2.54-2.38,6.29-2.34,8.81,0
					C140.28,312.32,141.38,316.82,137.77,319.92z M133.73,318.56c2,0,3.6-1.6,3.61-3.59c0.01-2.02-1.62-3.65-3.62-3.65
					c-2,0.01-3.64,1.67-3.62,3.65C130.12,316.96,131.74,318.56,133.73,318.56z"/>
			</g>
			<g>
				<path class="st4" d="M139.13,329.09c0.21-0.25,0.37-0.5,0.58-0.71c2.18-2.18,4.36-4.36,6.53-6.54c0.34-0.34,0.71-0.61,1.21-0.59
					c0.54,0.02,0.95,0.28,1.19,0.76c0.23,0.46,0.2,0.94-0.08,1.37c-0.12,0.18-0.27,0.33-0.42,0.48c-2.62,2.62-5.25,5.24-7.88,7.86
					c-0.97,0.97-1.68,0.94-2.59-0.09c-1.24-1.4-2.47-2.81-3.71-4.21c-0.39-0.45-0.54-0.94-0.32-1.51c0.2-0.5,0.59-0.79,1.13-0.85
					c0.54-0.06,0.95,0.18,1.3,0.58c0.87,1,1.75,1.99,2.63,2.98C138.81,328.75,138.92,328.87,139.13,329.09z"/>
			</g>
		</g>
	</g>
	<g>
		<g>
			<g>
				<path class="st2" d="M809.42,306.75c0.91,0,1.76,0.05,2.61-0.01c3.68-0.24,7.15-1.29,10.42-2.97c1.6-0.82,3.13-1.78,4.67-2.72
					c0.31-0.19,0.5-0.22,0.81,0c2.78,1.96,5.79,3.45,9.01,4.51c2.59,0.85,5.25,1.27,7.98,1.26c0.21,0,0.43,0,0.7,0
					c0,0.23,0,0.41,0,0.59c0,5.31-0.04,10.61,0.02,15.92c0.04,2.88-0.71,5.5-2.23,7.91c-2.89,4.57-6.83,7.93-11.76,10.15
					c-2.99,1.35-5.92,1.16-8.82-0.24c-5.03-2.44-9.06-5.98-11.78-10.92c-1.11-2.01-1.66-4.16-1.64-6.48
					c0.03-5.43,0.01-10.86,0.01-16.29C809.42,307.27,809.42,307.09,809.42,306.75z"/>
			</g>
		</g>
		<g>
			<g>
				<path class="st4" d="M807.85,306.5c0.96,0,1.88,0.05,2.78-0.01c3.92-0.26,7.62-1.37,11.1-3.16c1.7-0.88,3.33-1.9,4.97-2.89
					c0.33-0.2,0.53-0.24,0.86,0c2.96,2.08,6.17,3.67,9.6,4.8c2.75,0.91,5.6,1.35,8.5,1.34c0.23,0,0.46,0,0.75,0
					c0,0.24,0,0.44,0,0.63c0,5.65-0.05,11.31,0.03,16.96c0.04,3.07-0.75,5.86-2.37,8.43c-3.07,4.87-7.27,8.45-12.53,10.81
					c-3.19,1.43-6.31,1.24-9.4-0.26c-5.36-2.6-9.65-6.38-12.55-11.63c-1.18-2.14-1.77-4.43-1.75-6.9
					c0.03-5.78,0.01-11.57,0.01-17.35C807.85,307.06,807.85,306.86,807.85,306.5z M810.62,309.41c0,0.14,0,0.34,0,0.53
					c0,4.92,0.02,9.84-0.01,14.76c-0.01,1.82,0.37,3.53,1.21,5.12c2.67,5.07,6.72,8.66,11.9,11.04c2.3,1.06,4.61,1.01,6.92-0.03
					c4.54-2.06,8.16-5.19,10.9-9.35c1.47-2.24,2.19-4.68,2.14-7.41c-0.09-4.74-0.03-9.48-0.03-14.22c0-0.19,0-0.38,0-0.51
					c-1.29-0.19-2.49-0.33-3.67-0.55c-4.41-0.8-8.41-2.63-12.22-4.93c-0.5-0.3-0.81-0.25-1.26,0.02c-3.28,1.97-6.7,3.63-10.43,4.52
					C814.29,308.82,812.48,309.07,810.62,309.41z"/>
			</g>
			<g>
				<g>
					<path class="st4" d="M833.85,319.66h-13.41c-1.1,0-2-0.9-2-2s0.9-2,2-2h13.41c1.1,0,2,0.9,2,2S834.95,319.66,833.85,319.66z"/>
				</g>
				<g>
					<path class="st4" d="M827.14,333.07c-1.1,0-2-0.9-2-2v-13.41c0-1.1,0.9-2,2-2s2,0.9,2,2v13.41
						C829.14,332.18,828.25,333.07,827.14,333.07z"/>
				</g>
			</g>
		</g>
	</g>
	<g>
		<g>
			<g>
				<circle class="st2" cx="1256.78" cy="322.12" r="17.47"/>
			</g>
			<g>
				<path class="st4" d="M1256.78,306.15c8.81,0,15.97,7.17,15.97,15.97c0,8.81-7.17,15.97-15.97,15.97s-15.97-7.17-15.97-15.97
					C1240.81,313.31,1247.97,306.15,1256.78,306.15 M1256.78,303.15c-10.48,0-18.97,8.49-18.97,18.97
					c0,10.48,8.49,18.97,18.97,18.97c10.48,0,18.97-8.49,18.97-18.97C1275.76,311.64,1267.26,303.15,1256.78,303.15L1256.78,303.15z
					"/>
			</g>
		</g>
		<g>
			<g>
				<path class="st4" d="M1254.55,314.86c2.77,0,5.02,2.25,5.02,5.02c0,2.77-2.25,5.02-5.02,5.02s-5.02-2.25-5.02-5.02
					C1249.53,317.12,1251.78,314.86,1254.55,314.86 M1254.55,311.86c-4.43,0-8.02,3.59-8.02,8.02c0,4.43,3.59,8.02,8.02,8.02
					c4.43,0,8.02-3.59,8.02-8.02C1262.57,315.45,1258.98,311.86,1254.55,311.86L1254.55,311.86z"/>
			</g>
			<g>
				
					<rect x="1259.6" y="323.87" transform="matrix(0.7477 -0.664 0.664 0.7477 100.3808 920.1751)" class="st4" width="3" height="8.24"/>
			</g>
		</g>
	</g>
</g>
</svg>
