<?xml version="1.0" encoding="utf-8"?>
<!-- Generator: Adobe Illustrator 27.9.0, SVG Export Plug-In . SVG Version: 6.00 Build 0)  -->
<svg version="1.1" id="Camada_1" xmlns="http://www.w3.org/2000/svg" xmlns:xlink="http://www.w3.org/1999/xlink" x="0px" y="0px" viewBox="0 0 1400 680" style="enable-background:new 0 0 1400 680;" xml:space="preserve"> 
<style type="text/css">
	.st0{fill:none;stroke:#53565A;stroke-miterlimit:10;}
	.st1{fill-rule:evenodd;clip-rule:evenodd;fill:none;stroke:#53565A;stroke-miterlimit:10;}
	.st2{fill:#FFFFFF;}
	.st3{fill:#FFFFFF;stroke:#53565A;stroke-miterlimit:10;}
	.st4{fill:#53565A;}
	.st5{fill:none;stroke:#53565A;stroke-width:4;stroke-linecap:round;stroke-miterlimit:10;}
	.st6{fill:none;stroke:#53565A;stroke-width:3;stroke-miterlimit:10;}
</style>
<g>
	<g>
		<path class="st4" d="M1258.42,277.45h-1v-141.2c0-3.05-2.48-5.52-5.52-5.52H140.98c-3.05,0-5.52,2.48-5.52,5.52v141.2h-1v-141.2
			c0-3.6,2.93-6.52,6.52-6.52H1251.9c3.6,0,6.52,2.93,6.52,6.52V277.45z"/>
	</g>
	<g>
		<rect x="609.74" y="106.86" class="st2" width="173.4" height="60.44"/>
	</g>
	<g>
		<rect x="338.44" y="106.86" class="st2" width="67.8" height="60.44"/>
	</g>
	<g>
		<rect x="984.93" y="106.86" class="st2" width="67.8" height="60.44"/>
	</g>
	<g>
		<rect x="265.95" y="570.83" class="st4" width="946.35" height="1"/>
	</g>
	<g>
		<path class="st2" d="M473.31,587.46H307.78c-8.9,0-16.12-7.22-16.12-16.12l0,0c0-8.9,7.22-16.12,16.12-16.12h165.53
			c8.9,0,16.12,7.22,16.12,16.12l0,0C489.43,580.24,482.22,587.46,473.31,587.46z"/>
		<path class="st4" d="M473.31,587.96H307.78c-9.17,0-16.62-7.46-16.62-16.62c0-9.17,7.46-16.62,16.62-16.62h165.53
			c9.17,0,16.62,7.46,16.62,16.62C489.93,580.5,482.48,587.96,473.31,587.96z M307.78,555.71c-8.61,0-15.62,7.01-15.62,15.62
			c0,8.62,7.01,15.62,15.62,15.62h165.53c8.61,0,15.62-7.01,15.62-15.62c0-8.61-7.01-15.62-15.62-15.62H307.78z"/>
	</g>
	<g>
		<path class="st2" d="M679.41,587.46H513.88c-8.9,0-16.12-7.22-16.12-16.12l0,0c0-8.9,7.22-16.12,16.12-16.12h165.53
			c8.9,0,16.12,7.22,16.12,16.12l0,0C695.53,580.24,688.32,587.46,679.41,587.46z"/>
		<path class="st4" d="M679.41,587.96H513.88c-9.17,0-16.62-7.46-16.62-16.62c0-9.17,7.46-16.62,16.62-16.62h165.53
			c9.17,0,16.62,7.46,16.62,16.62C696.03,580.5,688.58,587.96,679.41,587.96z M513.88,555.71c-8.61,0-15.62,7.01-15.62,15.62
			c0,8.62,7.01,15.62,15.62,15.62h165.53c8.61,0,15.62-7.01,15.62-15.62c0-8.61-7.01-15.62-15.62-15.62H513.88z"/>
	</g>
	<g>
		<path class="st2" d="M885.51,587.46H719.98c-8.9,0-16.12-7.22-16.12-16.12l0,0c0-8.9,7.22-16.12,16.12-16.12h165.53
			c8.9,0,16.12,7.22,16.12,16.12l0,0C901.63,580.24,894.42,587.46,885.51,587.46z"/>
		<path class="st4" d="M885.51,587.96H719.98c-9.17,0-16.62-7.46-16.62-16.62c0-9.17,7.46-16.62,16.62-16.62h165.53
			c9.17,0,16.62,7.46,16.62,16.62C902.13,580.5,894.68,587.96,885.51,587.96z M719.98,555.71c-8.62,0-15.62,7.01-15.62,15.62
			c0,8.62,7.01,15.62,15.62,15.62h165.53c8.62,0,15.62-7.01,15.62-15.62c0-8.61-7.01-15.62-15.62-15.62H719.98z"/>
	</g>
	<g>
		<path class="st2" d="M1091.61,587.46H926.08c-8.9,0-16.12-7.22-16.12-16.12l0,0c0-8.9,7.22-16.12,16.12-16.12h165.53
			c8.9,0,16.12,7.22,16.12,16.12l0,0C1107.73,580.24,1100.52,587.46,1091.61,587.46z"/>
		<path class="st4" d="M1091.61,587.96H926.08c-9.17,0-16.62-7.46-16.62-16.62c0-9.17,7.46-16.62,16.62-16.62h165.54
			c9.17,0,16.62,7.46,16.62,16.62C1108.23,580.5,1100.78,587.96,1091.61,587.96z M926.08,555.71c-8.61,0-15.62,7.01-15.62,15.62
			c0,8.62,7.01,15.62,15.62,15.62h165.54c8.61,0,15.62-7.01,15.62-15.62c0-8.61-7.01-15.62-15.62-15.62H926.08z"/>
	</g>
	<g>
		<path class="st2" d="M1297.71,587.46h-165.53c-8.9,0-16.12-7.22-16.12-16.12l0,0c0-8.9,7.22-16.12,16.12-16.12h165.53
			c8.9,0,16.12,7.22,16.12,16.12l0,0C1313.83,580.24,1306.62,587.46,1297.71,587.46z"/>
		<path class="st4" d="M1297.71,587.96h-165.53c-9.17,0-16.62-7.46-16.62-16.62c0-9.17,7.46-16.62,16.62-16.62h165.53
			c9.17,0,16.62,7.46,16.62,16.62C1314.33,580.5,1306.88,587.96,1297.71,587.96z M1132.18,555.71c-8.62,0-15.62,7.01-15.62,15.62
			c0,8.62,7.01,15.62,15.62,15.62h165.53c8.62,0,15.62-7.01,15.62-15.62c0-8.61-7.01-15.62-15.62-15.62H1132.18z"/>
	</g>
	<g>
		<path class="st4" d="M1337.25,626.76H68.91c-3.6,0-6.52-2.93-6.52-6.52v-99.45c0-3.6,2.93-6.52,6.52-6.52h1268.34
			c3.6,0,6.52,2.93,6.52,6.52v99.45C1343.78,623.83,1340.85,626.76,1337.25,626.76z M68.91,515.26c-3.05,0-5.52,2.48-5.52,5.52
			v99.45c0,3.05,2.48,5.52,5.52,5.52h1268.34c3.05,0,5.52-2.48,5.52-5.52v-99.45c0-3.05-2.48-5.52-5.52-5.52H68.91z"/>
	</g>
	<g>
		<path class="st4" d="M899.23,436.82H755.05c-3.6,0-6.52-2.93-6.52-6.52v-99.45c0-3.6,2.93-6.52,6.52-6.52h144.18
			c3.6,0,6.52,2.93,6.52,6.52v99.45C905.75,433.89,902.83,436.82,899.23,436.82z M755.05,325.31c-3.05,0-5.52,2.48-5.52,5.52v99.45
			c0,3.05,2.48,5.52,5.52,5.52h144.18c3.05,0,5.52-2.48,5.52-5.52v-99.45c0-3.05-2.48-5.52-5.52-5.52H755.05z"/>
	</g>
	<g>
		<g>
			<rect x="223.64" y="381.94" class="st4" width="186.05" height="1"/>
		</g>
		<g>
			<polygon class="st4" points="392.02,400.81 391.31,400.11 408.99,382.44 391.31,364.76 392.02,364.06 410.4,382.44 			"/>
		</g>
	</g>
	<g>
		<g>
			<rect x="538.31" y="381.94" class="st4" width="186.05" height="1"/>
		</g>
		<g>
			<polygon class="st4" points="706.69,400.81 705.98,400.11 723.65,382.44 705.98,364.76 706.69,364.06 725.07,382.44 			"/>
		</g>
	</g>
	<g>
		<g>
			<polygon class="st4" points="134.83,278.4 116.46,260.02 117.16,259.32 134.83,276.99 152.51,259.32 153.21,260.02 			"/>
		</g>
	</g>
	<g>
		<g>
			<polygon class="st4" points="1257.92,278.4 1239.54,260.02 1240.25,259.32 1257.92,276.99 1275.59,259.32 1276.3,260.02 			"/>
		</g>
	</g>
	<g>
		<g>
			<rect x="927.22" y="381.94" class="st4" width="46.72" height="1"/>
		</g>
		<g>
			<polygon class="st4" points="956.27,400.81 955.57,400.11 973.24,382.44 955.57,364.76 956.27,364.06 974.65,382.44 			"/>
		</g>
	</g>
	<g>
		<g>
			<rect x="1105.8" y="381.94" class="st4" width="46.72" height="1"/>
		</g>
		<g>
			<polygon class="st4" points="1134.85,400.81 1134.14,400.11 1151.81,382.44 1134.14,364.76 1134.85,364.06 1153.23,382.44 			"/>
		</g>
	</g>
	<g>
		<rect x="75.95" y="494.95" class="st2" width="279.03" height="32.69"/>
	</g>
	<g>
		<path class="st2" d="M206.92,436.32H62.75c-3.33,0-6.02-2.7-6.02-6.02v-99.45c0-3.33,2.7-6.02,6.02-6.02h144.18
			c3.33,0,6.02,2.7,6.02,6.02v99.45C212.95,433.62,210.25,436.32,206.92,436.32z"/>
		<path class="st4" d="M206.92,436.82H62.75c-3.6,0-6.52-2.93-6.52-6.52v-99.45c0-3.6,2.93-6.52,6.52-6.52h144.18
			c3.6,0,6.52,2.93,6.52,6.52v99.45C213.45,433.89,210.52,436.82,206.92,436.82z M62.75,325.31c-3.05,0-5.52,2.48-5.52,5.52v99.45
			c0,3.05,2.48,5.52,5.52,5.52h144.18c3.05,0,5.52-2.48,5.52-5.52v-99.45c0-3.05-2.48-5.52-5.52-5.52H62.75z"/>
	</g>
	<g>
		<path class="st2" d="M692.31,204.93l-70.58-70.58c-2.35-2.35-2.35-6.17,0-8.52l70.32-70.32c2.35-2.35,6.17-2.35,8.52,0
			l70.58,70.58c2.35,2.35,2.35,6.17,0,8.52l-70.32,70.32C698.47,207.28,694.66,207.28,692.31,204.93z"/>
		<path class="st4" d="M696.57,207.19c-1.67,0-3.34-0.64-4.61-1.91l-70.58-70.58c-1.23-1.23-1.91-2.87-1.91-4.61
			s0.68-3.38,1.91-4.61l70.32-70.32c1.23-1.23,2.87-1.91,4.61-1.91s3.38,0.68,4.61,1.91l70.58,70.58c2.54,2.54,2.54,6.68,0,9.23
			l-70.32,70.32C699.91,206.56,698.24,207.19,696.57,207.19z M692.66,204.58c2.15,2.16,5.66,2.15,7.81,0l70.32-70.32
			c2.15-2.15,2.15-5.66,0-7.81l-70.58-70.58c-1.04-1.04-2.43-1.62-3.91-1.62s-2.86,0.58-3.91,1.62l-70.32,70.32
			c-1.04,1.04-1.62,2.43-1.62,3.91s0.57,2.86,1.62,3.91L692.66,204.58z"/>
	</g>
	<g>
		<path class="st4" d="M96.25,360.71c1.47,0,2.71,0.18,3.7,1.03c1.08,0.92,1.34,2.22,1.34,3.15c0,2.07-1.3,4.11-4.64,4.11h-1.43
			v6.38h-1.63v-14.68H96.25z M95.22,367.46h1.34c1.94,0,3.1-0.97,3.1-2.66c0-2.33-2.18-2.55-3.23-2.55h-1.21V367.46z"/>
		<path class="st4" d="M109.78,366.25h1.58v9.13h-1.58v-1.28c-0.53,0.68-1.52,1.54-3.12,1.54c-2.31,0-4.44-1.63-4.44-4.84
			c0-3.15,2.11-4.77,4.44-4.77c1.76,0,2.71,0.97,3.12,1.52V366.25z M103.84,370.81c0,1.96,1.1,3.43,2.99,3.43
			c1.94,0,3.04-1.61,3.04-3.41c0-2.35-1.63-3.39-3.04-3.39C105.27,367.44,103.84,368.59,103.84,370.81z M109.78,361.48l-2.95,2.97
			l-0.99-0.53l2.31-3.19L109.78,361.48z"/>
		<path class="st4" d="M121.35,366.25h1.58v8.91c0,0.99,0,2.4-0.88,3.59c-0.68,0.92-1.94,1.69-3.65,1.69
			c-1.56,0-2.64-0.62-3.26-1.23c-0.62-0.62-1.19-1.61-1.19-2.95h1.56c0,0.77,0.31,1.45,0.7,1.89c0.66,0.73,1.5,0.88,2.2,0.88
			c1.12,0,1.89-0.4,2.42-1.28c0.46-0.75,0.51-1.56,0.51-2.33v-1.32c-0.53,0.68-1.52,1.54-3.12,1.54c-1.34,0-2.42-0.53-3.12-1.23
			c-0.62-0.62-1.32-1.76-1.32-3.61c0-1.78,0.66-2.88,1.32-3.54c0.77-0.75,1.89-1.23,3.12-1.23c1.34,0,2.4,0.57,3.12,1.52V366.25z
			 M116.34,368.3c-0.77,0.79-0.92,1.76-0.92,2.51c0,0.79,0.15,1.87,1.03,2.68c0.51,0.46,1.12,0.75,1.96,0.75c0.84,0,1.5-0.26,2-0.77
			c0.62-0.59,1.03-1.56,1.03-2.64s-0.4-2.02-0.97-2.57c-0.51-0.51-1.25-0.81-2.07-0.81C117.44,367.44,116.78,367.86,116.34,368.3z"
			/>
		<path class="st4" d="M126.72,361.68c0.62,0,1.12,0.51,1.12,1.12s-0.51,1.12-1.12,1.12c-0.62,0-1.12-0.51-1.12-1.12
			S126.1,361.68,126.72,361.68z M127.51,366.25v9.13h-1.58v-9.13H127.51z"/>
		<path class="st4" d="M130.5,366.25h1.58v1.06c0.29-0.37,1.1-1.28,2.62-1.28c1.08,0,2.07,0.44,2.62,1.25
			c0.46,0.68,0.53,1.43,0.53,2.44v5.66h-1.58v-5.61c0-0.55-0.04-1.19-0.42-1.67c-0.31-0.4-0.79-0.66-1.5-0.66
			c-0.55,0-1.14,0.15-1.61,0.7c-0.62,0.73-0.66,1.8-0.66,2.46v4.77h-1.58V366.25z"/>
		<path class="st4" d="M147.84,366.25h1.58v9.13h-1.58v-1.28c-0.53,0.68-1.52,1.54-3.12,1.54c-2.31,0-4.44-1.63-4.44-4.84
			c0-3.15,2.11-4.77,4.44-4.77c1.76,0,2.71,0.97,3.12,1.52V366.25z M141.9,370.81c0,1.96,1.1,3.43,2.99,3.43
			c1.94,0,3.04-1.61,3.04-3.41c0-2.35-1.63-3.39-3.04-3.39C143.33,367.44,141.9,368.59,141.9,370.81z"/>
		<path class="st4" d="M164.54,359.34h1.58v16.04h-1.58v-1.28c-0.53,0.68-1.52,1.54-3.12,1.54c-2.31,0-4.44-1.63-4.44-4.84
			c0-3.15,2.11-4.77,4.44-4.77c1.76,0,2.71,0.97,3.12,1.52V359.34z M158.6,370.81c0,1.96,1.1,3.43,2.99,3.43
			c1.94,0,3.04-1.61,3.04-3.41c0-2.35-1.63-3.39-3.04-3.39C160.03,367.44,158.6,368.59,158.6,370.81z"/>
		<path class="st4" d="M177.21,373.05c-0.26,0.51-0.66,1.06-1.12,1.47c-0.84,0.75-1.87,1.12-3.04,1.12c-2.2,0-4.51-1.39-4.51-4.77
			c0-2.73,1.67-4.84,4.42-4.84c1.78,0,2.9,0.88,3.45,1.67c0.57,0.81,0.9,2.22,0.86,3.43h-7.11c0.02,1.89,1.32,3.1,2.9,3.1
			c0.75,0,1.34-0.22,1.87-0.66c0.42-0.35,0.75-0.81,0.95-1.25L177.21,373.05z M175.65,369.82c-0.26-1.43-1.34-2.38-2.68-2.38
			s-2.44,1.01-2.68,2.38H175.65z"/>
		<path class="st4" d="M115.52,387.11v13.14h4.05v1.54h-5.68v-14.68H115.52z"/>
		<path class="st4" d="M120.8,397.25c0-2.77,2.05-4.82,4.84-4.82s4.84,2.05,4.84,4.82s-2.07,4.8-4.84,4.8
			C122.87,402.05,120.8,400.02,120.8,397.25z M122.43,397.25c0,2.24,1.58,3.39,3.21,3.39c1.65,0,3.21-1.17,3.21-3.39
			c0-2.25-1.54-3.41-3.21-3.41C123.97,393.84,122.43,395.03,122.43,397.25z"/>
		<path class="st4" d="M139.9,392.65h1.58v8.91c0,0.99,0,2.4-0.88,3.59c-0.68,0.92-1.94,1.69-3.65,1.69c-1.56,0-2.64-0.62-3.26-1.23
			c-0.62-0.62-1.19-1.61-1.19-2.95h1.56c0,0.77,0.31,1.45,0.7,1.89c0.66,0.73,1.5,0.88,2.2,0.88c1.12,0,1.89-0.4,2.42-1.28
			c0.46-0.75,0.51-1.56,0.51-2.33v-1.32c-0.53,0.68-1.52,1.54-3.12,1.54c-1.34,0-2.42-0.53-3.12-1.23
			c-0.62-0.62-1.32-1.76-1.32-3.61c0-1.78,0.66-2.88,1.32-3.54c0.77-0.75,1.89-1.23,3.12-1.23c1.34,0,2.4,0.57,3.12,1.52V392.65z
			 M134.88,394.7c-0.77,0.79-0.92,1.76-0.92,2.51c0,0.79,0.15,1.87,1.03,2.68c0.51,0.46,1.12,0.75,1.96,0.75c0.84,0,1.5-0.26,2-0.77
			c0.62-0.59,1.03-1.56,1.03-2.64s-0.4-2.02-0.97-2.57c-0.51-0.51-1.25-0.81-2.07-0.81C135.98,393.84,135.32,394.26,134.88,394.7z"
			/>
		<path class="st4" d="M145.27,388.08c0.62,0,1.12,0.51,1.12,1.12s-0.51,1.12-1.12,1.12c-0.62,0-1.12-0.51-1.12-1.12
			S144.65,388.08,145.27,388.08z M146.06,392.65v9.13h-1.58v-9.13H146.06z"/>
		<path class="st4" d="M149.05,392.65h1.58v1.06c0.29-0.37,1.1-1.28,2.62-1.28c1.08,0,2.07,0.44,2.62,1.25
			c0.46,0.68,0.53,1.43,0.53,2.44v5.66h-1.58v-5.61c0-0.55-0.04-1.19-0.42-1.67c-0.31-0.4-0.79-0.66-1.5-0.66
			c-0.55,0-1.14,0.15-1.61,0.7c-0.62,0.73-0.66,1.8-0.66,2.46v4.77h-1.58V392.65z"/>
	</g>
	<g>
		<path class="st4" d="M666.76,119.36c0,1.23,0,2.57,1.17,3.56c0.59,0.51,1.61,0.84,2.42,0.84c0.81,0,1.83-0.33,2.42-0.84
			c1.17-0.99,1.17-2.33,1.17-3.56v-9h1.63v9.44c0,1.23-0.13,2.42-0.92,3.52c-0.88,1.21-2.42,1.98-4.29,1.98s-3.41-0.77-4.29-1.98
			c-0.79-1.1-0.92-2.29-0.92-3.52v-9.44h1.63V119.36z"/>
		<path class="st4" d="M682.71,118.02c-0.22-0.53-0.68-0.92-1.28-0.92c-0.57,0-1.1,0.33-1.1,1.03c0,0.66,0.44,0.86,1.47,1.3
			c1.32,0.55,1.94,0.97,2.29,1.41c0.4,0.48,0.48,0.97,0.48,1.47c0,1.91-1.39,2.99-3.15,2.99c-0.37,0-2.42-0.04-3.19-2.33l1.36-0.57
			c0.18,0.48,0.7,1.5,1.85,1.5c1.03,0,1.5-0.77,1.5-1.45c0-0.86-0.62-1.14-1.47-1.52c-1.1-0.48-1.8-0.84-2.22-1.34
			c-0.35-0.44-0.42-0.88-0.42-1.34c0-1.61,1.12-2.55,2.66-2.55c0.48,0,1.78,0.09,2.51,1.65L682.71,118.02z"/>
		<path class="st4" d="M688.28,121.23c0,0.64,0,1.39,0.44,1.96c0.24,0.31,0.73,0.7,1.61,0.7c0.88,0,1.36-0.4,1.61-0.7
			c0.44-0.57,0.44-1.32,0.44-1.96v-5.32h1.58v5.5c0,1.12-0.11,1.96-0.84,2.75c-0.81,0.86-1.89,1.14-2.79,1.14
			c-0.9,0-1.98-0.29-2.79-1.14c-0.73-0.79-0.84-1.63-0.84-2.75v-5.5h1.58V121.23z"/>
		<path class="st4" d="M703.94,115.91h1.58v9.13h-1.58v-1.28c-0.53,0.68-1.52,1.54-3.12,1.54c-2.31,0-4.44-1.63-4.44-4.84
			c0-3.15,2.11-4.77,4.44-4.77c1.76,0,2.71,0.97,3.12,1.52V115.91z M698,120.46c0,1.96,1.1,3.43,2.99,3.43
			c1.94,0,3.04-1.61,3.04-3.41c0-2.35-1.63-3.39-3.04-3.39C699.43,117.09,698,118.24,698,120.46z M703.94,111.13l-2.95,2.97
			l-0.99-0.53l2.31-3.19L703.94,111.13z"/>
		<path class="st4" d="M708.52,115.91h1.58v0.99c0.15-0.24,0.84-1.21,2.07-1.21c0.48,0,1.01,0.18,1.41,0.37l-0.75,1.43
			c-0.35-0.24-0.68-0.31-0.92-0.31c-0.64,0-1.03,0.26-1.28,0.57c-0.26,0.35-0.53,0.97-0.53,2.46v4.82h-1.58V115.91z"/>
		<path class="st4" d="M715.82,111.33c0.62,0,1.12,0.51,1.12,1.12s-0.51,1.12-1.12,1.12c-0.62,0-1.12-0.51-1.12-1.12
			S715.2,111.33,715.82,111.33z M716.61,115.91v9.13h-1.58v-9.13H716.61z"/>
		<path class="st4" d="M719.03,120.51c0-2.77,2.05-4.82,4.84-4.82c2.79,0,4.84,2.05,4.84,4.82c0,2.77-2.07,4.8-4.84,4.8
			S719.03,123.28,719.03,120.51z M720.66,120.51c0,2.24,1.58,3.39,3.21,3.39c1.65,0,3.21-1.17,3.21-3.39c0-2.25-1.54-3.41-3.21-3.41
			S720.66,118.28,720.66,120.51z"/>
		<path class="st4" d="M663.55,135.4v16.04h-1.58V135.4H663.55z"/>
		<path class="st4" d="M665.97,146.9c0-2.77,2.05-4.82,4.84-4.82s4.84,2.05,4.84,4.82s-2.07,4.8-4.84,4.8
			C668.04,151.7,665.97,149.68,665.97,146.9z M667.6,146.9c0,2.24,1.58,3.39,3.21,3.39c1.65,0,3.21-1.17,3.21-3.39
			c0-2.25-1.54-3.41-3.21-3.41C669.14,143.49,667.6,144.68,667.6,146.9z"/>
		<path class="st4" d="M685.07,142.31h1.58v8.91c0,0.99,0,2.4-0.88,3.59c-0.68,0.92-1.94,1.69-3.65,1.69
			c-1.56,0-2.64-0.62-3.26-1.23c-0.62-0.62-1.19-1.61-1.19-2.95h1.56c0,0.77,0.31,1.45,0.7,1.89c0.66,0.73,1.5,0.88,2.2,0.88
			c1.12,0,1.89-0.4,2.42-1.28c0.46-0.75,0.51-1.56,0.51-2.33v-1.32c-0.53,0.68-1.52,1.54-3.12,1.54c-1.34,0-2.42-0.53-3.12-1.23
			c-0.62-0.62-1.32-1.76-1.32-3.61c0-1.78,0.66-2.88,1.32-3.54c0.77-0.75,1.89-1.23,3.12-1.23c1.34,0,2.4,0.57,3.12,1.52V142.31z
			 M680.05,144.35c-0.77,0.79-0.92,1.76-0.92,2.51c0,0.79,0.15,1.87,1.03,2.68c0.51,0.46,1.12,0.75,1.96,0.75
			c0.84,0,1.5-0.26,2-0.77c0.62-0.59,1.03-1.56,1.03-2.64s-0.4-2.02-0.97-2.57c-0.51-0.51-1.25-0.81-2.07-0.81
			C681.15,143.49,680.49,143.91,680.05,144.35z"/>
		<path class="st4" d="M696.64,142.31h1.58v9.13h-1.58v-1.28c-0.53,0.68-1.52,1.54-3.12,1.54c-2.31,0-4.44-1.63-4.44-4.84
			c0-3.15,2.11-4.78,4.44-4.78c1.76,0,2.71,0.97,3.12,1.52V142.31z M690.7,146.86c0,1.96,1.1,3.43,2.99,3.43
			c1.94,0,3.04-1.61,3.04-3.41c0-2.35-1.63-3.39-3.04-3.39C692.13,143.49,690.7,144.64,690.7,146.86z"/>
		<path class="st4" d="M708.21,135.4h1.58v16.04h-1.58v-1.28c-0.53,0.68-1.52,1.54-3.12,1.54c-2.31,0-4.44-1.63-4.44-4.84
			c0-3.15,2.11-4.78,4.44-4.78c1.76,0,2.71,0.97,3.12,1.52V135.4z M702.27,146.86c0,1.96,1.1,3.43,2.99,3.43
			c1.94,0,3.04-1.61,3.04-3.41c0-2.35-1.63-3.39-3.04-3.39C703.7,143.49,702.27,144.64,702.27,146.86z"/>
		<path class="st4" d="M712.21,146.9c0-2.77,2.05-4.82,4.84-4.82c2.79,0,4.84,2.05,4.84,4.82s-2.07,4.8-4.84,4.8
			C714.28,151.7,712.21,149.68,712.21,146.9z M713.84,146.9c0,2.24,1.58,3.39,3.21,3.39c1.65,0,3.21-1.17,3.21-3.39
			c0-2.25-1.54-3.41-3.21-3.41C715.38,143.49,713.84,144.68,713.84,146.9z"/>
		<path class="st4" d="M730.76,145.08c0,1.03-0.35,1.92-0.9,2.49c-0.35,0.38-1.06,0.88-2.27,0.88c-1.12,0-1.85-0.44-2.29-0.88
			c-0.35-0.35-0.88-1.08-0.88-2.27c0-1.56,0.88-2.29,1.85-2.73c0.77-0.35,1.39-0.44,1.85-0.62c1.3-0.46,1.41-1.36,1.41-1.94
			c0-0.44-0.07-1.08-0.57-1.54c-0.24-0.22-0.66-0.46-1.34-0.46c-0.51,0-1.03,0.13-1.39,0.46c-0.4,0.37-0.57,0.99-0.57,1.47
			c0,0.29,0.04,0.64,0.13,0.92h-1.63c-0.07-0.31-0.09-0.62-0.09-0.97c0-0.7,0.13-1.63,0.84-2.38c0.53-0.57,1.39-1.01,2.68-1.01
			c0.97,0,1.87,0.22,2.6,0.95c0.46,0.46,0.97,1.25,0.97,2.6c0,0.79-0.18,1.5-0.75,2.16c-0.46,0.53-1.03,0.86-1.69,1.1
			c-0.51,0.18-1.06,0.31-1.58,0.55c-0.33,0.15-1.08,0.51-1.08,1.54c0,0.57,0.22,0.92,0.44,1.14c0.2,0.2,0.55,0.4,1.08,0.4
			c0.46,0,0.84-0.15,1.08-0.4c0.33-0.33,0.53-0.95,0.53-1.47H730.76z M727.61,149.5c0.59,0,1.1,0.51,1.1,1.1
			c0,0.59-0.51,1.1-1.1,1.1c-0.59,0-1.1-0.51-1.1-1.1C726.51,150.01,727.02,149.5,727.61,149.5z"/>
	</g>
	<g>
		<path class="st4" d="M810.3,362.25v13.14h-1.63v-13.14h-3.56v-1.54h8.76v1.54H810.3z"/>
		<path class="st4" d="M813.25,370.85c0-2.77,2.05-4.82,4.84-4.82c2.79,0,4.84,2.05,4.84,4.82c0,2.77-2.07,4.8-4.84,4.8
			C815.31,375.65,813.25,373.62,813.25,370.85z M814.87,370.85c0,2.24,1.58,3.39,3.21,3.39c1.65,0,3.21-1.17,3.21-3.39
			c0-2.25-1.54-3.41-3.21-3.41S814.87,368.63,814.87,370.85z"/>
		<path class="st4" d="M826.93,359.34v10.3l3.34-3.39h2.07l-3.92,3.92l4.62,5.21h-2.07l-3.65-4.16l-0.4,0.4v3.76h-1.58v-16.04
			H826.93z"/>
		<path class="st4" d="M842.51,373.05c-0.26,0.51-0.66,1.06-1.12,1.47c-0.84,0.75-1.87,1.12-3.04,1.12c-2.2,0-4.51-1.39-4.51-4.77
			c0-2.73,1.67-4.84,4.42-4.84c1.78,0,2.9,0.88,3.46,1.67c0.57,0.81,0.9,2.22,0.86,3.43h-7.11c0.02,1.89,1.32,3.1,2.9,3.1
			c0.75,0,1.34-0.22,1.87-0.66c0.42-0.35,0.75-0.81,0.95-1.25L842.51,373.05z M840.94,369.82c-0.26-1.43-1.34-2.38-2.68-2.38
			s-2.44,1.01-2.68,2.38H840.94z"/>
		<path class="st4" d="M844.99,366.25h1.58v1.06c0.29-0.37,1.1-1.28,2.62-1.28c1.08,0,2.07,0.44,2.62,1.25
			c0.46,0.68,0.53,1.43,0.53,2.44v5.66h-1.58v-5.61c0-0.55-0.04-1.19-0.42-1.67c-0.31-0.4-0.79-0.66-1.5-0.66
			c-0.55,0-1.14,0.15-1.61,0.7c-0.62,0.73-0.66,1.8-0.66,2.46v4.77h-1.58V366.25z"/>
		<path class="st4" d="M789.23,392.65h1.58v0.99c0.15-0.24,0.84-1.21,2.07-1.21c0.48,0,1.01,0.18,1.41,0.37l-0.75,1.43
			c-0.35-0.24-0.68-0.31-0.92-0.31c-0.64,0-1.03,0.26-1.28,0.57c-0.26,0.35-0.53,0.97-0.53,2.46v4.82h-1.58V392.65z"/>
		<path class="st4" d="M803.31,399.45c-0.26,0.51-0.66,1.06-1.12,1.47c-0.84,0.75-1.87,1.12-3.04,1.12c-2.2,0-4.51-1.39-4.51-4.77
			c0-2.73,1.67-4.84,4.42-4.84c1.78,0,2.9,0.88,3.46,1.67c0.57,0.81,0.9,2.22,0.86,3.43h-7.11c0.02,1.89,1.32,3.1,2.91,3.1
			c0.75,0,1.34-0.22,1.87-0.66c0.42-0.35,0.75-0.81,0.95-1.25L803.31,399.45z M801.75,396.22c-0.26-1.43-1.34-2.38-2.69-2.38
			c-1.34,0-2.44,1.01-2.68,2.38H801.75z"/>
		<path class="st4" d="M812.79,392.65h1.58v14.19h-1.58v-6.34c-0.53,0.68-1.52,1.54-3.12,1.54c-2.31,0-4.44-1.63-4.44-4.84
			c0-3.15,2.11-4.78,4.44-4.78c1.76,0,2.71,0.97,3.12,1.52V392.65z M806.85,397.21c0,1.96,1.1,3.43,2.99,3.43
			c1.94,0,3.04-1.61,3.04-3.41c0-2.35-1.63-3.39-3.04-3.39C808.28,393.84,806.85,394.98,806.85,397.21z"/>
		<path class="st4" d="M818.95,397.98c0,0.64,0,1.39,0.44,1.96c0.24,0.31,0.73,0.7,1.61,0.7c0.88,0,1.36-0.4,1.61-0.7
			c0.44-0.57,0.44-1.32,0.44-1.96v-5.32h1.58v5.5c0,1.12-0.11,1.96-0.84,2.75c-0.81,0.86-1.89,1.14-2.79,1.14s-1.98-0.29-2.79-1.14
			c-0.73-0.79-0.84-1.63-0.84-2.75v-5.5h1.58V397.98z"/>
		<path class="st4" d="M835.72,399.45c-0.26,0.51-0.66,1.06-1.12,1.47c-0.84,0.75-1.87,1.12-3.04,1.12c-2.2,0-4.51-1.39-4.51-4.77
			c0-2.73,1.67-4.84,4.42-4.84c1.78,0,2.9,0.88,3.45,1.67c0.57,0.81,0.9,2.22,0.86,3.43h-7.11c0.02,1.89,1.32,3.1,2.9,3.1
			c0.75,0,1.34-0.22,1.87-0.66c0.42-0.35,0.75-0.81,0.95-1.25L835.72,399.45z M834.16,396.22c-0.26-1.43-1.34-2.38-2.68-2.38
			c-1.34,0-2.44,1.01-2.68,2.38H834.16z"/>
		<path class="st4" d="M838.2,392.65h1.58v0.99c0.15-0.24,0.84-1.21,2.07-1.21c0.48,0,1.01,0.18,1.41,0.37l-0.75,1.43
			c-0.35-0.24-0.68-0.31-0.92-0.31c-0.64,0-1.03,0.26-1.28,0.57c-0.26,0.35-0.53,0.97-0.53,2.46v4.82h-1.58V392.65z"/>
		<path class="st4" d="M845.51,388.08c0.62,0,1.12,0.51,1.12,1.12s-0.51,1.12-1.12,1.12c-0.62,0-1.12-0.51-1.12-1.12
			S844.89,388.08,845.51,388.08z M846.3,392.65v9.13h-1.58v-9.13H846.3z"/>
		<path class="st4" d="M856.29,385.74h1.58v16.04h-1.58v-1.28c-0.53,0.68-1.52,1.54-3.12,1.54c-2.31,0-4.44-1.63-4.44-4.84
			c0-3.15,2.11-4.78,4.44-4.78c1.76,0,2.71,0.97,3.12,1.52V385.74z M850.35,397.21c0,1.96,1.1,3.43,2.99,3.43
			c1.94,0,3.04-1.61,3.04-3.41c0-2.35-1.63-3.39-3.04-3.39C851.78,393.84,850.35,394.98,850.35,397.21z"/>
		<path class="st4" d="M860.29,397.25c0-2.77,2.04-4.82,4.84-4.82s4.84,2.05,4.84,4.82s-2.07,4.8-4.84,4.8
			C862.36,402.05,860.29,400.02,860.29,397.25z M861.92,397.25c0,2.24,1.58,3.39,3.21,3.39c1.65,0,3.21-1.17,3.21-3.39
			c0-2.25-1.54-3.41-3.21-3.41S861.92,395.03,861.92,397.25z"/>
	</g>
	<g>
		<path class="st2" d="M1327.01,436.32h-144.18c-3.33,0-6.02-2.7-6.02-6.02v-99.45c0-3.33,2.7-6.02,6.02-6.02h144.18
			c3.33,0,6.02,2.7,6.02,6.02v99.45C1333.04,433.62,1330.34,436.32,1327.01,436.32z"/>
		<path class="st4" d="M1327.01,436.82h-144.18c-3.6,0-6.52-2.93-6.52-6.52v-99.45c0-3.6,2.93-6.52,6.52-6.52h144.18
			c3.6,0,6.52,2.93,6.52,6.52v99.45C1333.54,433.89,1330.61,436.82,1327.01,436.82z M1182.83,325.31c-3.05,0-5.52,2.48-5.52,5.52
			v99.45c0,3.05,2.48,5.52,5.52,5.52h144.18c3.05,0,5.52-2.48,5.52-5.52v-99.45c0-3.05-2.48-5.52-5.52-5.52H1182.83z"/>
	</g>
	<g>
		<path class="st4" d="M1218.4,360.71c1.47,0,2.71,0.18,3.7,1.03c1.08,0.92,1.34,2.22,1.34,3.15c0,2.07-1.3,4.11-4.64,4.11h-1.43
			v6.38h-1.63v-14.68H1218.4z M1217.37,367.46h1.34c1.94,0,3.1-0.97,3.1-2.66c0-2.33-2.18-2.55-3.24-2.55h-1.21V367.46z"/>
		<path class="st4" d="M1231.93,366.25h1.58v9.13h-1.58v-1.28c-0.53,0.68-1.52,1.54-3.12,1.54c-2.31,0-4.44-1.63-4.44-4.84
			c0-3.15,2.11-4.77,4.44-4.77c1.76,0,2.71,0.97,3.12,1.52V366.25z M1225.99,370.81c0,1.96,1.1,3.43,2.99,3.43
			c1.94,0,3.04-1.61,3.04-3.41c0-2.35-1.63-3.39-3.04-3.39C1227.42,367.44,1225.99,368.59,1225.99,370.81z M1231.93,361.48
			l-2.95,2.97l-0.99-0.53l2.31-3.19L1231.93,361.48z"/>
		<path class="st4" d="M1243.5,366.25h1.58v8.91c0,0.99,0,2.4-0.88,3.59c-0.68,0.92-1.94,1.69-3.65,1.69
			c-1.56,0-2.64-0.62-3.26-1.23c-0.62-0.62-1.19-1.61-1.19-2.95h1.56c0,0.77,0.31,1.45,0.71,1.89c0.66,0.73,1.5,0.88,2.2,0.88
			c1.12,0,1.89-0.4,2.42-1.28c0.46-0.75,0.51-1.56,0.51-2.33v-1.32c-0.53,0.68-1.52,1.54-3.12,1.54c-1.34,0-2.42-0.53-3.12-1.23
			c-0.62-0.62-1.32-1.76-1.32-3.61c0-1.78,0.66-2.88,1.32-3.54c0.77-0.75,1.89-1.23,3.12-1.23c1.34,0,2.4,0.57,3.12,1.52V366.25z
			 M1238.49,368.3c-0.77,0.79-0.92,1.76-0.92,2.51c0,0.79,0.15,1.87,1.03,2.68c0.51,0.46,1.12,0.75,1.96,0.75s1.5-0.26,2-0.77
			c0.62-0.59,1.03-1.56,1.03-2.64s-0.4-2.02-0.97-2.57c-0.51-0.51-1.25-0.81-2.07-0.81C1239.59,367.44,1238.93,367.86,1238.49,368.3
			z"/>
		<path class="st4" d="M1248.87,361.68c0.62,0,1.12,0.51,1.12,1.12s-0.51,1.12-1.12,1.12s-1.12-0.51-1.12-1.12
			S1248.25,361.68,1248.87,361.68z M1249.66,366.25v9.13h-1.58v-9.13H1249.66z"/>
		<path class="st4" d="M1252.65,366.25h1.58v1.06c0.29-0.37,1.1-1.28,2.62-1.28c1.08,0,2.07,0.44,2.62,1.25
			c0.46,0.68,0.53,1.43,0.53,2.44v5.66h-1.58v-5.61c0-0.55-0.04-1.19-0.42-1.67c-0.31-0.4-0.79-0.66-1.5-0.66
			c-0.55,0-1.14,0.15-1.61,0.7c-0.62,0.73-0.66,1.8-0.66,2.46v4.77h-1.58V366.25z"/>
		<path class="st4" d="M1269.99,366.25h1.58v9.13h-1.58v-1.28c-0.53,0.68-1.52,1.54-3.12,1.54c-2.31,0-4.44-1.63-4.44-4.84
			c0-3.15,2.11-4.77,4.44-4.77c1.76,0,2.71,0.97,3.12,1.52V366.25z M1264.05,370.81c0,1.96,1.1,3.43,2.99,3.43
			c1.94,0,3.04-1.61,3.04-3.41c0-2.35-1.63-3.39-3.04-3.39C1265.48,367.44,1264.05,368.59,1264.05,370.81z"/>
		<path class="st4" d="M1286.69,359.34h1.58v16.04h-1.58v-1.28c-0.53,0.68-1.52,1.54-3.12,1.54c-2.31,0-4.44-1.63-4.44-4.84
			c0-3.15,2.11-4.77,4.44-4.77c1.76,0,2.71,0.97,3.12,1.52V359.34z M1280.75,370.81c0,1.96,1.1,3.43,2.99,3.43
			c1.94,0,3.04-1.61,3.04-3.41c0-2.35-1.63-3.39-3.04-3.39C1282.18,367.44,1280.75,368.59,1280.75,370.81z"/>
		<path class="st4" d="M1299.36,373.05c-0.26,0.51-0.66,1.06-1.12,1.47c-0.84,0.75-1.87,1.12-3.04,1.12c-2.2,0-4.51-1.39-4.51-4.77
			c0-2.73,1.67-4.84,4.42-4.84c1.78,0,2.9,0.88,3.45,1.67c0.57,0.81,0.9,2.22,0.86,3.43h-7.11c0.02,1.89,1.32,3.1,2.9,3.1
			c0.75,0,1.34-0.22,1.87-0.66c0.42-0.35,0.75-0.81,0.95-1.25L1299.36,373.05z M1297.8,369.82c-0.26-1.43-1.34-2.38-2.68-2.38
			c-1.34,0-2.44,1.01-2.68,2.38H1297.8z"/>
		<path class="st4" d="M1236.2,387.11c0.81,0,2.29,0.07,3.37,0.92c0.46,0.35,1.32,1.25,1.32,3.04c0,0.73-0.15,2-1.45,2.88
			c2.05,0.51,2.79,2.29,2.79,3.7s-0.7,2.55-1.5,3.17c-1.17,0.92-2.51,0.97-3.52,0.97h-3.65v-14.68H1236.2z M1235.19,393.55h1.23
			c0.86,0,2.88-0.18,2.88-2.44c0-2.42-2.38-2.46-2.84-2.46h-1.28V393.55z M1235.19,400.24h1.87c0.95,0,1.87-0.07,2.57-0.62
			c0.57-0.42,0.97-1.14,0.97-2.02c0-1.17-0.68-1.85-1.25-2.16c-0.55-0.31-1.32-0.44-2.49-0.44h-1.67V400.24z"/>
		<path class="st4" d="M1246.41,397.98c0,0.64,0,1.39,0.44,1.96c0.24,0.31,0.73,0.7,1.61,0.7c0.88,0,1.36-0.4,1.61-0.7
			c0.44-0.57,0.44-1.32,0.44-1.96v-5.32h1.58v5.5c0,1.12-0.11,1.96-0.84,2.75c-0.81,0.86-1.89,1.14-2.79,1.14
			c-0.9,0-1.98-0.29-2.79-1.14c-0.73-0.79-0.84-1.63-0.84-2.75v-5.5h1.58V397.98z"/>
		<path class="st4" d="M1258.84,394.77c-0.22-0.53-0.68-0.92-1.28-0.92c-0.57,0-1.1,0.33-1.1,1.03c0,0.66,0.44,0.86,1.47,1.3
			c1.32,0.55,1.94,0.97,2.29,1.41c0.4,0.48,0.48,0.97,0.48,1.47c0,1.91-1.39,2.99-3.15,2.99c-0.38,0-2.42-0.04-3.19-2.33l1.37-0.57
			c0.18,0.48,0.7,1.5,1.85,1.5c1.03,0,1.5-0.77,1.5-1.45c0-0.86-0.62-1.14-1.47-1.52c-1.1-0.48-1.8-0.84-2.22-1.34
			c-0.35-0.44-0.42-0.88-0.42-1.34c0-1.61,1.12-2.55,2.66-2.55c0.48,0,1.78,0.09,2.51,1.65L1258.84,394.77z"/>
		<path class="st4" d="M1269.97,395.2c-0.84-1.06-2.05-1.36-2.86-1.36c-1.69,0-3.23,1.19-3.23,3.41c0,2.22,1.58,3.39,3.21,3.39
			c0.95,0,2.11-0.42,2.95-1.43v1.89c-0.99,0.73-2.05,0.95-2.91,0.95c-2.84,0-4.88-2.02-4.88-4.77c0-2.79,2.07-4.84,4.88-4.84
			c1.45,0,2.4,0.57,2.84,0.88V395.2z"/>
		<path class="st4" d="M1279.45,392.65h1.58v9.13h-1.58v-1.28c-0.53,0.68-1.52,1.54-3.12,1.54c-2.31,0-4.45-1.63-4.45-4.84
			c0-3.15,2.11-4.78,4.45-4.78c1.76,0,2.71,0.97,3.12,1.52V392.65z M1273.51,397.21c0,1.96,1.1,3.43,2.99,3.43
			c1.94,0,3.04-1.61,3.04-3.41c0-2.35-1.63-3.39-3.04-3.39C1274.94,393.84,1273.51,394.98,1273.51,397.21z"/>
	</g>
	<g>
		<path class="st4" d="M126.44,504.64v10.56c0,1.19-0.02,2.53-0.9,3.45c-0.51,0.55-1.25,0.92-2.33,0.92c-1.06,0-1.96-0.33-2.62-1.08
			l0.9-1.28c0.48,0.53,1.12,0.81,1.67,0.81c0.44,0,0.84-0.15,1.1-0.42c0.55-0.55,0.55-1.47,0.55-2.38v-10.61H126.44z"/>
		<path class="st4" d="M136.82,510.19h1.58v9.13h-1.58v-1.28c-0.53,0.68-1.52,1.54-3.12,1.54c-2.31,0-4.44-1.63-4.44-4.84
			c0-3.15,2.11-4.78,4.44-4.78c1.76,0,2.71,0.97,3.12,1.52V510.19z M130.88,514.74c0,1.96,1.1,3.43,2.99,3.43
			c1.94,0,3.04-1.61,3.04-3.41c0-2.35-1.63-3.39-3.04-3.39C132.31,511.37,130.88,512.52,130.88,514.74z"/>
		<path class="st4" d="M141.39,510.19h1.58v0.97c0.51-0.75,1.3-1.19,2.27-1.19c1.65,0,2.31,1.17,2.49,1.47
			c0.88-1.39,2.13-1.47,2.75-1.47c2.71,0,2.97,2.27,2.97,3.56v5.79h-1.58v-5.54c0-1.03-0.13-2.4-1.63-2.4
			c-1.83,0-2.02,1.76-2.02,2.86v5.08h-1.58v-5.41c0-0.64,0.02-2.53-1.65-2.53c-1.8,0-2,1.87-2,2.97v4.97h-1.58V510.19z"/>
		<path class="st4" d="M156.46,510.19h1.58v0.97c0.51-0.75,1.3-1.19,2.27-1.19c1.65,0,2.31,1.17,2.49,1.47
			c0.88-1.39,2.13-1.47,2.75-1.47c2.71,0,2.97,2.27,2.97,3.56v5.79h-1.58v-5.54c0-1.03-0.13-2.4-1.63-2.4
			c-1.83,0-2.02,1.76-2.02,2.86v5.08h-1.58v-5.41c0-0.64,0.02-2.53-1.65-2.53c-1.8,0-2,1.87-2,2.97v4.97h-1.58V510.19z"/>
		<path class="st4" d="M172.33,505.61c0.62,0,1.12,0.51,1.12,1.12s-0.51,1.12-1.12,1.12c-0.62,0-1.12-0.51-1.12-1.12
			S171.71,505.61,172.33,505.61z M173.12,510.19v9.13h-1.58v-9.13H173.12z"/>
		<path class="st4" d="M176.11,510.19h1.58v1.06c0.29-0.37,1.1-1.28,2.62-1.28c1.08,0,2.07,0.44,2.62,1.25
			c0.46,0.68,0.53,1.43,0.53,2.44v5.66h-1.58v-5.61c0-0.55-0.04-1.19-0.42-1.67c-0.31-0.4-0.79-0.66-1.5-0.66
			c-0.55,0-1.14,0.15-1.61,0.7c-0.62,0.73-0.66,1.8-0.66,2.46v4.77h-1.58V510.19z"/>
		<path class="st4" d="M193.45,510.19h1.58v8.91c0,0.99,0,2.4-0.88,3.59c-0.68,0.92-1.94,1.69-3.65,1.69
			c-1.56,0-2.64-0.62-3.26-1.23c-0.62-0.62-1.19-1.61-1.19-2.95h1.56c0,0.77,0.31,1.45,0.7,1.89c0.66,0.73,1.5,0.88,2.2,0.88
			c1.12,0,1.89-0.4,2.42-1.28c0.46-0.75,0.51-1.56,0.51-2.33v-1.32c-0.53,0.68-1.52,1.54-3.12,1.54c-1.34,0-2.42-0.53-3.12-1.23
			c-0.62-0.62-1.32-1.76-1.32-3.61c0-1.78,0.66-2.88,1.32-3.54c0.77-0.75,1.89-1.23,3.12-1.23c1.34,0,2.4,0.57,3.12,1.52V510.19z
			 M188.43,512.23c-0.77,0.79-0.92,1.76-0.92,2.51c0,0.79,0.15,1.87,1.03,2.68c0.51,0.46,1.12,0.75,1.96,0.75
			c0.84,0,1.5-0.26,2-0.77c0.62-0.59,1.03-1.56,1.03-2.64s-0.4-2.02-0.97-2.57c-0.51-0.51-1.25-0.81-2.07-0.81
			C189.53,511.37,188.87,511.79,188.43,512.23z"/>
		<path class="st4" d="M210.14,510.19h1.58v9.13h-1.58v-1.28c-0.53,0.68-1.52,1.54-3.12,1.54c-2.31,0-4.44-1.63-4.44-4.84
			c0-3.15,2.11-4.78,4.44-4.78c1.76,0,2.71,0.97,3.12,1.52V510.19z M204.2,514.74c0,1.96,1.1,3.43,2.99,3.43
			c1.94,0,3.04-1.61,3.04-3.41c0-2.35-1.63-3.39-3.04-3.39C205.63,511.37,204.2,512.52,204.2,514.74z"/>
		<path class="st4" d="M221.72,510.19h1.58v8.91c0,0.99,0,2.4-0.88,3.59c-0.68,0.92-1.94,1.69-3.65,1.69
			c-1.56,0-2.64-0.62-3.26-1.23c-0.62-0.62-1.19-1.61-1.19-2.95h1.56c0,0.77,0.31,1.45,0.7,1.89c0.66,0.73,1.5,0.88,2.2,0.88
			c1.12,0,1.89-0.4,2.42-1.28c0.46-0.75,0.51-1.56,0.51-2.33v-1.32c-0.53,0.68-1.52,1.54-3.12,1.54c-1.34,0-2.42-0.53-3.12-1.23
			c-0.62-0.62-1.32-1.76-1.32-3.61c0-1.78,0.66-2.88,1.32-3.54c0.77-0.75,1.89-1.23,3.12-1.23c1.34,0,2.4,0.57,3.12,1.52V510.19z
			 M216.7,512.23c-0.77,0.79-0.92,1.76-0.92,2.51c0,0.79,0.15,1.87,1.03,2.68c0.51,0.46,1.12,0.75,1.96,0.75c0.84,0,1.5-0.26,2-0.77
			c0.62-0.59,1.03-1.56,1.03-2.64s-0.4-2.02-0.97-2.57c-0.51-0.51-1.25-0.81-2.07-0.81C217.8,511.37,217.14,511.79,216.7,512.23z"/>
		<path class="st4" d="M225.72,514.78c0-2.77,2.05-4.82,4.84-4.82s4.84,2.05,4.84,4.82s-2.07,4.8-4.84,4.8
			C227.79,519.58,225.72,517.56,225.72,514.78z M227.35,514.78c0,2.24,1.58,3.39,3.21,3.39c1.65,0,3.21-1.17,3.21-3.39
			c0-2.25-1.54-3.41-3.21-3.41C228.89,511.37,227.35,512.56,227.35,514.78z"/>
		<path class="st4" d="M237.82,510.19h1.58v0.99c0.15-0.24,0.84-1.21,2.07-1.21c0.48,0,1.01,0.18,1.41,0.37l-0.75,1.43
			c-0.35-0.24-0.68-0.31-0.92-0.31c-0.64,0-1.03,0.26-1.28,0.57c-0.26,0.35-0.53,0.97-0.53,2.46v4.82h-1.58V510.19z"/>
		<path class="st4" d="M250.87,510.19h1.58v9.13h-1.58v-1.28c-0.53,0.68-1.52,1.54-3.12,1.54c-2.31,0-4.44-1.63-4.44-4.84
			c0-3.15,2.11-4.78,4.44-4.78c1.76,0,2.71,0.97,3.12,1.52V510.19z M244.92,514.74c0,1.96,1.1,3.43,2.99,3.43
			c1.94,0,3.04-1.61,3.04-3.41c0-2.35-1.63-3.39-3.04-3.39C246.35,511.37,244.92,512.52,244.92,514.74z"/>
		<path class="st4" d="M262.15,524.38h-1.58v-14.19h1.58v1.28c1.08-1.34,2.46-1.5,3.12-1.5c2.86,0,4.44,2.38,4.44,4.84
			c0,2.51-1.61,4.77-4.38,4.77c-1.47,0-2.51-0.66-3.19-1.54V524.38z M268.09,514.81c0-2.24-1.52-3.43-2.99-3.43
			s-3.04,1.21-3.04,3.41c0,1.87,1.19,3.39,3.06,3.39C266.97,518.17,268.09,516.63,268.09,514.81z"/>
		<path class="st4" d="M271.57,514.78c0-2.77,2.05-4.82,4.84-4.82s4.84,2.05,4.84,4.82s-2.07,4.8-4.84,4.8
			C273.63,519.58,271.57,517.56,271.57,514.78z M273.19,514.78c0,2.24,1.58,3.39,3.21,3.39c1.65,0,3.21-1.17,3.21-3.39
			c0-2.25-1.54-3.41-3.21-3.41C274.73,511.37,273.19,512.56,273.19,514.78z"/>
		<path class="st4" d="M290.66,503.28h1.58v16.04h-1.58v-1.28c-0.53,0.68-1.52,1.54-3.12,1.54c-2.31,0-4.44-1.63-4.44-4.84
			c0-3.15,2.11-4.78,4.44-4.78c1.76,0,2.71,0.97,3.12,1.52V503.28z M284.72,514.74c0,1.96,1.1,3.43,2.99,3.43
			c1.94,0,3.04-1.61,3.04-3.41c0-2.35-1.63-3.39-3.04-3.39C286.15,511.37,284.72,512.52,284.72,514.74z"/>
		<path class="st4" d="M303.33,516.98c-0.26,0.51-0.66,1.06-1.12,1.47c-0.84,0.75-1.87,1.12-3.04,1.12c-2.2,0-4.51-1.39-4.51-4.77
			c0-2.73,1.67-4.84,4.42-4.84c1.78,0,2.9,0.88,3.45,1.67c0.57,0.81,0.9,2.22,0.86,3.43h-7.11c0.02,1.89,1.32,3.1,2.9,3.1
			c0.75,0,1.34-0.22,1.87-0.66c0.42-0.35,0.75-0.81,0.95-1.25L303.33,516.98z M301.77,513.75c-0.26-1.43-1.34-2.38-2.68-2.38
			s-2.44,1.01-2.68,2.38H301.77z"/>
		<path class="st4" d="M306.83,509.97c0.59,0,1.1,0.51,1.1,1.1c0,0.59-0.51,1.1-1.1,1.1s-1.1-0.51-1.1-1.1
			C305.73,510.47,306.24,509.97,306.83,509.97z M306.83,517.38c0.59,0,1.1,0.51,1.1,1.1c0,0.59-0.51,1.1-1.1,1.1s-1.1-0.51-1.1-1.1
			C305.73,517.89,306.24,517.38,306.83,517.38z"/>
	</g>
	<g>
		<path class="st4" d="M419.1,296.32c0,1.01,0,2.11,0.95,2.92c0.49,0.41,1.31,0.68,1.98,0.68c0.67,0,1.49-0.27,1.98-0.68
			c0.95-0.81,0.95-1.91,0.95-2.92v-7.36h1.33v7.72c0,1.01-0.11,1.98-0.76,2.88c-0.72,0.99-1.98,1.62-3.51,1.62
			c-1.53,0-2.79-0.63-3.51-1.62c-0.65-0.9-0.76-1.87-0.76-2.88v-7.72h1.33V296.32z"/>
		<path class="st4" d="M432.15,295.22c-0.18-0.43-0.56-0.76-1.04-0.76c-0.47,0-0.9,0.27-0.9,0.85c0,0.54,0.36,0.7,1.21,1.06
			c1.08,0.45,1.58,0.79,1.87,1.15c0.32,0.4,0.4,0.79,0.4,1.21c0,1.57-1.13,2.45-2.58,2.45c-0.31,0-1.98-0.04-2.61-1.91l1.12-0.47
			c0.14,0.4,0.58,1.22,1.51,1.22c0.85,0,1.22-0.63,1.22-1.19c0-0.7-0.5-0.94-1.21-1.24c-0.9-0.4-1.48-0.68-1.82-1.1
			c-0.29-0.36-0.34-0.72-0.34-1.1c0-1.31,0.92-2.09,2.18-2.09c0.4,0,1.46,0.07,2.05,1.35L432.15,295.22z"/>
		<path class="st4" d="M436.71,297.85c0,0.52,0,1.13,0.36,1.6c0.2,0.25,0.59,0.58,1.31,0.58s1.12-0.32,1.31-0.58
			c0.36-0.47,0.36-1.08,0.36-1.6v-4.36h1.3v4.5c0,0.92-0.09,1.6-0.68,2.25c-0.67,0.7-1.55,0.94-2.29,0.94s-1.62-0.23-2.29-0.94
			c-0.59-0.65-0.68-1.33-0.68-2.25v-4.5h1.3V297.85z"/>
		<path class="st4" d="M449.52,293.49h1.3v7.47h-1.3v-1.04c-0.43,0.56-1.24,1.26-2.56,1.26c-1.89,0-3.64-1.33-3.64-3.96
			c0-2.58,1.73-3.91,3.64-3.91c1.44,0,2.21,0.79,2.56,1.24V293.49z M444.66,297.22c0,1.6,0.9,2.81,2.45,2.81
			c1.58,0,2.48-1.31,2.48-2.79c0-1.93-1.33-2.77-2.48-2.77C445.83,294.46,444.66,295.4,444.66,297.22z M449.52,289.58l-2.41,2.43
			l-0.81-0.43l1.89-2.61L449.52,289.58z"/>
		<path class="st4" d="M453.27,293.49h1.3v0.81c0.13-0.2,0.68-0.99,1.69-0.99c0.4,0,0.83,0.14,1.15,0.31l-0.61,1.17
			c-0.29-0.2-0.56-0.25-0.76-0.25c-0.52,0-0.85,0.22-1.04,0.47c-0.22,0.29-0.43,0.79-0.43,2.02v3.94h-1.3V293.49z"/>
		<path class="st4" d="M459.24,289.74c0.5,0,0.92,0.41,0.92,0.92c0,0.5-0.41,0.92-0.92,0.92s-0.92-0.41-0.92-0.92
			C458.32,290.16,458.74,289.74,459.24,289.74z M459.89,293.49v7.47h-1.3v-7.47H459.89z"/>
		<path class="st4" d="M461.87,297.25c0-2.27,1.67-3.94,3.96-3.94s3.96,1.67,3.96,3.94s-1.69,3.92-3.96,3.92
			C463.56,301.18,461.87,299.52,461.87,297.25z M463.2,297.25c0,1.84,1.3,2.77,2.63,2.77c1.35,0,2.63-0.95,2.63-2.77
			c0-1.84-1.26-2.79-2.63-2.79C464.46,294.46,463.2,295.43,463.2,297.25z"/>
		<path class="st4" d="M481.69,293.49h1.3v7.47h-1.3v-1.04c-0.43,0.56-1.24,1.26-2.56,1.26c-1.89,0-3.64-1.33-3.64-3.96
			c0-2.58,1.73-3.91,3.64-3.91c1.44,0,2.21,0.79,2.56,1.24V293.49z M476.83,297.22c0,1.6,0.9,2.81,2.45,2.81
			c1.58,0,2.48-1.31,2.48-2.79c0-1.93-1.33-2.77-2.48-2.77C478,294.46,476.83,295.4,476.83,297.22z"/>
		<path class="st4" d="M486.73,297.85c0,0.52,0,1.13,0.36,1.6c0.2,0.25,0.59,0.58,1.31,0.58s1.12-0.32,1.31-0.58
			c0.36-0.47,0.36-1.08,0.36-1.6v-4.36h1.3v4.5c0,0.92-0.09,1.6-0.68,2.25c-0.67,0.7-1.55,0.94-2.29,0.94s-1.62-0.23-2.29-0.94
			c-0.59-0.65-0.68-1.33-0.68-2.25v-4.5h1.3V297.85z"/>
		<path class="st4" d="M495.15,294.68v6.28h-1.3v-6.28h-0.79v-1.19h0.79v-2.7h1.3v2.7h1.3v1.19H495.15z"/>
		<path class="st4" d="M497.2,297.25c0-2.27,1.67-3.94,3.96-3.94s3.96,1.67,3.96,3.94s-1.69,3.92-3.96,3.92
			C498.89,301.18,497.2,299.52,497.2,297.25z M498.53,297.25c0,1.84,1.3,2.77,2.63,2.77c1.35,0,2.63-0.95,2.63-2.77
			c0-1.84-1.26-2.79-2.63-2.79C499.79,294.46,498.53,295.43,498.53,297.25z"/>
		<path class="st4" d="M507.1,293.49h1.3v0.81c0.13-0.2,0.68-0.99,1.69-0.99c0.4,0,0.83,0.14,1.15,0.31l-0.61,1.17
			c-0.29-0.2-0.56-0.25-0.76-0.25c-0.52,0-0.85,0.22-1.04,0.47c-0.22,0.29-0.43,0.79-0.43,2.02v3.94h-1.3V293.49z"/>
		<path class="st4" d="M513.08,289.74c0.5,0,0.92,0.41,0.92,0.92c0,0.5-0.41,0.92-0.92,0.92s-0.92-0.41-0.92-0.92
			C512.16,290.16,512.57,289.74,513.08,289.74z M513.73,293.49v7.47h-1.3v-7.47H513.73z"/>
		<path class="st4" d="M517.68,299.77h5.19v1.19h-7.78l5.4-6.28h-4.36v-1.19h6.95L517.68,299.77z"/>
		<path class="st4" d="M530,293.49h1.3v7.47H530v-1.04c-0.43,0.56-1.24,1.26-2.56,1.26c-1.89,0-3.64-1.33-3.64-3.96
			c0-2.58,1.73-3.91,3.64-3.91c1.44,0,2.21,0.79,2.56,1.24V293.49z M525.14,297.22c0,1.6,0.9,2.81,2.45,2.81
			c1.58,0,2.48-1.31,2.48-2.79c0-1.93-1.33-2.77-2.48-2.77C526.31,294.46,525.14,295.4,525.14,297.22z"/>
		<path class="st4" d="M454.11,318.85c0-2.27,1.67-3.94,3.96-3.94s3.96,1.67,3.96,3.94s-1.69,3.92-3.96,3.92
			S454.11,321.12,454.11,318.85z M455.44,318.85c0,1.84,1.3,2.77,2.63,2.77c1.35,0,2.63-0.95,2.63-2.77c0-1.84-1.26-2.79-2.63-2.79
			C456.7,316.06,455.44,317.03,455.44,318.85z"/>
		<path class="st4" d="M473.93,315.09h1.3v7.47h-1.3v-1.04c-0.43,0.56-1.24,1.26-2.56,1.26c-1.89,0-3.64-1.33-3.64-3.96
			c0-2.58,1.73-3.91,3.64-3.91c1.44,0,2.21,0.79,2.56,1.24V315.09z M469.07,318.82c0,1.6,0.9,2.81,2.45,2.81
			c1.58,0,2.48-1.31,2.48-2.79c0-1.93-1.33-2.77-2.48-2.77C470.24,316.06,469.07,317,469.07,318.82z"/>
		<path class="st4" d="M478.97,326.7h-1.3v-11.61h1.3v1.04c0.88-1.1,2.02-1.22,2.56-1.22c2.34,0,3.64,1.94,3.64,3.96
			c0,2.05-1.31,3.91-3.58,3.91c-1.21,0-2.05-0.54-2.61-1.26V326.7z M483.83,318.87c0-1.84-1.24-2.81-2.45-2.81
			c-1.21,0-2.48,0.99-2.48,2.79c0,1.53,0.97,2.77,2.5,2.77C482.91,321.63,483.83,320.37,483.83,318.87z"/>
		<path class="st4" d="M488.44,326.7h-1.3v-11.61h1.3v1.04c0.88-1.1,2.02-1.22,2.56-1.22c2.34,0,3.64,1.94,3.64,3.96
			c0,2.05-1.31,3.91-3.58,3.91c-1.21,0-2.05-0.54-2.61-1.26V326.7z M493.3,318.87c0-1.84-1.24-2.81-2.45-2.81
			c-1.21,0-2.48,0.99-2.48,2.79c0,1.53,0.97,2.77,2.5,2.77C492.38,321.63,493.3,320.37,493.3,318.87z"/>
	</g>
	<g>
		<path class="st4" d="M357.55,133.78v-12.51l9.36,9.81v-9.31h1.33v12.55l-9.36-9.81v9.27H357.55z"/>
		<path class="st4" d="M376.74,126.31h1.3v7.47h-1.3v-1.04c-0.43,0.56-1.24,1.26-2.56,1.26c-1.89,0-3.64-1.33-3.64-3.96
			c0-2.58,1.73-3.91,3.64-3.91c1.44,0,2.21,0.79,2.56,1.24V126.31z M371.88,130.03c0,1.6,0.9,2.81,2.45,2.81
			c1.58,0,2.48-1.31,2.48-2.79c0-1.93-1.33-2.77-2.48-2.77C373.05,127.28,371.88,128.22,371.88,130.03z M371.99,124.22
			c0.16-0.27,0.41-0.61,0.61-0.81c0.34-0.32,0.65-0.43,1.03-0.43c0.49,0,0.86,0.16,1.26,0.36c0.41,0.22,0.67,0.36,1.01,0.36
			c0.22,0,0.36-0.04,0.52-0.22c0.13-0.14,0.31-0.41,0.38-0.56l0.74,0.61c-0.09,0.23-0.23,0.47-0.47,0.7
			c-0.41,0.43-0.85,0.54-1.19,0.54c-0.43,0-0.9-0.22-1.24-0.38c-0.43-0.2-0.72-0.34-0.99-0.34c-0.22,0-0.36,0.09-0.52,0.25
			s-0.29,0.36-0.38,0.52L371.99,124.22z"/>
		<path class="st4" d="M380.01,130.07c0-2.27,1.67-3.94,3.96-3.94s3.96,1.67,3.96,3.94c0,2.27-1.69,3.92-3.96,3.92
			C381.71,133.99,380.01,132.34,380.01,130.07z M381.35,130.07c0,1.84,1.3,2.77,2.63,2.77c1.35,0,2.63-0.95,2.63-2.77
			c0-1.84-1.26-2.79-2.63-2.79C382.61,127.28,381.35,128.25,381.35,130.07z"/>
	</g>
	<g>
		<path class="st4" d="M1014.75,124.15c-0.16-0.32-0.43-0.68-0.7-0.9c-0.23-0.18-0.67-0.41-1.35-0.41c-1.19,0-2.02,0.74-2.02,1.85
			c0,0.47,0.13,0.74,0.45,1.04c0.36,0.36,0.81,0.56,1.26,0.76l1.15,0.5c0.7,0.31,1.35,0.63,1.85,1.13c0.61,0.61,0.86,1.31,0.86,2.18
			c0,2.21-1.64,3.69-3.8,3.69c-0.79,0-1.78-0.16-2.61-0.97c-0.59-0.58-0.95-1.4-1.12-2.12l1.3-0.36c0.09,0.63,0.38,1.17,0.72,1.53
			c0.52,0.52,1.12,0.67,1.73,0.67c1.64,0,2.41-1.17,2.41-2.38c0-0.54-0.16-1.01-0.59-1.4c-0.34-0.32-0.81-0.54-1.44-0.83l-1.08-0.5
			c-0.47-0.22-1.06-0.47-1.6-0.99c-0.52-0.5-0.83-1.06-0.83-1.96c0-1.85,1.42-3.1,3.37-3.1c0.74,0,1.33,0.14,1.93,0.54
			c0.49,0.32,0.9,0.81,1.17,1.33L1014.75,124.15z"/>
		<path class="st4" d="M1019.03,122.56c0.5,0,0.92,0.42,0.92,0.92s-0.42,0.92-0.92,0.92s-0.92-0.41-0.92-0.92
			S1018.52,122.56,1019.03,122.56z M1019.68,126.31v7.47h-1.3v-7.47H1019.68z"/>
		<path class="st4" d="M1022.12,126.31h1.3v0.79c0.42-0.61,1.06-0.97,1.86-0.97c1.35,0,1.89,0.95,2.03,1.21
			c0.72-1.13,1.75-1.21,2.25-1.21c2.21,0,2.43,1.85,2.43,2.92v4.74h-1.3v-4.54c0-0.85-0.11-1.96-1.33-1.96
			c-1.49,0-1.66,1.44-1.66,2.34v4.16h-1.3v-4.43c0-0.52,0.02-2.07-1.35-2.07c-1.48,0-1.64,1.53-1.64,2.43v4.07h-1.3V126.31z"/>
	</g>
	<g>
		<path class="st4" d="M590.1,324.03c0.81,0,2.02,0.05,2.92,0.67c0.7,0.47,1.31,1.39,1.31,2.67c0,1.84-1.21,3.19-3.02,3.31
			l3.82,5.37h-1.62l-3.65-5.26h-0.34v5.26h-1.33v-12.01H590.1z M589.5,329.6h0.85c1.66,0,2.65-0.79,2.65-2.2
			c0-0.67-0.2-1.33-0.95-1.76c-0.54-0.31-1.15-0.34-1.73-0.34h-0.81V329.6z"/>
		<path class="st4" d="M603.15,334.13c-0.22,0.41-0.54,0.86-0.92,1.21c-0.68,0.61-1.53,0.92-2.48,0.92c-1.8,0-3.69-1.13-3.69-3.91
			c0-2.23,1.37-3.96,3.62-3.96c1.46,0,2.38,0.72,2.83,1.37c0.47,0.67,0.74,1.82,0.7,2.81h-5.82c0.02,1.55,1.08,2.54,2.38,2.54
			c0.61,0,1.1-0.18,1.53-0.54c0.34-0.29,0.61-0.67,0.77-1.03L603.15,334.13z M601.87,331.49c-0.22-1.17-1.1-1.94-2.2-1.94
			c-1.1,0-2,0.83-2.2,1.94H601.87z"/>
		<path class="st4" d="M610.9,322.92h1.3v13.13h-1.3V335c-0.43,0.56-1.24,1.26-2.56,1.26c-1.89,0-3.64-1.33-3.64-3.96
			c0-2.58,1.73-3.91,3.64-3.91c1.44,0,2.21,0.79,2.56,1.24V322.92z M606.04,332.3c0,1.6,0.9,2.81,2.45,2.81
			c1.58,0,2.48-1.31,2.48-2.79c0-1.93-1.33-2.77-2.48-2.77C607.21,329.54,606.04,330.48,606.04,332.3z"/>
		<path class="st4" d="M615.11,324.82c0.5,0,0.92,0.41,0.92,0.92c0,0.5-0.41,0.92-0.92,0.92s-0.92-0.41-0.92-0.92
			C614.2,325.24,614.61,324.82,615.11,324.82z M615.76,328.57v7.47h-1.3v-7.47H615.76z"/>
		<path class="st4" d="M618.21,328.57h1.3v0.81c0.13-0.2,0.68-0.99,1.69-0.99c0.4,0,0.83,0.14,1.15,0.31l-0.61,1.17
			c-0.29-0.2-0.56-0.25-0.76-0.25c-0.52,0-0.85,0.22-1.04,0.47c-0.22,0.29-0.43,0.79-0.43,2.02v3.94h-1.3V328.57z"/>
		<path class="st4" d="M629.73,334.13c-0.22,0.41-0.54,0.86-0.92,1.21c-0.68,0.61-1.53,0.92-2.48,0.92c-1.8,0-3.69-1.13-3.69-3.91
			c0-2.23,1.37-3.96,3.62-3.96c1.46,0,2.38,0.72,2.83,1.37c0.47,0.67,0.74,1.82,0.7,2.81h-5.82c0.02,1.55,1.08,2.54,2.38,2.54
			c0.61,0,1.1-0.18,1.53-0.54c0.34-0.29,0.61-0.67,0.77-1.03L629.73,334.13z M628.45,331.49c-0.22-1.17-1.1-1.94-2.2-1.94
			c-1.1,0-2,0.83-2.2,1.94H628.45z"/>
		<path class="st4" d="M637.62,330.66c-0.68-0.86-1.67-1.12-2.34-1.12c-1.39,0-2.65,0.97-2.65,2.79s1.3,2.77,2.63,2.77
			c0.77,0,1.73-0.34,2.41-1.17v1.55c-0.81,0.59-1.67,0.77-2.38,0.77c-2.32,0-4-1.66-4-3.91c0-2.29,1.69-3.96,4-3.96
			c1.19,0,1.96,0.47,2.32,0.72V330.66z"/>
		<path class="st4" d="M640.3,324.82c0.5,0,0.92,0.41,0.92,0.92c0,0.5-0.41,0.92-0.92,0.92s-0.92-0.41-0.92-0.92
			C639.38,325.24,639.79,324.82,640.3,324.82z M640.94,328.57v7.47h-1.3v-7.47H640.94z"/>
		<path class="st4" d="M642.92,332.33c0-2.27,1.67-3.94,3.96-3.94s3.96,1.67,3.96,3.94s-1.69,3.92-3.96,3.92
			S642.92,334.6,642.92,332.33z M644.25,332.33c0,1.84,1.3,2.77,2.63,2.77c1.35,0,2.63-0.95,2.63-2.77c0-1.84-1.26-2.79-2.63-2.79
			C645.52,329.54,644.25,330.52,644.25,332.33z"/>
		<path class="st4" d="M652.82,328.57h1.3v0.86c0.23-0.31,0.9-1.04,2.14-1.04c0.88,0,1.69,0.36,2.14,1.03
			c0.38,0.56,0.43,1.17,0.43,2v4.63h-1.3v-4.59c0-0.45-0.04-0.97-0.34-1.37c-0.25-0.32-0.65-0.54-1.22-0.54
			c-0.45,0-0.94,0.13-1.31,0.58c-0.5,0.59-0.54,1.48-0.54,2.02v3.91h-1.3V328.57z"/>
		<path class="st4" d="M667.01,328.57h1.3v7.47h-1.3V335c-0.43,0.56-1.24,1.26-2.56,1.26c-1.89,0-3.64-1.33-3.64-3.96
			c0-2.58,1.73-3.91,3.64-3.91c1.44,0,2.21,0.79,2.56,1.24V328.57z M662.15,332.3c0,1.6,0.9,2.81,2.45,2.81
			c1.58,0,2.48-1.31,2.48-2.79c0-1.93-1.33-2.77-2.48-2.77C663.32,329.54,662.15,330.48,662.15,332.3z"/>
		<path class="st4" d="M592.82,350.17h1.3v7.47h-1.3v-1.04c-0.43,0.56-1.24,1.26-2.56,1.26c-1.89,0-3.64-1.33-3.64-3.96
			c0-2.58,1.73-3.91,3.64-3.91c1.44,0,2.21,0.79,2.56,1.24V350.17z M587.96,353.9c0,1.6,0.9,2.81,2.45,2.81
			c1.58,0,2.48-1.31,2.48-2.79c0-1.93-1.33-2.77-2.48-2.77C589.13,351.14,587.96,352.08,587.96,353.9z"/>
		<path class="st4" d="M596.1,353.93c0-2.27,1.67-3.94,3.96-3.94s3.96,1.67,3.96,3.94s-1.69,3.92-3.96,3.92
			S596.1,356.2,596.1,353.93z M597.43,353.93c0,1.84,1.3,2.77,2.63,2.77c1.35,0,2.63-0.95,2.63-2.77c0-1.84-1.26-2.79-2.63-2.79
			C598.69,351.14,597.43,352.12,597.43,353.93z"/>
		<path class="st4" d="M612.93,345.63v8.64c0,0.97-0.02,2.07-0.74,2.83c-0.41,0.45-1.03,0.76-1.91,0.76c-0.86,0-1.6-0.27-2.14-0.88
			l0.74-1.04c0.4,0.43,0.92,0.67,1.37,0.67c0.36,0,0.68-0.13,0.9-0.34c0.45-0.45,0.45-1.21,0.45-1.94v-8.68H612.93z"/>
		<path class="st4" d="M621.42,350.17h1.3v7.47h-1.3v-1.04c-0.43,0.56-1.24,1.26-2.56,1.26c-1.89,0-3.64-1.33-3.64-3.96
			c0-2.58,1.73-3.91,3.64-3.91c1.44,0,2.21,0.79,2.56,1.24V350.17z M616.56,353.9c0,1.6,0.9,2.81,2.45,2.81
			c1.58,0,2.48-1.31,2.48-2.79c0-1.93-1.33-2.77-2.48-2.77C617.73,351.14,616.56,352.08,616.56,353.9z"/>
		<path class="st4" d="M625.17,350.17h1.3v0.79c0.41-0.61,1.06-0.97,1.85-0.97c1.35,0,1.89,0.95,2.03,1.21
			c0.72-1.13,1.75-1.21,2.25-1.21c2.21,0,2.43,1.85,2.43,2.92v4.74h-1.3v-4.54c0-0.85-0.11-1.96-1.33-1.96
			c-1.49,0-1.66,1.44-1.66,2.34v4.16h-1.3v-4.43c0-0.52,0.02-2.07-1.35-2.07c-1.48,0-1.64,1.53-1.64,2.43v4.07h-1.3V350.17z"/>
		<path class="st4" d="M637.5,350.17h1.3v0.79c0.41-0.61,1.06-0.97,1.85-0.97c1.35,0,1.89,0.95,2.03,1.21
			c0.72-1.13,1.75-1.21,2.25-1.21c2.21,0,2.43,1.85,2.43,2.92v4.74h-1.3v-4.54c0-0.85-0.11-1.96-1.33-1.96
			c-1.49,0-1.66,1.44-1.66,2.34v4.16h-1.3v-4.43c0-0.52,0.02-2.07-1.35-2.07c-1.48,0-1.64,1.53-1.64,2.43v4.07h-1.3V350.17z"/>
		<path class="st4" d="M650.48,346.43c0.5,0,0.92,0.42,0.92,0.92s-0.41,0.92-0.92,0.92s-0.92-0.41-0.92-0.92
			S649.97,346.43,650.48,346.43z M651.12,350.17v7.47h-1.3v-7.47H651.12z"/>
		<path class="st4" d="M653.57,350.17h1.3v0.86c0.23-0.31,0.9-1.04,2.14-1.04c0.88,0,1.69,0.36,2.14,1.03
			c0.38,0.56,0.43,1.17,0.43,2v4.63h-1.3v-4.59c0-0.45-0.04-0.97-0.34-1.37c-0.25-0.32-0.65-0.54-1.22-0.54
			c-0.45,0-0.94,0.13-1.31,0.58c-0.5,0.59-0.54,1.48-0.54,2.02v3.91h-1.3V350.17z"/>
		<path class="st4" d="M667.76,350.17h1.3v7.29c0,0.81,0,1.96-0.72,2.93c-0.56,0.76-1.58,1.39-2.99,1.39c-1.28,0-2.16-0.5-2.67-1.01
			s-0.97-1.31-0.97-2.41h1.28c0,0.63,0.25,1.19,0.58,1.55c0.54,0.59,1.22,0.72,1.8,0.72c0.92,0,1.55-0.32,1.98-1.04
			c0.38-0.61,0.41-1.28,0.41-1.91v-1.08c-0.43,0.56-1.24,1.26-2.56,1.26c-1.1,0-1.98-0.43-2.56-1.01c-0.5-0.5-1.08-1.44-1.08-2.95
			c0-1.46,0.54-2.36,1.08-2.9c0.63-0.61,1.55-1.01,2.56-1.01c1.1,0,1.96,0.47,2.56,1.24V350.17z M663.65,351.85
			c-0.63,0.65-0.76,1.44-0.76,2.05c0,0.65,0.13,1.53,0.85,2.2c0.41,0.38,0.92,0.61,1.6,0.61c0.68,0,1.22-0.22,1.64-0.63
			c0.5-0.49,0.85-1.28,0.85-2.16c0-0.88-0.32-1.66-0.79-2.11c-0.41-0.41-1.03-0.67-1.69-0.67
			C664.55,351.14,664.01,351.48,663.65,351.85z"/>
	</g>
	<g>
		<path class="st4" d="M1025.26,290.21v10.75h-1.33v-10.75h-2.92v-1.26h7.17v1.26H1025.26z"/>
		<path class="st4" d="M1027.67,297.25c0-2.27,1.67-3.94,3.96-3.94s3.96,1.67,3.96,3.94s-1.69,3.92-3.96,3.92
			S1027.67,299.52,1027.67,297.25z M1029,297.25c0,1.84,1.3,2.77,2.63,2.77c1.35,0,2.63-0.95,2.63-2.77c0-1.84-1.26-2.79-2.63-2.79
			S1029,295.43,1029,297.25z"/>
		<path class="st4" d="M1038.87,287.84v8.43l2.74-2.77h1.69l-3.21,3.21l3.78,4.27h-1.69l-2.99-3.4l-0.32,0.32v3.08h-1.3v-13.13
			H1038.87z"/>
		<path class="st4" d="M1051.61,299.05c-0.22,0.41-0.54,0.86-0.92,1.21c-0.68,0.61-1.53,0.92-2.49,0.92c-1.8,0-3.69-1.13-3.69-3.91
			c0-2.23,1.37-3.96,3.62-3.96c1.46,0,2.38,0.72,2.83,1.37c0.47,0.67,0.74,1.82,0.7,2.81h-5.82c0.02,1.55,1.08,2.54,2.38,2.54
			c0.61,0,1.1-0.18,1.53-0.54c0.34-0.29,0.61-0.67,0.77-1.03L1051.61,299.05z M1050.33,296.41c-0.22-1.17-1.1-1.94-2.2-1.94
			s-2,0.83-2.2,1.94H1050.33z"/>
		<path class="st4" d="M1053.64,293.49h1.3v0.86c0.23-0.31,0.9-1.04,2.14-1.04c0.88,0,1.69,0.36,2.14,1.03
			c0.38,0.56,0.43,1.17,0.43,2v4.63h-1.3v-4.59c0-0.45-0.04-0.97-0.34-1.37c-0.25-0.32-0.65-0.54-1.22-0.54
			c-0.45,0-0.94,0.13-1.31,0.58c-0.5,0.59-0.54,1.48-0.54,2.02v3.91h-1.3V293.49z"/>
		<path class="st4" d="M1012.55,313.2c-0.38-0.38-0.96-0.83-1.57-1.12c-0.63-0.29-1.37-0.47-2.07-0.47c-2.77,0-4.83,2.23-4.83,5.01
			c0,3.26,2.65,4.9,4.84,4.9c0.81,0,1.6-0.23,2.23-0.56c0.68-0.34,1.17-0.79,1.39-1.01v1.66c-1.33,0.95-2.72,1.17-3.62,1.17
			c-3.57,0-6.21-2.7-6.21-6.18c0-3.58,2.68-6.25,6.28-6.25c0.72,0,2.11,0.09,3.55,1.19V313.2z"/>
		<path class="st4" d="M1014.21,318.85c0-2.27,1.67-3.94,3.96-3.94c2.29,0,3.96,1.67,3.96,3.94s-1.69,3.92-3.96,3.92
			C1015.9,322.78,1014.21,321.12,1014.21,318.85z M1015.54,318.85c0,1.84,1.3,2.77,2.63,2.77c1.35,0,2.63-0.95,2.63-2.77
			c0-1.84-1.26-2.79-2.63-2.79C1016.8,316.06,1015.54,317.03,1015.54,318.85z"/>
		<path class="st4" d="M1024.11,315.09h1.3v0.86c0.23-0.31,0.9-1.04,2.14-1.04c0.88,0,1.69,0.36,2.14,1.03
			c0.38,0.56,0.43,1.17,0.43,2v4.63h-1.3v-4.59c0-0.45-0.04-0.97-0.34-1.37c-0.25-0.32-0.65-0.54-1.22-0.54
			c-0.45,0-0.94,0.13-1.31,0.58c-0.5,0.59-0.54,1.48-0.54,2.02v3.91h-1.3V315.09z"/>
		<path class="st4" d="M1038.42,317.18c-0.68-0.86-1.67-1.12-2.34-1.12c-1.39,0-2.65,0.97-2.65,2.79s1.3,2.77,2.63,2.77
			c0.77,0,1.73-0.34,2.41-1.17V322c-0.81,0.59-1.67,0.77-2.38,0.77c-2.32,0-4-1.66-4-3.91c0-2.29,1.69-3.96,4-3.96
			c1.19,0,1.96,0.47,2.32,0.72V317.18z"/>
		<path class="st4" d="M1047.08,320.65c-0.22,0.41-0.54,0.86-0.92,1.21c-0.68,0.61-1.53,0.92-2.48,0.92c-1.8,0-3.69-1.13-3.69-3.91
			c0-2.23,1.37-3.96,3.62-3.96c1.46,0,2.38,0.72,2.83,1.37c0.47,0.67,0.74,1.82,0.7,2.81h-5.82c0.02,1.55,1.08,2.54,2.38,2.54
			c0.61,0,1.1-0.18,1.53-0.54c0.34-0.29,0.61-0.67,0.77-1.03L1047.08,320.65z M1045.8,318.01c-0.22-1.17-1.1-1.94-2.2-1.94
			c-1.1,0-2,0.83-2.2,1.94H1045.8z"/>
		<path class="st4" d="M1054.83,309.44h1.3v13.13h-1.3v-1.04c-0.43,0.56-1.24,1.26-2.56,1.26c-1.89,0-3.64-1.33-3.64-3.96
			c0-2.58,1.73-3.91,3.64-3.91c1.44,0,2.21,0.79,2.56,1.24V309.44z M1049.97,318.82c0,1.6,0.9,2.81,2.45,2.81
			c1.58,0,2.48-1.31,2.48-2.79c0-1.93-1.33-2.77-2.48-2.77C1051.14,316.06,1049.97,317,1049.97,318.82z"/>
		<path class="st4" d="M1059.04,311.34c0.5,0,0.92,0.42,0.92,0.92s-0.41,0.92-0.92,0.92s-0.92-0.41-0.92-0.92
			S1058.54,311.34,1059.04,311.34z M1059.69,315.09v7.47h-1.3v-7.47H1059.69z"/>
		<path class="st4" d="M1067.86,309.44h1.3v13.13h-1.3v-1.04c-0.43,0.56-1.24,1.26-2.56,1.26c-1.89,0-3.64-1.33-3.64-3.96
			c0-2.58,1.73-3.91,3.64-3.91c1.44,0,2.21,0.79,2.56,1.24V309.44z M1063,318.82c0,1.6,0.9,2.81,2.45,2.81
			c1.58,0,2.48-1.31,2.48-2.79c0-1.93-1.33-2.77-2.48-2.77C1064.17,316.06,1063,317,1063,318.82z"/>
		<path class="st4" d="M1071.14,318.85c0-2.27,1.67-3.94,3.96-3.94c2.29,0,3.96,1.67,3.96,3.94s-1.69,3.92-3.96,3.92
			C1072.83,322.78,1071.14,321.12,1071.14,318.85z M1072.47,318.85c0,1.84,1.3,2.77,2.63,2.77c1.35,0,2.63-0.95,2.63-2.77
			c0-1.84-1.26-2.79-2.63-2.79C1073.73,316.06,1072.47,317.03,1072.47,318.85z"/>
	</g>
	<g>
		<path class="st4" d="M233.57,324.03c0.81,0,2.02,0.05,2.92,0.67c0.7,0.47,1.31,1.39,1.31,2.67c0,1.84-1.21,3.19-3.02,3.31
			l3.82,5.37h-1.62l-3.65-5.26h-0.34v5.26h-1.33v-12.01H233.57z M232.97,329.6h0.85c1.66,0,2.65-0.79,2.65-2.2
			c0-0.67-0.2-1.33-0.95-1.76c-0.54-0.31-1.15-0.34-1.73-0.34h-0.81V329.6z"/>
		<path class="st4" d="M246.62,334.13c-0.22,0.41-0.54,0.86-0.92,1.21c-0.68,0.61-1.53,0.92-2.48,0.92c-1.8,0-3.69-1.13-3.69-3.91
			c0-2.23,1.37-3.96,3.62-3.96c1.46,0,2.38,0.72,2.83,1.37c0.47,0.67,0.74,1.82,0.7,2.81h-5.82c0.02,1.55,1.08,2.54,2.38,2.54
			c0.61,0,1.1-0.18,1.53-0.54c0.34-0.29,0.61-0.67,0.77-1.03L246.62,334.13z M245.34,331.49c-0.22-1.17-1.1-1.94-2.2-1.94
			c-1.1,0-2,0.83-2.2,1.94H245.34z"/>
		<path class="st4" d="M254.38,322.92h1.3v13.13h-1.3V335c-0.43,0.56-1.24,1.26-2.56,1.26c-1.89,0-3.64-1.33-3.64-3.96
			c0-2.58,1.73-3.91,3.64-3.91c1.44,0,2.21,0.79,2.56,1.24V322.92z M249.51,332.3c0,1.6,0.9,2.81,2.45,2.81
			c1.58,0,2.48-1.31,2.48-2.79c0-1.93-1.33-2.77-2.48-2.77C250.68,329.54,249.51,330.48,249.51,332.3z"/>
		<path class="st4" d="M258.59,324.82c0.5,0,0.92,0.41,0.92,0.92c0,0.5-0.41,0.92-0.92,0.92s-0.92-0.41-0.92-0.92
			C257.67,325.24,258.08,324.82,258.59,324.82z M259.23,328.57v7.47h-1.3v-7.47H259.23z"/>
		<path class="st4" d="M261.68,328.57h1.3v0.81c0.13-0.2,0.68-0.99,1.69-0.99c0.4,0,0.83,0.14,1.15,0.31l-0.61,1.17
			c-0.29-0.2-0.56-0.25-0.76-0.25c-0.52,0-0.85,0.22-1.04,0.47c-0.22,0.29-0.43,0.79-0.43,2.02v3.94h-1.3V328.57z"/>
		<path class="st4" d="M273.2,334.13c-0.22,0.41-0.54,0.86-0.92,1.21c-0.68,0.61-1.53,0.92-2.48,0.92c-1.8,0-3.69-1.13-3.69-3.91
			c0-2.23,1.37-3.96,3.62-3.96c1.46,0,2.38,0.72,2.83,1.37c0.47,0.67,0.74,1.82,0.7,2.81h-5.82c0.02,1.55,1.08,2.54,2.38,2.54
			c0.61,0,1.1-0.18,1.53-0.54c0.34-0.29,0.61-0.67,0.77-1.03L273.2,334.13z M271.92,331.49c-0.22-1.17-1.1-1.94-2.2-1.94
			c-1.1,0-2,0.83-2.2,1.94H271.92z"/>
		<path class="st4" d="M281.09,330.66c-0.68-0.86-1.67-1.12-2.34-1.12c-1.39,0-2.65,0.97-2.65,2.79s1.3,2.77,2.63,2.77
			c0.77,0,1.73-0.34,2.41-1.17v1.55c-0.81,0.59-1.67,0.77-2.38,0.77c-2.32,0-4-1.66-4-3.91c0-2.29,1.69-3.96,4-3.96
			c1.19,0,1.96,0.47,2.32,0.72V330.66z"/>
		<path class="st4" d="M283.77,324.82c0.5,0,0.92,0.41,0.92,0.92c0,0.5-0.41,0.92-0.92,0.92s-0.92-0.41-0.92-0.92
			C282.85,325.24,283.26,324.82,283.77,324.82z M284.41,328.57v7.47h-1.3v-7.47H284.41z"/>
		<path class="st4" d="M286.39,332.33c0-2.27,1.67-3.94,3.96-3.94s3.96,1.67,3.96,3.94s-1.69,3.92-3.96,3.92
			S286.39,334.6,286.39,332.33z M287.73,332.33c0,1.84,1.3,2.77,2.63,2.77c1.35,0,2.63-0.95,2.63-2.77c0-1.84-1.26-2.79-2.63-2.79
			C288.99,329.54,287.73,330.52,287.73,332.33z"/>
		<path class="st4" d="M296.29,328.57h1.3v0.86c0.23-0.31,0.9-1.04,2.14-1.04c0.88,0,1.69,0.36,2.14,1.03
			c0.38,0.56,0.43,1.17,0.43,2v4.63h-1.3v-4.59c0-0.45-0.04-0.97-0.34-1.37c-0.25-0.32-0.65-0.54-1.22-0.54
			c-0.45,0-0.94,0.13-1.31,0.58c-0.5,0.59-0.54,1.48-0.54,2.02v3.91h-1.3V328.57z"/>
		<path class="st4" d="M310.48,328.57h1.3v7.47h-1.3V335c-0.43,0.56-1.24,1.26-2.56,1.26c-1.89,0-3.64-1.33-3.64-3.96
			c0-2.58,1.73-3.91,3.64-3.91c1.44,0,2.21,0.79,2.56,1.24V328.57z M305.62,332.3c0,1.6,0.9,2.81,2.45,2.81
			c1.58,0,2.48-1.31,2.48-2.79c0-1.93-1.33-2.77-2.48-2.77C306.79,329.54,305.62,330.48,305.62,332.3z"/>
		<path class="st4" d="M324.14,328.57h1.3v7.47h-1.3V335c-0.43,0.56-1.24,1.26-2.56,1.26c-1.89,0-3.64-1.33-3.64-3.96
			c0-2.58,1.73-3.91,3.64-3.91c1.44,0,2.21,0.79,2.56,1.24V328.57z M319.24,324.66l1.33-0.61l1.89,2.61l-0.79,0.43L319.24,324.66z
			 M319.28,332.3c0,1.6,0.9,2.81,2.45,2.81c1.58,0,2.48-1.31,2.48-2.79c0-1.93-1.33-2.77-2.48-2.77
			C320.45,329.54,319.28,330.48,319.28,332.3z"/>
		<path class="st4" d="M333.37,340.18h-1.3v-11.61h1.3v1.04c0.88-1.1,2.02-1.22,2.56-1.22c2.34,0,3.64,1.94,3.64,3.96
			c0,2.05-1.31,3.91-3.58,3.91c-1.21,0-2.05-0.54-2.61-1.26V340.18z M338.23,332.35c0-1.84-1.24-2.81-2.45-2.81
			c-1.21,0-2.48,0.99-2.48,2.79c0,1.53,0.97,2.77,2.5,2.77C337.32,335.11,338.23,333.85,338.23,332.35z"/>
		<path class="st4" d="M347.27,328.57h1.3v7.47h-1.3V335c-0.43,0.56-1.24,1.26-2.56,1.26c-1.89,0-3.64-1.33-3.64-3.96
			c0-2.58,1.73-3.91,3.64-3.91c1.44,0,2.21,0.79,2.56,1.24V328.57z M342.41,332.3c0,1.6,0.9,2.81,2.45,2.81
			c1.58,0,2.48-1.31,2.48-2.79c0-1.93-1.33-2.77-2.48-2.77C343.58,329.54,342.41,330.48,342.41,332.3z M347.27,324.66l-2.41,2.43
			l-0.81-0.43l1.89-2.61L347.27,324.66z"/>
		<path class="st4" d="M356.74,328.57h1.3v7.29c0,0.81,0,1.96-0.72,2.93c-0.56,0.76-1.58,1.39-2.99,1.39c-1.28,0-2.16-0.5-2.67-1.01
			s-0.97-1.31-0.97-2.41h1.28c0,0.63,0.25,1.19,0.58,1.55c0.54,0.59,1.22,0.72,1.8,0.72c0.92,0,1.55-0.32,1.98-1.04
			c0.38-0.61,0.41-1.28,0.41-1.91V335c-0.43,0.56-1.24,1.26-2.56,1.26c-1.1,0-1.98-0.43-2.56-1.01c-0.5-0.5-1.08-1.44-1.08-2.95
			c0-1.46,0.54-2.36,1.08-2.9c0.63-0.61,1.55-1.01,2.56-1.01c1.1,0,1.96,0.47,2.56,1.24V328.57z M352.63,330.24
			c-0.63,0.65-0.76,1.44-0.76,2.05c0,0.65,0.13,1.53,0.85,2.2c0.41,0.38,0.92,0.61,1.6,0.61c0.68,0,1.22-0.22,1.64-0.63
			c0.5-0.49,0.85-1.28,0.85-2.16c0-0.88-0.32-1.66-0.79-2.11c-0.41-0.41-1.03-0.67-1.69-0.67
			C353.53,329.54,352.99,329.88,352.63,330.24z"/>
		<path class="st4" d="M361.13,324.82c0.5,0,0.92,0.41,0.92,0.92c0,0.5-0.41,0.92-0.92,0.92s-0.92-0.41-0.92-0.92
			C360.21,325.24,360.62,324.82,361.13,324.82z M361.78,328.57v7.47h-1.3v-7.47H361.78z"/>
		<path class="st4" d="M364.22,328.57h1.3v0.86c0.23-0.31,0.9-1.04,2.14-1.04c0.88,0,1.69,0.36,2.14,1.03
			c0.38,0.56,0.43,1.17,0.43,2v4.63h-1.3v-4.59c0-0.45-0.04-0.97-0.34-1.37c-0.25-0.32-0.65-0.54-1.22-0.54
			c-0.45,0-0.94,0.13-1.31,0.58c-0.5,0.59-0.54,1.48-0.54,2.02v3.91h-1.3V328.57z"/>
		<path class="st4" d="M378.41,328.57h1.3v7.47h-1.3V335c-0.43,0.56-1.24,1.26-2.56,1.26c-1.89,0-3.64-1.33-3.64-3.96
			c0-2.58,1.73-3.91,3.64-3.91c1.44,0,2.21,0.79,2.56,1.24V328.57z M373.55,332.3c0,1.6,0.9,2.81,2.45,2.81
			c1.58,0,2.48-1.31,2.48-2.79c0-1.93-1.33-2.77-2.48-2.77C374.72,329.54,373.55,330.48,373.55,332.3z"/>
		<path class="st4" d="M392.07,322.92h1.3v13.13h-1.3V335c-0.43,0.56-1.24,1.26-2.56,1.26c-1.89,0-3.64-1.33-3.64-3.96
			c0-2.58,1.73-3.91,3.64-3.91c1.44,0,2.21,0.79,2.56,1.24V322.92z M387.21,332.3c0,1.6,0.9,2.81,2.45,2.81
			c1.58,0,2.48-1.31,2.48-2.79c0-1.93-1.33-2.77-2.48-2.77C388.38,329.54,387.21,330.48,387.21,332.3z"/>
		<path class="st4" d="M402.44,334.13c-0.22,0.41-0.54,0.86-0.92,1.21c-0.68,0.61-1.53,0.92-2.48,0.92c-1.8,0-3.69-1.13-3.69-3.91
			c0-2.23,1.37-3.96,3.62-3.96c1.46,0,2.38,0.72,2.83,1.37c0.47,0.67,0.74,1.82,0.7,2.81h-5.82c0.02,1.55,1.08,2.54,2.38,2.54
			c0.61,0,1.1-0.18,1.53-0.54c0.34-0.29,0.61-0.67,0.77-1.03L402.44,334.13z M401.16,331.49c-0.22-1.17-1.1-1.94-2.2-1.94
			c-1.1,0-2,0.83-2.2,1.94H401.16z"/>
		<path class="st4" d="M243.31,350.17h1.3v7.47h-1.3v-1.04c-0.43,0.56-1.24,1.26-2.56,1.26c-1.89,0-3.64-1.33-3.64-3.96
			c0-2.58,1.73-3.91,3.64-3.91c1.44,0,2.21,0.79,2.56,1.24V350.17z M238.44,353.9c0,1.6,0.9,2.81,2.45,2.81
			c1.58,0,2.48-1.31,2.48-2.79c0-1.93-1.33-2.77-2.48-2.77C239.61,351.14,238.44,352.08,238.44,353.9z"/>
		<path class="st4" d="M248.34,354.53c0,0.52,0,1.13,0.36,1.6c0.2,0.25,0.59,0.58,1.31,0.58s1.12-0.32,1.31-0.58
			c0.36-0.47,0.36-1.08,0.36-1.6v-4.36h1.3v4.5c0,0.92-0.09,1.6-0.68,2.25c-0.67,0.7-1.55,0.94-2.29,0.94s-1.62-0.23-2.29-0.94
			c-0.59-0.65-0.68-1.33-0.68-2.25v-4.5h1.3V354.53z"/>
		<path class="st4" d="M256.77,351.36v6.28h-1.3v-6.28h-0.79v-1.19h0.79v-2.7h1.3v2.7h1.3v1.19H256.77z"/>
		<path class="st4" d="M258.82,353.93c0-2.27,1.67-3.94,3.96-3.94s3.96,1.67,3.96,3.94s-1.69,3.92-3.96,3.92
			C260.51,357.86,258.82,356.2,258.82,353.93z M260.15,353.93c0,1.84,1.3,2.77,2.63,2.77c1.35,0,2.63-0.95,2.63-2.77
			c0-1.84-1.26-2.79-2.63-2.79C261.41,351.14,260.15,352.12,260.15,353.93z"/>
		<path class="st4" d="M268.72,350.17h1.3v0.81c0.13-0.2,0.68-0.99,1.69-0.99c0.4,0,0.83,0.14,1.15,0.31l-0.61,1.17
			c-0.29-0.2-0.56-0.25-0.76-0.25c-0.52,0-0.85,0.22-1.04,0.47c-0.22,0.29-0.43,0.79-0.43,2.02v3.94h-1.3V350.17z"/>
		<path class="st4" d="M274.69,346.43c0.5,0,0.92,0.42,0.92,0.92s-0.41,0.92-0.92,0.92s-0.92-0.41-0.92-0.92
			S274.19,346.43,274.69,346.43z M275.34,350.17v7.47h-1.3v-7.47H275.34z"/>
		<path class="st4" d="M279.3,356.45h5.19v1.19h-7.78l5.4-6.28h-4.36v-1.19h6.95L279.3,356.45z"/>
		<path class="st4" d="M291.62,350.17h1.3v7.47h-1.3v-1.04c-0.43,0.56-1.24,1.26-2.56,1.26c-1.89,0-3.64-1.33-3.64-3.96
			c0-2.58,1.73-3.91,3.64-3.91c1.44,0,2.21,0.79,2.56,1.24V350.17z M286.75,353.9c0,1.6,0.9,2.81,2.45,2.81
			c1.58,0,2.48-1.31,2.48-2.79c0-1.93-1.33-2.77-2.48-2.77C287.92,351.14,286.75,352.08,286.75,353.9z"/>
		<path class="st4" d="M301.21,352.26c-0.68-0.86-1.67-1.12-2.34-1.12c-1.39,0-2.65,0.97-2.65,2.79s1.3,2.77,2.63,2.77
			c0.77,0,1.73-0.34,2.41-1.17v1.55c-0.81,0.59-1.67,0.77-2.38,0.77c-2.32,0-4-1.66-4-3.91c0-2.29,1.69-3.96,4-3.96
			c1.19,0,1.96,0.47,2.32,0.72V352.26z M299.75,359.07l-1.82,2.3l-0.88-0.43l1.51-2.36L299.75,359.07z"/>
		<path class="st4" d="M308.97,350.17h1.3v7.47h-1.3v-1.04c-0.43,0.56-1.24,1.26-2.56,1.26c-1.89,0-3.64-1.33-3.64-3.96
			c0-2.58,1.73-3.91,3.64-3.91c1.44,0,2.21,0.79,2.56,1.24V350.17z M304.11,353.9c0,1.6,0.9,2.81,2.45,2.81
			c1.58,0,2.48-1.31,2.48-2.79c0-1.93-1.33-2.77-2.48-2.77C305.28,351.14,304.11,352.08,304.11,353.9z M304.21,348.08
			c0.16-0.27,0.41-0.61,0.61-0.81c0.34-0.32,0.65-0.43,1.03-0.43c0.49,0,0.86,0.16,1.26,0.36c0.41,0.22,0.67,0.36,1.01,0.36
			c0.22,0,0.36-0.04,0.52-0.22c0.13-0.14,0.31-0.41,0.38-0.56l0.74,0.61c-0.09,0.23-0.23,0.47-0.47,0.7
			c-0.41,0.43-0.85,0.54-1.19,0.54c-0.43,0-0.9-0.22-1.24-0.38c-0.43-0.2-0.72-0.34-0.99-0.34c-0.22,0-0.36,0.09-0.52,0.25
			s-0.29,0.36-0.38,0.52L304.21,348.08z"/>
		<path class="st4" d="M312.24,353.93c0-2.27,1.67-3.94,3.96-3.94s3.96,1.67,3.96,3.94s-1.69,3.92-3.96,3.92
			S312.24,356.2,312.24,353.93z M313.57,353.93c0,1.84,1.3,2.77,2.63,2.77c1.35,0,2.63-0.95,2.63-2.77c0-1.84-1.26-2.79-2.63-2.79
			C314.83,351.14,313.57,352.12,313.57,353.93z"/>
		<path class="st4" d="M332.06,344.52h1.3v13.13h-1.3v-1.04c-0.43,0.56-1.24,1.26-2.56,1.26c-1.89,0-3.64-1.33-3.64-3.96
			c0-2.58,1.73-3.91,3.64-3.91c1.44,0,2.21,0.79,2.56,1.24V344.52z M327.2,353.9c0,1.6,0.9,2.81,2.45,2.81
			c1.58,0,2.48-1.31,2.48-2.79c0-1.93-1.33-2.77-2.48-2.77C328.37,351.14,327.2,352.08,327.2,353.9z"/>
		<path class="st4" d="M335.33,353.93c0-2.27,1.67-3.94,3.96-3.94s3.96,1.67,3.96,3.94s-1.69,3.92-3.96,3.92
			C337.03,357.86,335.33,356.2,335.33,353.93z M336.67,353.93c0,1.84,1.3,2.77,2.63,2.77c1.35,0,2.63-0.95,2.63-2.77
			c0-1.84-1.26-2.79-2.63-2.79C337.93,351.14,336.67,352.12,336.67,353.93z"/>
		<path class="st4" d="M355.12,348.01c-0.16-0.32-0.43-0.68-0.7-0.9c-0.23-0.18-0.67-0.41-1.35-0.41c-1.19,0-2.02,0.74-2.02,1.85
			c0,0.47,0.13,0.74,0.45,1.04c0.36,0.36,0.81,0.56,1.26,0.76l1.15,0.5c0.7,0.31,1.35,0.63,1.85,1.13c0.61,0.61,0.86,1.31,0.86,2.18
			c0,2.21-1.64,3.69-3.8,3.69c-0.79,0-1.78-0.16-2.61-0.97c-0.59-0.58-0.95-1.4-1.12-2.12l1.3-0.36c0.09,0.63,0.38,1.17,0.72,1.53
			c0.52,0.52,1.12,0.67,1.73,0.67c1.64,0,2.41-1.17,2.41-2.38c0-0.54-0.16-1.01-0.59-1.4c-0.34-0.32-0.81-0.54-1.44-0.83l-1.08-0.5
			c-0.47-0.22-1.06-0.47-1.6-0.99c-0.52-0.5-0.83-1.06-0.83-1.96c0-1.85,1.42-3.1,3.37-3.1c0.74,0,1.33,0.14,1.93,0.54
			c0.49,0.32,0.9,0.81,1.17,1.33L355.12,348.01z"/>
		<path class="st4" d="M360.05,361.78h-1.3v-11.61h1.3v1.04c0.88-1.1,2.02-1.22,2.56-1.22c2.34,0,3.64,1.94,3.64,3.96
			c0,2.05-1.31,3.91-3.58,3.91c-1.21,0-2.05-0.54-2.61-1.26V361.78z M364.91,353.95c0-1.84-1.24-2.81-2.45-2.81
			c-1.21,0-2.48,0.99-2.48,2.79c0,1.53,0.97,2.77,2.5,2.77C363.99,356.71,364.91,355.45,364.91,353.95z"/>
		<path class="st4" d="M367.75,353.93c0-2.27,1.67-3.94,3.96-3.94s3.96,1.67,3.96,3.94s-1.69,3.92-3.96,3.92
			C369.44,357.86,367.75,356.2,367.75,353.93z M369.08,353.93c0,1.84,1.3,2.77,2.63,2.77c1.35,0,2.63-0.95,2.63-2.77
			c0-1.84-1.26-2.79-2.63-2.79C370.34,351.14,369.08,352.12,369.08,353.93z"/>
		<path class="st4" d="M378.98,351.36v6.28h-1.3v-6.28h-0.79v-1.19h0.79v-2.7h1.3v2.7h1.3v1.19H378.98z"/>
		<path class="st4" d="M382.15,346.43c0.5,0,0.92,0.42,0.92,0.92s-0.41,0.92-0.92,0.92s-0.92-0.41-0.92-0.92
			S381.65,346.43,382.15,346.43z M382.8,350.17v7.47h-1.3v-7.47H382.8z"/>
		<path class="st4" d="M386.58,351.36v6.28h-1.3v-6.28h-0.72v-1.19h0.72v-3.26c0-0.68,0.05-1.55,0.72-2.11
			c0.36-0.31,0.9-0.49,1.49-0.49c0.47,0,0.77,0.11,0.92,0.16v1.26c-0.27-0.11-0.58-0.16-0.85-0.16c-0.29,0-0.63,0.07-0.83,0.4
			c-0.16,0.27-0.16,0.68-0.16,1.08v3.11h1.84v1.19H386.58z"/>
		<path class="st4" d="M392.28,356.94l-3.44-6.77h1.48l2.65,5.35l2.43-5.35h1.44l-5.49,11.61h-1.44L392.28,356.94z"/>
	</g>
	<g>
		<path class="st4" d="M341.48,563.82c0.67,0,1.87,0.05,2.75,0.76c0.38,0.29,1.08,1.03,1.08,2.48c0,0.59-0.13,1.64-1.19,2.36
			c1.67,0.41,2.29,1.87,2.29,3.03s-0.58,2.09-1.22,2.59c-0.95,0.76-2.05,0.79-2.88,0.79h-2.99v-12.01H341.48z M340.65,569.09h1.01
			c0.7,0,2.36-0.14,2.36-2c0-1.98-1.94-2.02-2.32-2.02h-1.04V569.09z M340.65,574.57h1.53c0.77,0,1.53-0.05,2.11-0.5
			c0.47-0.34,0.79-0.94,0.79-1.66c0-0.95-0.56-1.51-1.03-1.76c-0.45-0.25-1.08-0.36-2.03-0.36h-1.37V574.57z"/>
		<path class="st4" d="M349.83,572.71c0,0.52,0,1.13,0.36,1.6c0.2,0.25,0.59,0.58,1.31,0.58s1.12-0.32,1.31-0.58
			c0.36-0.47,0.36-1.08,0.36-1.6v-4.36h1.3v4.5c0,0.92-0.09,1.6-0.68,2.25c-0.67,0.7-1.55,0.94-2.29,0.94s-1.62-0.23-2.29-0.94
			c-0.59-0.65-0.68-1.33-0.68-2.25v-4.5h1.3V572.71z"/>
		<path class="st4" d="M360,570.08c-0.18-0.43-0.56-0.76-1.04-0.76c-0.47,0-0.9,0.27-0.9,0.85c0,0.54,0.36,0.7,1.21,1.06
			c1.08,0.45,1.58,0.79,1.87,1.15c0.32,0.4,0.4,0.79,0.4,1.21c0,1.57-1.13,2.45-2.58,2.45c-0.31,0-1.98-0.04-2.61-1.91l1.12-0.47
			c0.14,0.4,0.58,1.22,1.51,1.22c0.85,0,1.22-0.63,1.22-1.19c0-0.7-0.5-0.94-1.21-1.24c-0.9-0.4-1.48-0.68-1.82-1.1
			c-0.29-0.36-0.34-0.72-0.34-1.1c0-1.31,0.92-2.09,2.18-2.09c0.4,0,1.46,0.07,2.05,1.35L360,570.08z"/>
		<path class="st4" d="M369.11,570.44c-0.68-0.86-1.67-1.12-2.34-1.12c-1.39,0-2.65,0.97-2.65,2.79s1.3,2.77,2.63,2.77
			c0.77,0,1.73-0.34,2.41-1.17v1.55c-0.81,0.59-1.67,0.77-2.38,0.77c-2.32,0-4-1.66-4-3.91c0-2.29,1.69-3.96,4-3.96
			c1.19,0,1.96,0.47,2.32,0.72V570.44z"/>
		<path class="st4" d="M376.87,568.35h1.3v7.47h-1.3v-1.04c-0.43,0.56-1.24,1.26-2.56,1.26c-1.89,0-3.64-1.33-3.64-3.96
			c0-2.58,1.73-3.91,3.64-3.91c1.44,0,2.21,0.79,2.56,1.24V568.35z M372.01,572.08c0,1.6,0.9,2.81,2.45,2.81
			c1.58,0,2.48-1.31,2.48-2.79c0-1.93-1.33-2.77-2.48-2.77C373.18,569.33,372.01,570.26,372.01,572.08z"/>
		<path class="st4" d="M380.61,568.35h1.3v0.81c0.13-0.2,0.68-0.99,1.69-0.99c0.4,0,0.83,0.14,1.15,0.31l-0.61,1.17
			c-0.29-0.2-0.56-0.25-0.76-0.25c-0.52,0-0.85,0.22-1.04,0.47c-0.22,0.29-0.43,0.79-0.43,2.02v3.94h-1.3V568.35z"/>
		<path class="st4" d="M390.13,568.35h1.3v0.79c0.41-0.61,1.06-0.97,1.85-0.97c1.35,0,1.89,0.95,2.03,1.21
			c0.72-1.13,1.75-1.21,2.25-1.21c2.21,0,2.43,1.85,2.43,2.92v4.74h-1.3v-4.54c0-0.85-0.11-1.96-1.33-1.96
			c-1.49,0-1.66,1.44-1.66,2.34v4.16h-1.3v-4.43c0-0.52,0.02-2.07-1.35-2.07c-1.48,0-1.64,1.53-1.64,2.43v4.07h-1.3V568.35z"/>
		<path class="st4" d="M403.76,572.71c0,0.52,0,1.13,0.36,1.6c0.2,0.25,0.59,0.58,1.31,0.58s1.12-0.32,1.31-0.58
			c0.36-0.47,0.36-1.08,0.36-1.6v-4.36h1.3v4.5c0,0.92-0.09,1.6-0.68,2.25c-0.67,0.7-1.55,0.94-2.29,0.94s-1.62-0.23-2.29-0.94
			c-0.59-0.65-0.68-1.33-0.68-2.25v-4.5h1.3V572.71z M407.72,564.45l-2.41,2.43l-0.81-0.43l1.89-2.61L407.72,564.45z"/>
		<path class="st4" d="M413.93,570.08c-0.18-0.43-0.56-0.76-1.04-0.76c-0.47,0-0.9,0.27-0.9,0.85c0,0.54,0.36,0.7,1.21,1.06
			c1.08,0.45,1.58,0.79,1.87,1.15c0.32,0.4,0.4,0.79,0.4,1.21c0,1.57-1.13,2.45-2.58,2.45c-0.31,0-1.98-0.04-2.61-1.91l1.12-0.47
			c0.14,0.4,0.58,1.22,1.51,1.22c0.85,0,1.22-0.63,1.22-1.19c0-0.7-0.5-0.94-1.21-1.24c-0.9-0.4-1.48-0.68-1.82-1.1
			c-0.29-0.36-0.34-0.72-0.34-1.1c0-1.31,0.92-2.09,2.18-2.09c0.4,0,1.46,0.07,2.05,1.35L413.93,570.08z"/>
		<path class="st4" d="M417.84,564.61c0.5,0,0.92,0.41,0.92,0.92c0,0.5-0.41,0.92-0.92,0.92s-0.92-0.41-0.92-0.92
			C416.92,565.02,417.33,564.61,417.84,564.61z M418.48,568.35v7.47h-1.3v-7.47H418.48z"/>
		<path class="st4" d="M426.78,570.44c-0.68-0.86-1.67-1.12-2.34-1.12c-1.39,0-2.65,0.97-2.65,2.79s1.3,2.77,2.63,2.77
			c0.77,0,1.73-0.34,2.41-1.17v1.55c-0.81,0.59-1.67,0.77-2.38,0.77c-2.32,0-4-1.66-4-3.91c0-2.29,1.69-3.96,4-3.96
			c1.19,0,1.96,0.47,2.32,0.72V570.44z"/>
		<path class="st4" d="M434.54,568.35h1.3v7.47h-1.3v-1.04c-0.43,0.56-1.24,1.26-2.56,1.26c-1.89,0-3.64-1.33-3.64-3.96
			c0-2.58,1.73-3.91,3.64-3.91c1.44,0,2.21,0.79,2.56,1.24V568.35z M429.68,572.08c0,1.6,0.9,2.81,2.45,2.81
			c1.58,0,2.48-1.31,2.48-2.79c0-1.93-1.33-2.77-2.48-2.77C430.85,569.33,429.68,570.26,429.68,572.08z"/>
		<path class="st4" d="M441.36,570.08c-0.18-0.43-0.56-0.76-1.04-0.76c-0.47,0-0.9,0.27-0.9,0.85c0,0.54,0.36,0.7,1.21,1.06
			c1.08,0.45,1.58,0.79,1.87,1.15c0.32,0.4,0.4,0.79,0.4,1.21c0,1.57-1.13,2.45-2.57,2.45c-0.31,0-1.98-0.04-2.61-1.91l1.12-0.47
			c0.14,0.4,0.58,1.22,1.51,1.22c0.85,0,1.22-0.63,1.22-1.19c0-0.7-0.5-0.94-1.21-1.24c-0.9-0.4-1.48-0.68-1.82-1.1
			c-0.29-0.36-0.34-0.72-0.34-1.1c0-1.31,0.92-2.09,2.18-2.09c0.4,0,1.46,0.07,2.05,1.35L441.36,570.08z"/>
	</g>
	<g>
		<path class="st2" d="M267.21,587.46H101.68c-8.9,0-16.12-7.22-16.12-16.12l0,0c0-8.9,7.22-16.12,16.12-16.12h165.53
			c8.9,0,16.12,7.22,16.12,16.12l0,0C283.33,580.24,276.12,587.46,267.21,587.46z"/>
		<path class="st4" d="M267.21,587.96H101.68c-9.17,0-16.62-7.46-16.62-16.62c0-9.17,7.46-16.62,16.62-16.62h165.53
			c9.17,0,16.62,7.46,16.62,16.62C283.83,580.5,276.38,587.96,267.21,587.96z M101.68,555.71c-8.61,0-15.62,7.01-15.62,15.62
			c0,8.62,7.01,15.62,15.62,15.62h165.53c8.61,0,15.62-7.01,15.62-15.62c0-8.61-7.01-15.62-15.62-15.62H101.68z"/>
	</g>
	<g>
		<path class="st4" d="M104.34,563.82c1.21,0,2.21,0.14,3.02,0.85c0.88,0.76,1.1,1.82,1.1,2.57c0,1.69-1.06,3.37-3.8,3.37h-1.17
			v5.22h-1.33v-12.01H104.34z M103.5,569.34h1.1c1.58,0,2.54-0.79,2.54-2.18c0-1.91-1.78-2.09-2.65-2.09h-0.99V569.34z"/>
		<path class="st4" d="M116.55,573.92c-0.22,0.41-0.54,0.86-0.92,1.21c-0.68,0.61-1.53,0.92-2.48,0.92c-1.8,0-3.69-1.13-3.69-3.91
			c0-2.23,1.37-3.96,3.62-3.96c1.46,0,2.38,0.72,2.83,1.37c0.47,0.67,0.74,1.82,0.7,2.81h-5.82c0.02,1.55,1.08,2.54,2.38,2.54
			c0.61,0,1.1-0.18,1.53-0.54c0.34-0.29,0.61-0.67,0.77-1.03L116.55,573.92z M115.27,571.27c-0.22-1.17-1.1-1.94-2.2-1.94
			c-1.1,0-2,0.83-2.2,1.94H115.27z"/>
		<path class="st4" d="M124.31,568.35h1.3v7.29c0,0.81,0,1.96-0.72,2.93c-0.56,0.76-1.58,1.39-2.99,1.39c-1.28,0-2.16-0.5-2.66-1.01
			s-0.97-1.31-0.97-2.41h1.28c0,0.63,0.25,1.19,0.58,1.55c0.54,0.59,1.22,0.72,1.8,0.72c0.92,0,1.55-0.32,1.98-1.04
			c0.38-0.61,0.41-1.28,0.41-1.91v-1.08c-0.43,0.56-1.24,1.26-2.56,1.26c-1.1,0-1.98-0.43-2.56-1.01c-0.5-0.5-1.08-1.44-1.08-2.95
			c0-1.46,0.54-2.36,1.08-2.9c0.63-0.61,1.55-1.01,2.56-1.01c1.1,0,1.96,0.47,2.56,1.24V568.35z M120.2,570.03
			c-0.63,0.65-0.76,1.44-0.76,2.05c0,0.65,0.13,1.53,0.85,2.2c0.41,0.38,0.92,0.61,1.6,0.61c0.68,0,1.22-0.22,1.64-0.63
			c0.5-0.49,0.85-1.28,0.85-2.16c0-0.88-0.32-1.66-0.79-2.11c-0.41-0.41-1.03-0.67-1.69-0.67
			C121.1,569.33,120.56,569.67,120.2,570.03z"/>
		<path class="st4" d="M133.77,568.35h1.3v7.47h-1.3v-1.04c-0.43,0.56-1.24,1.26-2.56,1.26c-1.89,0-3.64-1.33-3.64-3.96
			c0-2.58,1.73-3.91,3.64-3.91c1.44,0,2.21,0.79,2.56,1.24V568.35z M128.91,572.08c0,1.6,0.9,2.81,2.45,2.81
			c1.58,0,2.48-1.31,2.48-2.79c0-1.93-1.33-2.77-2.48-2.77C130.08,569.33,128.91,570.26,128.91,572.08z"/>
		<path class="st4" d="M137.52,568.35h1.3v0.81c0.13-0.2,0.68-0.99,1.69-0.99c0.4,0,0.83,0.14,1.15,0.31l-0.61,1.17
			c-0.29-0.2-0.56-0.25-0.76-0.25c-0.52,0-0.85,0.22-1.04,0.47c-0.22,0.29-0.43,0.79-0.43,2.02v3.94h-1.3V568.35z"/>
		<path class="st4" d="M152.76,562.7h1.3v13.13h-1.3v-1.04c-0.43,0.56-1.24,1.26-2.56,1.26c-1.89,0-3.64-1.33-3.64-3.96
			c0-2.58,1.73-3.91,3.64-3.91c1.44,0,2.21,0.79,2.56,1.24V562.7z M147.9,572.08c0,1.6,0.9,2.81,2.45,2.81
			c1.58,0,2.48-1.31,2.48-2.79c0-1.93-1.33-2.77-2.48-2.77C149.07,569.33,147.9,570.26,147.9,572.08z"/>
		<path class="st4" d="M162.23,568.35h1.3v7.47h-1.3v-1.04c-0.43,0.56-1.24,1.26-2.56,1.26c-1.89,0-3.64-1.33-3.64-3.96
			c0-2.58,1.73-3.91,3.64-3.91c1.44,0,2.21,0.79,2.56,1.24V568.35z M157.37,572.08c0,1.6,0.9,2.81,2.45,2.81
			c1.58,0,2.48-1.31,2.48-2.79c0-1.93-1.33-2.77-2.48-2.77C158.54,569.33,157.37,570.26,157.37,572.08z"/>
		<path class="st4" d="M171.7,562.7h1.3v13.13h-1.3v-1.04c-0.43,0.56-1.24,1.26-2.56,1.26c-1.89,0-3.64-1.33-3.64-3.96
			c0-2.58,1.73-3.91,3.64-3.91c1.44,0,2.21,0.79,2.56,1.24V562.7z M166.84,572.08c0,1.6,0.9,2.81,2.45,2.81
			c1.58,0,2.48-1.31,2.48-2.79c0-1.93-1.33-2.77-2.48-2.77C168.01,569.33,166.84,570.26,166.84,572.08z"/>
		<path class="st4" d="M174.97,572.12c0-2.27,1.67-3.94,3.96-3.94s3.96,1.67,3.96,3.94s-1.69,3.92-3.96,3.92
			C176.66,576.04,174.97,574.39,174.97,572.12z M176.3,572.12c0,1.84,1.3,2.77,2.63,2.77c1.35,0,2.63-0.95,2.63-2.77
			c0-1.84-1.26-2.79-2.63-2.79C177.56,569.33,176.3,570.3,176.3,572.12z"/>
		<path class="st4" d="M187.95,570.08c-0.18-0.43-0.56-0.76-1.04-0.76c-0.47,0-0.9,0.27-0.9,0.85c0,0.54,0.36,0.7,1.21,1.06
			c1.08,0.45,1.58,0.79,1.87,1.15c0.32,0.4,0.4,0.79,0.4,1.21c0,1.57-1.13,2.45-2.58,2.45c-0.31,0-1.98-0.04-2.61-1.91l1.12-0.47
			c0.14,0.4,0.58,1.22,1.51,1.22c0.85,0,1.22-0.63,1.22-1.19c0-0.7-0.5-0.94-1.21-1.24c-0.9-0.4-1.48-0.68-1.82-1.1
			c-0.29-0.36-0.34-0.72-0.34-1.1c0-1.31,0.92-2.09,2.18-2.09c0.4,0,1.46,0.07,2.05,1.35L187.95,570.08z"/>
		<path class="st4" d="M201.13,562.7h1.3v13.13h-1.3v-1.04c-0.43,0.56-1.24,1.26-2.56,1.26c-1.89,0-3.64-1.33-3.64-3.96
			c0-2.58,1.73-3.91,3.64-3.91c1.44,0,2.21,0.79,2.56,1.24V562.7z M196.27,572.08c0,1.6,0.9,2.81,2.45,2.81
			c1.58,0,2.48-1.31,2.48-2.79c0-1.93-1.33-2.77-2.48-2.77C197.44,569.33,196.27,570.26,196.27,572.08z"/>
		<path class="st4" d="M204.4,572.12c0-2.27,1.67-3.94,3.96-3.94s3.96,1.67,3.96,3.94s-1.69,3.92-3.96,3.92
			S204.4,574.39,204.4,572.12z M205.73,572.12c0,1.84,1.3,2.77,2.63,2.77c1.35,0,2.63-0.95,2.63-2.77c0-1.84-1.26-2.79-2.63-2.79
			C206.99,569.33,205.73,570.3,205.73,572.12z"/>
		<path class="st4" d="M219.79,572.71c0,0.52,0,1.13,0.36,1.6c0.2,0.25,0.59,0.58,1.31,0.58s1.12-0.32,1.31-0.58
			c0.36-0.47,0.36-1.08,0.36-1.6v-4.36h1.3v4.5c0,0.92-0.09,1.6-0.68,2.25c-0.67,0.7-1.55,0.94-2.29,0.94s-1.62-0.23-2.29-0.94
			c-0.59-0.65-0.68-1.33-0.68-2.25v-4.5h1.3V572.71z"/>
		<path class="st4" d="M229.96,570.08c-0.18-0.43-0.56-0.76-1.04-0.76c-0.47,0-0.9,0.27-0.9,0.85c0,0.54,0.36,0.7,1.21,1.06
			c1.08,0.45,1.58,0.79,1.87,1.15c0.32,0.4,0.4,0.79,0.4,1.21c0,1.57-1.13,2.45-2.58,2.45c-0.31,0-1.98-0.04-2.61-1.91l1.12-0.47
			c0.14,0.4,0.58,1.22,1.51,1.22c0.85,0,1.22-0.63,1.22-1.19c0-0.7-0.5-0.94-1.21-1.24c-0.9-0.4-1.48-0.68-1.82-1.1
			c-0.29-0.36-0.34-0.72-0.34-1.1c0-1.31,0.92-2.09,2.18-2.09c0.4,0,1.46,0.07,2.05,1.35L229.96,570.08z"/>
		<path class="st4" d="M234.51,572.71c0,0.52,0,1.13,0.36,1.6c0.2,0.25,0.59,0.58,1.31,0.58s1.12-0.32,1.31-0.58
			c0.36-0.47,0.36-1.08,0.36-1.6v-4.36h1.3v4.5c0,0.92-0.09,1.6-0.68,2.25c-0.67,0.7-1.55,0.94-2.29,0.94s-1.62-0.23-2.29-0.94
			c-0.59-0.65-0.68-1.33-0.68-2.25v-4.5h1.3V572.71z"/>
		<path class="st4" d="M247.33,568.35h1.3v7.47h-1.3v-1.04c-0.43,0.56-1.24,1.26-2.56,1.26c-1.89,0-3.64-1.33-3.64-3.96
			c0-2.58,1.73-3.91,3.64-3.91c1.44,0,2.21,0.79,2.56,1.24V568.35z M242.47,572.08c0,1.6,0.9,2.81,2.45,2.81
			c1.58,0,2.48-1.31,2.48-2.79c0-1.93-1.33-2.77-2.48-2.77C243.64,569.33,242.47,570.26,242.47,572.08z M247.33,564.45l-2.41,2.43
			l-0.81-0.43l1.89-2.61L247.33,564.45z"/>
		<path class="st4" d="M251.07,568.35h1.3v0.81c0.13-0.2,0.68-0.99,1.69-0.99c0.4,0,0.83,0.14,1.15,0.31l-0.61,1.17
			c-0.29-0.2-0.56-0.25-0.76-0.25c-0.52,0-0.85,0.22-1.04,0.47c-0.22,0.29-0.43,0.79-0.43,2.02v3.94h-1.3V568.35z"/>
		<path class="st4" d="M257.05,564.61c0.5,0,0.92,0.41,0.92,0.92c0,0.5-0.41,0.92-0.92,0.92s-0.92-0.41-0.92-0.92
			C256.13,565.02,256.55,564.61,257.05,564.61z M257.7,568.35v7.47h-1.3v-7.47H257.7z"/>
		<path class="st4" d="M259.68,572.12c0-2.27,1.67-3.94,3.96-3.94s3.96,1.67,3.96,3.94s-1.69,3.92-3.96,3.92
			C261.37,576.04,259.68,574.39,259.68,572.12z M261.01,572.12c0,1.84,1.3,2.77,2.63,2.77c1.35,0,2.63-0.95,2.63-2.77
			c0-1.84-1.26-2.79-2.63-2.79C262.27,569.33,261.01,570.3,261.01,572.12z"/>
	</g>
	<g>
		<path class="st4" d="M560.04,566.46c-0.38-0.38-0.95-0.83-1.57-1.12c-0.63-0.29-1.37-0.47-2.07-0.47c-2.77,0-4.83,2.23-4.83,5.01
			c0,3.26,2.65,4.9,4.84,4.9c0.81,0,1.6-0.23,2.23-0.56c0.68-0.34,1.17-0.79,1.39-1.01v1.66c-1.33,0.95-2.72,1.17-3.62,1.17
			c-3.57,0-6.21-2.7-6.21-6.18c0-3.58,2.68-6.25,6.28-6.25c0.72,0,2.11,0.09,3.55,1.19V566.46z"/>
		<path class="st4" d="M562.16,568.35h1.3v0.81c0.13-0.2,0.68-0.99,1.69-0.99c0.4,0,0.83,0.14,1.15,0.31l-0.61,1.17
			c-0.29-0.2-0.56-0.25-0.76-0.25c-0.52,0-0.85,0.22-1.04,0.47c-0.22,0.29-0.43,0.79-0.43,2.02v3.94h-1.3V568.35z"/>
		<path class="st4" d="M568.14,564.61c0.5,0,0.92,0.41,0.92,0.92c0,0.5-0.41,0.92-0.92,0.92s-0.92-0.41-0.92-0.92
			C567.22,565.02,567.64,564.61,568.14,564.61z M568.79,568.35v7.47h-1.3v-7.47H568.79z"/>
		<path class="st4" d="M576.96,568.35h1.3v7.47h-1.3v-1.04c-0.43,0.56-1.24,1.26-2.56,1.26c-1.89,0-3.64-1.33-3.64-3.96
			c0-2.58,1.73-3.91,3.64-3.91c1.44,0,2.21,0.79,2.56,1.24V568.35z M572.1,572.08c0,1.6,0.9,2.81,2.45,2.81
			c1.58,0,2.48-1.31,2.48-2.79c0-1.93-1.33-2.77-2.48-2.77C573.27,569.33,572.1,570.26,572.1,572.08z"/>
		<path class="st4" d="M580.7,568.35h1.3v0.81c0.13-0.2,0.68-0.99,1.69-0.99c0.4,0,0.83,0.14,1.15,0.31l-0.61,1.17
			c-0.29-0.2-0.56-0.25-0.76-0.25c-0.52,0-0.85,0.22-1.04,0.47c-0.22,0.29-0.43,0.79-0.43,2.02v3.94h-1.3V568.35z"/>
		<path class="st4" d="M591.52,579.97h-1.3v-11.61h1.3v1.04c0.88-1.1,2.02-1.22,2.56-1.22c2.34,0,3.64,1.94,3.64,3.96
			c0,2.05-1.31,3.91-3.58,3.91c-1.21,0-2.05-0.54-2.61-1.26V579.97z M596.38,572.13c0-1.84-1.24-2.81-2.45-2.81
			c-1.21,0-2.48,0.99-2.48,2.79c0,1.53,0.97,2.77,2.5,2.77C595.46,574.89,596.38,573.63,596.38,572.13z"/>
		<path class="st4" d="M600.99,562.7v13.13h-1.3V562.7H600.99z"/>
		<path class="st4" d="M609.16,568.35h1.3v7.47h-1.3v-1.04c-0.43,0.56-1.24,1.26-2.56,1.26c-1.89,0-3.64-1.33-3.64-3.96
			c0-2.58,1.73-3.91,3.64-3.91c1.44,0,2.21,0.79,2.56,1.24V568.35z M604.3,572.08c0,1.6,0.9,2.81,2.45,2.81
			c1.58,0,2.48-1.31,2.48-2.79c0-1.93-1.33-2.77-2.48-2.77C605.47,569.33,604.3,570.26,604.3,572.08z"/>
		<path class="st4" d="M615.26,575.12l-3.44-6.77h1.48l2.65,5.35l2.43-5.35h1.44l-5.49,11.61h-1.44L615.26,575.12z"/>
		<path class="st4" d="M622.48,562.7v13.13h-1.3V562.7H622.48z"/>
		<path class="st4" d="M625.58,564.61c0.5,0,0.92,0.41,0.92,0.92c0,0.5-0.41,0.92-0.92,0.92s-0.92-0.41-0.92-0.92
			C624.66,565.02,625.07,564.61,625.58,564.61z M626.22,568.35v7.47h-1.3v-7.47H626.22z"/>
		<path class="st4" d="M631.75,570.08c-0.18-0.43-0.56-0.76-1.04-0.76c-0.47,0-0.9,0.27-0.9,0.85c0,0.54,0.36,0.7,1.21,1.06
			c1.08,0.45,1.58,0.79,1.87,1.15c0.32,0.4,0.4,0.79,0.4,1.21c0,1.57-1.13,2.45-2.58,2.45c-0.31,0-1.98-0.04-2.61-1.91l1.12-0.47
			c0.14,0.4,0.58,1.22,1.51,1.22c0.85,0,1.22-0.63,1.22-1.19c0-0.7-0.5-0.94-1.21-1.24c-0.9-0.4-1.48-0.68-1.82-1.1
			c-0.29-0.36-0.34-0.72-0.34-1.1c0-1.31,0.92-2.09,2.18-2.09c0.4,0,1.46,0.07,2.05,1.35L631.75,570.08z"/>
		<path class="st4" d="M636.34,569.54v6.28h-1.3v-6.28h-0.79v-1.19h0.79v-2.7h1.3v2.7h1.3v1.19H636.34z"/>
		<path class="st4" d="M641.94,570.08c-0.18-0.43-0.56-0.76-1.04-0.76c-0.47,0-0.9,0.27-0.9,0.85c0,0.54,0.36,0.7,1.21,1.06
			c1.08,0.45,1.58,0.79,1.87,1.15c0.32,0.4,0.4,0.79,0.4,1.21c0,1.57-1.13,2.45-2.58,2.45c-0.31,0-1.98-0.04-2.61-1.91l1.12-0.47
			c0.14,0.4,0.58,1.22,1.51,1.22c0.85,0,1.22-0.63,1.22-1.19c0-0.7-0.5-0.94-1.21-1.24c-0.9-0.4-1.48-0.68-1.82-1.1
			c-0.29-0.36-0.34-0.72-0.34-1.1c0-1.31,0.92-2.09,2.18-2.09c0.4,0,1.46,0.07,2.05,1.35L641.94,570.08z"/>
	</g>
	<g>
		<path class="st4" d="M760.76,565.08h-4.9v3.56h4.75v1.26h-4.75v4.66h4.9v1.26h-6.23v-12.01h6.23V565.08z"/>
		<path class="st4" d="M768.61,562.7h1.3v13.13h-1.3v-1.04c-0.43,0.56-1.24,1.26-2.56,1.26c-1.89,0-3.64-1.33-3.64-3.96
			c0-2.58,1.73-3.91,3.64-3.91c1.44,0,2.21,0.79,2.56,1.24V562.7z M763.75,572.08c0,1.6,0.9,2.81,2.45,2.81
			c1.58,0,2.49-1.31,2.49-2.79c0-1.93-1.33-2.77-2.49-2.77C764.92,569.33,763.75,570.26,763.75,572.08z"/>
		<path class="st4" d="M772.82,564.61c0.5,0,0.92,0.41,0.92,0.92c0,0.5-0.41,0.92-0.92,0.92c-0.5,0-0.92-0.41-0.92-0.92
			C771.9,565.02,772.31,564.61,772.82,564.61z M773.47,568.35v7.47h-1.3v-7.47H773.47z"/>
		<path class="st4" d="M777.25,569.54v6.28h-1.3v-6.28h-0.79v-1.19h0.79v-2.7h1.3v2.7h1.3v1.19H777.25z"/>
		<path class="st4" d="M785.49,568.35h1.3v7.47h-1.3v-1.04c-0.43,0.56-1.24,1.26-2.56,1.26c-1.89,0-3.64-1.33-3.64-3.96
			c0-2.58,1.73-3.91,3.64-3.91c1.44,0,2.21,0.79,2.56,1.24V568.35z M780.63,572.08c0,1.6,0.9,2.81,2.45,2.81
			c1.58,0,2.49-1.31,2.49-2.79c0-1.93-1.33-2.77-2.49-2.77C781.8,569.33,780.63,570.26,780.63,572.08z"/>
		<path class="st4" d="M789.23,568.35h1.3v0.81c0.13-0.2,0.68-0.99,1.69-0.99c0.4,0,0.83,0.14,1.15,0.31l-0.61,1.17
			c-0.29-0.2-0.56-0.25-0.76-0.25c-0.52,0-0.85,0.22-1.04,0.47c-0.22,0.29-0.43,0.79-0.43,2.02v3.94h-1.3V568.35z"/>
		<path class="st4" d="M800.05,579.97h-1.3v-11.61h1.3v1.04c0.88-1.1,2.02-1.22,2.56-1.22c2.34,0,3.64,1.94,3.64,3.96
			c0,2.05-1.31,3.91-3.58,3.91c-1.21,0-2.05-0.54-2.61-1.26V579.97z M804.91,572.13c0-1.84-1.24-2.81-2.45-2.81
			s-2.48,0.99-2.48,2.79c0,1.53,0.97,2.77,2.5,2.77C804,574.89,804.91,573.63,804.91,572.13z"/>
		<path class="st4" d="M809.52,562.7v13.13h-1.3V562.7H809.52z"/>
		<path class="st4" d="M817.69,568.35h1.3v7.47h-1.3v-1.04c-0.43,0.56-1.24,1.26-2.56,1.26c-1.89,0-3.64-1.33-3.64-3.96
			c0-2.58,1.73-3.91,3.64-3.91c1.44,0,2.21,0.79,2.56,1.24V568.35z M812.83,572.08c0,1.6,0.9,2.81,2.45,2.81
			c1.58,0,2.48-1.31,2.48-2.79c0-1.93-1.33-2.77-2.48-2.77C814,569.33,812.83,570.26,812.83,572.08z"/>
		<path class="st4" d="M823.79,575.12l-3.44-6.77h1.48l2.65,5.35l2.43-5.35h1.44l-5.49,11.61h-1.44L823.79,575.12z"/>
		<path class="st4" d="M831.01,562.7v13.13h-1.3V562.7H831.01z"/>
		<path class="st4" d="M834.11,564.61c0.5,0,0.92,0.41,0.92,0.92c0,0.5-0.42,0.92-0.92,0.92s-0.92-0.41-0.92-0.92
			C833.19,565.02,833.6,564.61,834.11,564.61z M834.75,568.35v7.47h-1.3v-7.47H834.75z"/>
		<path class="st4" d="M840.28,570.08c-0.18-0.43-0.56-0.76-1.04-0.76c-0.47,0-0.9,0.27-0.9,0.85c0,0.54,0.36,0.7,1.21,1.06
			c1.08,0.45,1.58,0.79,1.87,1.15c0.32,0.4,0.4,0.79,0.4,1.21c0,1.57-1.13,2.45-2.58,2.45c-0.31,0-1.98-0.04-2.61-1.91l1.12-0.47
			c0.14,0.4,0.58,1.22,1.51,1.22c0.85,0,1.22-0.63,1.22-1.19c0-0.7-0.5-0.94-1.21-1.24c-0.9-0.4-1.48-0.68-1.82-1.1
			c-0.29-0.36-0.34-0.72-0.34-1.1c0-1.31,0.92-2.09,2.18-2.09c0.4,0,1.46,0.07,2.05,1.35L840.28,570.08z"/>
		<path class="st4" d="M844.87,569.54v6.28h-1.3v-6.28h-0.79v-1.19h0.79v-2.7h1.3v2.7h1.3v1.19H844.87z"/>
		<path class="st4" d="M850.47,570.08c-0.18-0.43-0.56-0.76-1.04-0.76c-0.47,0-0.9,0.27-0.9,0.85c0,0.54,0.36,0.7,1.21,1.06
			c1.08,0.45,1.58,0.79,1.87,1.15c0.32,0.4,0.4,0.79,0.4,1.21c0,1.57-1.13,2.45-2.58,2.45c-0.31,0-1.98-0.04-2.61-1.91l1.12-0.47
			c0.14,0.4,0.58,1.22,1.51,1.22c0.85,0,1.22-0.63,1.22-1.19c0-0.7-0.5-0.94-1.21-1.24c-0.9-0.4-1.48-0.68-1.82-1.1
			c-0.29-0.36-0.34-0.72-0.34-1.1c0-1.31,0.92-2.09,2.18-2.09c0.4,0,1.46,0.07,2.05,1.35L850.47,570.08z"/>
	</g>
	<g>
		<path class="st4" d="M948.31,566.53c-0.16-0.32-0.43-0.68-0.7-0.9c-0.23-0.18-0.67-0.41-1.35-0.41c-1.19,0-2.02,0.74-2.02,1.85
			c0,0.47,0.13,0.74,0.45,1.04c0.36,0.36,0.81,0.56,1.26,0.76l1.15,0.5c0.7,0.31,1.35,0.63,1.86,1.13c0.61,0.61,0.86,1.31,0.86,2.18
			c0,2.21-1.64,3.69-3.8,3.69c-0.79,0-1.78-0.16-2.61-0.97c-0.59-0.58-0.95-1.4-1.12-2.12l1.3-0.36c0.09,0.63,0.38,1.17,0.72,1.53
			c0.52,0.52,1.12,0.67,1.73,0.67c1.64,0,2.41-1.17,2.41-2.38c0-0.54-0.16-1.01-0.59-1.4c-0.34-0.32-0.81-0.54-1.44-0.83l-1.08-0.5
			c-0.47-0.22-1.06-0.47-1.6-0.99c-0.52-0.5-0.83-1.06-0.83-1.96c0-1.85,1.42-3.1,3.37-3.1c0.74,0,1.33,0.14,1.93,0.54
			c0.49,0.32,0.9,0.81,1.17,1.33L948.31,566.53z"/>
		<path class="st4" d="M957.67,568.69h1.3v7.47h-1.3v-1.04c-0.43,0.56-1.24,1.26-2.56,1.26c-1.89,0-3.64-1.33-3.64-3.96
			c0-2.58,1.73-3.91,3.64-3.91c1.44,0,2.21,0.79,2.56,1.24V568.69z M952.81,572.41c0,1.6,0.9,2.81,2.45,2.81
			c1.58,0,2.48-1.31,2.48-2.79c0-1.93-1.33-2.77-2.48-2.77C953.98,569.66,952.81,570.6,952.81,572.41z"/>
		<path class="st4" d="M962.71,563.03v13.13h-1.3v-13.13H962.71z"/>
		<path class="st4" d="M965.52,568.69l2.23,5.04l2.23-5.04h1.44l-3.67,7.96l-3.67-7.96H965.52z"/>
		<path class="st4" d="M978.52,568.69h1.3v7.47h-1.3v-1.04c-0.43,0.56-1.24,1.26-2.56,1.26c-1.89,0-3.64-1.33-3.64-3.96
			c0-2.58,1.73-3.91,3.64-3.91c1.44,0,2.21,0.79,2.56,1.24V568.69z M973.66,572.41c0,1.6,0.9,2.81,2.45,2.81
			c1.59,0,2.49-1.31,2.49-2.79c0-1.93-1.33-2.77-2.49-2.77C974.83,569.66,973.66,570.6,973.66,572.41z M978.52,564.78l-2.41,2.43
			l-0.81-0.43l1.89-2.61L978.52,564.78z"/>
		<path class="st4" d="M981.94,571.66h3.96v1.33h-3.96V571.66z"/>
		<path class="st4" d="M989.31,563.03v13.13h-1.29v-13.13H989.31z"/>
		<path class="st4" d="M997.49,568.69h1.3v7.47h-1.3v-1.04c-0.43,0.56-1.24,1.26-2.56,1.26c-1.89,0-3.64-1.33-3.64-3.96
			c0-2.58,1.73-3.91,3.64-3.91c1.44,0,2.21,0.79,2.56,1.24V568.69z M992.63,572.41c0,1.6,0.9,2.81,2.45,2.81
			c1.58,0,2.48-1.31,2.48-2.79c0-1.93-1.33-2.77-2.48-2.77C993.8,569.66,992.63,570.6,992.63,572.41z"/>
		<path class="st4" d="M1004.31,570.42c-0.18-0.43-0.56-0.76-1.04-0.76c-0.47,0-0.9,0.27-0.9,0.85c0,0.54,0.36,0.7,1.21,1.06
			c1.08,0.45,1.58,0.79,1.87,1.15c0.32,0.4,0.4,0.79,0.4,1.21c0,1.57-1.13,2.45-2.58,2.45c-0.31,0-1.98-0.04-2.61-1.91l1.12-0.47
			c0.14,0.4,0.58,1.22,1.51,1.22c0.85,0,1.22-0.63,1.22-1.19c0-0.7-0.5-0.94-1.21-1.24c-0.9-0.4-1.48-0.68-1.82-1.1
			c-0.29-0.36-0.34-0.72-0.34-1.1c0-1.31,0.92-2.09,2.18-2.09c0.4,0,1.46,0.07,2.05,1.35L1004.31,570.42z"/>
		<path class="st4" d="M1011.76,568.69h1.3v0.86c0.23-0.31,0.9-1.04,2.14-1.04c0.88,0,1.69,0.36,2.14,1.03
			c0.38,0.56,0.43,1.17,0.43,2v4.63h-1.3v-4.59c0-0.45-0.04-0.97-0.34-1.37c-0.25-0.32-0.65-0.54-1.22-0.54
			c-0.45,0-0.94,0.13-1.31,0.58c-0.5,0.59-0.54,1.48-0.54,2.02v3.91h-1.3V568.69z"/>
		<path class="st4" d="M1019.75,572.45c0-2.27,1.67-3.94,3.96-3.94c2.29,0,3.96,1.67,3.96,3.94s-1.69,3.92-3.96,3.92
			C1021.44,576.38,1019.75,574.72,1019.75,572.45z M1021.08,572.45c0,1.84,1.3,2.77,2.63,2.77c1.35,0,2.63-0.95,2.63-2.77
			c0-1.84-1.26-2.79-2.63-2.79C1022.34,569.66,1021.08,570.63,1021.08,572.45z"/>
		<path class="st4" d="M1036.92,570.42c-0.18-0.43-0.56-0.76-1.04-0.76c-0.47,0-0.9,0.27-0.9,0.85c0,0.54,0.36,0.7,1.21,1.06
			c1.08,0.45,1.58,0.79,1.87,1.15c0.32,0.4,0.4,0.79,0.4,1.21c0,1.57-1.13,2.45-2.58,2.45c-0.31,0-1.98-0.04-2.61-1.91l1.12-0.47
			c0.14,0.4,0.58,1.22,1.51,1.22c0.85,0,1.22-0.63,1.22-1.19c0-0.7-0.5-0.94-1.21-1.24c-0.9-0.4-1.48-0.68-1.82-1.1
			c-0.29-0.36-0.34-0.72-0.34-1.1c0-1.31,0.92-2.09,2.18-2.09c0.4,0,1.46,0.07,2.05,1.35L1036.92,570.42z"/>
		<path class="st4" d="M1041.48,580.3h-1.3v-11.61h1.3v1.04c0.88-1.1,2.02-1.22,2.56-1.22c2.34,0,3.64,1.94,3.64,3.96
			c0,2.05-1.31,3.91-3.58,3.91c-1.21,0-2.05-0.54-2.61-1.26V580.3z M1046.34,572.47c0-1.84-1.24-2.81-2.45-2.81
			c-1.21,0-2.48,0.99-2.48,2.79c0,1.53,0.97,2.77,2.5,2.77C1045.42,575.22,1046.34,573.96,1046.34,572.47z"/>
		<path class="st4" d="M1049.18,572.45c0-2.27,1.67-3.94,3.96-3.94c2.29,0,3.96,1.67,3.96,3.94s-1.69,3.92-3.96,3.92
			C1050.87,576.38,1049.18,574.72,1049.18,572.45z M1050.51,572.45c0,1.84,1.3,2.77,2.63,2.77c1.35,0,2.63-0.95,2.63-2.77
			c0-1.84-1.26-2.79-2.63-2.79C1051.77,569.66,1050.51,570.63,1050.51,572.45z"/>
		<path class="st4" d="M1060.41,569.88v6.28h-1.3v-6.28h-0.79v-1.19h0.79v-2.7h1.3v2.7h1.3v1.19H1060.41z"/>
		<path class="st4" d="M1063.58,564.94c0.5,0,0.92,0.42,0.92,0.92s-0.41,0.92-0.92,0.92s-0.92-0.41-0.92-0.92
			S1063.08,564.94,1063.58,564.94z M1064.23,568.69v7.47h-1.29v-7.47H1064.23z"/>
		<path class="st4" d="M1068.01,569.88v6.28h-1.3v-6.28h-0.72v-1.19h0.72v-3.26c0-0.68,0.05-1.55,0.72-2.11
			c0.36-0.31,0.9-0.49,1.5-0.49c0.47,0,0.77,0.11,0.92,0.16v1.26c-0.27-0.11-0.58-0.16-0.85-0.16c-0.29,0-0.63,0.07-0.83,0.4
			c-0.16,0.27-0.16,0.68-0.16,1.08v3.11h1.84v1.19H1068.01z"/>
		<path class="st4" d="M1073.71,575.46l-3.44-6.77h1.48l2.65,5.35l2.43-5.35h1.44l-5.49,11.61h-1.44L1073.71,575.46z"/>
	</g>
	<g>
		<path class="st4" d="M1145.45,572.44h-5.11l-1.44,3.38h-1.48l5.53-12.59l5.38,12.59h-1.48L1145.45,572.44z M1144.93,571.18
			l-2.02-4.81l-2.05,4.81H1144.93z"/>
		<path class="st4" d="M1151.03,569.54v6.28h-1.3v-6.28h-0.79v-1.19h0.79v-2.7h1.3v2.7h1.3v1.19H1151.03z"/>
		<path class="st4" d="M1154.84,572.71c0,0.52,0,1.13,0.36,1.6c0.2,0.25,0.59,0.58,1.31,0.58c0.72,0,1.12-0.32,1.31-0.58
			c0.36-0.47,0.36-1.08,0.36-1.6v-4.36h1.3v4.5c0,0.92-0.09,1.6-0.68,2.25c-0.67,0.7-1.55,0.94-2.29,0.94s-1.62-0.23-2.29-0.94
			c-0.59-0.65-0.68-1.33-0.68-2.25v-4.5h1.3V572.71z"/>
		<path class="st4" d="M1167.66,568.35h1.3v7.47h-1.3v-1.04c-0.43,0.56-1.24,1.26-2.56,1.26c-1.89,0-3.64-1.33-3.64-3.96
			c0-2.58,1.73-3.91,3.64-3.91c1.44,0,2.21,0.79,2.56,1.24V568.35z M1162.8,572.08c0,1.6,0.9,2.81,2.45,2.81
			c1.58,0,2.49-1.31,2.49-2.79c0-1.93-1.33-2.77-2.49-2.77C1163.97,569.33,1162.8,570.26,1162.8,572.08z"/>
		<path class="st4" d="M1172.7,562.7v13.13h-1.3V562.7H1172.7z"/>
		<path class="st4" d="M1175.79,564.61c0.5,0,0.92,0.41,0.92,0.92c0,0.5-0.42,0.92-0.92,0.92s-0.92-0.41-0.92-0.92
			C1174.88,565.02,1175.29,564.61,1175.79,564.61z M1176.44,568.35v7.47h-1.3v-7.47H1176.44z"/>
		<path class="st4" d="M1180.4,574.64h5.19v1.19h-7.78l5.4-6.28h-4.36v-1.19h6.95L1180.4,574.64z"/>
		<path class="st4" d="M1192.72,568.35h1.3v7.47h-1.3v-1.04c-0.43,0.56-1.24,1.26-2.56,1.26c-1.89,0-3.64-1.33-3.64-3.96
			c0-2.58,1.73-3.91,3.64-3.91c1.44,0,2.21,0.79,2.56,1.24V568.35z M1187.85,572.08c0,1.6,0.9,2.81,2.45,2.81
			c1.58,0,2.48-1.31,2.48-2.79c0-1.93-1.33-2.77-2.48-2.77C1189.02,569.33,1187.85,570.26,1187.85,572.08z M1192.72,564.45
			l-2.41,2.43l-0.81-0.43l1.89-2.61L1192.72,564.45z"/>
		<path class="st4" d="M1196.13,571.32h3.96v1.33h-3.96V571.32z"/>
		<path class="st4" d="M1203.51,562.7v13.13h-1.3V562.7H1203.51z"/>
		<path class="st4" d="M1211.69,568.35h1.3v7.47h-1.3v-1.04c-0.43,0.56-1.24,1.26-2.56,1.26c-1.89,0-3.64-1.33-3.64-3.96
			c0-2.58,1.73-3.91,3.64-3.91c1.44,0,2.21,0.79,2.56,1.24V568.35z M1206.83,572.08c0,1.6,0.9,2.81,2.45,2.81
			c1.58,0,2.49-1.31,2.49-2.79c0-1.93-1.33-2.77-2.49-2.77C1207.99,569.33,1206.83,570.26,1206.83,572.08z"/>
		<path class="st4" d="M1218.51,570.08c-0.18-0.43-0.56-0.76-1.04-0.76c-0.47,0-0.9,0.27-0.9,0.85c0,0.54,0.36,0.7,1.21,1.06
			c1.08,0.45,1.58,0.79,1.87,1.15c0.32,0.4,0.4,0.79,0.4,1.21c0,1.57-1.13,2.45-2.58,2.45c-0.31,0-1.98-0.04-2.61-1.91l1.12-0.47
			c0.14,0.4,0.58,1.22,1.51,1.22c0.85,0,1.22-0.63,1.22-1.19c0-0.7-0.5-0.94-1.21-1.24c-0.9-0.4-1.48-0.68-1.82-1.1
			c-0.29-0.36-0.34-0.72-0.34-1.1c0-1.31,0.92-2.09,2.18-2.09c0.4,0,1.46,0.07,2.05,1.35L1218.51,570.08z"/>
		<path class="st4" d="M1225.96,568.35h1.3v0.86c0.23-0.31,0.9-1.04,2.14-1.04c0.88,0,1.69,0.36,2.14,1.03
			c0.38,0.56,0.43,1.17,0.43,2v4.63h-1.3v-4.59c0-0.45-0.04-0.97-0.34-1.37c-0.25-0.32-0.65-0.54-1.22-0.54
			c-0.45,0-0.94,0.13-1.31,0.58c-0.5,0.59-0.54,1.48-0.54,2.02v3.91h-1.3V568.35z"/>
		<path class="st4" d="M1233.95,572.12c0-2.27,1.67-3.94,3.96-3.94c2.29,0,3.96,1.67,3.96,3.94s-1.69,3.92-3.96,3.92
			S1233.95,574.39,1233.95,572.12z M1235.28,572.12c0,1.84,1.3,2.77,2.63,2.77c1.35,0,2.63-0.95,2.63-2.77
			c0-1.84-1.26-2.79-2.63-2.79C1236.54,569.33,1235.28,570.3,1235.28,572.12z"/>
		<path class="st4" d="M1251.12,570.08c-0.18-0.43-0.56-0.76-1.04-0.76c-0.47,0-0.9,0.27-0.9,0.85c0,0.54,0.36,0.7,1.21,1.06
			c1.08,0.45,1.58,0.79,1.87,1.15c0.32,0.4,0.4,0.79,0.4,1.21c0,1.57-1.13,2.45-2.58,2.45c-0.31,0-1.98-0.04-2.61-1.91l1.12-0.47
			c0.14,0.4,0.58,1.22,1.51,1.22c0.85,0,1.22-0.63,1.22-1.19c0-0.7-0.5-0.94-1.21-1.24c-0.9-0.4-1.48-0.68-1.82-1.1
			c-0.29-0.36-0.34-0.72-0.34-1.1c0-1.31,0.92-2.09,2.18-2.09c0.4,0,1.46,0.07,2.05,1.35L1251.12,570.08z"/>
		<path class="st4" d="M1255.68,579.97h-1.3v-11.61h1.3v1.04c0.88-1.1,2.02-1.22,2.56-1.22c2.34,0,3.64,1.94,3.64,3.96
			c0,2.05-1.31,3.91-3.58,3.91c-1.21,0-2.05-0.54-2.61-1.26V579.97z M1260.54,572.13c0-1.84-1.24-2.81-2.45-2.81
			s-2.48,0.99-2.48,2.79c0,1.53,0.97,2.77,2.5,2.77C1259.62,574.89,1260.54,573.63,1260.54,572.13z"/>
		<path class="st4" d="M1263.38,572.12c0-2.27,1.67-3.94,3.96-3.94c2.29,0,3.96,1.67,3.96,3.94s-1.69,3.92-3.96,3.92
			S1263.38,574.39,1263.38,572.12z M1264.71,572.12c0,1.84,1.3,2.77,2.63,2.77c1.35,0,2.63-0.95,2.63-2.77
			c0-1.84-1.26-2.79-2.63-2.79S1264.71,570.3,1264.71,572.12z"/>
		<path class="st4" d="M1274.61,569.54v6.28h-1.3v-6.28h-0.79v-1.19h0.79v-2.7h1.3v2.7h1.3v1.19H1274.61z"/>
		<path class="st4" d="M1277.78,564.61c0.5,0,0.92,0.41,0.92,0.92c0,0.5-0.41,0.92-0.92,0.92c-0.5,0-0.92-0.41-0.92-0.92
			C1276.86,565.02,1277.27,564.61,1277.78,564.61z M1278.43,568.35v7.47h-1.3v-7.47H1278.43z"/>
		<path class="st4" d="M1282.21,569.54v6.28h-1.3v-6.28h-0.72v-1.19h0.72v-3.26c0-0.68,0.05-1.55,0.72-2.11
			c0.36-0.31,0.9-0.49,1.49-0.49c0.47,0,0.77,0.11,0.92,0.16v1.26c-0.27-0.11-0.58-0.16-0.85-0.16c-0.29,0-0.63,0.07-0.83,0.4
			c-0.16,0.27-0.16,0.68-0.16,1.08v3.11h1.84v1.19H1282.21z"/>
		<path class="st4" d="M1287.91,575.12l-3.44-6.77h1.48l2.65,5.35l2.43-5.35h1.44l-5.49,11.61h-1.44L1287.91,575.12z"/>
	</g>
	<g>
		<path class="st4" d="M475.14,343.86c-21.31,0-38.58,17.27-38.58,38.58s17.27,38.58,38.58,38.58s38.58-17.27,38.58-38.58
			S496.45,343.86,475.14,343.86z M492.8,399.56c-0.48,0.79-1.31,1.23-2.17,1.23c-0.44,0-0.89-0.12-1.3-0.36
			c-15.19-9.14-33.2-3.85-33.38-3.8c-1.34,0.4-2.75-0.35-3.16-1.69c-0.41-1.34,0.35-2.75,1.68-3.16c0.82-0.25,20.3-6.02,37.47,4.3
			C493.14,396.8,493.52,398.36,492.8,399.56z M497.59,388.88c-0.55,0.96-1.56,1.5-2.6,1.5c-0.51,0-1.02-0.13-1.49-0.4
			c-19.08-10.98-38.31-4.59-38.5-4.52c-1.56,0.54-3.27-0.3-3.8-1.86c-0.54-1.56,0.3-3.27,1.86-3.8c0.89-0.3,22.01-7.32,43.43,4.99
			C497.92,385.62,498.42,387.45,497.59,388.88z M499.73,378.58c-0.58,0-1.16-0.14-1.71-0.42c-22-11.55-44.59-4.64-44.82-4.57
			c-1.94,0.61-4.01-0.46-4.62-2.4c-0.61-1.94,0.46-4.01,2.4-4.62c1.04-0.33,25.78-7.9,50.47,5.07c1.8,0.95,2.5,3.17,1.55,4.98
			C502.34,377.86,501.06,378.58,499.73,378.58z"/>
	</g>
	<g>
		<path class="st4" d="M1042.93,343.86c-21.31,0-38.58,17.27-38.58,38.58s17.27,38.58,38.58,38.58c21.31,0,38.58-17.27,38.58-38.58
			S1064.24,343.86,1042.93,343.86z M1060.6,399.56c-0.47,0.79-1.31,1.23-2.17,1.23c-0.44,0-0.89-0.12-1.3-0.36
			c-15.19-9.14-33.2-3.85-33.38-3.8c-1.34,0.4-2.75-0.35-3.16-1.69c-0.41-1.34,0.35-2.75,1.68-3.16c0.82-0.25,20.3-6.02,37.47,4.3
			C1060.93,396.8,1061.32,398.36,1060.6,399.56z M1065.39,388.88c-0.55,0.96-1.56,1.5-2.6,1.5c-0.51,0-1.02-0.13-1.49-0.4
			c-19.08-10.98-38.31-4.59-38.5-4.52c-1.56,0.54-3.27-0.3-3.8-1.86c-0.54-1.56,0.3-3.27,1.86-3.8c0.89-0.3,22.01-7.32,43.43,4.99
			C1065.72,385.62,1066.21,387.45,1065.39,388.88z M1067.53,378.58c-0.58,0-1.16-0.14-1.71-0.42c-22-11.55-44.59-4.64-44.82-4.57
			c-1.94,0.61-4.01-0.46-4.62-2.4c-0.61-1.94,0.46-4.01,2.4-4.62c1.04-0.33,25.78-7.9,50.47,5.07c1.8,0.95,2.5,3.17,1.55,4.98
			C1070.13,377.86,1068.85,378.58,1067.53,378.58z"/>
	</g>
	<g>
		<g>
			<g>
				<path class="st2" d="M116.84,305.03c0.91,0,1.76,0.05,2.61-0.01c3.68-0.24,7.15-1.29,10.42-2.97c1.6-0.82,3.13-1.78,4.67-2.72
					c0.31-0.19,0.5-0.22,0.81,0c2.78,1.96,5.79,3.45,9.01,4.51c2.59,0.85,5.25,1.27,7.98,1.26c0.21,0,0.43,0,0.7,0
					c0,0.23,0,0.41,0,0.59c0,5.31-0.04,10.61,0.02,15.92c0.04,2.88-0.71,5.5-2.23,7.91c-2.89,4.57-6.83,7.93-11.76,10.15
					c-2.99,1.35-5.92,1.16-8.82-0.24c-5.03-2.44-9.06-5.98-11.78-10.92c-1.11-2.01-1.66-4.16-1.64-6.48
					c0.03-5.43,0.01-10.86,0.01-16.29C116.84,305.55,116.84,305.36,116.84,305.03z"/>
			</g>
		</g>
		<g>
			<g>
				<path class="st4" d="M115.66,304.05c0.96,0,1.87,0.05,2.78-0.01c3.92-0.26,7.62-1.37,11.1-3.16c1.7-0.88,3.33-1.9,4.97-2.89
					c0.33-0.2,0.53-0.24,0.86,0c2.96,2.08,6.17,3.67,9.6,4.8c2.75,0.91,5.6,1.35,8.5,1.34c0.23,0,0.46,0,0.75,0
					c0,0.24,0,0.44,0,0.63c0,5.65-0.05,11.31,0.03,16.96c0.04,3.07-0.75,5.86-2.37,8.43c-3.07,4.87-7.27,8.45-12.53,10.81
					c-3.19,1.43-6.31,1.24-9.4-0.26c-5.36-2.6-9.65-6.38-12.55-11.63c-1.18-2.14-1.77-4.43-1.75-6.9
					c0.03-5.78,0.01-11.57,0.01-17.35C115.66,304.61,115.66,304.42,115.66,304.05z M118.43,306.96c0,0.14,0,0.34,0,0.53
					c0,4.92,0.02,9.84-0.01,14.76c-0.01,1.82,0.37,3.53,1.21,5.12c2.67,5.07,6.72,8.66,11.9,11.04c2.31,1.06,4.61,1.01,6.92-0.03
					c4.54-2.06,8.16-5.19,10.9-9.35c1.47-2.24,2.19-4.68,2.14-7.41c-0.09-4.74-0.03-9.48-0.03-14.22c0-0.19,0-0.38,0-0.51
					c-1.29-0.19-2.49-0.33-3.67-0.55c-4.41-0.8-8.41-2.63-12.22-4.93c-0.5-0.3-0.81-0.25-1.26,0.02c-3.28,1.97-6.7,3.63-10.43,4.52
					C122.1,306.37,120.29,306.62,118.43,306.96z"/>
			</g>
			<g>
				<path class="st4" d="M137.77,319.92c1.04,0.73,2.1,1.48,3.23,2.27c-0.77,0.71-1.44,1.31-2.13,1.94c-0.88-0.89-1.9-1.54-3.1-1.9
					c-4.5-1.35-9.03,1.94-9.18,6.66c-0.03,0.99-0.63,1.61-1.49,1.53c-0.79-0.07-1.32-0.68-1.27-1.55c0.2-3.98,2.08-6.89,5.61-8.73
					c0.1-0.05,0.2-0.1,0.35-0.18c-1.76-1.51-2.63-3.37-2.42-5.67c0.14-1.56,0.81-2.89,1.95-3.96c2.54-2.38,6.29-2.34,8.81,0
					C140.28,312.32,141.38,316.82,137.77,319.92z M133.73,318.56c2,0,3.6-1.6,3.61-3.59c0.01-2.02-1.62-3.65-3.62-3.65
					c-2,0.01-3.64,1.67-3.62,3.65C130.12,316.96,131.74,318.56,133.73,318.56z"/>
			</g>
			<g>
				<path class="st4" d="M139.13,329.09c0.21-0.25,0.37-0.5,0.58-0.71c2.18-2.18,4.36-4.36,6.53-6.54c0.34-0.34,0.71-0.61,1.21-0.59
					c0.54,0.02,0.95,0.28,1.19,0.76c0.23,0.46,0.2,0.94-0.08,1.37c-0.12,0.18-0.27,0.33-0.42,0.48c-2.62,2.62-5.25,5.24-7.88,7.86
					c-0.97,0.97-1.68,0.94-2.59-0.09c-1.24-1.4-2.47-2.81-3.71-4.21c-0.39-0.45-0.54-0.94-0.32-1.51c0.2-0.5,0.59-0.79,1.13-0.85
					c0.54-0.06,0.95,0.18,1.3,0.58c0.87,1,1.75,1.99,2.63,2.98C138.81,328.75,138.92,328.87,139.13,329.09z"/>
			</g>
		</g>
	</g>
	<g>
		<g>
			<g>
				<path class="st2" d="M809.42,306.75c0.91,0,1.76,0.05,2.61-0.01c3.68-0.24,7.15-1.29,10.42-2.97c1.6-0.82,3.13-1.78,4.67-2.72
					c0.31-0.19,0.5-0.22,0.81,0c2.78,1.96,5.79,3.45,9.01,4.51c2.59,0.85,5.25,1.27,7.98,1.26c0.21,0,0.43,0,0.7,0
					c0,0.23,0,0.41,0,0.59c0,5.31-0.04,10.61,0.02,15.92c0.04,2.88-0.71,5.5-2.23,7.91c-2.89,4.57-6.83,7.93-11.76,10.15
					c-2.99,1.35-5.92,1.16-8.82-0.24c-5.03-2.44-9.06-5.98-11.78-10.92c-1.11-2.01-1.66-4.16-1.64-6.48
					c0.03-5.43,0.01-10.86,0.01-16.29C809.42,307.27,809.42,307.09,809.42,306.75z"/>
			</g>
		</g>
		<g>
			<g>
				<path class="st4" d="M807.85,306.5c0.96,0,1.88,0.05,2.78-0.01c3.92-0.26,7.62-1.37,11.1-3.16c1.7-0.88,3.33-1.9,4.97-2.89
					c0.33-0.2,0.53-0.24,0.86,0c2.96,2.08,6.17,3.67,9.6,4.8c2.75,0.91,5.6,1.35,8.5,1.34c0.23,0,0.46,0,0.75,0
					c0,0.24,0,0.44,0,0.63c0,5.65-0.05,11.31,0.03,16.96c0.04,3.07-0.75,5.86-2.37,8.43c-3.07,4.87-7.27,8.45-12.53,10.81
					c-3.19,1.43-6.31,1.24-9.4-0.26c-5.36-2.6-9.65-6.38-12.55-11.63c-1.18-2.14-1.77-4.43-1.75-6.9
					c0.03-5.78,0.01-11.57,0.01-17.35C807.85,307.06,807.85,306.86,807.85,306.5z M810.62,309.41c0,0.14,0,0.34,0,0.53
					c0,4.92,0.02,9.84-0.01,14.76c-0.01,1.82,0.37,3.53,1.21,5.12c2.67,5.07,6.72,8.66,11.9,11.04c2.3,1.06,4.61,1.01,6.92-0.03
					c4.54-2.06,8.16-5.19,10.9-9.35c1.47-2.24,2.19-4.68,2.14-7.41c-0.09-4.74-0.03-9.48-0.03-14.22c0-0.19,0-0.38,0-0.51
					c-1.29-0.19-2.49-0.33-3.67-0.55c-4.41-0.8-8.41-2.63-12.22-4.93c-0.5-0.3-0.81-0.25-1.26,0.02c-3.28,1.97-6.7,3.63-10.43,4.52
					C814.29,308.82,812.48,309.07,810.62,309.41z"/>
			</g>
			<g>
				<g>
					<path class="st4" d="M833.85,319.66h-13.41c-1.1,0-2-0.9-2-2s0.9-2,2-2h13.41c1.1,0,2,0.9,2,2S834.95,319.66,833.85,319.66z"/>
				</g>
				<g>
					<path class="st4" d="M827.14,333.07c-1.1,0-2-0.9-2-2v-13.41c0-1.1,0.9-2,2-2s2,0.9,2,2v13.41
						C829.14,332.18,828.25,333.07,827.14,333.07z"/>
				</g>
			</g>
		</g>
	</g>
	<g>
		<g>
			<g>
				<circle class="st2" cx="1256.78" cy="322.12" r="17.47"/>
			</g>
			<g>
				<path class="st4" d="M1256.78,306.15c8.81,0,15.97,7.17,15.97,15.97s-7.17,15.97-15.97,15.97s-15.97-7.17-15.97-15.97
					S1247.97,306.15,1256.78,306.15 M1256.78,303.15c-10.48,0-18.97,8.49-18.97,18.97c0,10.48,8.49,18.97,18.97,18.97
					c10.48,0,18.97-8.49,18.97-18.97C1275.76,311.64,1267.26,303.15,1256.78,303.15L1256.78,303.15z"/>
			</g>
		</g>
		<g>
			<g>
				<path class="st4" d="M1254.55,314.86c2.77,0,5.02,2.25,5.02,5.02s-2.25,5.02-5.02,5.02s-5.02-2.25-5.02-5.02
					S1251.78,314.86,1254.55,314.86 M1254.55,311.86c-4.43,0-8.02,3.59-8.02,8.02c0,4.43,3.59,8.02,8.02,8.02
					c4.43,0,8.02-3.59,8.02-8.02C1262.57,315.45,1258.98,311.86,1254.55,311.86L1254.55,311.86z"/>
			</g>
			<g>
				
					<rect x="1259.6" y="323.87" transform="matrix(0.7477 -0.664 0.664 0.7477 100.3808 920.1751)" class="st4" width="3" height="8.24"/>
			</g>
		</g>
	</g>
	<g>
		<g>
			<rect x="1257.42" y="452.18" class="st4" width="1" height="46.72"/>
		</g>
		<g>
			<polygon class="st4" points="1257.92,499.6 1239.54,481.23 1240.25,480.52 1257.92,498.19 1275.59,480.52 1276.3,481.23 			"/>
		</g>
	</g>
</g>
</svg>
