<?xml version="1.0" encoding="utf-8"?>
<!-- Generator: Adobe Illustrator 27.9.0, SVG Export Plug-In . SVG Version: 6.00 Build 0)  -->
<svg version="1.1" id="Camada_1" xmlns="http://www.w3.org/2000/svg" xmlns:xlink="http://www.w3.org/1999/xlink" x="0px" y="0px" viewBox="0 0 468 2054.96" style="enable-background:new 0 0 468 2054.96;" xml:space="preserve">
<style type="text/css">
	.st0{fill:none;stroke:#53565A;stroke-miterlimit:10;}
	.st1{fill-rule:evenodd;clip-rule:evenodd;fill:none;stroke:#53565A;stroke-miterlimit:10;}
	.st2{fill:#FFFFFF;}
	.st3{fill:#FFFFFF;stroke:#53565A;stroke-miterlimit:10;}
	.st4{fill:#53565A;}
	.st5{fill:none;stroke:#53565A;stroke-width:4;stroke-linecap:round;stroke-miterlimit:10;}
	.st6{fill:none;stroke:#53565A;stroke-width:3;stroke-miterlimit:10;}
</style>
<g>
	<g>
		<rect x="242.21" y="840.72" class="st4" width="1" height="186.05"/>
	</g>
	<g>
		<polygon class="st4" points="242.71,1027.48 224.33,1009.1 225.03,1008.39 242.71,1026.06 260.38,1008.39 261.08,1009.1 		"/>
	</g>
</g>
<g>
	<g>
		<rect x="242.21" y="507.12" class="st4" width="1" height="186.05"/>
	</g>
	<g>
		<polygon class="st4" points="242.71,693.88 224.33,675.5 225.03,674.8 242.71,692.47 260.38,674.8 261.08,675.5 		"/>
	</g>
</g>
<g>
	<rect x="145.77" y="562.13" class="st2" width="193.86" height="64.3"/>
</g>
<g>
	<rect x="145.77" y="893.77" class="st2" width="193.86" height="64.3"/>
</g>
<g>
	<path class="st2" d="M325.47,1775.64H159.94c-8.9,0-16.12-7.22-16.12-16.12l0,0c0-8.9,7.22-16.12,16.12-16.12h165.53
		c8.9,0,16.12,7.22,16.12,16.12l0,0C341.6,1768.42,334.38,1775.64,325.47,1775.64z"/>
	<path class="st4" d="M325.47,1776.14H159.94c-9.17,0-16.62-7.46-16.62-16.62c0-9.17,7.46-16.62,16.62-16.62h165.53
		c9.17,0,16.62,7.46,16.62,16.62C342.1,1768.68,334.64,1776.14,325.47,1776.14z M159.94,1743.89c-8.61,0-15.62,7.01-15.62,15.62
		c0,8.62,7.01,15.62,15.62,15.62h165.53c8.62,0,15.62-7.01,15.62-15.62c0-8.61-7.01-15.62-15.62-15.62H159.94z"/>
</g>
<g>
	<path class="st2" d="M325.47,1817.88H159.94c-8.9,0-16.12-7.22-16.12-16.12l0,0c0-8.9,7.22-16.12,16.12-16.12h165.53
		c8.9,0,16.12,7.22,16.12,16.12l0,0C341.6,1810.67,334.38,1817.88,325.47,1817.88z"/>
	<path class="st4" d="M325.47,1818.38H159.94c-9.17,0-16.62-7.46-16.62-16.62c0-9.17,7.46-16.62,16.62-16.62h165.53
		c9.17,0,16.62,7.46,16.62,16.62C342.1,1810.93,334.64,1818.38,325.47,1818.38z M159.94,1786.14c-8.61,0-15.62,7.01-15.62,15.62
		c0,8.62,7.01,15.62,15.62,15.62h165.53c8.62,0,15.62-7.01,15.62-15.62c0-8.61-7.01-15.62-15.62-15.62H159.94z"/>
</g>
<g>
	<path class="st2" d="M325.47,1860.13H159.94c-8.9,0-16.12-7.22-16.12-16.12l0,0c0-8.9,7.22-16.12,16.12-16.12h165.53
		c8.9,0,16.12,7.22,16.12,16.12l0,0C341.6,1852.91,334.38,1860.13,325.47,1860.13z"/>
	<path class="st4" d="M325.47,1860.63H159.94c-9.17,0-16.62-7.46-16.62-16.62c0-9.17,7.46-16.62,16.62-16.62h165.53
		c9.17,0,16.62,7.46,16.62,16.62C342.1,1853.17,334.64,1860.63,325.47,1860.63z M159.94,1828.38c-8.61,0-15.62,7.01-15.62,15.62
		c0,8.62,7.01,15.62,15.62,15.62h165.53c8.62,0,15.62-7.01,15.62-15.62c0-8.61-7.01-15.62-15.62-15.62H159.94z"/>
</g>
<g>
	<path class="st2" d="M325.47,1902.38H159.94c-8.9,0-16.12-7.22-16.12-16.12l0,0c0-8.9,7.22-16.12,16.12-16.12h165.53
		c8.9,0,16.12,7.22,16.12,16.12l0,0C341.6,1895.16,334.38,1902.38,325.47,1902.38z"/>
	<path class="st4" d="M325.47,1902.88H159.94c-9.17,0-16.62-7.46-16.62-16.62c0-9.17,7.46-16.62,16.62-16.62h165.53
		c9.17,0,16.62,7.46,16.62,16.62C342.1,1895.42,334.64,1902.88,325.47,1902.88z M159.94,1870.63c-8.61,0-15.62,7.01-15.62,15.62
		c0,8.62,7.01,15.62,15.62,15.62h165.53c8.62,0,15.62-7.01,15.62-15.62c0-8.61-7.01-15.62-15.62-15.62H159.94z"/>
</g>
<g>
	<path class="st2" d="M325.47,1944.76H159.94c-8.9,0-16.12-7.22-16.12-16.12v0c0-8.9,7.22-16.12,16.12-16.12h165.53
		c8.9,0,16.12,7.22,16.12,16.12v0C341.6,1937.54,334.38,1944.76,325.47,1944.76z"/>
	<path class="st4" d="M325.47,1945.26H159.94c-9.17,0-16.62-7.46-16.62-16.62c0-9.17,7.46-16.62,16.62-16.62h165.53
		c9.17,0,16.62,7.46,16.62,16.62C342.1,1937.81,334.64,1945.26,325.47,1945.26z M159.94,1913.02c-8.61,0-15.62,7.01-15.62,15.62
		c0,8.62,7.01,15.62,15.62,15.62h165.53c8.62,0,15.62-7.01,15.62-15.62c0-8.61-7.01-15.62-15.62-15.62H159.94z"/>
</g>
<g>
	<path class="st4" d="M370.19,1971.81H115.22c-3.6,0-6.52-2.93-6.52-6.52v-294.72c0-3.6,2.93-6.52,6.52-6.52h254.96
		c3.6,0,6.52,2.93,6.52,6.52v294.72C376.71,1968.89,373.78,1971.81,370.19,1971.81z M115.22,1665.04c-3.05,0-5.52,2.48-5.52,5.52
		v294.72c0,3.05,2.48,5.52,5.52,5.52h254.96c3.05,0,5.52-2.48,5.52-5.52v-294.72c0-3.05-2.48-5.52-5.52-5.52H115.22z"/>
</g>
<g>
	<path class="st4" d="M314.79,1191.72H170.62c-3.6,0-6.52-2.93-6.52-6.52v-99.45c0-3.6,2.93-6.52,6.52-6.52h144.18
		c3.6,0,6.52,2.93,6.52,6.52v99.45C321.32,1188.79,318.39,1191.72,314.79,1191.72z M170.62,1080.22c-3.05,0-5.52,2.48-5.52,5.52
		v99.45c0,3.05,2.48,5.52,5.52,5.52h144.18c3.05,0,5.52-2.48,5.52-5.52v-99.45c0-3.05-2.48-5.52-5.52-5.52H170.62z"/>
</g>
<g>
	<rect x="122.92" y="1636.79" class="st2" width="239.56" height="43.82"/>
</g>
<g>
	<path class="st4" d="M314.79,491.95H170.62c-3.6,0-6.52-2.93-6.52-6.52v-99.45c0-3.6,2.93-6.52,6.52-6.52h144.18
		c3.6,0,6.52,2.93,6.52,6.52v99.45C321.32,489.03,318.39,491.95,314.79,491.95z M170.62,380.45c-3.05,0-5.52,2.48-5.52,5.52v99.45
		c0,3.05,2.48,5.52,5.52,5.52h144.18c3.05,0,5.52-2.48,5.52-5.52v-99.45c0-3.05-2.48-5.52-5.52-5.52H170.62z"/>
</g>
<g>
	<path class="st4" d="M204.01,415.84c1.47,0,2.71,0.18,3.7,1.03c1.08,0.92,1.34,2.22,1.34,3.15c0,2.07-1.3,4.11-4.64,4.11h-1.43
		v6.38h-1.63v-14.68H204.01z M202.97,422.6h1.34c1.94,0,3.1-0.97,3.1-2.66c0-2.33-2.18-2.55-3.23-2.55h-1.21V422.6z"/>
	<path class="st4" d="M217.54,421.39h1.58v9.13h-1.58v-1.28c-0.53,0.68-1.52,1.54-3.12,1.54c-2.31,0-4.44-1.63-4.44-4.84
		c0-3.15,2.11-4.77,4.44-4.77c1.76,0,2.71,0.97,3.12,1.52V421.39z M211.6,425.94c0,1.96,1.1,3.43,2.99,3.43
		c1.94,0,3.04-1.61,3.04-3.41c0-2.35-1.63-3.39-3.04-3.39C213.03,422.58,211.6,423.72,211.6,425.94z M217.54,416.61l-2.95,2.97
		l-0.99-0.53l2.31-3.19L217.54,416.61z"/>
	<path class="st4" d="M229.11,421.39h1.58v8.91c0,0.99,0,2.4-0.88,3.59c-0.68,0.92-1.94,1.69-3.65,1.69c-1.56,0-2.64-0.62-3.26-1.23
		c-0.62-0.62-1.19-1.61-1.19-2.95h1.56c0,0.77,0.31,1.45,0.7,1.89c0.66,0.73,1.5,0.88,2.2,0.88c1.12,0,1.89-0.4,2.42-1.28
		c0.46-0.75,0.51-1.56,0.51-2.33v-1.32c-0.53,0.68-1.52,1.54-3.12,1.54c-1.34,0-2.42-0.53-3.12-1.23c-0.62-0.62-1.32-1.76-1.32-3.61
		c0-1.78,0.66-2.88,1.32-3.54c0.77-0.75,1.89-1.23,3.12-1.23c1.34,0,2.4,0.57,3.12,1.52V421.39z M224.09,423.44
		c-0.77,0.79-0.92,1.76-0.92,2.51c0,0.79,0.15,1.87,1.03,2.68c0.51,0.46,1.12,0.75,1.96,0.75s1.5-0.26,2-0.77
		c0.62-0.59,1.03-1.56,1.03-2.64s-0.4-2.02-0.97-2.57c-0.51-0.51-1.25-0.81-2.07-0.81C225.19,422.58,224.53,422.99,224.09,423.44z"
		/>
	<path class="st4" d="M234.48,416.81c0.62,0,1.12,0.51,1.12,1.12s-0.51,1.12-1.12,1.12s-1.12-0.51-1.12-1.12
		S233.86,416.81,234.48,416.81z M235.27,421.39v9.13h-1.58v-9.13H235.27z"/>
	<path class="st4" d="M238.26,421.39h1.58v1.06c0.29-0.37,1.1-1.28,2.62-1.28c1.08,0,2.07,0.44,2.62,1.25
		c0.46,0.68,0.53,1.43,0.53,2.44v5.66h-1.58v-5.61c0-0.55-0.04-1.19-0.42-1.67c-0.31-0.4-0.79-0.66-1.5-0.66
		c-0.55,0-1.14,0.15-1.61,0.7c-0.62,0.73-0.66,1.8-0.66,2.46v4.77h-1.58V421.39z"/>
	<path class="st4" d="M255.6,421.39h1.58v9.13h-1.58v-1.28c-0.53,0.68-1.52,1.54-3.12,1.54c-2.31,0-4.44-1.63-4.44-4.84
		c0-3.15,2.11-4.77,4.44-4.77c1.76,0,2.71,0.97,3.12,1.52V421.39z M249.66,425.94c0,1.96,1.1,3.43,2.99,3.43
		c1.94,0,3.04-1.61,3.04-3.41c0-2.35-1.63-3.39-3.04-3.39C251.09,422.58,249.66,423.72,249.66,425.94z"/>
	<path class="st4" d="M272.29,414.48h1.58v16.04h-1.58v-1.28c-0.53,0.68-1.52,1.54-3.12,1.54c-2.31,0-4.44-1.63-4.44-4.84
		c0-3.15,2.11-4.77,4.44-4.77c1.76,0,2.71,0.97,3.12,1.52V414.48z M266.35,425.94c0,1.96,1.1,3.43,2.99,3.43
		c1.94,0,3.04-1.61,3.04-3.41c0-2.35-1.63-3.39-3.04-3.39C267.78,422.58,266.35,423.72,266.35,425.94z"/>
	<path class="st4" d="M284.97,428.19c-0.26,0.51-0.66,1.06-1.12,1.47c-0.84,0.75-1.87,1.12-3.04,1.12c-2.2,0-4.51-1.39-4.51-4.77
		c0-2.73,1.67-4.84,4.42-4.84c1.78,0,2.9,0.88,3.45,1.67c0.57,0.81,0.9,2.22,0.86,3.43h-7.11c0.02,1.89,1.32,3.1,2.91,3.1
		c0.75,0,1.34-0.22,1.87-0.66c0.42-0.35,0.75-0.81,0.95-1.25L284.97,428.19z M283.41,424.95c-0.26-1.43-1.34-2.38-2.68-2.38
		c-1.34,0-2.44,1.01-2.68,2.38H283.41z"/>
	<path class="st4" d="M223.28,442.24v13.14h4.05v1.54h-5.68v-14.68H223.28z"/>
	<path class="st4" d="M228.56,452.39c0-2.77,2.05-4.82,4.84-4.82c2.79,0,4.84,2.05,4.84,4.82s-2.07,4.8-4.84,4.8
		C230.63,457.18,228.56,455.16,228.56,452.39z M230.19,452.39c0,2.24,1.58,3.39,3.21,3.39c1.65,0,3.21-1.17,3.21-3.39
		c0-2.25-1.54-3.41-3.21-3.41C231.73,448.98,230.19,450.16,230.19,452.39z"/>
	<path class="st4" d="M247.66,447.79h1.58v8.91c0,0.99,0,2.4-0.88,3.59c-0.68,0.92-1.94,1.69-3.65,1.69c-1.56,0-2.64-0.62-3.26-1.23
		c-0.62-0.62-1.19-1.61-1.19-2.95h1.56c0,0.77,0.31,1.45,0.7,1.89c0.66,0.73,1.5,0.88,2.2,0.88c1.12,0,1.89-0.4,2.42-1.28
		c0.46-0.75,0.51-1.56,0.51-2.33v-1.32c-0.53,0.68-1.52,1.54-3.12,1.54c-1.34,0-2.42-0.53-3.12-1.23c-0.62-0.62-1.32-1.76-1.32-3.61
		c0-1.78,0.66-2.88,1.32-3.54c0.77-0.75,1.89-1.23,3.12-1.23c1.34,0,2.4,0.57,3.12,1.52V447.79z M242.64,449.83
		c-0.77,0.79-0.92,1.76-0.92,2.51c0,0.79,0.15,1.87,1.03,2.68c0.51,0.46,1.12,0.75,1.96,0.75c0.84,0,1.5-0.26,2-0.77
		c0.62-0.59,1.03-1.56,1.03-2.64s-0.4-2.02-0.97-2.57c-0.51-0.51-1.25-0.81-2.07-0.81C243.74,448.98,243.08,449.39,242.64,449.83z"
		/>
	<path class="st4" d="M253.02,443.21c0.62,0,1.12,0.51,1.12,1.12s-0.51,1.12-1.12,1.12c-0.62,0-1.12-0.51-1.12-1.12
		S252.41,443.21,253.02,443.21z M253.82,447.79v9.13h-1.58v-9.13H253.82z"/>
	<path class="st4" d="M256.81,447.79h1.58v1.06c0.29-0.37,1.1-1.28,2.62-1.28c1.08,0,2.07,0.44,2.62,1.25
		c0.46,0.68,0.53,1.43,0.53,2.44v5.66h-1.58v-5.61c0-0.55-0.04-1.19-0.42-1.67c-0.31-0.4-0.79-0.66-1.5-0.66
		c-0.55,0-1.14,0.15-1.61,0.7c-0.62,0.73-0.66,1.8-0.66,2.46v4.77h-1.58V447.79z"/>
</g>
<g>
	<path class="st4" d="M223.69,1117.15v13.14h-1.63v-13.14h-3.56v-1.54h8.76v1.54H223.69z"/>
	<path class="st4" d="M226.63,1125.76c0-2.77,2.05-4.82,4.84-4.82c2.79,0,4.84,2.05,4.84,4.82c0,2.77-2.07,4.8-4.84,4.8
		S226.63,1128.53,226.63,1125.76z M228.26,1125.76c0,2.24,1.58,3.39,3.21,3.39c1.65,0,3.21-1.17,3.21-3.39
		c0-2.25-1.54-3.41-3.21-3.41C229.8,1122.35,228.26,1123.53,228.26,1125.76z"/>
	<path class="st4" d="M240.32,1114.25v10.3l3.34-3.39h2.07l-3.92,3.92l4.62,5.21h-2.07l-3.65-4.16l-0.4,0.4v3.76h-1.58v-16.04
		H240.32z"/>
	<path class="st4" d="M255.89,1127.96c-0.26,0.51-0.66,1.06-1.12,1.47c-0.84,0.75-1.87,1.12-3.04,1.12c-2.2,0-4.51-1.39-4.51-4.77
		c0-2.73,1.67-4.84,4.42-4.84c1.78,0,2.9,0.88,3.45,1.67c0.57,0.81,0.9,2.22,0.86,3.43h-7.11c0.02,1.89,1.32,3.1,2.9,3.1
		c0.75,0,1.34-0.22,1.87-0.66c0.42-0.35,0.75-0.81,0.95-1.25L255.89,1127.96z M254.33,1124.72c-0.26-1.43-1.34-2.38-2.68-2.38
		c-1.34,0-2.44,1.01-2.68,2.38H254.33z"/>
	<path class="st4" d="M258.38,1121.16h1.58v1.06c0.29-0.37,1.1-1.28,2.62-1.28c1.08,0,2.07,0.44,2.62,1.25
		c0.46,0.68,0.53,1.43,0.53,2.44v5.66h-1.58v-5.61c0-0.55-0.04-1.19-0.42-1.67c-0.31-0.4-0.79-0.66-1.5-0.66
		c-0.55,0-1.14,0.15-1.61,0.7c-0.62,0.73-0.66,1.8-0.66,2.46v4.77h-1.58V1121.16z"/>
	<path class="st4" d="M206.96,1149.67c-0.22-0.53-0.68-0.92-1.28-0.92c-0.57,0-1.1,0.33-1.1,1.03c0,0.66,0.44,0.86,1.47,1.3
		c1.32,0.55,1.94,0.97,2.29,1.41c0.4,0.48,0.48,0.97,0.48,1.47c0,1.91-1.39,2.99-3.15,2.99c-0.37,0-2.42-0.04-3.19-2.33l1.36-0.57
		c0.18,0.48,0.7,1.5,1.85,1.5c1.03,0,1.5-0.77,1.5-1.45c0-0.86-0.62-1.14-1.47-1.52c-1.1-0.48-1.8-0.84-2.22-1.34
		c-0.35-0.44-0.42-0.88-0.42-1.34c0-1.61,1.12-2.55,2.66-2.55c0.48,0,1.78,0.09,2.51,1.65L206.96,1149.67z"/>
	<path class="st4" d="M210.36,1152.16c0-2.77,2.05-4.82,4.84-4.82c2.79,0,4.84,2.05,4.84,4.82s-2.07,4.8-4.84,4.8
		S210.36,1154.93,210.36,1152.16z M211.99,1152.16c0,2.24,1.58,3.39,3.21,3.39c1.65,0,3.21-1.17,3.21-3.39
		c0-2.25-1.54-3.41-3.21-3.41C213.53,1148.74,211.99,1149.93,211.99,1152.16z"/>
	<path class="st4" d="M224.05,1140.65v16.04h-1.58v-16.04H224.05z"/>
	<path class="st4" d="M227.83,1142.98c0.62,0,1.12,0.51,1.12,1.12s-0.51,1.12-1.12,1.12c-0.62,0-1.12-0.51-1.12-1.12
		S227.22,1142.98,227.83,1142.98z M228.62,1147.56v9.13h-1.58v-9.13H228.62z"/>
	<path class="st4" d="M238.77,1150.11c-0.84-1.06-2.05-1.36-2.86-1.36c-1.69,0-3.23,1.19-3.23,3.41c0,2.22,1.58,3.39,3.21,3.39
		c0.95,0,2.11-0.42,2.95-1.43v1.89c-0.99,0.73-2.05,0.95-2.9,0.95c-2.84,0-4.88-2.02-4.88-4.77c0-2.79,2.07-4.84,4.88-4.84
		c1.45,0,2.4,0.57,2.84,0.88V1150.11z"/>
	<path class="st4" d="M242.04,1142.98c0.62,0,1.12,0.51,1.12,1.12s-0.51,1.12-1.12,1.12s-1.12-0.51-1.12-1.12
		S241.43,1142.98,242.04,1142.98z M242.83,1147.56v9.13h-1.58v-9.13H242.83z"/>
	<path class="st4" d="M247.46,1149.01v7.68h-1.58v-7.68h-0.97v-1.45h0.97v-3.3h1.58v3.3h1.58v1.45H247.46z"/>
	<path class="st4" d="M257.53,1147.56h1.58v9.13h-1.58v-1.28c-0.53,0.68-1.52,1.54-3.12,1.54c-2.31,0-4.44-1.63-4.44-4.84
		c0-3.15,2.11-4.78,4.44-4.78c1.76,0,2.71,0.97,3.12,1.52V1147.56z M251.59,1152.11c0,1.96,1.1,3.43,2.99,3.43
		c1.94,0,3.04-1.61,3.04-3.41c0-2.35-1.63-3.39-3.04-3.39C253.02,1148.74,251.59,1149.89,251.59,1152.11z"/>
	<path class="st4" d="M269.1,1140.65h1.58v16.04h-1.58v-1.28c-0.53,0.68-1.52,1.54-3.12,1.54c-2.31,0-4.44-1.63-4.44-4.84
		c0-3.15,2.11-4.78,4.44-4.78c1.76,0,2.71,0.97,3.12,1.52V1140.65z M263.16,1152.11c0,1.96,1.1,3.43,2.99,3.43
		c1.94,0,3.04-1.61,3.04-3.41c0-2.35-1.63-3.39-3.04-3.39C264.59,1148.74,263.16,1149.89,263.16,1152.11z"/>
	<path class="st4" d="M273.11,1152.16c0-2.77,2.05-4.82,4.84-4.82c2.79,0,4.84,2.05,4.84,4.82s-2.07,4.8-4.84,4.8
		S273.11,1154.93,273.11,1152.16z M274.73,1152.16c0,2.24,1.58,3.39,3.21,3.39c1.65,0,3.21-1.17,3.21-3.39
		c0-2.25-1.54-3.41-3.21-3.41C276.27,1148.74,274.73,1149.93,274.73,1152.16z"/>
</g>
<g>
	<path class="st4" d="M314.79,1552.55H170.62c-3.6,0-6.52-2.93-6.52-6.52v-99.45c0-3.6,2.93-6.52,6.52-6.52h144.18
		c3.6,0,6.52,2.93,6.52,6.52v99.45C321.32,1549.63,318.39,1552.55,314.79,1552.55z M170.62,1441.05c-3.05,0-5.52,2.48-5.52,5.52
		v99.45c0,3.05,2.48,5.52,5.52,5.52h144.18c3.05,0,5.52-2.48,5.52-5.52v-99.45c0-3.05-2.48-5.52-5.52-5.52H170.62z"/>
</g>
<g>
	<path class="st4" d="M204.01,1476.45c1.47,0,2.71,0.18,3.7,1.03c1.08,0.92,1.34,2.22,1.34,3.15c0,2.07-1.3,4.11-4.64,4.11h-1.43
		v6.38h-1.63v-14.68H204.01z M202.97,1483.2h1.34c1.94,0,3.1-0.97,3.1-2.66c0-2.33-2.18-2.55-3.24-2.55h-1.21V1483.2z"/>
	<path class="st4" d="M217.54,1481.99h1.58v9.13h-1.58v-1.28c-0.53,0.68-1.52,1.54-3.12,1.54c-2.31,0-4.44-1.63-4.44-4.84
		c0-3.15,2.11-4.77,4.44-4.77c1.76,0,2.71,0.97,3.12,1.52V1481.99z M211.6,1486.54c0,1.96,1.1,3.43,2.99,3.43
		c1.94,0,3.04-1.61,3.04-3.41c0-2.35-1.63-3.39-3.04-3.39C213.03,1483.18,211.6,1484.32,211.6,1486.54z M217.54,1477.22l-2.95,2.97
		l-0.99-0.53l2.31-3.19L217.54,1477.22z"/>
	<path class="st4" d="M229.11,1481.99h1.58v8.91c0,0.99,0,2.4-0.88,3.59c-0.68,0.92-1.94,1.69-3.65,1.69
		c-1.56,0-2.64-0.62-3.26-1.23c-0.62-0.62-1.19-1.61-1.19-2.95h1.56c0,0.77,0.31,1.45,0.7,1.89c0.66,0.73,1.5,0.88,2.2,0.88
		c1.12,0,1.89-0.4,2.42-1.28c0.46-0.75,0.51-1.56,0.51-2.33v-1.32c-0.53,0.68-1.52,1.54-3.12,1.54c-1.34,0-2.42-0.53-3.12-1.23
		c-0.62-0.62-1.32-1.76-1.32-3.61c0-1.78,0.66-2.88,1.32-3.54c0.77-0.75,1.89-1.23,3.12-1.23c1.34,0,2.4,0.57,3.12,1.52V1481.99z
		 M224.09,1484.04c-0.77,0.79-0.92,1.76-0.92,2.51c0,0.79,0.15,1.87,1.03,2.68c0.51,0.46,1.12,0.75,1.96,0.75s1.5-0.26,2-0.77
		c0.62-0.59,1.04-1.56,1.04-2.64s-0.4-2.02-0.97-2.57c-0.51-0.51-1.25-0.81-2.07-0.81C225.19,1483.18,224.53,1483.6,224.09,1484.04z
		"/>
	<path class="st4" d="M234.48,1477.41c0.62,0,1.12,0.51,1.12,1.12s-0.51,1.12-1.12,1.12c-0.62,0-1.12-0.51-1.12-1.12
		S233.86,1477.41,234.48,1477.41z M235.27,1481.99v9.13h-1.58v-9.13H235.27z"/>
	<path class="st4" d="M238.26,1481.99h1.58v1.06c0.29-0.37,1.1-1.28,2.62-1.28c1.08,0,2.07,0.44,2.62,1.25
		c0.46,0.68,0.53,1.43,0.53,2.44v5.66h-1.58v-5.61c0-0.55-0.04-1.19-0.42-1.67c-0.31-0.4-0.79-0.66-1.5-0.66
		c-0.55,0-1.14,0.15-1.61,0.7c-0.62,0.73-0.66,1.8-0.66,2.46v4.77h-1.58V1481.99z"/>
	<path class="st4" d="M255.6,1481.99h1.58v9.13h-1.58v-1.28c-0.53,0.68-1.52,1.54-3.12,1.54c-2.31,0-4.44-1.63-4.44-4.84
		c0-3.15,2.11-4.77,4.44-4.77c1.76,0,2.71,0.97,3.12,1.52V1481.99z M249.66,1486.54c0,1.96,1.1,3.43,2.99,3.43
		c1.94,0,3.04-1.61,3.04-3.41c0-2.35-1.63-3.39-3.04-3.39C251.09,1483.18,249.66,1484.32,249.66,1486.54z"/>
	<path class="st4" d="M272.29,1475.08h1.58v16.04h-1.58v-1.28c-0.53,0.68-1.52,1.54-3.12,1.54c-2.31,0-4.44-1.63-4.44-4.84
		c0-3.15,2.11-4.77,4.44-4.77c1.76,0,2.71,0.97,3.12,1.52V1475.08z M266.35,1486.54c0,1.96,1.1,3.43,2.99,3.43
		c1.94,0,3.04-1.61,3.04-3.41c0-2.35-1.63-3.39-3.04-3.39C267.78,1483.18,266.35,1484.32,266.35,1486.54z"/>
	<path class="st4" d="M284.96,1488.79c-0.26,0.51-0.66,1.06-1.12,1.47c-0.84,0.75-1.87,1.12-3.04,1.12c-2.2,0-4.51-1.39-4.51-4.77
		c0-2.73,1.67-4.84,4.42-4.84c1.78,0,2.9,0.88,3.46,1.67c0.57,0.81,0.9,2.22,0.86,3.43h-7.11c0.02,1.89,1.32,3.1,2.9,3.1
		c0.75,0,1.34-0.22,1.87-0.66c0.42-0.35,0.75-0.81,0.95-1.25L284.96,1488.79z M283.4,1485.56c-0.26-1.43-1.34-2.38-2.68-2.38
		s-2.44,1.01-2.68,2.38H283.4z"/>
	<path class="st4" d="M221.8,1502.85c0.81,0,2.29,0.07,3.37,0.92c0.46,0.35,1.32,1.25,1.32,3.04c0,0.73-0.15,2-1.45,2.88
		c2.05,0.51,2.79,2.29,2.79,3.7s-0.7,2.55-1.5,3.17c-1.17,0.92-2.51,0.97-3.52,0.97h-3.65v-14.68H221.8z M220.79,1509.29h1.23
		c0.86,0,2.88-0.18,2.88-2.44c0-2.42-2.38-2.46-2.84-2.46h-1.28V1509.29z M220.79,1515.98h1.87c0.95,0,1.87-0.07,2.57-0.62
		c0.57-0.42,0.97-1.14,0.97-2.02c0-1.17-0.68-1.85-1.25-2.16c-0.55-0.31-1.32-0.44-2.49-0.44h-1.67V1515.98z"/>
	<path class="st4" d="M232.01,1513.71c0,0.64,0,1.39,0.44,1.96c0.24,0.31,0.73,0.7,1.61,0.7c0.88,0,1.36-0.4,1.61-0.7
		c0.44-0.57,0.44-1.32,0.44-1.96v-5.32h1.58v5.5c0,1.12-0.11,1.96-0.84,2.75c-0.81,0.86-1.89,1.14-2.79,1.14s-1.98-0.29-2.79-1.14
		c-0.73-0.79-0.84-1.63-0.84-2.75v-5.5h1.58V1513.71z"/>
	<path class="st4" d="M244.44,1510.5c-0.22-0.53-0.68-0.92-1.28-0.92c-0.57,0-1.1,0.33-1.1,1.03c0,0.66,0.44,0.86,1.47,1.3
		c1.32,0.55,1.94,0.97,2.29,1.41c0.4,0.48,0.48,0.97,0.48,1.47c0,1.91-1.39,2.99-3.15,2.99c-0.37,0-2.42-0.04-3.19-2.33l1.36-0.57
		c0.18,0.48,0.7,1.5,1.85,1.5c1.04,0,1.5-0.77,1.5-1.45c0-0.86-0.62-1.14-1.47-1.52c-1.1-0.48-1.8-0.84-2.22-1.34
		c-0.35-0.44-0.42-0.88-0.42-1.34c0-1.61,1.12-2.55,2.66-2.55c0.48,0,1.78,0.09,2.51,1.65L244.44,1510.5z"/>
	<path class="st4" d="M255.57,1510.94c-0.84-1.06-2.05-1.36-2.86-1.36c-1.69,0-3.23,1.19-3.23,3.41c0,2.22,1.58,3.39,3.21,3.39
		c0.95,0,2.11-0.42,2.95-1.43v1.89c-0.99,0.73-2.05,0.95-2.9,0.95c-2.84,0-4.88-2.02-4.88-4.77c0-2.79,2.07-4.84,4.88-4.84
		c1.45,0,2.4,0.57,2.84,0.88V1510.94z"/>
	<path class="st4" d="M265.06,1508.39h1.58v9.13h-1.58v-1.28c-0.53,0.68-1.52,1.54-3.12,1.54c-2.31,0-4.44-1.63-4.44-4.84
		c0-3.15,2.11-4.78,4.44-4.78c1.76,0,2.71,0.97,3.12,1.52V1508.39z M259.12,1512.95c0,1.96,1.1,3.43,2.99,3.43
		c1.94,0,3.04-1.61,3.04-3.41c0-2.35-1.63-3.39-3.04-3.39C260.54,1509.58,259.12,1510.72,259.12,1512.95z"/>
</g>
<g>
	<path class="st4" d="M153.67,1655.14v10.56c0,1.19-0.02,2.53-0.9,3.45c-0.51,0.55-1.25,0.92-2.33,0.92c-1.06,0-1.96-0.33-2.62-1.08
		l0.9-1.28c0.48,0.53,1.12,0.81,1.67,0.81c0.44,0,0.84-0.15,1.1-0.42c0.55-0.55,0.55-1.47,0.55-2.38v-10.61H153.67z"/>
	<path class="st4" d="M164.06,1660.69h1.58v9.13h-1.58v-1.28c-0.53,0.68-1.52,1.54-3.12,1.54c-2.31,0-4.44-1.63-4.44-4.84
		c0-3.15,2.11-4.78,4.44-4.78c1.76,0,2.71,0.97,3.12,1.52V1660.69z M158.12,1665.24c0,1.96,1.1,3.43,2.99,3.43
		c1.94,0,3.04-1.61,3.04-3.41c0-2.35-1.63-3.39-3.04-3.39C159.55,1661.87,158.12,1663.02,158.12,1665.24z"/>
	<path class="st4" d="M168.63,1660.69h1.58v0.97c0.51-0.75,1.3-1.19,2.27-1.19c1.65,0,2.31,1.17,2.49,1.47
		c0.88-1.39,2.13-1.47,2.75-1.47c2.71,0,2.97,2.27,2.97,3.56v5.79h-1.58v-5.54c0-1.03-0.13-2.4-1.63-2.4
		c-1.83,0-2.02,1.76-2.02,2.86v5.08h-1.58v-5.41c0-0.64,0.02-2.53-1.65-2.53c-1.8,0-2,1.87-2,2.97v4.97h-1.58V1660.69z"/>
	<path class="st4" d="M183.7,1660.69h1.58v0.97c0.51-0.75,1.3-1.19,2.27-1.19c1.65,0,2.31,1.17,2.49,1.47
		c0.88-1.39,2.13-1.47,2.75-1.47c2.71,0,2.97,2.27,2.97,3.56v5.79h-1.58v-5.54c0-1.03-0.13-2.4-1.63-2.4
		c-1.83,0-2.02,1.76-2.02,2.86v5.08h-1.58v-5.41c0-0.64,0.02-2.53-1.65-2.53c-1.8,0-2,1.87-2,2.97v4.97h-1.58V1660.69z"/>
	<path class="st4" d="M199.56,1656.11c0.62,0,1.12,0.51,1.12,1.12s-0.51,1.12-1.12,1.12s-1.12-0.51-1.12-1.12
		S198.95,1656.11,199.56,1656.11z M200.36,1660.69v9.13h-1.58v-9.13H200.36z"/>
	<path class="st4" d="M203.35,1660.69h1.58v1.06c0.29-0.37,1.1-1.28,2.62-1.28c1.08,0,2.07,0.44,2.62,1.25
		c0.46,0.68,0.53,1.43,0.53,2.44v5.66h-1.58v-5.61c0-0.55-0.04-1.19-0.42-1.67c-0.31-0.4-0.79-0.66-1.5-0.66
		c-0.55,0-1.14,0.15-1.61,0.7c-0.62,0.73-0.66,1.8-0.66,2.46v4.77h-1.58V1660.69z"/>
	<path class="st4" d="M220.68,1660.69h1.58v8.91c0,0.99,0,2.4-0.88,3.59c-0.68,0.92-1.94,1.69-3.65,1.69
		c-1.56,0-2.64-0.62-3.26-1.23c-0.62-0.62-1.19-1.61-1.19-2.95h1.56c0,0.77,0.31,1.45,0.7,1.89c0.66,0.73,1.5,0.88,2.2,0.88
		c1.12,0,1.89-0.4,2.42-1.28c0.46-0.75,0.51-1.56,0.51-2.33v-1.32c-0.53,0.68-1.52,1.54-3.12,1.54c-1.34,0-2.42-0.53-3.12-1.23
		c-0.62-0.62-1.32-1.76-1.32-3.61c0-1.78,0.66-2.88,1.32-3.54c0.77-0.75,1.89-1.23,3.12-1.23c1.34,0,2.4,0.57,3.12,1.52V1660.69z
		 M215.67,1662.73c-0.77,0.79-0.92,1.76-0.92,2.51c0,0.79,0.15,1.87,1.03,2.68c0.51,0.46,1.12,0.75,1.96,0.75s1.5-0.26,2-0.77
		c0.62-0.59,1.03-1.56,1.03-2.64s-0.4-2.02-0.97-2.57c-0.51-0.51-1.25-0.81-2.07-0.81C216.77,1661.87,216.11,1662.29,215.67,1662.73
		z"/>
	<path class="st4" d="M237.38,1660.69h1.58v9.13h-1.58v-1.28c-0.53,0.68-1.52,1.54-3.12,1.54c-2.31,0-4.44-1.63-4.44-4.84
		c0-3.15,2.11-4.78,4.44-4.78c1.76,0,2.71,0.97,3.12,1.52V1660.69z M231.44,1665.24c0,1.96,1.1,3.43,2.99,3.43
		c1.94,0,3.04-1.61,3.04-3.41c0-2.35-1.63-3.39-3.04-3.39C232.87,1661.87,231.44,1663.02,231.44,1665.24z"/>
	<path class="st4" d="M248.95,1660.69h1.58v8.91c0,0.99,0,2.4-0.88,3.59c-0.68,0.92-1.94,1.69-3.65,1.69
		c-1.56,0-2.64-0.62-3.26-1.23c-0.62-0.62-1.19-1.61-1.19-2.95h1.56c0,0.77,0.31,1.45,0.7,1.89c0.66,0.73,1.5,0.88,2.2,0.88
		c1.12,0,1.89-0.4,2.42-1.28c0.46-0.75,0.51-1.56,0.51-2.33v-1.32c-0.53,0.68-1.52,1.54-3.12,1.54c-1.34,0-2.42-0.53-3.12-1.23
		c-0.62-0.62-1.32-1.76-1.32-3.61c0-1.78,0.66-2.88,1.32-3.54c0.77-0.75,1.89-1.23,3.12-1.23c1.34,0,2.4,0.57,3.12,1.52V1660.69z
		 M243.94,1662.73c-0.77,0.79-0.92,1.76-0.92,2.51c0,0.79,0.15,1.87,1.03,2.68c0.51,0.46,1.12,0.75,1.96,0.75
		c0.84,0,1.5-0.26,2-0.77c0.62-0.59,1.03-1.56,1.03-2.64s-0.4-2.02-0.97-2.57c-0.51-0.51-1.25-0.81-2.07-0.81
		C245.04,1661.87,244.38,1662.29,243.94,1662.73z"/>
	<path class="st4" d="M252.96,1665.28c0-2.77,2.05-4.82,4.84-4.82c2.79,0,4.84,2.05,4.84,4.82s-2.07,4.8-4.84,4.8
		C255.03,1670.08,252.96,1668.06,252.96,1665.28z M254.58,1665.28c0,2.24,1.58,3.39,3.21,3.39c1.65,0,3.21-1.17,3.21-3.39
		c0-2.25-1.54-3.41-3.21-3.41C256.12,1661.87,254.58,1663.06,254.58,1665.28z"/>
	<path class="st4" d="M265.06,1660.69h1.58v0.99c0.15-0.24,0.84-1.21,2.07-1.21c0.48,0,1.01,0.18,1.41,0.37l-0.75,1.43
		c-0.35-0.24-0.68-0.31-0.92-0.31c-0.64,0-1.03,0.26-1.28,0.57c-0.26,0.35-0.53,0.97-0.53,2.46v4.82h-1.58V1660.69z"/>
	<path class="st4" d="M278.1,1660.69h1.58v9.13h-1.58v-1.28c-0.53,0.68-1.52,1.54-3.12,1.54c-2.31,0-4.44-1.63-4.44-4.84
		c0-3.15,2.11-4.78,4.44-4.78c1.76,0,2.71,0.97,3.12,1.52V1660.69z M272.16,1665.24c0,1.96,1.1,3.43,2.99,3.43
		c1.94,0,3.04-1.61,3.04-3.41c0-2.35-1.63-3.39-3.04-3.39C273.59,1661.87,272.16,1663.02,272.16,1665.24z"/>
	<path class="st4" d="M289.39,1674.88h-1.58v-14.19h1.58v1.28c1.08-1.34,2.46-1.5,3.12-1.5c2.86,0,4.44,2.38,4.44,4.84
		c0,2.51-1.61,4.77-4.38,4.77c-1.47,0-2.51-0.66-3.19-1.54V1674.88z M295.33,1665.31c0-2.24-1.52-3.43-2.99-3.43
		c-1.47,0-3.04,1.21-3.04,3.41c0,1.87,1.19,3.39,3.06,3.39C294.21,1668.67,295.33,1667.13,295.33,1665.31z"/>
	<path class="st4" d="M298.8,1665.28c0-2.77,2.05-4.82,4.84-4.82c2.79,0,4.84,2.05,4.84,4.82s-2.07,4.8-4.84,4.8
		C300.87,1670.08,298.8,1668.06,298.8,1665.28z M300.43,1665.28c0,2.24,1.58,3.39,3.21,3.39c1.65,0,3.21-1.17,3.21-3.39
		c0-2.25-1.54-3.41-3.21-3.41C301.97,1661.87,300.43,1663.06,300.43,1665.28z"/>
	<path class="st4" d="M317.9,1653.78h1.58v16.04h-1.58v-1.28c-0.53,0.68-1.52,1.54-3.12,1.54c-2.31,0-4.44-1.63-4.44-4.84
		c0-3.15,2.11-4.78,4.44-4.78c1.76,0,2.71,0.97,3.12,1.52V1653.78z M311.96,1665.24c0,1.96,1.1,3.43,2.99,3.43
		c1.94,0,3.04-1.61,3.04-3.41c0-2.35-1.63-3.39-3.04-3.39C313.39,1661.87,311.96,1663.02,311.96,1665.24z"/>
	<path class="st4" d="M330.57,1667.49c-0.26,0.51-0.66,1.06-1.12,1.47c-0.84,0.75-1.87,1.12-3.04,1.12c-2.2,0-4.51-1.39-4.51-4.77
		c0-2.73,1.67-4.84,4.42-4.84c1.78,0,2.9,0.88,3.46,1.67c0.57,0.81,0.9,2.22,0.86,3.43h-7.11c0.02,1.89,1.32,3.1,2.9,3.1
		c0.75,0,1.34-0.22,1.87-0.66c0.42-0.35,0.75-0.81,0.95-1.25L330.57,1667.49z M329.01,1664.25c-0.26-1.43-1.34-2.38-2.68-2.38
		c-1.34,0-2.44,1.01-2.68,2.38H329.01z"/>
	<path class="st4" d="M334.07,1660.47c0.59,0,1.1,0.51,1.1,1.1c0,0.59-0.51,1.1-1.1,1.1c-0.59,0-1.1-0.51-1.1-1.1
		C332.97,1660.97,333.47,1660.47,334.07,1660.47z M334.07,1667.88c0.59,0,1.1,0.51,1.1,1.1c0,0.59-0.51,1.1-1.1,1.1
		c-0.59,0-1.1-0.51-1.1-1.1C332.97,1668.39,333.47,1667.88,334.07,1667.88z"/>
</g>
<g>
	<path class="st4" d="M187.44,775.96c0,1.01,0,2.11,0.95,2.92c0.49,0.41,1.31,0.68,1.98,0.68s1.49-0.27,1.98-0.68
		c0.96-0.81,0.96-1.91,0.96-2.92v-7.36h1.33v7.72c0,1.01-0.11,1.98-0.76,2.88c-0.72,0.99-1.98,1.62-3.51,1.62
		c-1.53,0-2.79-0.63-3.51-1.62c-0.65-0.9-0.76-1.87-0.76-2.88v-7.72h1.33V775.96z"/>
	<path class="st4" d="M200.49,774.86c-0.18-0.43-0.56-0.76-1.04-0.76c-0.47,0-0.9,0.27-0.9,0.85c0,0.54,0.36,0.7,1.21,1.06
		c1.08,0.45,1.58,0.79,1.87,1.15c0.32,0.4,0.4,0.79,0.4,1.21c0,1.57-1.13,2.45-2.58,2.45c-0.31,0-1.98-0.04-2.61-1.91l1.12-0.47
		c0.14,0.4,0.58,1.22,1.51,1.22c0.85,0,1.22-0.63,1.22-1.19c0-0.7-0.5-0.94-1.21-1.24c-0.9-0.4-1.48-0.68-1.82-1.1
		c-0.29-0.36-0.34-0.72-0.34-1.1c0-1.31,0.92-2.09,2.18-2.09c0.4,0,1.46,0.07,2.05,1.35L200.49,774.86z"/>
	<path class="st4" d="M205.04,777.49c0,0.52,0,1.13,0.36,1.6c0.2,0.25,0.59,0.58,1.31,0.58s1.12-0.32,1.31-0.58
		c0.36-0.47,0.36-1.08,0.36-1.6v-4.36h1.3v4.5c0,0.92-0.09,1.6-0.68,2.25c-0.67,0.7-1.55,0.94-2.29,0.94s-1.62-0.23-2.29-0.94
		c-0.59-0.65-0.68-1.33-0.68-2.25v-4.5h1.3V777.49z"/>
	<path class="st4" d="M217.86,773.13h1.3v7.47h-1.3v-1.04c-0.43,0.56-1.24,1.26-2.56,1.26c-1.89,0-3.64-1.33-3.64-3.96
		c0-2.58,1.73-3.91,3.64-3.91c1.44,0,2.21,0.79,2.56,1.24V773.13z M213,776.86c0,1.6,0.9,2.81,2.45,2.81c1.58,0,2.49-1.31,2.49-2.79
		c0-1.93-1.33-2.77-2.49-2.77C214.17,774.1,213,775.04,213,776.86z M217.86,769.22l-2.41,2.43l-0.81-0.43l1.89-2.61L217.86,769.22z"
		/>
	<path class="st4" d="M221.6,773.13h1.3v0.81c0.13-0.2,0.68-0.99,1.69-0.99c0.4,0,0.83,0.14,1.15,0.31l-0.61,1.17
		c-0.29-0.2-0.56-0.25-0.76-0.25c-0.52,0-0.85,0.22-1.04,0.47c-0.22,0.29-0.43,0.79-0.43,2.02v3.94h-1.3V773.13z"/>
	<path class="st4" d="M227.58,769.39c0.5,0,0.92,0.41,0.92,0.92c0,0.5-0.42,0.92-0.92,0.92s-0.92-0.41-0.92-0.92
		C226.66,769.8,227.07,769.39,227.58,769.39z M228.22,773.13v7.47h-1.3v-7.47H228.22z"/>
	<path class="st4" d="M230.2,776.9c0-2.27,1.67-3.94,3.96-3.94c2.29,0,3.96,1.67,3.96,3.94s-1.69,3.92-3.96,3.92
		C231.89,780.82,230.2,779.16,230.2,776.9z M231.54,776.9c0,1.84,1.3,2.77,2.63,2.77c1.35,0,2.63-0.95,2.63-2.77
		c0-1.84-1.26-2.79-2.63-2.79C232.79,774.1,231.54,775.08,231.54,776.9z"/>
	<path class="st4" d="M250.02,773.13h1.3v7.47h-1.3v-1.04c-0.43,0.56-1.24,1.26-2.56,1.26c-1.89,0-3.64-1.33-3.64-3.96
		c0-2.58,1.73-3.91,3.64-3.91c1.44,0,2.21,0.79,2.56,1.24V773.13z M245.16,776.86c0,1.6,0.9,2.81,2.45,2.81
		c1.58,0,2.48-1.31,2.48-2.79c0-1.93-1.33-2.77-2.48-2.77C246.33,774.1,245.16,775.04,245.16,776.86z"/>
	<path class="st4" d="M255.06,777.49c0,0.52,0,1.13,0.36,1.6c0.2,0.25,0.59,0.58,1.31,0.58c0.72,0,1.12-0.32,1.31-0.58
		c0.36-0.47,0.36-1.08,0.36-1.6v-4.36h1.3v4.5c0,0.92-0.09,1.6-0.68,2.25c-0.67,0.7-1.55,0.94-2.29,0.94
		c-0.74,0-1.62-0.23-2.29-0.94c-0.59-0.65-0.68-1.33-0.68-2.25v-4.5h1.3V777.49z"/>
	<path class="st4" d="M263.48,774.32v6.28h-1.3v-6.28h-0.79v-1.19h0.79v-2.7h1.3v2.7h1.3v1.19H263.48z"/>
	<path class="st4" d="M265.54,776.9c0-2.27,1.67-3.94,3.96-3.94c2.29,0,3.96,1.67,3.96,3.94s-1.69,3.92-3.96,3.92
		C267.23,780.82,265.54,779.16,265.54,776.9z M266.87,776.9c0,1.84,1.3,2.77,2.63,2.77c1.35,0,2.63-0.95,2.63-2.77
		c0-1.84-1.26-2.79-2.63-2.79C268.13,774.1,266.87,775.08,266.87,776.9z"/>
	<path class="st4" d="M275.44,773.13h1.3v0.81c0.13-0.2,0.68-0.99,1.69-0.99c0.4,0,0.83,0.14,1.15,0.31l-0.61,1.17
		c-0.29-0.2-0.56-0.25-0.76-0.25c-0.52,0-0.85,0.22-1.04,0.47c-0.22,0.29-0.43,0.79-0.43,2.02v3.94h-1.3V773.13z"/>
	<path class="st4" d="M281.41,769.39c0.5,0,0.92,0.41,0.92,0.92c0,0.5-0.42,0.92-0.92,0.92s-0.92-0.41-0.92-0.92
		C280.49,769.8,280.91,769.39,281.41,769.39z M282.06,773.13v7.47h-1.3v-7.47H282.06z"/>
	<path class="st4" d="M286.02,779.42h5.19v1.19h-7.78l5.4-6.28h-4.36v-1.19h6.95L286.02,779.42z"/>
	<path class="st4" d="M298.33,773.13h1.3v7.47h-1.3v-1.04c-0.43,0.56-1.24,1.26-2.56,1.26c-1.89,0-3.64-1.33-3.64-3.96
		c0-2.58,1.73-3.91,3.64-3.91c1.44,0,2.21,0.79,2.56,1.24V773.13z M293.47,776.86c0,1.6,0.9,2.81,2.45,2.81
		c1.58,0,2.48-1.31,2.48-2.79c0-1.93-1.33-2.77-2.48-2.77C294.64,774.1,293.47,775.04,293.47,776.86z"/>
	<path class="st4" d="M222.45,798.5c0-2.27,1.67-3.94,3.96-3.94s3.96,1.67,3.96,3.94s-1.69,3.92-3.96,3.92
		S222.45,800.76,222.45,798.5z M223.78,798.5c0,1.84,1.3,2.77,2.63,2.77c1.35,0,2.63-0.95,2.63-2.77c0-1.84-1.26-2.79-2.63-2.79
		C225.04,795.7,223.78,796.68,223.78,798.5z"/>
	<path class="st4" d="M242.26,794.73h1.3v7.47h-1.3v-1.04c-0.43,0.56-1.24,1.26-2.56,1.26c-1.89,0-3.64-1.33-3.64-3.96
		c0-2.58,1.73-3.91,3.64-3.91c1.44,0,2.21,0.79,2.56,1.24V794.73z M237.4,798.46c0,1.6,0.9,2.81,2.45,2.81
		c1.58,0,2.48-1.31,2.48-2.79c0-1.93-1.33-2.77-2.48-2.77C238.57,795.7,237.4,796.64,237.4,798.46z"/>
	<path class="st4" d="M247.3,806.35h-1.3v-11.61h1.3v1.04c0.88-1.1,2.02-1.22,2.56-1.22c2.34,0,3.64,1.94,3.64,3.96
		c0,2.05-1.31,3.91-3.58,3.91c-1.21,0-2.05-0.54-2.61-1.26V806.35z M252.16,798.51c0-1.84-1.24-2.81-2.45-2.81s-2.49,0.99-2.49,2.79
		c0,1.53,0.97,2.77,2.5,2.77C251.25,801.27,252.16,800.01,252.16,798.51z"/>
	<path class="st4" d="M256.77,806.35h-1.3v-11.61h1.3v1.04c0.88-1.1,2.02-1.22,2.56-1.22c2.34,0,3.64,1.94,3.64,3.96
		c0,2.05-1.31,3.91-3.58,3.91c-1.21,0-2.05-0.54-2.61-1.26V806.35z M261.63,798.51c0-1.84-1.24-2.81-2.45-2.81
		c-1.21,0-2.48,0.99-2.48,2.79c0,1.53,0.97,2.77,2.5,2.77C260.71,801.27,261.63,800.01,261.63,798.51z"/>
</g>
<g>
	<path class="st4" d="M204.72,908.49c0.81,0,2.02,0.05,2.92,0.67c0.7,0.47,1.31,1.39,1.31,2.67c0,1.84-1.21,3.19-3.02,3.31
		l3.82,5.37h-1.62l-3.65-5.26h-0.34v5.26h-1.33v-12.01H204.72z M204.13,914.06h0.85c1.66,0,2.65-0.79,2.65-2.2
		c0-0.67-0.2-1.33-0.95-1.76c-0.54-0.31-1.15-0.34-1.73-0.34h-0.81V914.06z"/>
	<path class="st4" d="M217.78,918.6c-0.22,0.41-0.54,0.86-0.92,1.21c-0.68,0.61-1.53,0.92-2.48,0.92c-1.8,0-3.69-1.13-3.69-3.91
		c0-2.23,1.37-3.96,3.62-3.96c1.46,0,2.38,0.72,2.83,1.37c0.47,0.67,0.74,1.82,0.7,2.81h-5.82c0.02,1.55,1.08,2.54,2.38,2.54
		c0.61,0,1.1-0.18,1.53-0.54c0.34-0.29,0.61-0.67,0.77-1.03L217.78,918.6z M216.5,915.95c-0.22-1.17-1.1-1.94-2.2-1.94
		s-2,0.83-2.2,1.94H216.5z"/>
	<path class="st4" d="M225.53,907.38h1.3v13.13h-1.3v-1.04c-0.43,0.56-1.24,1.26-2.56,1.26c-1.89,0-3.64-1.33-3.64-3.96
		c0-2.58,1.73-3.91,3.64-3.91c1.44,0,2.21,0.79,2.56,1.24V907.38z M220.67,916.76c0,1.6,0.9,2.81,2.45,2.81
		c1.58,0,2.49-1.31,2.49-2.79c0-1.93-1.33-2.77-2.49-2.77C221.84,914,220.67,914.94,220.67,916.76z"/>
	<path class="st4" d="M229.74,909.29c0.5,0,0.92,0.41,0.92,0.92c0,0.5-0.41,0.92-0.92,0.92c-0.5,0-0.92-0.41-0.92-0.92
		C228.83,909.7,229.24,909.29,229.74,909.29z M230.39,913.03v7.47h-1.3v-7.47H230.39z"/>
	<path class="st4" d="M232.84,913.03h1.3v0.81c0.13-0.2,0.68-0.99,1.69-0.99c0.4,0,0.83,0.14,1.15,0.31l-0.61,1.17
		c-0.29-0.2-0.56-0.25-0.76-0.25c-0.52,0-0.85,0.22-1.04,0.47c-0.22,0.29-0.43,0.79-0.43,2.02v3.94h-1.3V913.03z"/>
	<path class="st4" d="M244.36,918.6c-0.22,0.41-0.54,0.86-0.92,1.21c-0.68,0.61-1.53,0.92-2.48,0.92c-1.8,0-3.69-1.13-3.69-3.91
		c0-2.23,1.37-3.96,3.62-3.96c1.46,0,2.38,0.72,2.83,1.37c0.47,0.67,0.74,1.82,0.7,2.81h-5.82c0.02,1.55,1.08,2.54,2.38,2.54
		c0.61,0,1.1-0.18,1.53-0.54c0.34-0.29,0.61-0.67,0.77-1.03L244.36,918.6z M243.08,915.95c-0.22-1.17-1.1-1.94-2.2-1.94
		s-2,0.83-2.2,1.94H243.08z"/>
	<path class="st4" d="M252.24,915.12c-0.68-0.86-1.67-1.12-2.34-1.12c-1.39,0-2.65,0.97-2.65,2.79s1.3,2.77,2.63,2.77
		c0.77,0,1.73-0.34,2.41-1.17v1.55c-0.81,0.59-1.67,0.77-2.38,0.77c-2.32,0-4-1.66-4-3.91c0-2.29,1.69-3.96,4-3.96
		c1.19,0,1.96,0.47,2.32,0.72V915.12z"/>
	<path class="st4" d="M254.92,909.29c0.5,0,0.92,0.41,0.92,0.92c0,0.5-0.41,0.92-0.92,0.92c-0.5,0-0.92-0.41-0.92-0.92
		C254.01,909.7,254.42,909.29,254.92,909.29z M255.57,913.03v7.47h-1.3v-7.47H255.57z"/>
	<path class="st4" d="M257.55,916.8c0-2.27,1.67-3.94,3.96-3.94c2.29,0,3.96,1.67,3.96,3.94s-1.69,3.92-3.96,3.92
		S257.55,919.06,257.55,916.8z M258.88,916.8c0,1.84,1.3,2.77,2.63,2.77c1.35,0,2.63-0.95,2.63-2.77c0-1.84-1.26-2.79-2.63-2.79
		C260.14,914,258.88,914.98,258.88,916.8z"/>
	<path class="st4" d="M267.45,913.03h1.3v0.86c0.23-0.31,0.9-1.04,2.14-1.04c0.88,0,1.69,0.36,2.14,1.03c0.38,0.56,0.43,1.17,0.43,2
		v4.63h-1.3v-4.59c0-0.45-0.04-0.97-0.34-1.37c-0.25-0.32-0.65-0.54-1.22-0.54c-0.45,0-0.94,0.13-1.31,0.58
		c-0.5,0.59-0.54,1.48-0.54,2.02v3.91h-1.3V913.03z"/>
	<path class="st4" d="M281.64,913.03h1.3v7.47h-1.3v-1.04c-0.43,0.56-1.24,1.26-2.56,1.26c-1.89,0-3.64-1.33-3.64-3.96
		c0-2.58,1.73-3.91,3.64-3.91c1.44,0,2.21,0.79,2.56,1.24V913.03z M276.78,916.76c0,1.6,0.9,2.81,2.45,2.81
		c1.58,0,2.48-1.31,2.48-2.79c0-1.93-1.33-2.77-2.48-2.77C277.95,914,276.78,914.94,276.78,916.76z"/>
	<path class="st4" d="M207.45,934.63h1.3v7.47h-1.3v-1.04c-0.43,0.56-1.24,1.26-2.56,1.26c-1.89,0-3.64-1.33-3.64-3.96
		c0-2.58,1.73-3.91,3.64-3.91c1.44,0,2.21,0.79,2.56,1.24V934.63z M202.59,938.36c0,1.6,0.9,2.81,2.45,2.81
		c1.58,0,2.48-1.31,2.48-2.79c0-1.93-1.33-2.77-2.48-2.77C203.76,935.61,202.59,936.54,202.59,938.36z"/>
	<path class="st4" d="M210.73,938.4c0-2.27,1.67-3.94,3.96-3.94c2.29,0,3.96,1.67,3.96,3.94s-1.69,3.92-3.96,3.92
		S210.73,940.66,210.73,938.4z M212.06,938.4c0,1.84,1.3,2.77,2.63,2.77c1.35,0,2.63-0.95,2.63-2.77c0-1.84-1.26-2.79-2.63-2.79
		C213.32,935.61,212.06,936.58,212.06,938.4z"/>
	<path class="st4" d="M227.56,930.1v8.64c0,0.97-0.02,2.07-0.74,2.83c-0.42,0.45-1.03,0.76-1.91,0.76c-0.86,0-1.6-0.27-2.14-0.88
		l0.74-1.04c0.4,0.43,0.92,0.67,1.37,0.67c0.36,0,0.68-0.13,0.9-0.34c0.45-0.45,0.45-1.21,0.45-1.94v-8.68H227.56z"/>
	<path class="st4" d="M236.05,934.63h1.3v7.47h-1.3v-1.04c-0.43,0.56-1.24,1.26-2.56,1.26c-1.89,0-3.64-1.33-3.64-3.96
		c0-2.58,1.73-3.91,3.64-3.91c1.44,0,2.21,0.79,2.56,1.24V934.63z M231.19,938.36c0,1.6,0.9,2.81,2.45,2.81
		c1.58,0,2.49-1.31,2.49-2.79c0-1.93-1.33-2.77-2.49-2.77C232.36,935.61,231.19,936.54,231.19,938.36z"/>
	<path class="st4" d="M239.8,934.63h1.3v0.79c0.42-0.61,1.06-0.97,1.86-0.97c1.35,0,1.89,0.95,2.03,1.21
		c0.72-1.13,1.75-1.21,2.25-1.21c2.21,0,2.43,1.85,2.43,2.92v4.74h-1.3v-4.54c0-0.85-0.11-1.96-1.33-1.96
		c-1.49,0-1.66,1.44-1.66,2.34v4.16h-1.3v-4.43c0-0.52,0.02-2.07-1.35-2.07c-1.48,0-1.64,1.53-1.64,2.43v4.07h-1.3V934.63z"/>
	<path class="st4" d="M252.13,934.63h1.3v0.79c0.42-0.61,1.06-0.97,1.86-0.97c1.35,0,1.89,0.95,2.03,1.21
		c0.72-1.13,1.75-1.21,2.25-1.21c2.21,0,2.43,1.85,2.43,2.92v4.74h-1.3v-4.54c0-0.85-0.11-1.96-1.33-1.96
		c-1.49,0-1.66,1.44-1.66,2.34v4.16h-1.3v-4.43c0-0.52,0.02-2.07-1.35-2.07c-1.48,0-1.64,1.53-1.64,2.43v4.07h-1.3V934.63z"/>
	<path class="st4" d="M265.1,930.89c0.5,0,0.92,0.42,0.92,0.92s-0.41,0.92-0.92,0.92c-0.5,0-0.92-0.41-0.92-0.92
		S264.6,930.89,265.1,930.89z M265.75,934.63v7.47h-1.3v-7.47H265.75z"/>
	<path class="st4" d="M268.2,934.63h1.3v0.86c0.23-0.31,0.9-1.04,2.14-1.04c0.88,0,1.69,0.36,2.14,1.03c0.38,0.56,0.43,1.17,0.43,2
		v4.63h-1.3v-4.59c0-0.45-0.04-0.97-0.34-1.37c-0.25-0.32-0.65-0.54-1.22-0.54c-0.45,0-0.94,0.13-1.31,0.58
		c-0.5,0.59-0.54,1.48-0.54,2.02v3.91h-1.3V934.63z"/>
	<path class="st4" d="M282.39,934.63h1.3v7.29c0,0.81,0,1.96-0.72,2.93c-0.56,0.76-1.58,1.39-2.99,1.39c-1.28,0-2.16-0.5-2.67-1.01
		s-0.97-1.31-0.97-2.41h1.28c0,0.63,0.25,1.19,0.58,1.55c0.54,0.59,1.22,0.72,1.8,0.72c0.92,0,1.55-0.32,1.98-1.04
		c0.38-0.61,0.41-1.28,0.41-1.91v-1.08c-0.43,0.56-1.24,1.26-2.56,1.26c-1.1,0-1.98-0.43-2.56-1.01c-0.5-0.5-1.08-1.44-1.08-2.95
		c0-1.46,0.54-2.36,1.08-2.9c0.63-0.61,1.55-1.01,2.56-1.01c1.1,0,1.96,0.47,2.56,1.24V934.63z M278.28,936.31
		c-0.63,0.65-0.76,1.44-0.76,2.05c0,0.65,0.13,1.53,0.85,2.2c0.41,0.38,0.92,0.61,1.6,0.61s1.22-0.22,1.64-0.63
		c0.5-0.49,0.85-1.28,0.85-2.16c0-0.88-0.32-1.66-0.79-2.11c-0.41-0.41-1.03-0.67-1.69-0.67
		C279.18,935.61,278.64,935.95,278.28,936.31z"/>
</g>
<g>
	<g>
		<rect x="242.21" y="1212.03" class="st4" width="1" height="186.05"/>
	</g>
	<g>
		<polygon class="st4" points="242.71,1398.78 224.33,1380.41 225.03,1379.7 242.71,1397.37 260.38,1379.7 261.08,1380.41 		"/>
	</g>
</g>
<g>
	<rect x="145.77" y="1241.99" class="st2" width="193.86" height="83.39"/>
</g>
<g>
	<path class="st4" d="M186.05,1293.81v10.75h-1.33v-10.75h-2.92v-1.26h7.17v1.26H186.05z"/>
	<path class="st4" d="M188.46,1300.85c0-2.27,1.67-3.94,3.96-3.94s3.96,1.67,3.96,3.94s-1.69,3.92-3.96,3.92
		C190.16,1304.77,188.46,1303.12,188.46,1300.85z M189.79,1300.85c0,1.84,1.3,2.77,2.63,2.77c1.35,0,2.63-0.95,2.63-2.77
		c0-1.84-1.26-2.79-2.63-2.79C191.06,1298.06,189.79,1299.03,189.79,1300.85z"/>
	<path class="st4" d="M199.66,1291.43v8.43l2.74-2.77h1.69l-3.21,3.21l3.78,4.27h-1.69l-2.99-3.4l-0.32,0.32v3.08h-1.29v-13.13
		H199.66z"/>
	<path class="st4" d="M212.4,1302.65c-0.21,0.41-0.54,0.86-0.92,1.21c-0.68,0.61-1.53,0.92-2.48,0.92c-1.8,0-3.69-1.13-3.69-3.91
		c0-2.23,1.37-3.96,3.62-3.96c1.46,0,2.38,0.72,2.83,1.37c0.47,0.67,0.74,1.82,0.7,2.81h-5.82c0.02,1.55,1.08,2.54,2.38,2.54
		c0.61,0,1.1-0.18,1.53-0.54c0.34-0.29,0.61-0.67,0.77-1.03L212.4,1302.65z M211.13,1300c-0.22-1.17-1.1-1.94-2.2-1.94
		c-1.1,0-2,0.83-2.2,1.94H211.13z"/>
	<path class="st4" d="M214.44,1297.09h1.29v0.86c0.23-0.31,0.9-1.04,2.14-1.04c0.88,0,1.69,0.36,2.14,1.03
		c0.38,0.56,0.43,1.17,0.43,2v4.63h-1.3v-4.59c0-0.45-0.04-0.97-0.34-1.37c-0.25-0.32-0.65-0.54-1.22-0.54
		c-0.45,0-0.94,0.13-1.31,0.58c-0.5,0.59-0.54,1.48-0.54,2.02v3.91h-1.29V1297.09z"/>
	<path class="st4" d="M236.6,1295.2c-0.38-0.38-0.96-0.83-1.57-1.12c-0.63-0.29-1.37-0.47-2.07-0.47c-2.77,0-4.83,2.23-4.83,5.01
		c0,3.26,2.65,4.9,4.84,4.9c0.81,0,1.6-0.23,2.23-0.56c0.68-0.34,1.17-0.79,1.39-1.01v1.66c-1.33,0.95-2.72,1.17-3.62,1.17
		c-3.57,0-6.21-2.7-6.21-6.18c0-3.58,2.68-6.25,6.28-6.25c0.72,0,2.11,0.09,3.55,1.19V1295.2z"/>
	<path class="st4" d="M238.25,1300.85c0-2.27,1.67-3.94,3.96-3.94c2.29,0,3.96,1.67,3.96,3.94s-1.69,3.92-3.96,3.92
		C239.94,1304.77,238.25,1303.12,238.25,1300.85z M239.58,1300.85c0,1.84,1.3,2.77,2.63,2.77c1.35,0,2.63-0.95,2.63-2.77
		c0-1.84-1.26-2.79-2.63-2.79C240.84,1298.06,239.58,1299.03,239.58,1300.85z"/>
	<path class="st4" d="M248.15,1297.09h1.3v0.86c0.23-0.31,0.9-1.04,2.14-1.04c0.88,0,1.69,0.36,2.14,1.03
		c0.38,0.56,0.43,1.17,0.43,2v4.63h-1.3v-4.59c0-0.45-0.04-0.97-0.34-1.37c-0.25-0.32-0.65-0.54-1.22-0.54
		c-0.45,0-0.94,0.13-1.31,0.58c-0.5,0.59-0.54,1.48-0.54,2.02v3.91h-1.3V1297.09z"/>
	<path class="st4" d="M262.46,1299.17c-0.68-0.86-1.67-1.12-2.34-1.12c-1.39,0-2.65,0.97-2.65,2.79s1.3,2.77,2.63,2.77
		c0.77,0,1.73-0.34,2.41-1.17v1.55c-0.81,0.59-1.67,0.77-2.38,0.77c-2.32,0-4-1.66-4-3.91c0-2.29,1.69-3.96,4-3.96
		c1.19,0,1.96,0.47,2.32,0.72V1299.17z"/>
	<path class="st4" d="M271.12,1302.65c-0.21,0.41-0.54,0.86-0.92,1.21c-0.68,0.61-1.53,0.92-2.48,0.92c-1.8,0-3.69-1.13-3.69-3.91
		c0-2.23,1.37-3.96,3.62-3.96c1.46,0,2.38,0.72,2.83,1.37c0.47,0.67,0.74,1.82,0.7,2.81h-5.82c0.02,1.55,1.08,2.54,2.38,2.54
		c0.61,0,1.1-0.18,1.53-0.54c0.34-0.29,0.61-0.67,0.77-1.03L271.12,1302.65z M269.84,1300c-0.22-1.17-1.1-1.94-2.2-1.94
		c-1.1,0-2,0.83-2.2,1.94H269.84z"/>
	<path class="st4" d="M278.88,1291.43h1.3v13.13h-1.3v-1.04c-0.43,0.56-1.24,1.26-2.56,1.26c-1.89,0-3.64-1.33-3.64-3.96
		c0-2.58,1.73-3.91,3.64-3.91c1.44,0,2.21,0.79,2.56,1.24V1291.43z M274.02,1300.81c0,1.6,0.9,2.81,2.45,2.81
		c1.58,0,2.48-1.31,2.48-2.79c0-1.93-1.33-2.77-2.48-2.77C275.19,1298.06,274.02,1298.99,274.02,1300.81z"/>
	<path class="st4" d="M283.09,1293.34c0.5,0,0.92,0.42,0.92,0.92s-0.41,0.92-0.92,0.92s-0.92-0.41-0.92-0.92
		S282.58,1293.34,283.09,1293.34z M283.74,1297.09v7.47h-1.3v-7.47H283.74z"/>
	<path class="st4" d="M291.91,1291.43h1.3v13.13h-1.3v-1.04c-0.43,0.56-1.24,1.26-2.56,1.26c-1.89,0-3.64-1.33-3.64-3.96
		c0-2.58,1.73-3.91,3.64-3.91c1.44,0,2.21,0.79,2.56,1.24V1291.43z M287.05,1300.81c0,1.6,0.9,2.81,2.45,2.81
		c1.58,0,2.48-1.31,2.48-2.79c0-1.93-1.33-2.77-2.48-2.77C288.22,1298.06,287.05,1298.99,287.05,1300.81z"/>
	<path class="st4" d="M295.18,1300.85c0-2.27,1.67-3.94,3.96-3.94c2.29,0,3.96,1.67,3.96,3.94s-1.69,3.92-3.96,3.92
		C296.87,1304.77,295.18,1303.12,295.18,1300.85z M296.52,1300.85c0,1.84,1.3,2.77,2.63,2.77c1.35,0,2.63-0.95,2.63-2.77
		c0-1.84-1.26-2.79-2.63-2.79C297.78,1298.06,296.52,1299.03,296.52,1300.85z"/>
</g>
<g>
	<path class="st4" d="M159.6,574.39c0.81,0,2.02,0.05,2.92,0.67c0.7,0.47,1.31,1.39,1.31,2.67c0,1.84-1.21,3.19-3.02,3.31l3.82,5.37
		h-1.62l-3.66-5.26h-0.34v5.26h-1.33v-12.01H159.6z M159.01,579.96h0.85c1.66,0,2.65-0.79,2.65-2.2c0-0.67-0.2-1.33-0.96-1.76
		c-0.54-0.31-1.15-0.34-1.73-0.34h-0.81V579.96z"/>
	<path class="st4" d="M172.65,584.49c-0.22,0.41-0.54,0.86-0.92,1.21c-0.68,0.61-1.53,0.92-2.49,0.92c-1.8,0-3.69-1.13-3.69-3.91
		c0-2.23,1.37-3.96,3.62-3.96c1.46,0,2.38,0.72,2.83,1.37c0.47,0.67,0.74,1.82,0.7,2.81h-5.82c0.02,1.55,1.08,2.54,2.38,2.54
		c0.61,0,1.1-0.18,1.53-0.54c0.34-0.29,0.61-0.67,0.77-1.03L172.65,584.49z M171.38,581.85c-0.22-1.17-1.1-1.94-2.2-1.94
		c-1.1,0-2,0.83-2.2,1.94H171.38z"/>
	<path class="st4" d="M180.41,573.28h1.3v13.13h-1.3v-1.04c-0.43,0.56-1.24,1.26-2.56,1.26c-1.89,0-3.64-1.33-3.64-3.96
		c0-2.58,1.73-3.91,3.64-3.91c1.44,0,2.21,0.79,2.56,1.24V573.28z M175.55,582.66c0,1.6,0.9,2.81,2.45,2.81
		c1.58,0,2.48-1.31,2.48-2.79c0-1.93-1.33-2.77-2.48-2.77C176.72,579.9,175.55,580.84,175.55,582.66z"/>
	<path class="st4" d="M184.62,575.18c0.5,0,0.92,0.41,0.92,0.92c0,0.5-0.41,0.92-0.92,0.92c-0.5,0-0.92-0.41-0.92-0.92
		C183.7,575.6,184.12,575.18,184.62,575.18z M185.27,578.93v7.47h-1.3v-7.47H185.27z"/>
	<path class="st4" d="M187.72,578.93h1.3v0.81c0.13-0.2,0.68-0.99,1.69-0.99c0.4,0,0.83,0.14,1.15,0.31l-0.61,1.17
		c-0.29-0.2-0.56-0.25-0.76-0.25c-0.52,0-0.85,0.22-1.04,0.47c-0.22,0.29-0.43,0.79-0.43,2.02v3.94h-1.3V578.93z"/>
	<path class="st4" d="M199.24,584.49c-0.22,0.41-0.54,0.86-0.92,1.21c-0.68,0.61-1.53,0.92-2.49,0.92c-1.8,0-3.69-1.13-3.69-3.91
		c0-2.23,1.37-3.96,3.62-3.96c1.46,0,2.38,0.72,2.83,1.37c0.47,0.67,0.74,1.82,0.7,2.81h-5.82c0.02,1.55,1.08,2.54,2.38,2.54
		c0.61,0,1.1-0.18,1.53-0.54c0.34-0.29,0.61-0.67,0.77-1.03L199.24,584.49z M197.96,581.85c-0.22-1.17-1.1-1.94-2.2-1.94
		c-1.1,0-2,0.83-2.2,1.94H197.96z"/>
	<path class="st4" d="M207.12,581.02c-0.68-0.86-1.67-1.12-2.34-1.12c-1.39,0-2.65,0.97-2.65,2.79s1.3,2.77,2.63,2.77
		c0.77,0,1.73-0.34,2.41-1.17v1.55c-0.81,0.59-1.67,0.77-2.38,0.77c-2.32,0-4-1.66-4-3.91c0-2.29,1.69-3.96,4-3.96
		c1.19,0,1.96,0.47,2.32,0.72V581.02z"/>
	<path class="st4" d="M209.8,575.18c0.5,0,0.92,0.41,0.92,0.92c0,0.5-0.41,0.92-0.92,0.92c-0.5,0-0.92-0.41-0.92-0.92
		C208.88,575.6,209.3,575.18,209.8,575.18z M210.45,578.93v7.47h-1.3v-7.47H210.45z"/>
	<path class="st4" d="M212.43,582.69c0-2.27,1.67-3.94,3.96-3.94c2.29,0,3.96,1.67,3.96,3.94s-1.69,3.92-3.96,3.92
		S212.43,584.96,212.43,582.69z M213.76,582.69c0,1.84,1.3,2.77,2.63,2.77c1.35,0,2.63-0.95,2.63-2.77c0-1.84-1.26-2.79-2.63-2.79
		S213.76,580.87,213.76,582.69z"/>
	<path class="st4" d="M222.33,578.93h1.3v0.86c0.23-0.31,0.9-1.04,2.14-1.04c0.88,0,1.69,0.36,2.14,1.03c0.38,0.56,0.43,1.17,0.43,2
		v4.63h-1.3v-4.59c0-0.45-0.04-0.97-0.34-1.37c-0.25-0.32-0.65-0.54-1.22-0.54c-0.45,0-0.94,0.13-1.31,0.58
		c-0.5,0.59-0.54,1.48-0.54,2.02v3.91h-1.3V578.93z"/>
	<path class="st4" d="M236.52,578.93h1.3v7.47h-1.3v-1.04c-0.43,0.56-1.24,1.26-2.56,1.26c-1.89,0-3.64-1.33-3.64-3.96
		c0-2.58,1.73-3.91,3.64-3.91c1.44,0,2.21,0.79,2.56,1.24V578.93z M231.65,582.66c0,1.6,0.9,2.81,2.45,2.81
		c1.58,0,2.48-1.31,2.48-2.79c0-1.93-1.33-2.77-2.48-2.77C232.82,579.9,231.65,580.84,231.65,582.66z"/>
	<path class="st4" d="M250.18,578.93h1.3v7.47h-1.3v-1.04c-0.43,0.56-1.24,1.26-2.56,1.26c-1.89,0-3.64-1.33-3.64-3.96
		c0-2.58,1.73-3.91,3.64-3.91c1.44,0,2.21,0.79,2.56,1.24V578.93z M245.28,575.02l1.33-0.61l1.89,2.61l-0.79,0.43L245.28,575.02z
		 M245.32,582.66c0,1.6,0.9,2.81,2.45,2.81c1.58,0,2.48-1.31,2.48-2.79c0-1.93-1.33-2.77-2.48-2.77
		C246.49,579.9,245.32,580.84,245.32,582.66z"/>
	<path class="st4" d="M259.41,590.54h-1.3v-11.61h1.3v1.04c0.88-1.1,2.02-1.22,2.56-1.22c2.34,0,3.64,1.94,3.64,3.96
		c0,2.05-1.31,3.91-3.58,3.91c-1.21,0-2.05-0.54-2.61-1.26V590.54z M264.27,582.71c0-1.84-1.24-2.81-2.45-2.81s-2.48,0.99-2.48,2.79
		c0,1.53,0.97,2.77,2.5,2.77C263.35,585.47,264.27,584.21,264.27,582.71z"/>
	<path class="st4" d="M273.31,578.93h1.3v7.47h-1.3v-1.04c-0.43,0.56-1.24,1.26-2.56,1.26c-1.89,0-3.64-1.33-3.64-3.96
		c0-2.58,1.73-3.91,3.64-3.91c1.44,0,2.21,0.79,2.56,1.24V578.93z M268.45,582.66c0,1.6,0.9,2.81,2.45,2.81
		c1.58,0,2.48-1.31,2.48-2.79c0-1.93-1.33-2.77-2.48-2.77C269.62,579.9,268.45,580.84,268.45,582.66z M273.31,575.02l-2.41,2.43
		l-0.81-0.43l1.89-2.61L273.31,575.02z"/>
	<path class="st4" d="M282.77,578.93h1.3v7.29c0,0.81,0,1.96-0.72,2.93c-0.56,0.76-1.58,1.39-2.99,1.39c-1.28,0-2.16-0.5-2.67-1.01
		s-0.97-1.31-0.97-2.41H278c0,0.63,0.25,1.19,0.58,1.55c0.54,0.59,1.22,0.72,1.8,0.72c0.92,0,1.55-0.32,1.98-1.04
		c0.38-0.61,0.41-1.28,0.41-1.91v-1.08c-0.43,0.56-1.24,1.26-2.56,1.26c-1.1,0-1.98-0.43-2.56-1.01c-0.5-0.5-1.08-1.44-1.08-2.95
		c0-1.46,0.54-2.36,1.08-2.9c0.63-0.61,1.55-1.01,2.56-1.01c1.1,0,1.96,0.47,2.56,1.24V578.93z M278.67,580.6
		c-0.63,0.65-0.76,1.44-0.76,2.05c0,0.65,0.13,1.53,0.85,2.2c0.41,0.38,0.92,0.61,1.6,0.61c0.68,0,1.22-0.22,1.64-0.63
		c0.5-0.49,0.85-1.28,0.85-2.16c0-0.88-0.32-1.66-0.79-2.11c-0.41-0.41-1.03-0.67-1.69-0.67
		C279.57,579.9,279.03,580.24,278.67,580.6z"/>
	<path class="st4" d="M287.16,575.18c0.5,0,0.92,0.41,0.92,0.92c0,0.5-0.41,0.92-0.92,0.92s-0.92-0.41-0.92-0.92
		C286.25,575.6,286.66,575.18,287.16,575.18z M287.81,578.93v7.47h-1.3v-7.47H287.81z"/>
	<path class="st4" d="M290.26,578.93h1.3v0.86c0.23-0.31,0.9-1.04,2.14-1.04c0.88,0,1.69,0.36,2.14,1.03c0.38,0.56,0.43,1.17,0.43,2
		v4.63h-1.3v-4.59c0-0.45-0.04-0.97-0.34-1.37c-0.25-0.32-0.65-0.54-1.22-0.54c-0.45,0-0.94,0.13-1.31,0.58
		c-0.5,0.59-0.54,1.48-0.54,2.02v3.91h-1.3V578.93z"/>
	<path class="st4" d="M304.45,578.93h1.3v7.47h-1.3v-1.04c-0.43,0.56-1.24,1.26-2.56,1.26c-1.89,0-3.64-1.33-3.64-3.96
		c0-2.58,1.73-3.91,3.64-3.91c1.44,0,2.21,0.79,2.56,1.24V578.93z M299.58,582.66c0,1.6,0.9,2.81,2.45,2.81
		c1.58,0,2.48-1.31,2.48-2.79c0-1.93-1.33-2.77-2.48-2.77C300.75,579.9,299.58,580.84,299.58,582.66z"/>
	<path class="st4" d="M318.11,573.28h1.3v13.13h-1.3v-1.04c-0.43,0.56-1.24,1.26-2.56,1.26c-1.89,0-3.64-1.33-3.64-3.96
		c0-2.58,1.73-3.91,3.64-3.91c1.44,0,2.21,0.79,2.56,1.24V573.28z M313.25,582.66c0,1.6,0.9,2.81,2.45,2.81
		c1.58,0,2.48-1.31,2.48-2.79c0-1.93-1.33-2.77-2.48-2.77C314.42,579.9,313.25,580.84,313.25,582.66z"/>
	<path class="st4" d="M328.48,584.49c-0.22,0.41-0.54,0.86-0.92,1.21c-0.68,0.61-1.53,0.92-2.49,0.92c-1.8,0-3.69-1.13-3.69-3.91
		c0-2.23,1.37-3.96,3.62-3.96c1.46,0,2.38,0.72,2.83,1.37c0.47,0.67,0.74,1.82,0.7,2.81h-5.82c0.02,1.55,1.08,2.54,2.38,2.54
		c0.61,0,1.1-0.18,1.53-0.54c0.34-0.29,0.61-0.67,0.77-1.03L328.48,584.49z M327.2,581.85c-0.22-1.17-1.1-1.94-2.2-1.94
		c-1.1,0-2,0.83-2.2,1.94H327.2z"/>
	<path class="st4" d="M169.34,600.53h1.3V608h-1.3v-1.04c-0.43,0.56-1.24,1.26-2.56,1.26c-1.89,0-3.64-1.33-3.64-3.96
		c0-2.58,1.73-3.91,3.64-3.91c1.44,0,2.21,0.79,2.56,1.24V600.53z M164.48,604.26c0,1.6,0.9,2.81,2.45,2.81
		c1.58,0,2.48-1.31,2.48-2.79c0-1.93-1.33-2.77-2.48-2.77C165.65,601.5,164.48,602.44,164.48,604.26z"/>
	<path class="st4" d="M174.38,604.89c0,0.52,0,1.13,0.36,1.6c0.2,0.25,0.59,0.58,1.31,0.58c0.72,0,1.12-0.32,1.31-0.58
		c0.36-0.47,0.36-1.08,0.36-1.6v-4.36h1.3v4.5c0,0.92-0.09,1.6-0.68,2.25c-0.67,0.7-1.55,0.94-2.29,0.94s-1.62-0.23-2.29-0.94
		c-0.59-0.65-0.68-1.33-0.68-2.25v-4.5h1.3V604.89z"/>
	<path class="st4" d="M182.8,601.72V608h-1.3v-6.28h-0.79v-1.19h0.79v-2.7h1.3v2.7h1.3v1.19H182.8z"/>
	<path class="st4" d="M184.86,604.29c0-2.27,1.67-3.94,3.96-3.94c2.29,0,3.96,1.67,3.96,3.94s-1.69,3.92-3.96,3.92
		C186.55,608.22,184.86,606.56,184.86,604.29z M186.19,604.29c0,1.84,1.3,2.77,2.63,2.77c1.35,0,2.63-0.95,2.63-2.77
		c0-1.84-1.26-2.79-2.63-2.79C187.45,601.5,186.19,602.48,186.19,604.29z"/>
	<path class="st4" d="M194.76,600.53h1.3v0.81c0.13-0.2,0.68-0.99,1.69-0.99c0.4,0,0.83,0.14,1.15,0.31l-0.61,1.17
		c-0.29-0.2-0.56-0.25-0.76-0.25c-0.52,0-0.85,0.22-1.04,0.47c-0.22,0.29-0.43,0.79-0.43,2.02V608h-1.3V600.53z"/>
	<path class="st4" d="M200.73,596.78c0.5,0,0.92,0.42,0.92,0.92s-0.41,0.92-0.92,0.92s-0.92-0.41-0.92-0.92
		S200.23,596.78,200.73,596.78z M201.38,600.53V608h-1.3v-7.47H201.38z"/>
	<path class="st4" d="M205.34,606.81h5.19V608h-7.78l5.4-6.28h-4.36v-1.19h6.95L205.34,606.81z"/>
	<path class="st4" d="M217.65,600.53h1.3V608h-1.3v-1.04c-0.43,0.56-1.24,1.26-2.56,1.26c-1.89,0-3.64-1.33-3.64-3.96
		c0-2.58,1.73-3.91,3.64-3.91c1.44,0,2.21,0.79,2.56,1.24V600.53z M212.79,604.26c0,1.6,0.9,2.81,2.45,2.81
		c1.58,0,2.48-1.31,2.48-2.79c0-1.93-1.33-2.77-2.48-2.77C213.96,601.5,212.79,602.44,212.79,604.26z"/>
	<path class="st4" d="M227.25,602.62c-0.68-0.86-1.67-1.12-2.34-1.12c-1.39,0-2.65,0.97-2.65,2.79s1.3,2.77,2.63,2.77
		c0.77,0,1.73-0.34,2.41-1.17v1.55c-0.81,0.59-1.67,0.77-2.38,0.77c-2.32,0-4-1.66-4-3.91c0-2.29,1.69-3.96,4-3.96
		c1.19,0,1.96,0.47,2.32,0.72V602.62z M225.79,609.43l-1.82,2.3l-0.88-0.43l1.51-2.36L225.79,609.43z"/>
	<path class="st4" d="M235,600.53h1.3V608H235v-1.04c-0.43,0.56-1.24,1.26-2.56,1.26c-1.89,0-3.64-1.33-3.64-3.96
		c0-2.58,1.73-3.91,3.64-3.91c1.44,0,2.21,0.79,2.56,1.24V600.53z M230.14,604.26c0,1.6,0.9,2.81,2.45,2.81
		c1.58,0,2.48-1.31,2.48-2.79c0-1.93-1.33-2.77-2.48-2.77C231.31,601.5,230.14,602.44,230.14,604.26z M230.25,598.44
		c0.16-0.27,0.41-0.61,0.61-0.81c0.34-0.32,0.65-0.43,1.03-0.43c0.49,0,0.86,0.16,1.26,0.36c0.41,0.22,0.67,0.36,1.01,0.36
		c0.22,0,0.36-0.04,0.52-0.22c0.13-0.14,0.31-0.41,0.38-0.56l0.74,0.61c-0.09,0.23-0.23,0.47-0.47,0.7
		c-0.41,0.43-0.85,0.54-1.19,0.54c-0.43,0-0.9-0.22-1.24-0.38c-0.43-0.2-0.72-0.34-0.99-0.34c-0.22,0-0.36,0.09-0.52,0.25
		s-0.29,0.36-0.38,0.52L230.25,598.44z"/>
	<path class="st4" d="M238.28,604.29c0-2.27,1.67-3.94,3.96-3.94c2.29,0,3.96,1.67,3.96,3.94s-1.69,3.92-3.96,3.92
		S238.28,606.56,238.28,604.29z M239.61,604.29c0,1.84,1.3,2.77,2.63,2.77c1.35,0,2.63-0.95,2.63-2.77c0-1.84-1.26-2.79-2.63-2.79
		S239.61,602.48,239.61,604.29z"/>
	<path class="st4" d="M258.1,594.88h1.3V608h-1.3v-1.04c-0.43,0.56-1.24,1.26-2.56,1.26c-1.89,0-3.64-1.33-3.64-3.96
		c0-2.58,1.73-3.91,3.64-3.91c1.44,0,2.21,0.79,2.56,1.24V594.88z M253.24,604.26c0,1.6,0.9,2.81,2.45,2.81
		c1.58,0,2.48-1.31,2.48-2.79c0-1.93-1.33-2.77-2.48-2.77C254.41,601.5,253.24,602.44,253.24,604.26z"/>
	<path class="st4" d="M261.37,604.29c0-2.27,1.67-3.94,3.96-3.94c2.29,0,3.96,1.67,3.96,3.94s-1.69,3.92-3.96,3.92
		C263.06,608.22,261.37,606.56,261.37,604.29z M262.7,604.29c0,1.84,1.3,2.77,2.63,2.77c1.35,0,2.63-0.95,2.63-2.77
		c0-1.84-1.26-2.79-2.63-2.79C263.96,601.5,262.7,602.48,262.7,604.29z"/>
	<path class="st4" d="M281.15,598.37c-0.16-0.32-0.43-0.68-0.7-0.9c-0.23-0.18-0.67-0.41-1.35-0.41c-1.19,0-2.02,0.74-2.02,1.85
		c0,0.47,0.13,0.74,0.45,1.04c0.36,0.36,0.81,0.56,1.26,0.76l1.15,0.5c0.7,0.31,1.35,0.63,1.85,1.13c0.61,0.61,0.86,1.31,0.86,2.18
		c0,2.21-1.64,3.69-3.8,3.69c-0.79,0-1.78-0.16-2.61-0.97c-0.59-0.58-0.95-1.4-1.12-2.12l1.3-0.36c0.09,0.63,0.38,1.17,0.72,1.53
		c0.52,0.52,1.12,0.67,1.73,0.67c1.64,0,2.41-1.17,2.41-2.38c0-0.54-0.16-1.01-0.59-1.4c-0.34-0.32-0.81-0.54-1.44-0.83l-1.08-0.5
		c-0.47-0.22-1.06-0.47-1.6-0.99c-0.52-0.5-0.83-1.06-0.83-1.96c0-1.85,1.42-3.1,3.37-3.1c0.74,0,1.33,0.14,1.93,0.54
		c0.49,0.32,0.9,0.81,1.17,1.33L281.15,598.37z"/>
	<path class="st4" d="M286.08,612.14h-1.3v-11.61h1.3v1.04c0.88-1.1,2.02-1.22,2.56-1.22c2.34,0,3.64,1.94,3.64,3.96
		c0,2.05-1.31,3.91-3.58,3.91c-1.21,0-2.05-0.54-2.61-1.26V612.14z M290.95,604.31c0-1.84-1.24-2.81-2.45-2.81
		c-1.21,0-2.49,0.99-2.49,2.79c0,1.53,0.97,2.77,2.5,2.77C290.03,607.07,290.95,605.81,290.95,604.31z"/>
	<path class="st4" d="M293.79,604.29c0-2.27,1.67-3.94,3.96-3.94c2.29,0,3.96,1.67,3.96,3.94s-1.69,3.92-3.96,3.92
		C295.48,608.22,293.79,606.56,293.79,604.29z M295.12,604.29c0,1.84,1.3,2.77,2.63,2.77c1.35,0,2.63-0.95,2.63-2.77
		c0-1.84-1.26-2.79-2.63-2.79C296.38,601.5,295.12,602.48,295.12,604.29z"/>
	<path class="st4" d="M305.02,601.72V608h-1.3v-6.28h-0.79v-1.19h0.79v-2.7h1.3v2.7h1.3v1.19H305.02z"/>
	<path class="st4" d="M308.19,596.78c0.5,0,0.92,0.42,0.92,0.92s-0.41,0.92-0.92,0.92c-0.5,0-0.92-0.41-0.92-0.92
		S307.68,596.78,308.19,596.78z M308.84,600.53V608h-1.3v-7.47H308.84z"/>
	<path class="st4" d="M312.62,601.72V608h-1.3v-6.28h-0.72v-1.19h0.72v-3.26c0-0.68,0.05-1.55,0.72-2.11
		c0.36-0.31,0.9-0.49,1.5-0.49c0.47,0,0.77,0.11,0.92,0.16v1.26c-0.27-0.11-0.58-0.16-0.85-0.16c-0.29,0-0.63,0.07-0.83,0.4
		c-0.16,0.27-0.16,0.68-0.16,1.08v3.11h1.84v1.19H312.62z"/>
	<path class="st4" d="M318.32,607.3l-3.44-6.77h1.48l2.65,5.35l2.43-5.35h1.44l-5.49,11.61h-1.44L318.32,607.3z"/>
</g>
<g>
	<path class="st4" d="M193.6,1752.1c0.67,0,1.87,0.05,2.75,0.76c0.38,0.29,1.08,1.03,1.08,2.48c0,0.59-0.13,1.64-1.19,2.36
		c1.67,0.41,2.29,1.87,2.29,3.03s-0.58,2.09-1.22,2.59c-0.95,0.76-2.05,0.79-2.88,0.79h-2.99v-12.01H193.6z M192.78,1757.37h1.01
		c0.7,0,2.36-0.14,2.36-2c0-1.98-1.95-2.02-2.32-2.02h-1.04V1757.37z M192.78,1762.85h1.53c0.77,0,1.53-0.05,2.11-0.5
		c0.47-0.34,0.79-0.94,0.79-1.66c0-0.95-0.56-1.51-1.03-1.76c-0.45-0.25-1.08-0.36-2.03-0.36h-1.37V1762.85z"/>
	<path class="st4" d="M201.96,1760.99c0,0.52,0,1.13,0.36,1.6c0.2,0.25,0.59,0.58,1.31,0.58c0.72,0,1.12-0.32,1.31-0.58
		c0.36-0.47,0.36-1.08,0.36-1.6v-4.36h1.3v4.5c0,0.92-0.09,1.6-0.68,2.25c-0.67,0.7-1.55,0.94-2.29,0.94s-1.62-0.23-2.29-0.94
		c-0.59-0.65-0.68-1.33-0.68-2.25v-4.5h1.3V1760.99z"/>
	<path class="st4" d="M212.12,1758.36c-0.18-0.43-0.56-0.76-1.04-0.76c-0.47,0-0.9,0.27-0.9,0.85c0,0.54,0.36,0.7,1.21,1.06
		c1.08,0.45,1.58,0.79,1.87,1.15c0.32,0.4,0.4,0.79,0.4,1.21c0,1.57-1.13,2.45-2.58,2.45c-0.31,0-1.98-0.04-2.61-1.91l1.12-0.47
		c0.14,0.4,0.58,1.22,1.51,1.22c0.85,0,1.22-0.63,1.22-1.19c0-0.7-0.5-0.94-1.21-1.24c-0.9-0.4-1.48-0.68-1.82-1.1
		c-0.29-0.36-0.34-0.72-0.34-1.1c0-1.31,0.92-2.09,2.18-2.09c0.4,0,1.46,0.07,2.05,1.35L212.12,1758.36z"/>
	<path class="st4" d="M221.23,1758.72c-0.68-0.86-1.67-1.12-2.34-1.12c-1.39,0-2.65,0.97-2.65,2.79s1.3,2.77,2.63,2.77
		c0.77,0,1.73-0.34,2.41-1.17v1.55c-0.81,0.59-1.67,0.77-2.38,0.77c-2.32,0-4-1.66-4-3.91c0-2.29,1.69-3.96,4-3.96
		c1.19,0,1.96,0.47,2.32,0.72V1758.72z"/>
	<path class="st4" d="M228.99,1756.63h1.3v7.47h-1.3v-1.04c-0.43,0.56-1.24,1.26-2.56,1.26c-1.89,0-3.64-1.33-3.64-3.96
		c0-2.58,1.73-3.91,3.64-3.91c1.44,0,2.21,0.79,2.56,1.24V1756.63z M224.13,1760.36c0,1.6,0.9,2.81,2.45,2.81
		c1.58,0,2.48-1.31,2.48-2.79c0-1.93-1.33-2.77-2.48-2.77C225.3,1757.61,224.13,1758.54,224.13,1760.36z"/>
	<path class="st4" d="M232.73,1756.63h1.3v0.81c0.13-0.2,0.68-0.99,1.69-0.99c0.4,0,0.83,0.14,1.15,0.31l-0.61,1.17
		c-0.29-0.2-0.56-0.25-0.76-0.25c-0.52,0-0.85,0.22-1.04,0.47c-0.22,0.29-0.43,0.79-0.43,2.02v3.94h-1.3V1756.63z"/>
	<path class="st4" d="M242.26,1756.63h1.3v0.79c0.41-0.61,1.06-0.97,1.85-0.97c1.35,0,1.89,0.95,2.04,1.21
		c0.72-1.13,1.75-1.21,2.25-1.21c2.21,0,2.43,1.85,2.43,2.92v4.74h-1.3v-4.54c0-0.85-0.11-1.96-1.33-1.96
		c-1.49,0-1.66,1.44-1.66,2.34v4.16h-1.3v-4.43c0-0.52,0.02-2.07-1.35-2.07c-1.48,0-1.64,1.53-1.64,2.43v4.07h-1.3V1756.63z"/>
	<path class="st4" d="M255.88,1760.99c0,0.52,0,1.13,0.36,1.6c0.2,0.25,0.59,0.58,1.31,0.58c0.72,0,1.12-0.32,1.31-0.58
		c0.36-0.47,0.36-1.08,0.36-1.6v-4.36h1.3v4.5c0,0.92-0.09,1.6-0.68,2.25c-0.67,0.7-1.55,0.94-2.29,0.94s-1.62-0.23-2.29-0.94
		c-0.59-0.65-0.68-1.33-0.68-2.25v-4.5h1.3V1760.99z M259.84,1752.73l-2.41,2.43l-0.81-0.43l1.89-2.61L259.84,1752.73z"/>
	<path class="st4" d="M266.05,1758.36c-0.18-0.43-0.56-0.76-1.04-0.76c-0.47,0-0.9,0.27-0.9,0.85c0,0.54,0.36,0.7,1.21,1.06
		c1.08,0.45,1.58,0.79,1.87,1.15c0.32,0.4,0.4,0.79,0.4,1.21c0,1.57-1.13,2.45-2.58,2.45c-0.31,0-1.98-0.04-2.61-1.91l1.12-0.47
		c0.14,0.4,0.58,1.22,1.51,1.22c0.85,0,1.22-0.63,1.22-1.19c0-0.7-0.5-0.94-1.21-1.24c-0.9-0.4-1.48-0.68-1.82-1.1
		c-0.29-0.36-0.34-0.72-0.34-1.1c0-1.31,0.92-2.09,2.18-2.09c0.4,0,1.46,0.07,2.05,1.35L266.05,1758.36z"/>
	<path class="st4" d="M269.96,1752.89c0.5,0,0.92,0.41,0.92,0.92c0,0.5-0.41,0.92-0.92,0.92c-0.5,0-0.92-0.41-0.92-0.92
		C269.04,1753.3,269.45,1752.89,269.96,1752.89z M270.61,1756.63v7.47h-1.3v-7.47H270.61z"/>
	<path class="st4" d="M278.9,1758.72c-0.68-0.86-1.67-1.12-2.34-1.12c-1.39,0-2.65,0.97-2.65,2.79s1.3,2.77,2.63,2.77
		c0.77,0,1.73-0.34,2.41-1.17v1.55c-0.81,0.59-1.67,0.77-2.38,0.77c-2.32,0-4-1.66-4-3.91c0-2.29,1.69-3.96,4-3.96
		c1.19,0,1.96,0.47,2.32,0.72V1758.72z"/>
	<path class="st4" d="M286.66,1756.63h1.3v7.47h-1.3v-1.04c-0.43,0.56-1.24,1.26-2.56,1.26c-1.89,0-3.64-1.33-3.64-3.96
		c0-2.58,1.73-3.91,3.64-3.91c1.44,0,2.21,0.79,2.56,1.24V1756.63z M281.8,1760.36c0,1.6,0.9,2.81,2.45,2.81
		c1.58,0,2.48-1.31,2.48-2.79c0-1.93-1.33-2.77-2.48-2.77C282.97,1757.61,281.8,1758.54,281.8,1760.36z"/>
	<path class="st4" d="M293.48,1758.36c-0.18-0.43-0.56-0.76-1.04-0.76c-0.47,0-0.9,0.27-0.9,0.85c0,0.54,0.36,0.7,1.21,1.06
		c1.08,0.45,1.58,0.79,1.87,1.15c0.32,0.4,0.4,0.79,0.4,1.21c0,1.57-1.13,2.45-2.58,2.45c-0.31,0-1.98-0.04-2.61-1.91l1.12-0.47
		c0.14,0.4,0.58,1.22,1.51,1.22c0.85,0,1.22-0.63,1.22-1.19c0-0.7-0.5-0.94-1.21-1.24c-0.9-0.4-1.48-0.68-1.82-1.1
		c-0.29-0.36-0.34-0.72-0.34-1.1c0-1.31,0.92-2.09,2.18-2.09c0.4,0,1.46,0.07,2.05,1.35L293.48,1758.36z"/>
</g>
<g>
	<path class="st2" d="M325.47,1733.39H159.94c-8.9,0-16.12-7.22-16.12-16.12l0,0c0-8.9,7.22-16.12,16.12-16.12h165.53
		c8.9,0,16.12,7.22,16.12,16.12l0,0C341.6,1726.17,334.38,1733.39,325.47,1733.39z"/>
	<path class="st4" d="M325.47,1733.89H159.94c-9.17,0-16.62-7.46-16.62-16.62c0-9.17,7.46-16.62,16.62-16.62h165.53
		c9.17,0,16.62,7.46,16.62,16.62C342.1,1726.43,334.64,1733.89,325.47,1733.89z M159.94,1701.64c-8.61,0-15.62,7.01-15.62,15.62
		c0,8.62,7.01,15.62,15.62,15.62h165.53c8.62,0,15.62-7.01,15.62-15.62c0-8.61-7.01-15.62-15.62-15.62H159.94z"/>
</g>
<g>
	<path class="st4" d="M162.56,1709.85c1.21,0,2.21,0.14,3.02,0.85c0.88,0.76,1.1,1.82,1.1,2.57c0,1.69-1.06,3.37-3.8,3.37h-1.17
		v5.22h-1.33v-12.01H162.56z M161.72,1715.38h1.1c1.58,0,2.54-0.79,2.54-2.18c0-1.91-1.78-2.09-2.65-2.09h-0.99V1715.38z"/>
	<path class="st4" d="M174.77,1719.95c-0.22,0.41-0.54,0.86-0.92,1.21c-0.68,0.61-1.53,0.92-2.49,0.92c-1.8,0-3.69-1.13-3.69-3.91
		c0-2.23,1.37-3.96,3.62-3.96c1.46,0,2.38,0.72,2.83,1.37c0.47,0.67,0.74,1.82,0.7,2.81h-5.82c0.02,1.55,1.08,2.54,2.38,2.54
		c0.61,0,1.1-0.18,1.53-0.54c0.34-0.29,0.61-0.67,0.77-1.03L174.77,1719.95z M173.49,1717.3c-0.22-1.17-1.1-1.94-2.2-1.94
		c-1.1,0-2,0.83-2.2,1.94H173.49z"/>
	<path class="st4" d="M182.53,1714.39h1.3v7.29c0,0.81,0,1.96-0.72,2.93c-0.56,0.76-1.58,1.39-2.99,1.39c-1.28,0-2.16-0.5-2.67-1.01
		s-0.97-1.31-0.97-2.41h1.28c0,0.63,0.25,1.19,0.58,1.55c0.54,0.59,1.22,0.72,1.8,0.72c0.92,0,1.55-0.32,1.98-1.04
		c0.38-0.61,0.41-1.28,0.41-1.91v-1.08c-0.43,0.56-1.24,1.26-2.56,1.26c-1.1,0-1.98-0.43-2.56-1.01c-0.5-0.5-1.08-1.44-1.08-2.95
		c0-1.46,0.54-2.36,1.08-2.9c0.63-0.61,1.55-1.01,2.56-1.01c1.1,0,1.96,0.47,2.56,1.24V1714.39z M178.42,1716.06
		c-0.63,0.65-0.76,1.44-0.76,2.05c0,0.65,0.13,1.53,0.85,2.2c0.41,0.38,0.92,0.61,1.6,0.61s1.22-0.22,1.64-0.63
		c0.5-0.49,0.85-1.28,0.85-2.16c0-0.88-0.32-1.66-0.79-2.11c-0.41-0.41-1.03-0.67-1.69-0.67
		C179.32,1715.36,178.78,1715.7,178.42,1716.06z"/>
	<path class="st4" d="M191.99,1714.39h1.3v7.47h-1.3v-1.04c-0.43,0.56-1.24,1.26-2.56,1.26c-1.89,0-3.64-1.33-3.64-3.96
		c0-2.58,1.73-3.91,3.64-3.91c1.44,0,2.21,0.79,2.56,1.24V1714.39z M187.13,1718.11c0,1.6,0.9,2.81,2.45,2.81
		c1.58,0,2.48-1.31,2.48-2.79c0-1.93-1.33-2.77-2.48-2.77C188.3,1715.36,187.13,1716.3,187.13,1718.11z"/>
	<path class="st4" d="M195.74,1714.39h1.3v0.81c0.13-0.2,0.68-0.99,1.69-0.99c0.4,0,0.83,0.14,1.15,0.31l-0.61,1.17
		c-0.29-0.2-0.56-0.25-0.76-0.25c-0.52,0-0.85,0.22-1.04,0.47c-0.22,0.29-0.43,0.79-0.43,2.02v3.94h-1.3V1714.39z"/>
	<path class="st4" d="M210.98,1708.73h1.3v13.13h-1.3v-1.04c-0.43,0.56-1.24,1.26-2.56,1.26c-1.89,0-3.64-1.33-3.64-3.96
		c0-2.58,1.73-3.91,3.64-3.91c1.44,0,2.21,0.79,2.56,1.24V1708.73z M206.12,1718.11c0,1.6,0.9,2.81,2.45,2.81
		c1.58,0,2.48-1.31,2.48-2.79c0-1.93-1.33-2.77-2.48-2.77C207.29,1715.36,206.12,1716.3,206.12,1718.11z"/>
	<path class="st4" d="M220.45,1714.39h1.3v7.47h-1.3v-1.04c-0.43,0.56-1.24,1.26-2.56,1.26c-1.89,0-3.64-1.33-3.64-3.96
		c0-2.58,1.73-3.91,3.64-3.91c1.44,0,2.21,0.79,2.56,1.24V1714.39z M215.59,1718.11c0,1.6,0.9,2.81,2.45,2.81
		c1.58,0,2.48-1.31,2.48-2.79c0-1.93-1.33-2.77-2.48-2.77C216.76,1715.36,215.59,1716.3,215.59,1718.11z"/>
	<path class="st4" d="M229.92,1708.73h1.3v13.13h-1.3v-1.04c-0.43,0.56-1.24,1.26-2.56,1.26c-1.89,0-3.64-1.33-3.64-3.96
		c0-2.58,1.73-3.91,3.64-3.91c1.44,0,2.21,0.79,2.56,1.24V1708.73z M225.06,1718.11c0,1.6,0.9,2.81,2.45,2.81
		c1.58,0,2.48-1.31,2.48-2.79c0-1.93-1.33-2.77-2.48-2.77C226.23,1715.36,225.06,1716.3,225.06,1718.11z"/>
	<path class="st4" d="M233.19,1718.15c0-2.27,1.67-3.94,3.96-3.94c2.29,0,3.96,1.67,3.96,3.94s-1.69,3.92-3.96,3.92
		S233.19,1720.42,233.19,1718.15z M234.52,1718.15c0,1.84,1.3,2.77,2.63,2.77c1.35,0,2.63-0.95,2.63-2.77
		c0-1.84-1.26-2.79-2.63-2.79C235.79,1715.36,234.52,1716.33,234.52,1718.15z"/>
	<path class="st4" d="M246.17,1716.11c-0.18-0.43-0.56-0.76-1.04-0.76c-0.47,0-0.9,0.27-0.9,0.85c0,0.54,0.36,0.7,1.21,1.06
		c1.08,0.45,1.58,0.79,1.87,1.15c0.32,0.4,0.4,0.79,0.4,1.21c0,1.57-1.13,2.45-2.57,2.45c-0.31,0-1.98-0.04-2.61-1.91l1.12-0.47
		c0.14,0.4,0.58,1.22,1.51,1.22c0.85,0,1.22-0.63,1.22-1.19c0-0.7-0.5-0.94-1.21-1.24c-0.9-0.4-1.48-0.68-1.82-1.1
		c-0.29-0.36-0.34-0.72-0.34-1.1c0-1.31,0.92-2.09,2.18-2.09c0.4,0,1.46,0.07,2.05,1.35L246.17,1716.11z"/>
	<path class="st4" d="M259.35,1708.73h1.3v13.13h-1.3v-1.04c-0.43,0.56-1.24,1.26-2.56,1.26c-1.89,0-3.64-1.33-3.64-3.96
		c0-2.58,1.73-3.91,3.64-3.91c1.44,0,2.21,0.79,2.56,1.24V1708.73z M254.49,1718.11c0,1.6,0.9,2.81,2.45,2.81
		c1.58,0,2.49-1.31,2.49-2.79c0-1.93-1.33-2.77-2.49-2.77C255.66,1715.36,254.49,1716.3,254.49,1718.11z"/>
	<path class="st4" d="M262.62,1718.15c0-2.27,1.67-3.94,3.96-3.94c2.29,0,3.96,1.67,3.96,3.94s-1.69,3.92-3.96,3.92
		S262.62,1720.42,262.62,1718.15z M263.95,1718.15c0,1.84,1.3,2.77,2.63,2.77c1.35,0,2.63-0.95,2.63-2.77
		c0-1.84-1.26-2.79-2.63-2.79S263.95,1716.33,263.95,1718.15z"/>
	<path class="st4" d="M278.01,1718.74c0,0.52,0,1.13,0.36,1.6c0.2,0.25,0.59,0.58,1.31,0.58c0.72,0,1.12-0.32,1.31-0.58
		c0.36-0.47,0.36-1.08,0.36-1.6v-4.36h1.3v4.5c0,0.92-0.09,1.6-0.68,2.25c-0.67,0.7-1.55,0.94-2.29,0.94s-1.62-0.23-2.29-0.94
		c-0.59-0.65-0.68-1.33-0.68-2.25v-4.5h1.3V1718.74z"/>
	<path class="st4" d="M288.18,1716.11c-0.18-0.43-0.56-0.76-1.04-0.76c-0.47,0-0.9,0.27-0.9,0.85c0,0.54,0.36,0.7,1.21,1.06
		c1.08,0.45,1.58,0.79,1.87,1.15c0.32,0.4,0.4,0.79,0.4,1.21c0,1.57-1.13,2.45-2.57,2.45c-0.31,0-1.98-0.04-2.61-1.91l1.12-0.47
		c0.14,0.4,0.58,1.22,1.51,1.22c0.85,0,1.22-0.63,1.22-1.19c0-0.7-0.5-0.94-1.21-1.24c-0.9-0.4-1.48-0.68-1.82-1.1
		c-0.29-0.36-0.34-0.72-0.34-1.1c0-1.31,0.92-2.09,2.18-2.09c0.4,0,1.46,0.07,2.05,1.35L288.18,1716.11z"/>
	<path class="st4" d="M292.74,1718.74c0,0.52,0,1.13,0.36,1.6c0.2,0.25,0.59,0.58,1.31,0.58c0.72,0,1.12-0.32,1.31-0.58
		c0.36-0.47,0.36-1.08,0.36-1.6v-4.36h1.3v4.5c0,0.92-0.09,1.6-0.68,2.25c-0.67,0.7-1.55,0.94-2.29,0.94s-1.62-0.23-2.29-0.94
		c-0.59-0.65-0.68-1.33-0.68-2.25v-4.5h1.3V1718.74z"/>
	<path class="st4" d="M305.55,1714.39h1.3v7.47h-1.3v-1.04c-0.43,0.56-1.24,1.26-2.56,1.26c-1.89,0-3.64-1.33-3.64-3.96
		c0-2.58,1.73-3.91,3.64-3.91c1.44,0,2.21,0.79,2.56,1.24V1714.39z M300.69,1718.11c0,1.6,0.9,2.81,2.45,2.81
		c1.58,0,2.48-1.31,2.48-2.79c0-1.93-1.33-2.77-2.48-2.77C301.86,1715.36,300.69,1716.3,300.69,1718.11z M305.55,1710.48l-2.41,2.43
		l-0.81-0.43l1.89-2.61L305.55,1710.48z"/>
	<path class="st4" d="M309.29,1714.39h1.3v0.81c0.13-0.2,0.68-0.99,1.69-0.99c0.4,0,0.83,0.14,1.15,0.31l-0.61,1.17
		c-0.29-0.2-0.56-0.25-0.76-0.25c-0.52,0-0.85,0.22-1.04,0.47c-0.22,0.29-0.43,0.79-0.43,2.02v3.94h-1.3V1714.39z"/>
	<path class="st4" d="M315.27,1710.64c0.5,0,0.92,0.41,0.92,0.92c0,0.5-0.41,0.92-0.92,0.92c-0.5,0-0.92-0.41-0.92-0.92
		C314.35,1711.06,314.77,1710.64,315.27,1710.64z M315.92,1714.39v7.47h-1.3v-7.47H315.92z"/>
	<path class="st4" d="M317.9,1718.15c0-2.27,1.67-3.94,3.96-3.94c2.29,0,3.96,1.67,3.96,3.94s-1.69,3.92-3.96,3.92
		S317.9,1720.42,317.9,1718.15z M319.23,1718.15c0,1.84,1.3,2.77,2.63,2.77c1.35,0,2.63-0.95,2.63-2.77c0-1.84-1.26-2.79-2.63-2.79
		C320.49,1715.36,319.23,1716.33,319.23,1718.15z"/>
</g>
<g>
	<path class="st4" d="M206.11,1796.99c-0.38-0.38-0.95-0.83-1.57-1.12c-0.63-0.29-1.37-0.47-2.07-0.47c-2.77,0-4.83,2.23-4.83,5.01
		c0,3.26,2.65,4.9,4.84,4.9c0.81,0,1.6-0.23,2.23-0.56c0.68-0.34,1.17-0.79,1.39-1.01v1.66c-1.33,0.95-2.72,1.17-3.62,1.17
		c-3.57,0-6.21-2.7-6.21-6.18c0-3.58,2.68-6.25,6.28-6.25c0.72,0,2.11,0.09,3.55,1.19V1796.99z"/>
	<path class="st4" d="M208.23,1798.88h1.3v0.81c0.13-0.2,0.68-0.99,1.69-0.99c0.4,0,0.83,0.14,1.15,0.31l-0.61,1.17
		c-0.29-0.2-0.56-0.25-0.76-0.25c-0.52,0-0.85,0.22-1.04,0.47c-0.22,0.29-0.43,0.79-0.43,2.02v3.94h-1.3V1798.88z"/>
	<path class="st4" d="M214.2,1795.14c0.5,0,0.92,0.41,0.92,0.92c0,0.5-0.41,0.92-0.92,0.92s-0.92-0.41-0.92-0.92
		C213.29,1795.55,213.7,1795.14,214.2,1795.14z M214.85,1798.88v7.47h-1.3v-7.47H214.85z"/>
	<path class="st4" d="M223.02,1798.88h1.3v7.47h-1.3v-1.04c-0.43,0.56-1.24,1.26-2.56,1.26c-1.89,0-3.64-1.33-3.64-3.96
		c0-2.58,1.73-3.91,3.64-3.91c1.44,0,2.21,0.79,2.56,1.24V1798.88z M218.16,1802.61c0,1.6,0.9,2.81,2.45,2.81
		c1.58,0,2.48-1.31,2.48-2.79c0-1.93-1.33-2.77-2.48-2.77C219.33,1799.85,218.16,1800.79,218.16,1802.61z"/>
	<path class="st4" d="M226.77,1798.88h1.3v0.81c0.13-0.2,0.68-0.99,1.69-0.99c0.4,0,0.83,0.14,1.15,0.31l-0.61,1.17
		c-0.29-0.2-0.56-0.25-0.76-0.25c-0.52,0-0.85,0.22-1.04,0.47c-0.22,0.29-0.43,0.79-0.43,2.02v3.94h-1.3V1798.88z"/>
	<path class="st4" d="M237.58,1810.49h-1.3v-11.61h1.3v1.04c0.88-1.1,2.02-1.22,2.56-1.22c2.34,0,3.64,1.94,3.64,3.96
		c0,2.05-1.31,3.91-3.58,3.91c-1.21,0-2.05-0.54-2.61-1.26V1810.49z M242.45,1802.66c0-1.84-1.24-2.81-2.45-2.81
		s-2.49,0.99-2.49,2.79c0,1.53,0.97,2.77,2.5,2.77C241.53,1805.42,242.45,1804.16,242.45,1802.66z"/>
	<path class="st4" d="M247.05,1793.23v13.13h-1.3v-13.13H247.05z"/>
	<path class="st4" d="M255.22,1798.88h1.3v7.47h-1.3v-1.04c-0.43,0.56-1.24,1.26-2.56,1.26c-1.89,0-3.64-1.33-3.64-3.96
		c0-2.58,1.73-3.91,3.64-3.91c1.44,0,2.21,0.79,2.56,1.24V1798.88z M250.36,1802.61c0,1.6,0.9,2.81,2.45,2.81
		c1.58,0,2.48-1.31,2.48-2.79c0-1.93-1.33-2.77-2.48-2.77C251.53,1799.85,250.36,1800.79,250.36,1802.61z"/>
	<path class="st4" d="M261.33,1805.65l-3.44-6.77h1.48l2.65,5.35l2.43-5.35h1.44l-5.49,11.61h-1.44L261.33,1805.65z"/>
	<path class="st4" d="M268.54,1793.23v13.13h-1.3v-13.13H268.54z"/>
	<path class="st4" d="M271.64,1795.14c0.5,0,0.92,0.41,0.92,0.92c0,0.5-0.41,0.92-0.92,0.92s-0.92-0.41-0.92-0.92
		C270.72,1795.55,271.13,1795.14,271.64,1795.14z M272.29,1798.88v7.47h-1.3v-7.47H272.29z"/>
	<path class="st4" d="M277.81,1800.61c-0.18-0.43-0.56-0.76-1.04-0.76c-0.47,0-0.9,0.27-0.9,0.85c0,0.54,0.36,0.7,1.21,1.06
		c1.08,0.45,1.58,0.79,1.87,1.15c0.32,0.4,0.4,0.79,0.4,1.21c0,1.57-1.13,2.45-2.58,2.45c-0.31,0-1.98-0.04-2.61-1.91l1.12-0.47
		c0.14,0.4,0.58,1.22,1.51,1.22c0.85,0,1.22-0.63,1.22-1.19c0-0.7-0.5-0.94-1.21-1.24c-0.9-0.4-1.48-0.68-1.82-1.1
		c-0.29-0.36-0.34-0.72-0.34-1.1c0-1.31,0.92-2.09,2.18-2.09c0.4,0,1.46,0.07,2.05,1.35L277.81,1800.61z"/>
	<path class="st4" d="M282.4,1800.07v6.28h-1.3v-6.28h-0.79v-1.19h0.79v-2.7h1.3v2.7h1.3v1.19H282.4z"/>
	<path class="st4" d="M288,1800.61c-0.18-0.43-0.56-0.76-1.04-0.76c-0.47,0-0.9,0.27-0.9,0.85c0,0.54,0.36,0.7,1.21,1.06
		c1.08,0.45,1.58,0.79,1.87,1.15c0.32,0.4,0.4,0.79,0.4,1.21c0,1.57-1.13,2.45-2.58,2.45c-0.31,0-1.98-0.04-2.61-1.91l1.12-0.47
		c0.14,0.4,0.58,1.22,1.51,1.22c0.85,0,1.22-0.63,1.22-1.19c0-0.7-0.5-0.94-1.21-1.24c-0.9-0.4-1.48-0.68-1.82-1.1
		c-0.29-0.36-0.34-0.72-0.34-1.1c0-1.31,0.92-2.09,2.18-2.09c0.4,0,1.46,0.07,2.05,1.35L288,1800.61z"/>
</g>
<g>
	<path class="st4" d="M200.72,1837.85h-4.9v3.56h4.75v1.26h-4.75v4.66h4.9v1.26h-6.23v-12.01h6.23V1837.85z"/>
	<path class="st4" d="M208.57,1835.47h1.3v13.13h-1.3v-1.04c-0.43,0.56-1.24,1.26-2.56,1.26c-1.89,0-3.64-1.33-3.64-3.96
		c0-2.58,1.73-3.91,3.64-3.91c1.44,0,2.21,0.79,2.56,1.24V1835.47z M203.71,1844.86c0,1.6,0.9,2.81,2.45,2.81
		c1.58,0,2.48-1.31,2.48-2.79c0-1.93-1.33-2.77-2.48-2.77C204.88,1842.1,203.71,1843.04,203.71,1844.86z"/>
	<path class="st4" d="M212.78,1837.38c0.5,0,0.92,0.41,0.92,0.92c0,0.5-0.41,0.92-0.92,0.92s-0.92-0.41-0.92-0.92
		C211.86,1837.8,212.28,1837.38,212.78,1837.38z M213.43,1841.13v7.47h-1.3v-7.47H213.43z"/>
	<path class="st4" d="M217.21,1842.32v6.28h-1.3v-6.28h-0.79v-1.19h0.79v-2.7h1.3v2.7h1.3v1.19H217.21z"/>
	<path class="st4" d="M225.45,1841.13h1.3v7.47h-1.3v-1.04c-0.43,0.56-1.24,1.26-2.56,1.26c-1.89,0-3.64-1.33-3.64-3.96
		c0-2.58,1.73-3.91,3.64-3.91c1.44,0,2.21,0.79,2.56,1.24V1841.13z M220.59,1844.86c0,1.6,0.9,2.81,2.45,2.81
		c1.58,0,2.48-1.31,2.48-2.79c0-1.93-1.33-2.77-2.48-2.77C221.76,1842.1,220.59,1843.04,220.59,1844.86z"/>
	<path class="st4" d="M229.2,1841.13h1.3v0.81c0.13-0.2,0.68-0.99,1.69-0.99c0.4,0,0.83,0.14,1.15,0.31l-0.61,1.17
		c-0.29-0.2-0.56-0.25-0.76-0.25c-0.52,0-0.85,0.22-1.04,0.47c-0.22,0.29-0.43,0.79-0.43,2.02v3.94h-1.3V1841.13z"/>
	<path class="st4" d="M240.01,1852.74h-1.3v-11.61h1.3v1.04c0.88-1.1,2.02-1.22,2.56-1.22c2.34,0,3.64,1.94,3.64,3.96
		c0,2.05-1.31,3.91-3.58,3.91c-1.21,0-2.05-0.54-2.61-1.26V1852.74z M244.87,1844.91c0-1.84-1.24-2.81-2.45-2.81
		s-2.49,0.99-2.49,2.79c0,1.53,0.97,2.77,2.5,2.77C243.96,1847.66,244.87,1846.4,244.87,1844.91z"/>
	<path class="st4" d="M249.48,1835.47v13.13h-1.3v-13.13H249.48z"/>
	<path class="st4" d="M257.65,1841.13h1.3v7.47h-1.3v-1.04c-0.43,0.56-1.24,1.26-2.56,1.26c-1.89,0-3.64-1.33-3.64-3.96
		c0-2.58,1.73-3.91,3.64-3.91c1.44,0,2.21,0.79,2.56,1.24V1841.13z M252.79,1844.86c0,1.6,0.9,2.81,2.45,2.81
		c1.58,0,2.48-1.31,2.48-2.79c0-1.93-1.33-2.77-2.48-2.77C253.96,1842.1,252.79,1843.04,252.79,1844.86z"/>
	<path class="st4" d="M263.76,1847.9l-3.44-6.77h1.48l2.65,5.35l2.43-5.35h1.44l-5.49,11.61h-1.44L263.76,1847.9z"/>
	<path class="st4" d="M270.97,1835.47v13.13h-1.3v-13.13H270.97z"/>
	<path class="st4" d="M274.07,1837.38c0.5,0,0.92,0.41,0.92,0.92c0,0.5-0.41,0.92-0.92,0.92s-0.92-0.41-0.92-0.92
		C273.15,1837.8,273.56,1837.38,274.07,1837.38z M274.72,1841.13v7.47h-1.3v-7.47H274.72z"/>
	<path class="st4" d="M280.24,1842.86c-0.18-0.43-0.56-0.76-1.04-0.76c-0.47,0-0.9,0.27-0.9,0.85c0,0.54,0.36,0.7,1.21,1.06
		c1.08,0.45,1.58,0.79,1.87,1.15c0.32,0.4,0.4,0.79,0.4,1.21c0,1.57-1.13,2.45-2.58,2.45c-0.31,0-1.98-0.04-2.61-1.91l1.12-0.47
		c0.14,0.4,0.58,1.22,1.51,1.22c0.85,0,1.22-0.63,1.22-1.19c0-0.7-0.5-0.94-1.21-1.24c-0.9-0.4-1.48-0.68-1.82-1.1
		c-0.29-0.36-0.34-0.72-0.34-1.1c0-1.31,0.92-2.09,2.18-2.09c0.4,0,1.46,0.07,2.05,1.35L280.24,1842.86z"/>
	<path class="st4" d="M284.83,1842.32v6.28h-1.3v-6.28h-0.79v-1.19h0.79v-2.7h1.3v2.7h1.3v1.19H284.83z"/>
	<path class="st4" d="M290.43,1842.86c-0.18-0.43-0.56-0.76-1.04-0.76c-0.47,0-0.9,0.27-0.9,0.85c0,0.54,0.36,0.7,1.21,1.06
		c1.08,0.45,1.58,0.79,1.87,1.15c0.32,0.4,0.4,0.79,0.4,1.21c0,1.57-1.13,2.45-2.58,2.45c-0.31,0-1.98-0.04-2.61-1.91l1.12-0.47
		c0.14,0.4,0.58,1.22,1.51,1.22c0.85,0,1.22-0.63,1.22-1.19c0-0.7-0.5-0.94-1.21-1.24c-0.9-0.4-1.48-0.68-1.82-1.1
		c-0.29-0.36-0.34-0.72-0.34-1.1c0-1.31,0.92-2.09,2.18-2.09c0.4,0,1.46,0.07,2.05,1.35L290.43,1842.86z"/>
</g>
<g>
	<path class="st4" d="M181.11,1881.34c-0.16-0.32-0.43-0.68-0.7-0.9c-0.23-0.18-0.67-0.41-1.35-0.41c-1.19,0-2.02,0.74-2.02,1.85
		c0,0.47,0.13,0.74,0.45,1.04c0.36,0.36,0.81,0.56,1.26,0.76l1.15,0.5c0.7,0.31,1.35,0.63,1.85,1.13c0.61,0.61,0.87,1.31,0.87,2.18
		c0,2.21-1.64,3.69-3.8,3.69c-0.79,0-1.78-0.16-2.61-0.97c-0.59-0.58-0.95-1.41-1.12-2.12l1.3-0.36c0.09,0.63,0.38,1.17,0.72,1.53
		c0.52,0.52,1.12,0.67,1.73,0.67c1.64,0,2.41-1.17,2.41-2.38c0-0.54-0.16-1.01-0.59-1.4c-0.34-0.32-0.81-0.54-1.44-0.83l-1.08-0.5
		c-0.47-0.22-1.06-0.47-1.6-0.99c-0.52-0.5-0.83-1.06-0.83-1.96c0-1.85,1.42-3.1,3.37-3.1c0.74,0,1.33,0.14,1.93,0.54
		c0.49,0.32,0.9,0.81,1.17,1.33L181.11,1881.34z"/>
	<path class="st4" d="M190.47,1883.5h1.3v7.47h-1.3v-1.04c-0.43,0.56-1.24,1.26-2.56,1.26c-1.89,0-3.64-1.33-3.64-3.96
		c0-2.58,1.73-3.91,3.64-3.91c1.44,0,2.21,0.79,2.56,1.24V1883.5z M185.61,1887.23c0,1.6,0.9,2.81,2.45,2.81
		c1.59,0,2.49-1.31,2.49-2.79c0-1.93-1.33-2.77-2.49-2.77C186.78,1884.48,185.61,1885.41,185.61,1887.23z"/>
	<path class="st4" d="M195.51,1877.85v13.13h-1.29v-13.13H195.51z"/>
	<path class="st4" d="M198.32,1883.5l2.23,5.04l2.23-5.04h1.44l-3.67,7.96l-3.67-7.96H198.32z"/>
	<path class="st4" d="M211.32,1883.5h1.3v7.47h-1.3v-1.04c-0.43,0.56-1.24,1.26-2.56,1.26c-1.89,0-3.64-1.33-3.64-3.96
		c0-2.58,1.73-3.91,3.64-3.91c1.44,0,2.21,0.79,2.56,1.24V1883.5z M206.45,1887.23c0,1.6,0.9,2.81,2.45,2.81
		c1.58,0,2.48-1.31,2.48-2.79c0-1.93-1.33-2.77-2.48-2.77C207.62,1884.48,206.45,1885.41,206.45,1887.23z M211.32,1879.6l-2.41,2.43
		l-0.81-0.43l1.89-2.61L211.32,1879.6z"/>
	<path class="st4" d="M214.73,1886.48h3.96v1.33h-3.96V1886.48z"/>
	<path class="st4" d="M222.11,1877.85v13.13h-1.3v-13.13H222.11z"/>
	<path class="st4" d="M230.29,1883.5h1.3v7.47h-1.3v-1.04c-0.43,0.56-1.24,1.26-2.56,1.26c-1.89,0-3.64-1.33-3.64-3.96
		c0-2.58,1.73-3.91,3.64-3.91c1.44,0,2.21,0.79,2.56,1.24V1883.5z M225.43,1887.23c0,1.6,0.9,2.81,2.45,2.81
		c1.59,0,2.49-1.31,2.49-2.79c0-1.93-1.33-2.77-2.49-2.77C226.6,1884.48,225.43,1885.41,225.43,1887.23z"/>
	<path class="st4" d="M237.11,1885.23c-0.18-0.43-0.56-0.76-1.04-0.76c-0.47,0-0.9,0.27-0.9,0.85c0,0.54,0.36,0.7,1.21,1.06
		c1.08,0.45,1.58,0.79,1.87,1.15c0.32,0.4,0.4,0.79,0.4,1.21c0,1.57-1.13,2.45-2.58,2.45c-0.3,0-1.98-0.04-2.61-1.91l1.12-0.47
		c0.14,0.4,0.58,1.22,1.51,1.22c0.85,0,1.22-0.63,1.22-1.19c0-0.7-0.5-0.94-1.21-1.24c-0.9-0.4-1.48-0.68-1.82-1.1
		c-0.29-0.36-0.34-0.72-0.34-1.1c0-1.31,0.92-2.09,2.18-2.09c0.4,0,1.46,0.07,2.05,1.35L237.11,1885.23z"/>
	<path class="st4" d="M244.56,1883.5h1.3v0.86c0.23-0.31,0.9-1.04,2.14-1.04c0.88,0,1.69,0.36,2.14,1.03c0.38,0.56,0.43,1.17,0.43,2
		v4.63h-1.3v-4.59c0-0.45-0.04-0.97-0.34-1.37c-0.25-0.32-0.65-0.54-1.22-0.54c-0.45,0-0.94,0.13-1.31,0.58
		c-0.5,0.59-0.54,1.48-0.54,2.02v3.91h-1.3V1883.5z"/>
	<path class="st4" d="M252.55,1887.27c0-2.27,1.67-3.94,3.96-3.94c2.29,0,3.96,1.67,3.96,3.94s-1.69,3.92-3.96,3.92
		C254.24,1891.19,252.55,1889.54,252.55,1887.27z M253.88,1887.27c0,1.84,1.3,2.77,2.63,2.77c1.35,0,2.63-0.95,2.63-2.77
		c0-1.84-1.26-2.79-2.63-2.79C255.14,1884.48,253.88,1885.45,253.88,1887.27z"/>
	<path class="st4" d="M269.72,1885.23c-0.18-0.43-0.56-0.76-1.04-0.76c-0.47,0-0.9,0.27-0.9,0.85c0,0.54,0.36,0.7,1.21,1.06
		c1.08,0.45,1.58,0.79,1.87,1.15c0.32,0.4,0.4,0.79,0.4,1.21c0,1.57-1.13,2.45-2.58,2.45c-0.3,0-1.98-0.04-2.61-1.91l1.12-0.47
		c0.14,0.4,0.58,1.22,1.51,1.22c0.85,0,1.22-0.63,1.22-1.19c0-0.7-0.5-0.94-1.21-1.24c-0.9-0.4-1.48-0.68-1.82-1.1
		c-0.29-0.36-0.34-0.72-0.34-1.1c0-1.31,0.92-2.09,2.18-2.09c0.4,0,1.46,0.07,2.05,1.35L269.72,1885.23z"/>
	<path class="st4" d="M274.28,1895.12h-1.29v-11.61h1.29v1.04c0.88-1.1,2.02-1.22,2.56-1.22c2.34,0,3.64,1.94,3.64,3.96
		c0,2.05-1.31,3.91-3.58,3.91c-1.21,0-2.05-0.54-2.61-1.26V1895.12z M279.14,1887.28c0-1.84-1.24-2.81-2.45-2.81
		c-1.21,0-2.49,0.99-2.49,2.79c0,1.53,0.97,2.77,2.5,2.77C278.22,1890.04,279.14,1888.78,279.14,1887.28z"/>
	<path class="st4" d="M281.98,1887.27c0-2.27,1.67-3.94,3.96-3.94s3.96,1.67,3.96,3.94s-1.69,3.92-3.96,3.92
		S281.98,1889.54,281.98,1887.27z M283.31,1887.27c0,1.84,1.29,2.77,2.63,2.77c1.35,0,2.63-0.95,2.63-2.77
		c0-1.84-1.26-2.79-2.63-2.79S283.31,1885.45,283.31,1887.27z"/>
	<path class="st4" d="M293.21,1884.69v6.28h-1.3v-6.28h-0.79v-1.19h0.79v-2.7h1.3v2.7h1.3v1.19H293.21z"/>
	<path class="st4" d="M296.38,1879.76c0.5,0,0.92,0.41,0.92,0.92c0,0.5-0.41,0.92-0.92,0.92s-0.92-0.41-0.92-0.92
		C295.46,1880.17,295.87,1879.76,296.38,1879.76z M297.03,1883.5v7.47h-1.3v-7.47H297.03z"/>
	<path class="st4" d="M300.81,1884.69v6.28h-1.3v-6.28h-0.72v-1.19h0.72v-3.26c0-0.68,0.05-1.55,0.72-2.11
		c0.36-0.31,0.9-0.49,1.49-0.49c0.47,0,0.78,0.11,0.92,0.16v1.26c-0.27-0.11-0.58-0.16-0.85-0.16c-0.29,0-0.63,0.07-0.83,0.4
		c-0.16,0.27-0.16,0.68-0.16,1.08v3.11h1.84v1.19H300.81z"/>
	<path class="st4" d="M306.51,1890.27l-3.44-6.77h1.48l2.65,5.35l2.43-5.35h1.44l-5.49,11.61h-1.44L306.51,1890.27z"/>
</g>
<g>
	<path class="st4" d="M173.21,1929.85h-5.11l-1.44,3.38h-1.48l5.53-12.59l5.38,12.59h-1.48L173.21,1929.85z M172.69,1928.59
		l-2.02-4.81l-2.05,4.81H172.69z"/>
	<path class="st4" d="M178.79,1926.95v6.28h-1.3v-6.28h-0.79v-1.19h0.79v-2.7h1.3v2.7h1.3v1.19H178.79z"/>
	<path class="st4" d="M182.61,1930.12c0,0.52,0,1.13,0.36,1.6c0.2,0.25,0.59,0.58,1.31,0.58c0.72,0,1.12-0.32,1.31-0.58
		c0.36-0.47,0.36-1.08,0.36-1.6v-4.36h1.3v4.5c0,0.92-0.09,1.6-0.68,2.25c-0.67,0.7-1.55,0.94-2.29,0.94s-1.62-0.23-2.29-0.94
		c-0.59-0.65-0.68-1.33-0.68-2.25v-4.5h1.3V1930.12z"/>
	<path class="st4" d="M195.42,1925.76h1.3v7.47h-1.3v-1.04c-0.43,0.56-1.24,1.26-2.56,1.26c-1.89,0-3.64-1.33-3.64-3.96
		c0-2.58,1.73-3.91,3.64-3.91c1.44,0,2.21,0.79,2.56,1.24V1925.76z M190.56,1929.49c0,1.6,0.9,2.81,2.45,2.81
		c1.58,0,2.49-1.31,2.49-2.79c0-1.93-1.33-2.77-2.49-2.77C191.73,1926.73,190.56,1927.67,190.56,1929.49z"/>
	<path class="st4" d="M200.46,1920.11v13.13h-1.3v-13.13H200.46z"/>
	<path class="st4" d="M203.56,1922.01c0.5,0,0.92,0.41,0.92,0.92c0,0.5-0.42,0.92-0.92,0.92s-0.92-0.41-0.92-0.92
		C202.64,1922.43,203.05,1922.01,203.56,1922.01z M204.21,1925.76v7.47h-1.3v-7.47H204.21z"/>
	<path class="st4" d="M208.16,1932.04h5.19v1.19h-7.78l5.4-6.28h-4.36v-1.19h6.95L208.16,1932.04z"/>
	<path class="st4" d="M220.48,1925.76h1.3v7.47h-1.3v-1.04c-0.43,0.56-1.24,1.26-2.56,1.26c-1.89,0-3.64-1.33-3.64-3.96
		c0-2.58,1.73-3.91,3.64-3.91c1.44,0,2.21,0.79,2.56,1.24V1925.76z M215.62,1929.49c0,1.6,0.9,2.81,2.45,2.81
		c1.58,0,2.48-1.31,2.48-2.79c0-1.93-1.33-2.77-2.48-2.77C216.79,1926.73,215.62,1927.67,215.62,1929.49z M220.48,1921.85
		l-2.41,2.43l-0.81-0.43l1.89-2.61L220.48,1921.85z"/>
	<path class="st4" d="M223.9,1928.73h3.96v1.33h-3.96V1928.73z"/>
	<path class="st4" d="M231.28,1920.11v13.13h-1.3v-13.13H231.28z"/>
	<path class="st4" d="M239.45,1925.76h1.3v7.47h-1.3v-1.04c-0.43,0.56-1.24,1.26-2.56,1.26c-1.89,0-3.64-1.33-3.64-3.96
		c0-2.58,1.73-3.91,3.64-3.91c1.44,0,2.21,0.79,2.56,1.24V1925.76z M234.59,1929.49c0,1.6,0.9,2.81,2.45,2.81
		c1.58,0,2.49-1.31,2.49-2.79c0-1.93-1.33-2.77-2.49-2.77C235.76,1926.73,234.59,1927.67,234.59,1929.49z"/>
	<path class="st4" d="M246.27,1927.49c-0.18-0.43-0.56-0.76-1.04-0.76c-0.47,0-0.9,0.27-0.9,0.85c0,0.54,0.36,0.7,1.21,1.06
		c1.08,0.45,1.58,0.79,1.87,1.15c0.32,0.4,0.4,0.79,0.4,1.21c0,1.57-1.13,2.45-2.58,2.45c-0.31,0-1.98-0.04-2.61-1.91l1.12-0.47
		c0.14,0.4,0.58,1.22,1.51,1.22c0.85,0,1.22-0.63,1.22-1.19c0-0.7-0.5-0.94-1.21-1.24c-0.9-0.4-1.48-0.68-1.82-1.1
		c-0.29-0.36-0.34-0.72-0.34-1.1c0-1.31,0.92-2.09,2.18-2.09c0.4,0,1.46,0.07,2.05,1.35L246.27,1927.49z"/>
	<path class="st4" d="M253.72,1925.76h1.3v0.86c0.23-0.31,0.9-1.04,2.14-1.04c0.88,0,1.69,0.36,2.14,1.03
		c0.38,0.56,0.43,1.17,0.43,2v4.63h-1.3v-4.59c0-0.45-0.04-0.97-0.34-1.37c-0.25-0.32-0.65-0.54-1.22-0.54
		c-0.45,0-0.94,0.13-1.31,0.58c-0.5,0.59-0.54,1.48-0.54,2.02v3.91h-1.3V1925.76z"/>
	<path class="st4" d="M261.71,1929.52c0-2.27,1.67-3.94,3.96-3.94c2.29,0,3.96,1.67,3.96,3.94s-1.69,3.92-3.96,3.92
		S261.71,1931.79,261.71,1929.52z M263.04,1929.52c0,1.84,1.3,2.77,2.63,2.77c1.35,0,2.63-0.95,2.63-2.77
		c0-1.84-1.26-2.79-2.63-2.79C264.31,1926.73,263.04,1927.7,263.04,1929.52z"/>
	<path class="st4" d="M278.89,1927.49c-0.18-0.43-0.56-0.76-1.04-0.76c-0.47,0-0.9,0.27-0.9,0.85c0,0.54,0.36,0.7,1.21,1.06
		c1.08,0.45,1.58,0.79,1.87,1.15c0.32,0.4,0.4,0.79,0.4,1.21c0,1.57-1.13,2.45-2.58,2.45c-0.31,0-1.98-0.04-2.61-1.91l1.12-0.47
		c0.14,0.4,0.58,1.22,1.51,1.22c0.85,0,1.22-0.63,1.22-1.19c0-0.7-0.5-0.94-1.21-1.24c-0.9-0.4-1.48-0.68-1.82-1.1
		c-0.29-0.36-0.34-0.72-0.34-1.1c0-1.31,0.92-2.09,2.18-2.09c0.4,0,1.46,0.07,2.05,1.35L278.89,1927.49z"/>
	<path class="st4" d="M283.44,1937.37h-1.3v-11.61h1.3v1.04c0.88-1.1,2.02-1.22,2.56-1.22c2.34,0,3.64,1.94,3.64,3.96
		c0,2.05-1.31,3.91-3.58,3.91c-1.21,0-2.05-0.54-2.61-1.26V1937.37z M288.3,1929.54c0-1.84-1.24-2.81-2.45-2.81
		s-2.48,0.99-2.48,2.79c0,1.53,0.97,2.77,2.5,2.77C287.38,1932.29,288.3,1931.03,288.3,1929.54z"/>
	<path class="st4" d="M291.14,1929.52c0-2.27,1.67-3.94,3.96-3.94c2.29,0,3.96,1.67,3.96,3.94s-1.69,3.92-3.96,3.92
		S291.14,1931.79,291.14,1929.52z M292.47,1929.52c0,1.84,1.3,2.77,2.63,2.77c1.35,0,2.63-0.95,2.63-2.77
		c0-1.84-1.26-2.79-2.63-2.79S292.47,1927.7,292.47,1929.52z"/>
	<path class="st4" d="M302.37,1926.95v6.28h-1.3v-6.28h-0.79v-1.19h0.79v-2.7h1.3v2.7h1.3v1.19H302.37z"/>
	<path class="st4" d="M305.54,1922.01c0.5,0,0.92,0.41,0.92,0.92c0,0.5-0.41,0.92-0.92,0.92c-0.5,0-0.92-0.41-0.92-0.92
		C304.62,1922.43,305.04,1922.01,305.54,1922.01z M306.19,1925.76v7.47h-1.3v-7.47H306.19z"/>
	<path class="st4" d="M309.97,1926.95v6.28h-1.3v-6.28h-0.72v-1.19h0.72v-3.26c0-0.68,0.05-1.55,0.72-2.11
		c0.36-0.31,0.9-0.49,1.49-0.49c0.47,0,0.77,0.11,0.92,0.16v1.26c-0.27-0.11-0.58-0.16-0.85-0.16c-0.29,0-0.63,0.07-0.83,0.4
		c-0.16,0.27-0.16,0.68-0.16,1.08v3.11h1.84v1.19H309.97z"/>
	<path class="st4" d="M315.67,1932.53l-3.44-6.77h1.48l2.65,5.35l2.43-5.35h1.44l-5.49,11.61h-1.44L315.67,1932.53z"/>
</g>
<g>
	<path class="st4" d="M242.7,717.6c-9.27,0-16.79,7.52-16.79,16.79c0,9.27,7.52,16.79,16.79,16.79s16.79-7.52,16.79-16.79
		C259.49,725.12,251.98,717.6,242.7,717.6z M250.39,741.84c-0.21,0.34-0.57,0.53-0.95,0.53c-0.19,0-0.39-0.05-0.57-0.16
		c-6.61-3.98-14.45-1.68-14.53-1.65c-0.58,0.18-1.2-0.15-1.38-0.73c-0.18-0.58,0.15-1.2,0.73-1.38c0.36-0.11,8.84-2.62,16.31,1.87
		C250.54,740.65,250.7,741.32,250.39,741.84z M252.48,737.2c-0.24,0.42-0.68,0.65-1.13,0.65c-0.22,0-0.44-0.06-0.65-0.17
		c-8.31-4.78-16.67-2-16.76-1.97c-0.68,0.23-1.42-0.13-1.66-0.81c-0.23-0.68,0.13-1.42,0.81-1.66c0.39-0.13,9.58-3.19,18.9,2.17
		C252.62,735.78,252.83,736.57,252.48,737.2z M253.41,732.71c-0.25,0-0.51-0.06-0.74-0.18c-9.57-5.03-19.41-2.02-19.5-1.99
		c-0.85,0.27-1.75-0.2-2.01-1.05c-0.27-0.84,0.2-1.75,1.05-2.01c0.45-0.14,11.22-3.44,21.96,2.21c0.78,0.41,1.09,1.38,0.67,2.17
		C254.54,732.4,253.98,732.71,253.41,732.71z"/>
</g>
<g>
	<path class="st4" d="M242.7,1247.66c-6.52,0-11.8,5.28-11.8,11.8s5.28,11.8,11.8,11.8c6.52,0,11.8-5.28,11.8-11.8
		S249.22,1247.66,242.7,1247.66z M248.11,1264.7c-0.15,0.24-0.4,0.38-0.66,0.38c-0.14,0-0.27-0.04-0.4-0.11
		c-4.65-2.8-10.16-1.18-10.21-1.16c-0.41,0.12-0.84-0.11-0.97-0.52c-0.12-0.41,0.11-0.84,0.51-0.97c0.25-0.08,6.21-1.84,11.46,1.32
		C248.21,1263.86,248.33,1264.33,248.11,1264.7z M249.57,1261.43c-0.17,0.29-0.48,0.46-0.8,0.46c-0.16,0-0.31-0.04-0.46-0.12
		c-5.84-3.36-11.72-1.4-11.78-1.38c-0.48,0.16-1-0.09-1.16-0.57c-0.16-0.48,0.09-1,0.57-1.16c0.27-0.09,6.73-2.24,13.29,1.53
		C249.67,1260.43,249.83,1260.99,249.57,1261.43z M250.23,1258.28c-0.18,0-0.36-0.04-0.52-0.13c-6.73-3.53-13.64-1.42-13.71-1.4
		c-0.59,0.19-1.23-0.14-1.41-0.74c-0.19-0.59,0.14-1.23,0.74-1.41c0.32-0.1,7.89-2.42,15.44,1.55c0.55,0.29,0.76,0.97,0.47,1.52
		C251.03,1258.06,250.63,1258.28,250.23,1258.28z"/>
</g>
<g>
	<g>
		<g>
			<path class="st2" d="M224.6,360.16c0.91,0,1.76,0.05,2.61-0.01c3.68-0.24,7.15-1.29,10.42-2.97c1.6-0.82,3.13-1.78,4.67-2.72
				c0.31-0.19,0.5-0.22,0.81,0c2.78,1.96,5.79,3.45,9.01,4.51c2.59,0.85,5.25,1.27,7.98,1.26c0.21,0,0.43,0,0.7,0
				c0,0.23,0,0.41,0,0.59c0,5.31-0.04,10.61,0.02,15.92c0.04,2.88-0.71,5.5-2.23,7.91c-2.89,4.57-6.83,7.93-11.76,10.15
				c-2.99,1.35-5.92,1.16-8.82-0.24c-5.03-2.44-9.06-5.98-11.78-10.92c-1.11-2.01-1.66-4.16-1.64-6.48
				c0.03-5.43,0.01-10.86,0.01-16.29C224.6,360.69,224.6,360.5,224.6,360.16z"/>
		</g>
	</g>
	<g>
		<g>
			<path class="st4" d="M223.41,359.19c0.96,0,1.87,0.05,2.78-0.01c3.92-0.26,7.62-1.37,11.1-3.16c1.7-0.88,3.33-1.9,4.97-2.89
				c0.33-0.2,0.53-0.24,0.86,0c2.96,2.08,6.17,3.67,9.6,4.8c2.75,0.91,5.6,1.35,8.5,1.34c0.23,0,0.46,0,0.75,0c0,0.24,0,0.44,0,0.63
				c0,5.65-0.05,11.31,0.03,16.96c0.04,3.07-0.75,5.86-2.37,8.43c-3.07,4.87-7.27,8.45-12.53,10.81c-3.19,1.43-6.31,1.24-9.4-0.26
				c-5.36-2.6-9.65-6.38-12.55-11.63c-1.18-2.14-1.77-4.43-1.75-6.9c0.03-5.78,0.01-11.57,0.01-17.35
				C223.41,359.75,223.41,359.55,223.41,359.19z M226.19,362.1c0,0.14,0,0.34,0,0.53c0,4.92,0.02,9.84-0.01,14.76
				c-0.01,1.82,0.37,3.53,1.21,5.12c2.67,5.07,6.72,8.66,11.9,11.04c2.31,1.06,4.61,1.01,6.92-0.03c4.54-2.06,8.16-5.19,10.9-9.35
				c1.47-2.24,2.19-4.68,2.14-7.41c-0.09-4.74-0.03-9.48-0.03-14.22c0-0.19,0-0.38,0-0.51c-1.29-0.19-2.49-0.33-3.67-0.55
				c-4.41-0.8-8.41-2.63-12.22-4.93c-0.5-0.3-0.81-0.25-1.26,0.02c-3.28,1.97-6.7,3.63-10.43,4.52
				C229.85,361.51,228.05,361.76,226.19,362.1z"/>
		</g>
		<g>
			<path class="st4" d="M245.53,375.05c1.04,0.73,2.1,1.48,3.23,2.27c-0.77,0.71-1.44,1.31-2.13,1.94c-0.88-0.89-1.9-1.54-3.1-1.9
				c-4.5-1.35-9.03,1.94-9.18,6.66c-0.03,0.99-0.63,1.61-1.49,1.53c-0.79-0.07-1.32-0.68-1.27-1.55c0.2-3.98,2.08-6.89,5.61-8.73
				c0.1-0.05,0.2-0.1,0.35-0.18c-1.76-1.51-2.63-3.37-2.42-5.67c0.14-1.56,0.81-2.89,1.95-3.96c2.54-2.38,6.29-2.34,8.81,0
				C248.04,367.46,249.14,371.95,245.53,375.05z M241.49,373.69c2,0,3.6-1.6,3.61-3.59c0.01-2.02-1.62-3.65-3.62-3.65
				c-2,0.01-3.65,1.67-3.62,3.65C237.88,372.1,239.5,373.7,241.49,373.69z"/>
		</g>
		<g>
			<path class="st4" d="M246.88,384.22c0.21-0.25,0.37-0.5,0.58-0.71c2.18-2.18,4.36-4.36,6.53-6.54c0.34-0.34,0.71-0.61,1.21-0.59
				c0.54,0.02,0.95,0.28,1.19,0.76c0.23,0.46,0.2,0.94-0.08,1.37c-0.12,0.18-0.27,0.33-0.42,0.48c-2.62,2.62-5.25,5.24-7.88,7.86
				c-0.97,0.97-1.68,0.94-2.59-0.09c-1.24-1.4-2.47-2.81-3.71-4.21c-0.39-0.45-0.54-0.94-0.32-1.51c0.2-0.5,0.59-0.79,1.13-0.85
				c0.54-0.06,0.95,0.18,1.3,0.58c0.87,1,1.75,1.99,2.63,2.98C246.57,383.89,246.68,384.01,246.88,384.22z"/>
		</g>
	</g>
</g>
<g>
	<g>
		<g>
			<path class="st2" d="M224.99,1064.15c0.91,0,1.76,0.05,2.61-0.01c3.68-0.24,7.15-1.29,10.42-2.97c1.6-0.82,3.13-1.78,4.67-2.72
				c0.31-0.19,0.5-0.22,0.81,0c2.78,1.96,5.79,3.45,9.01,4.51c2.59,0.85,5.25,1.27,7.98,1.26c0.21,0,0.43,0,0.7,0
				c0,0.23,0,0.41,0,0.59c0,5.31-0.04,10.61,0.02,15.92c0.04,2.88-0.71,5.5-2.23,7.91c-2.89,4.57-6.83,7.93-11.76,10.15
				c-2.99,1.35-5.92,1.16-8.82-0.24c-5.03-2.44-9.06-5.98-11.78-10.92c-1.11-2.01-1.66-4.16-1.64-6.48
				c0.03-5.43,0.01-10.86,0.01-16.29C224.99,1064.67,224.99,1064.48,224.99,1064.15z"/>
		</g>
	</g>
	<g>
		<g>
			<path class="st4" d="M223.41,1063.9c0.96,0,1.87,0.05,2.78-0.01c3.92-0.26,7.62-1.37,11.1-3.16c1.7-0.88,3.33-1.9,4.97-2.89
				c0.33-0.2,0.53-0.24,0.86,0c2.96,2.08,6.17,3.67,9.6,4.8c2.75,0.91,5.6,1.35,8.5,1.34c0.23,0,0.46,0,0.75,0c0,0.24,0,0.44,0,0.63
				c0,5.65-0.05,11.31,0.03,16.96c0.04,3.07-0.75,5.86-2.37,8.43c-3.07,4.87-7.27,8.45-12.53,10.81c-3.19,1.43-6.31,1.24-9.4-0.26
				c-5.36-2.6-9.65-6.38-12.55-11.63c-1.18-2.14-1.77-4.43-1.75-6.9c0.03-5.78,0.01-11.57,0.01-17.35
				C223.41,1064.46,223.41,1064.26,223.41,1063.9z M226.19,1066.8c0,0.14,0,0.34,0,0.53c0,4.92,0.02,9.84-0.01,14.76
				c-0.01,1.82,0.37,3.53,1.21,5.12c2.67,5.07,6.72,8.66,11.9,11.04c2.31,1.06,4.61,1.01,6.92-0.03c4.54-2.06,8.16-5.19,10.9-9.35
				c1.47-2.24,2.19-4.68,2.14-7.41c-0.09-4.74-0.03-9.48-0.03-14.22c0-0.19,0-0.38,0-0.51c-1.29-0.19-2.49-0.33-3.67-0.55
				c-4.41-0.8-8.41-2.63-12.22-4.93c-0.5-0.3-0.81-0.25-1.26,0.02c-3.28,1.97-6.7,3.63-10.43,4.52
				C229.85,1066.21,228.05,1066.46,226.19,1066.8z"/>
		</g>
		<g>
			<g>
				<path class="st4" d="M249.41,1077.06H236c-1.1,0-2-0.9-2-2s0.9-2,2-2h13.41c1.1,0,2,0.9,2,2S250.52,1077.06,249.41,1077.06z"/>
			</g>
			<g>
				<path class="st4" d="M242.71,1090.47c-1.1,0-2-0.9-2-2v-13.41c0-1.1,0.9-2,2-2s2,0.9,2,2v13.41
					C244.71,1089.57,243.81,1090.47,242.71,1090.47z"/>
			</g>
		</g>
	</g>
</g>
<g>
	<g>
		<g>
			<circle class="st2" cx="242.71" cy="1437.86" r="17.47"/>
		</g>
		<g>
			<path class="st4" d="M242.7,1421.88c8.81,0,15.97,7.17,15.97,15.97s-7.17,15.97-15.97,15.97c-8.81,0-15.97-7.17-15.97-15.97
				S233.9,1421.88,242.7,1421.88 M242.7,1418.88c-10.48,0-18.97,8.49-18.97,18.97c0,10.48,8.49,18.97,18.97,18.97
				c10.48,0,18.97-8.49,18.97-18.97C261.68,1427.38,253.18,1418.88,242.7,1418.88L242.7,1418.88z"/>
		</g>
	</g>
	<g>
		<g>
			<path class="st4" d="M240.47,1430.6c2.77,0,5.02,2.25,5.02,5.02s-2.25,5.02-5.02,5.02s-5.02-2.25-5.02-5.02
				S237.7,1430.6,240.47,1430.6 M240.47,1427.6c-4.43,0-8.02,3.59-8.02,8.02c0,4.43,3.59,8.02,8.02,8.02s8.02-3.59,8.02-8.02
				C248.49,1431.19,244.9,1427.6,240.47,1427.6L240.47,1427.6z"/>
		</g>
		<g>
			
				<rect x="245.52" y="1439.61" transform="matrix(0.7476 -0.6641 0.6641 0.7476 -896.4405 528.3804)" class="st4" width="3" height="8.24"/>
		</g>
	</g>
</g>
<g>
	<path class="st4" d="M444.54,1496.8H355.8v-1h88.74c3.05,0,5.52-2.48,5.52-5.52V136.41c0-3.05-2.48-5.52-5.52-5.52H248.59
		c-3.05,0-5.52,2.48-5.52,5.52v195.92h-1V136.41c0-3.6,2.93-6.52,6.52-6.52h195.95c3.6,0,6.52,2.93,6.52,6.52v1353.87
		C451.07,1493.88,448.14,1496.8,444.54,1496.8z"/>
</g>
<g>
	<g>
		<polygon class="st4" points="242.66,333.27 224.29,314.89 224.99,314.19 242.66,331.86 260.34,314.19 261.04,314.89 		"/>
	</g>
</g>
<g>
	<g>
		<rect x="242.59" y="1574.06" class="st4" width="1" height="46.72"/>
	</g>
	<g>
		<polygon class="st4" points="243.09,1621.49 224.71,1603.11 225.42,1602.41 243.09,1620.08 260.76,1602.41 261.47,1603.11 		"/>
	</g>
</g>
<g>
	<g>
		<polygon class="st4" points="373.07,1514.68 354.69,1496.3 373.07,1477.92 373.77,1478.63 356.1,1496.3 373.77,1513.97 		"/>
	</g>
</g>
<g>
	<rect x="156.01" y="107.02" class="st2" width="173.4" height="110.33"/>
</g>
<g>
	<path class="st2" d="M238.58,205.09L168,134.51c-2.35-2.35-2.35-6.17,0-8.52l70.32-70.32c2.35-2.35,6.17-2.35,8.52,0l70.58,70.58
		c2.35,2.35,2.35,6.17,0,8.52l-70.32,70.32C244.74,207.45,240.93,207.45,238.58,205.09z"/>
	<path class="st4" d="M242.84,207.36c-1.74,0-3.38-0.68-4.61-1.91l-70.58-70.58c-1.23-1.23-1.91-2.87-1.91-4.61s0.68-3.38,1.91-4.61
		l70.32-70.32c1.23-1.23,2.87-1.91,4.61-1.91s3.38,0.68,4.61,1.91l70.58,70.58c1.23,1.23,1.91,2.87,1.91,4.61s-0.68,3.38-1.91,4.61
		l-70.32,70.32C246.22,206.68,244.58,207.36,242.84,207.36z M242.58,54.41c-1.48,0-2.86,0.57-3.91,1.62l-70.32,70.32
		c-1.04,1.04-1.62,2.43-1.62,3.91s0.58,2.86,1.62,3.91l70.58,70.58c1.04,1.04,2.43,1.62,3.91,1.62s2.86-0.57,3.91-1.62l70.32-70.32
		c1.04-1.04,1.62-2.43,1.62-3.91s-0.58-2.86-1.62-3.91l-70.58-70.58C245.44,54.98,244.05,54.41,242.58,54.41z"/>
</g>
<g>
	<path class="st4" d="M213.03,119.52c0,1.23,0,2.57,1.17,3.56c0.59,0.51,1.61,0.84,2.42,0.84c0.81,0,1.83-0.33,2.42-0.84
		c1.17-0.99,1.17-2.33,1.17-3.56v-9h1.63v9.44c0,1.23-0.13,2.42-0.92,3.52c-0.88,1.21-2.42,1.98-4.29,1.98s-3.41-0.77-4.29-1.98
		c-0.79-1.1-0.92-2.29-0.92-3.52v-9.44h1.63V119.52z"/>
	<path class="st4" d="M228.98,118.18c-0.22-0.53-0.68-0.92-1.28-0.92c-0.57,0-1.1,0.33-1.1,1.03c0,0.66,0.44,0.86,1.47,1.3
		c1.32,0.55,1.94,0.97,2.29,1.41c0.4,0.48,0.48,0.97,0.48,1.47c0,1.91-1.39,2.99-3.15,2.99c-0.37,0-2.42-0.04-3.19-2.33l1.36-0.57
		c0.18,0.48,0.7,1.5,1.85,1.5c1.03,0,1.5-0.77,1.5-1.45c0-0.86-0.62-1.14-1.47-1.52c-1.1-0.48-1.8-0.84-2.22-1.34
		c-0.35-0.44-0.42-0.88-0.42-1.34c0-1.61,1.12-2.55,2.66-2.55c0.48,0,1.78,0.09,2.51,1.65L228.98,118.18z"/>
	<path class="st4" d="M234.55,121.39c0,0.64,0,1.39,0.44,1.96c0.24,0.31,0.73,0.7,1.61,0.7s1.36-0.4,1.61-0.7
		c0.44-0.57,0.44-1.32,0.44-1.96v-5.32h1.58v5.5c0,1.12-0.11,1.96-0.84,2.75c-0.81,0.86-1.89,1.14-2.79,1.14s-1.98-0.29-2.79-1.14
		c-0.73-0.79-0.84-1.63-0.84-2.75v-5.5h1.58V121.39z"/>
	<path class="st4" d="M250.21,116.07h1.58v9.13h-1.58v-1.28c-0.53,0.68-1.52,1.54-3.12,1.54c-2.31,0-4.44-1.63-4.44-4.84
		c0-3.15,2.11-4.77,4.44-4.77c1.76,0,2.71,0.97,3.12,1.52V116.07z M244.27,120.62c0,1.96,1.1,3.43,2.99,3.43
		c1.94,0,3.04-1.61,3.04-3.41c0-2.35-1.63-3.39-3.04-3.39C245.7,117.26,244.27,118.4,244.27,120.62z M250.21,111.29l-2.95,2.97
		l-0.99-0.53l2.31-3.19L250.21,111.29z"/>
	<path class="st4" d="M254.79,116.07h1.58v0.99c0.15-0.24,0.84-1.21,2.07-1.21c0.48,0,1.01,0.18,1.41,0.37l-0.75,1.43
		c-0.35-0.24-0.68-0.31-0.92-0.31c-0.64,0-1.03,0.26-1.28,0.57c-0.26,0.35-0.53,0.97-0.53,2.46v4.82h-1.58V116.07z"/>
	<path class="st4" d="M262.09,111.49c0.62,0,1.12,0.51,1.12,1.12s-0.51,1.12-1.12,1.12s-1.12-0.51-1.12-1.12
		S261.47,111.49,262.09,111.49z M262.88,116.07v9.13h-1.58v-9.13H262.88z"/>
	<path class="st4" d="M265.3,120.67c0-2.77,2.05-4.82,4.84-4.82c2.79,0,4.84,2.05,4.84,4.82c0,2.77-2.07,4.8-4.84,4.8
		S265.3,123.44,265.3,120.67z M266.93,120.67c0,2.24,1.58,3.39,3.21,3.39c1.65,0,3.21-1.17,3.21-3.39c0-2.25-1.54-3.41-3.21-3.41
		C268.47,117.26,266.93,118.45,266.93,120.67z"/>
	<path class="st4" d="M209.82,135.56v16.04h-1.58v-16.04H209.82z"/>
	<path class="st4" d="M212.24,147.07c0-2.77,2.05-4.82,4.84-4.82c2.79,0,4.84,2.05,4.84,4.82s-2.07,4.8-4.84,4.8
		S212.24,149.84,212.24,147.07z M213.87,147.07c0,2.24,1.58,3.39,3.21,3.39c1.65,0,3.21-1.17,3.21-3.39c0-2.25-1.54-3.41-3.21-3.41
		S213.87,144.85,213.87,147.07z"/>
	<path class="st4" d="M231.33,142.47h1.58v8.91c0,0.99,0,2.4-0.88,3.59c-0.68,0.92-1.94,1.69-3.65,1.69c-1.56,0-2.64-0.62-3.26-1.23
		c-0.62-0.62-1.19-1.61-1.19-2.95h1.56c0,0.77,0.31,1.45,0.7,1.89c0.66,0.73,1.5,0.88,2.2,0.88c1.12,0,1.89-0.4,2.42-1.28
		c0.46-0.75,0.51-1.56,0.51-2.33v-1.32c-0.53,0.68-1.52,1.54-3.12,1.54c-1.34,0-2.42-0.53-3.12-1.23c-0.62-0.62-1.32-1.76-1.32-3.61
		c0-1.78,0.66-2.88,1.32-3.54c0.77-0.75,1.89-1.23,3.12-1.23c1.34,0,2.4,0.57,3.12,1.52V142.47z M226.32,144.52
		c-0.77,0.79-0.92,1.76-0.92,2.51c0,0.79,0.15,1.87,1.03,2.68c0.51,0.46,1.12,0.75,1.96,0.75s1.5-0.26,2-0.77
		c0.62-0.59,1.03-1.56,1.03-2.64s-0.4-2.02-0.97-2.57c-0.51-0.51-1.25-0.81-2.07-0.81C227.42,143.66,226.76,144.07,226.32,144.52z"
		/>
	<path class="st4" d="M242.91,142.47h1.58v9.13h-1.58v-1.28c-0.53,0.68-1.52,1.54-3.12,1.54c-2.31,0-4.44-1.63-4.44-4.84
		c0-3.15,2.11-4.78,4.44-4.78c1.76,0,2.71,0.97,3.12,1.52V142.47z M236.97,147.02c0,1.96,1.1,3.43,2.99,3.43
		c1.94,0,3.04-1.61,3.04-3.41c0-2.35-1.63-3.39-3.04-3.39C238.4,143.66,236.97,144.8,236.97,147.02z"/>
	<path class="st4" d="M254.48,135.56h1.58v16.04h-1.58v-1.28c-0.53,0.68-1.52,1.54-3.12,1.54c-2.31,0-4.44-1.63-4.44-4.84
		c0-3.15,2.11-4.78,4.44-4.78c1.76,0,2.71,0.97,3.12,1.52V135.56z M248.54,147.02c0,1.96,1.1,3.43,2.99,3.43
		c1.94,0,3.04-1.61,3.04-3.41c0-2.35-1.63-3.39-3.04-3.39C249.97,143.66,248.54,144.8,248.54,147.02z"/>
	<path class="st4" d="M258.48,147.07c0-2.77,2.05-4.82,4.84-4.82c2.79,0,4.84,2.05,4.84,4.82s-2.07,4.8-4.84,4.8
		S258.48,149.84,258.48,147.07z M260.11,147.07c0,2.24,1.58,3.39,3.21,3.39c1.65,0,3.21-1.17,3.21-3.39c0-2.25-1.54-3.41-3.21-3.41
		S260.11,144.85,260.11,147.07z"/>
	<path class="st4" d="M277.03,145.24c0,1.03-0.35,1.92-0.9,2.49c-0.35,0.38-1.06,0.88-2.27,0.88c-1.12,0-1.85-0.44-2.29-0.88
		c-0.35-0.35-0.88-1.08-0.88-2.27c0-1.56,0.88-2.29,1.85-2.73c0.77-0.35,1.39-0.44,1.85-0.62c1.3-0.46,1.41-1.36,1.41-1.94
		c0-0.44-0.07-1.08-0.57-1.54c-0.24-0.22-0.66-0.46-1.34-0.46c-0.51,0-1.03,0.13-1.39,0.46c-0.4,0.37-0.57,0.99-0.57,1.47
		c0,0.29,0.04,0.64,0.13,0.92h-1.63c-0.07-0.31-0.09-0.62-0.09-0.97c0-0.7,0.13-1.63,0.84-2.38c0.53-0.57,1.39-1.01,2.68-1.01
		c0.97,0,1.87,0.22,2.6,0.95c0.46,0.46,0.97,1.25,0.97,2.6c0,0.79-0.18,1.5-0.75,2.16c-0.46,0.53-1.03,0.86-1.69,1.1
		c-0.51,0.18-1.06,0.31-1.58,0.55c-0.33,0.15-1.08,0.51-1.08,1.54c0,0.57,0.22,0.92,0.44,1.14c0.2,0.2,0.55,0.4,1.08,0.4
		c0.46,0,0.84-0.15,1.08-0.4c0.33-0.33,0.53-0.95,0.53-1.47H277.03z M273.88,149.66c0.59,0,1.1,0.51,1.1,1.1
		c0,0.59-0.51,1.1-1.1,1.1s-1.1-0.51-1.1-1.1C272.78,150.17,273.29,149.66,273.88,149.66z"/>
</g>
<g>
	<rect x="207.39" y="246.78" class="st2" width="67.8" height="34.91"/>
</g>
<g>
	<path class="st4" d="M226.5,268.92V256.4l9.36,9.81v-9.31h1.33v12.55l-9.36-9.81v9.27H226.5z"/>
	<path class="st4" d="M245.69,261.44h1.3v7.47h-1.3v-1.04c-0.43,0.56-1.24,1.26-2.56,1.26c-1.89,0-3.64-1.33-3.64-3.96
		c0-2.58,1.73-3.91,3.64-3.91c1.44,0,2.21,0.79,2.56,1.24V261.44z M240.83,265.17c0,1.6,0.9,2.81,2.45,2.81
		c1.58,0,2.49-1.31,2.49-2.79c0-1.93-1.33-2.77-2.49-2.77C242,262.42,240.83,263.35,240.83,265.17z M240.93,259.36
		c0.16-0.27,0.41-0.61,0.61-0.81c0.34-0.32,0.65-0.43,1.03-0.43c0.49,0,0.86,0.16,1.26,0.36c0.41,0.22,0.67,0.36,1.01,0.36
		c0.22,0,0.36-0.04,0.52-0.22c0.13-0.14,0.31-0.41,0.38-0.56l0.74,0.61c-0.09,0.23-0.23,0.47-0.47,0.7
		c-0.41,0.43-0.85,0.54-1.19,0.54c-0.43,0-0.9-0.22-1.24-0.38c-0.43-0.2-0.72-0.34-0.99-0.34c-0.22,0-0.36,0.09-0.52,0.25
		s-0.29,0.36-0.38,0.52L240.93,259.36z"/>
	<path class="st4" d="M248.96,265.21c0-2.27,1.67-3.94,3.96-3.94c2.29,0,3.96,1.67,3.96,3.94s-1.69,3.92-3.96,3.92
		S248.96,267.48,248.96,265.21z M250.29,265.21c0,1.84,1.3,2.77,2.63,2.77c1.35,0,2.63-0.95,2.63-2.77c0-1.84-1.26-2.79-2.63-2.79
		S250.29,263.39,250.29,265.21z"/>
</g>
<g>
	<rect x="370.66" y="107.02" class="st2" width="40.79" height="60.44"/>
</g>
<g>
	<path class="st4" d="M384.2,124.31c-0.16-0.32-0.43-0.68-0.7-0.9c-0.23-0.18-0.67-0.41-1.35-0.41c-1.19,0-2.02,0.74-2.02,1.85
		c0,0.47,0.13,0.74,0.45,1.04c0.36,0.36,0.81,0.56,1.26,0.76l1.15,0.5c0.7,0.31,1.35,0.63,1.85,1.13c0.61,0.61,0.86,1.31,0.86,2.18
		c0,2.21-1.64,3.69-3.8,3.69c-0.79,0-1.78-0.16-2.61-0.97c-0.59-0.58-0.95-1.4-1.12-2.12l1.3-0.36c0.09,0.63,0.38,1.17,0.72,1.53
		c0.52,0.52,1.12,0.67,1.73,0.67c1.64,0,2.41-1.17,2.41-2.38c0-0.54-0.16-1.01-0.59-1.4c-0.34-0.32-0.81-0.54-1.44-0.83l-1.08-0.5
		c-0.47-0.22-1.06-0.47-1.6-0.99c-0.52-0.5-0.83-1.06-0.83-1.96c0-1.85,1.42-3.1,3.37-3.1c0.74,0,1.33,0.14,1.93,0.54
		c0.49,0.32,0.9,0.81,1.17,1.33L384.2,124.31z"/>
	<path class="st4" d="M388.48,122.72c0.5,0,0.92,0.42,0.92,0.92s-0.42,0.92-0.92,0.92s-0.92-0.41-0.92-0.92
		S387.98,122.72,388.48,122.72z M389.13,126.47v7.47h-1.3v-7.47H389.13z"/>
	<path class="st4" d="M391.58,126.47h1.3v0.79c0.42-0.61,1.06-0.97,1.86-0.97c1.35,0,1.89,0.95,2.03,1.21
		c0.72-1.13,1.75-1.21,2.25-1.21c2.21,0,2.43,1.85,2.43,2.92v4.74h-1.3v-4.54c0-0.85-0.11-1.96-1.33-1.96
		c-1.49,0-1.66,1.44-1.66,2.34v4.16h-1.3v-4.43c0-0.52,0.02-2.07-1.35-2.07c-1.48,0-1.64,1.53-1.64,2.43v4.07h-1.3V126.47z"/>
</g>
</svg>
