<?xml version="1.0" encoding="utf-8"?>
<!-- Generator: Adobe Illustrator 27.9.0, SVG Export Plug-In . SVG Version: 6.00 Build 0)  -->
<svg version="1.1" xmlns="http://www.w3.org/2000/svg" xmlns:xlink="http://www.w3.org/1999/xlink" x="0px" y="0px"
	 width="196px" height="62.453px" viewBox="0 0 196 62.45" style="enable-background:new 0 0 196 62.45;" xml:space="preserve" fill="#53565a">
<g id="logo_felipe_gomes">
	<g id="felipegomes">
		<g id="felipe">
			<path class="st4" d="M6.39,7.89v4.11h5.24v5.41H6.39v9.66H0V2.48h14.12v5.42H6.39z"/>
			<path class="st4" d="M30.72,19.71h-12.5c0,2.42,1.27,3.72,3.72,3.72c1.27,0,2.19-0.42,2.84-1.53h5.71
				c-0.45,1.96-1.63,3.39-3.17,4.34c-1.53,0.95-3.43,1.41-5.35,1.41c-5.55,0-9.69-3.13-9.69-8.91c0-5.58,3.82-8.94,9.26-8.94
				c5.81,0,9.17,3.59,9.17,9.3V19.71z M25.2,16.28c-0.29-1.6-1.76-2.64-3.36-2.64c-1.73,0-3.16,0.91-3.52,2.64H25.2z"/>
			<path class="st4" d="M37.74,27.08H31.8V0h5.94V27.08z"/>
			<path class="st4" d="M45.46,3.92c0,1.83-1.5,3.33-3.33,3.33c-1.83,0-3.33-1.5-3.33-3.33c0-1.83,1.5-3.33,3.33-3.33
				C43.96,0.59,45.46,2.09,45.46,3.92z M45.1,27.08h-5.94V10.34h5.94V27.08z"/>
			<path class="st4" d="M52.64,12.24h0.07c1.08-1.67,3.1-2.45,5.06-2.45c4.99,0,8.45,4.18,8.45,8.97c0,4.83-3.43,8.88-8.38,8.88
				c-1.93,0-3.92-0.69-5.19-2.15v9.22h-5.94V10.34h5.94V12.24z M52.45,18.73c0,2.12,1.4,3.75,3.82,3.75c2.41,0,3.82-1.63,3.82-3.75
				c0-2.05-1.4-3.78-3.82-3.78C53.85,14.94,52.45,16.67,52.45,18.73z"/>
			<path class="st4" d="M85.33,19.71H72.84c0,2.42,1.27,3.72,3.72,3.72c1.27,0,2.19-0.42,2.84-1.53h5.71
				c-0.46,1.96-1.63,3.39-3.16,4.34c-1.54,0.95-3.43,1.41-5.35,1.41c-5.55,0-9.69-3.13-9.69-8.91c0-5.58,3.82-8.94,9.27-8.94
				c5.81,0,9.17,3.59,9.17,9.3V19.71z M79.82,16.28c-0.29-1.6-1.76-2.64-3.36-2.64c-1.73,0-3.17,0.91-3.53,2.64H79.82z"/>
		</g>
		<g id="gomes">
			<path class="st4" d="M113.03,13.35c-0.07,3.59-0.33,6.65-2.51,9.72c-2.42,3.36-6.04,4.83-10.14,4.83
				c-7.74,0-13.12-5.25-13.12-12.98c0-7.99,5.41-13.25,13.34-13.25c5.05,0,8.97,2.29,11.09,6.89l-6.07,2.54
				c-0.88-2.35-2.74-3.91-5.32-3.91c-4.21,0-6.4,4.01-6.4,7.77c0,3.81,2.29,7.7,6.49,7.7c2.77,0,4.89-1.43,5.15-4.28h-5.22v-5.02
				H113.03z"/>
			<path class="st4" d="M133.41,18.73c0,5.68-4.7,8.91-10.08,8.91c-5.35,0-10.09-3.2-10.09-8.91c0-5.71,4.7-8.94,10.09-8.94
				C128.71,9.79,133.41,13.02,133.41,18.73z M119.5,18.73c0,2.12,1.4,3.75,3.82,3.75c2.41,0,3.82-1.63,3.82-3.75
				c0-2.05-1.4-3.78-3.82-3.78C120.91,14.94,119.5,16.67,119.5,18.73z"/>
			<path class="st4" d="M140.3,12.43h0.07c1.4-1.86,3.13-2.64,5.28-2.64c2.41,0,4.5,0.98,5.71,3.2c1.15-2.09,3.39-3.2,5.68-3.2
				c4.24,0,5.71,2.78,5.71,6.63v10.66h-5.94v-7.99c0-1.73,0.06-4.57-2.45-4.57c-2.74,0-2.84,2.57-2.84,4.57v7.99h-5.94v-7.99
				c0-1.86,0-4.7-2.64-4.7c-2.65,0-2.65,2.84-2.65,4.7v7.99h-5.93V10.34h5.93V12.43z"/>
			<path class="st4" d="M181.83,19.71h-12.49c0,2.42,1.27,3.72,3.71,3.72c1.27,0,2.19-0.42,2.84-1.53h5.71
				c-0.46,1.96-1.63,3.39-3.16,4.34c-1.53,0.95-3.43,1.41-5.35,1.41c-5.55,0-9.69-3.13-9.69-8.91c0-5.58,3.81-8.94,9.26-8.94
				c5.81,0,9.17,3.59,9.17,9.3V19.71z M176.31,16.28c-0.29-1.6-1.76-2.64-3.36-2.64c-1.73,0-3.16,0.91-3.52,2.64H176.31z"/>
			<path class="st4" d="M193.52,14.65c-0.91-0.49-2.18-0.82-3.2-0.82c-0.68,0-1.86,0.29-1.86,1.14c0,1.14,1.86,1.31,2.68,1.47
				C193.91,17,196,18.3,196,21.4c0,4.4-4.01,6.23-7.9,6.23c-2.38,0-4.73-0.69-6.75-1.93l2.16-4.14c1.2,0.85,3.23,1.7,4.7,1.7
				c0.75,0,1.85-0.36,1.85-1.28c0-1.3-1.85-1.37-3.71-1.86c-1.86-0.49-3.72-1.4-3.72-4.41c0-4.11,3.72-5.94,7.38-5.94
				c1.89,0,3.78,0.29,5.51,1.08L193.52,14.65z"/>
		</g>
	</g>
	<g id="designcode">
		<g id="design">
			<path class="st4" d="M0,32.68h3.78c1.86,0,4.5,0.19,6.83,2.17c1.69,1.42,3.17,3.78,3.17,7.11c0,3.89-1.92,5.97-3.25,7.11
				c-1.69,1.44-3.47,2.14-6.78,2.14H0V32.68z M2.06,49.26h1.81c1.47,0,3.5-0.17,5.3-1.67c1.39-1.17,2.5-3,2.5-5.64
				c0-4.44-3.11-7.33-7.8-7.33H2.06V49.26z"/>
			<path class="st4" d="M27.27,48.26c-0.33,0.64-0.83,1.33-1.42,1.86c-1.06,0.94-2.36,1.42-3.83,1.42c-2.78,0-5.69-1.75-5.69-6.03
				c0-3.44,2.11-6.11,5.58-6.11c2.25,0,3.67,1.11,4.36,2.11c0.72,1.03,1.14,2.81,1.08,4.33h-8.97c0.03,2.39,1.67,3.92,3.67,3.92
				c0.94,0,1.69-0.28,2.36-0.83c0.53-0.44,0.94-1.03,1.19-1.58L27.27,48.26z M25.29,44.18c-0.33-1.8-1.69-3-3.39-3
				c-1.69,0-3.08,1.28-3.39,3H25.29z"/>
			<path class="st4" d="M35.15,42.35c-0.28-0.67-0.86-1.17-1.61-1.17c-0.72,0-1.39,0.42-1.39,1.31c0,0.83,0.56,1.08,1.86,1.64
				c1.67,0.69,2.44,1.22,2.89,1.78c0.5,0.61,0.61,1.22,0.61,1.86c0,2.42-1.75,3.78-3.97,3.78c-0.47,0-3.05-0.06-4.03-2.94l1.72-0.72
				c0.22,0.61,0.89,1.89,2.33,1.89c1.31,0,1.89-0.97,1.89-1.83c0-1.08-0.78-1.44-1.86-1.92c-1.39-0.61-2.28-1.05-2.8-1.69
				c-0.44-0.56-0.53-1.11-0.53-1.69c0-2.03,1.42-3.22,3.36-3.22c0.61,0,2.25,0.11,3.17,2.08L35.15,42.35z"/>
			<path class="st4" d="M41.17,33.91c0.78,0,1.42,0.64,1.42,1.42s-0.64,1.42-1.42,1.42s-1.42-0.64-1.42-1.42S40.4,33.91,41.17,33.91
				z M42.17,39.68v11.53h-2V39.68H42.17z"/>
			<path class="st4" d="M54.78,39.68h2v11.25c0,1.25,0,3.03-1.11,4.53c-0.86,1.17-2.44,2.14-4.61,2.14c-1.97,0-3.33-0.78-4.11-1.56
				s-1.5-2.03-1.5-3.72h1.97c0,0.97,0.39,1.83,0.89,2.39c0.83,0.92,1.89,1.11,2.78,1.11c1.42,0,2.39-0.5,3.06-1.61
				c0.58-0.94,0.64-1.97,0.64-2.94V49.6c-0.67,0.86-1.92,1.94-3.94,1.94c-1.69,0-3.06-0.67-3.94-1.55
				c-0.78-0.78-1.67-2.22-1.67-4.55c0-2.25,0.83-3.64,1.67-4.47c0.97-0.94,2.39-1.56,3.94-1.56c1.69,0,3.03,0.72,3.94,1.92V39.68z
				 M48.45,42.27c-0.97,1-1.17,2.22-1.17,3.17c0,1,0.19,2.36,1.31,3.39c0.64,0.58,1.42,0.94,2.47,0.94c1.06,0,1.89-0.33,2.53-0.97
				c0.78-0.75,1.31-1.97,1.31-3.33c0-1.36-0.5-2.55-1.22-3.25c-0.64-0.64-1.58-1.03-2.61-1.03C49.84,41.18,49,41.71,48.45,42.27z"/>
			<path class="st4" d="M60.55,39.68h2v1.33c0.36-0.47,1.39-1.61,3.31-1.61c1.36,0,2.61,0.56,3.3,1.58c0.58,0.86,0.67,1.8,0.67,3.08
				v7.14h-2v-7.08c0-0.69-0.06-1.5-0.53-2.11c-0.39-0.5-1-0.83-1.89-0.83c-0.69,0-1.44,0.19-2.03,0.89
				c-0.78,0.92-0.83,2.28-0.83,3.11v6.03h-2V39.68z"/>
		</g>
		<path id="and" class="st4" d="M88.15,44.43c-0.5,0.69-1.22,1.58-2.36,2.75l3.11,4.03h-2.55l-2-2.58
			c-1.61,1.61-3.86,2.92-5.97,2.92c-3.03,0-5.36-2.19-5.36-5.14c0-2,1.06-3.22,1.67-3.83c0.97-0.97,2.72-2.05,3.11-2.3
			c-1.25-1.61-1.83-2.72-1.83-3.97c0-1.94,1.36-3.92,4.03-3.92c2.58,0,3.92,1.86,3.92,3.72c0,0.86-0.25,2.08-1.72,3.36
			c-0.47,0.42-0.31,0.19-1.5,1.19l3.86,4.97c1-1.06,1.58-1.72,2.11-2.44L88.15,44.43z M78.99,41.79c-1.36,0.83-2.08,1.44-2.61,1.92
			c-0.53,0.47-1.31,1.22-1.31,2.67c0,1.83,1.36,3.28,3.28,3.28c1.97,0,4.05-1.89,4.75-2.56L78.99,41.79z M79.49,39.16l1.22-0.94
			c1.06-0.83,1.25-1.5,1.25-2.14c0-1.31-1.03-1.92-2-1.92c-1.14,0-2.06,0.86-2.06,2.03c0,0.81,0.39,1.33,0.75,1.83L79.49,39.16z"/>
		<g id="code">
			<path class="st4" d="M105.73,36.77c-0.58-0.58-1.47-1.28-2.42-1.72c-0.97-0.44-2.11-0.72-3.19-0.72c-4.28,0-7.44,3.44-7.44,7.72
				c0,5.03,4.08,7.55,7.47,7.55c1.25,0,2.47-0.36,3.44-0.86c1.06-0.53,1.81-1.22,2.14-1.55v2.55c-2.06,1.47-4.19,1.8-5.58,1.8
				c-5.5,0-9.58-4.17-9.58-9.53c0-5.53,4.14-9.64,9.69-9.64c1.11,0,3.25,0.14,5.47,1.83V36.77z"/>
			<path class="st4" d="M108.28,45.49c0-3.5,2.58-6.08,6.11-6.08c3.53,0,6.11,2.58,6.11,6.08s-2.61,6.05-6.11,6.05
				S108.28,48.99,108.28,45.49z M110.33,45.49c0,2.83,2,4.28,4.05,4.28c2.08,0,4.05-1.47,4.05-4.28c0-2.83-1.94-4.3-4.05-4.3
				C112.28,41.18,110.33,42.68,110.33,45.49z"/>
			<path class="st4" d="M132.38,30.96h2v20.25h-2V49.6c-0.67,0.86-1.92,1.94-3.94,1.94c-2.92,0-5.61-2.05-5.61-6.11
				c0-3.97,2.67-6.03,5.61-6.03c2.22,0,3.42,1.22,3.94,1.92V30.96z M124.88,45.43c0,2.47,1.39,4.33,3.78,4.33
				c2.44,0,3.83-2.03,3.83-4.3c0-2.97-2.06-4.28-3.83-4.28C126.69,41.18,124.88,42.63,124.88,45.43z"/>
			<path class="st4" d="M148.37,48.26c-0.33,0.64-0.83,1.33-1.42,1.86c-1.05,0.94-2.36,1.42-3.83,1.42c-2.78,0-5.69-1.75-5.69-6.03
				c0-3.44,2.11-6.11,5.58-6.11c2.25,0,3.67,1.11,4.36,2.11c0.72,1.03,1.14,2.81,1.08,4.33h-8.97c0.03,2.39,1.67,3.92,3.67,3.92
				c0.94,0,1.69-0.28,2.36-0.83c0.53-0.44,0.94-1.03,1.19-1.58L148.37,48.26z M146.4,44.18c-0.33-1.8-1.69-3-3.39-3
				c-1.69,0-3.08,1.28-3.39,3H146.4z"/>
		</g>
	</g>
</g>
</svg>
